<mxfile host="app.diagrams.net" modified="2024-04-21T00:22:54.254Z" agent="Mozilla/5.0 (X11; Linux x86_64) AppleWebKit/537.36 (KHTML, like Gecko) Chrome/123.0.0.0 Safari/537.36" etag="lIRvfC5gQHkDU3ceO-g_" version="24.2.7" type="device">
  <diagram name="Page-1" id="kUHba3QklkpE5eCvHbKW">
    <mxGraphModel dx="1154" dy="1704" grid="1" gridSize="10" guides="1" tooltips="1" connect="1" arrows="1" fold="1" page="1" pageScale="1" pageWidth="827" pageHeight="1169" math="0" shadow="0">
      <root>
        <mxCell id="0" />
        <mxCell id="1" parent="0" />
        <mxCell id="hvf4bfHNcFgB4ICie03p-3" value="" style="edgeStyle=orthogonalEdgeStyle;rounded=0;orthogonalLoop=1;jettySize=auto;html=1;" parent="1" source="hvf4bfHNcFgB4ICie03p-1" target="hvf4bfHNcFgB4ICie03p-2" edge="1">
          <mxGeometry relative="1" as="geometry" />
        </mxCell>
        <mxCell id="hvf4bfHNcFgB4ICie03p-1" value="Budget: 100,&lt;div&gt;Days: 7&lt;/div&gt;&lt;div&gt;Activities: hiking&lt;/div&gt;&lt;div&gt;Weather: sunny&lt;/div&gt;&lt;div&gt;Continent: Europe&lt;/div&gt;&lt;div&gt;&lt;br&gt;&lt;/div&gt;" style="rounded=0;whiteSpace=wrap;html=1;" parent="1" vertex="1">
          <mxGeometry x="30" y="70" width="120" height="150" as="geometry" />
        </mxCell>
        <mxCell id="hvf4bfHNcFgB4ICie03p-12" value="JSON" style="edgeStyle=orthogonalEdgeStyle;rounded=0;orthogonalLoop=1;jettySize=auto;html=1;exitX=1;exitY=0.5;exitDx=0;exitDy=0;entryX=0;entryY=0.5;entryDx=0;entryDy=0;" parent="1" source="hvf4bfHNcFgB4ICie03p-2" target="hvf4bfHNcFgB4ICie03p-13" edge="1">
          <mxGeometry relative="1" as="geometry">
            <mxPoint x="569.9999999999998" y="170" as="targetPoint" />
            <Array as="points">
              <mxPoint x="510" y="145" />
              <mxPoint x="510" y="250" />
            </Array>
          </mxGeometry>
        </mxCell>
        <mxCell id="hvf4bfHNcFgB4ICie03p-2" value="CHAT GPT&lt;div&gt;{&lt;/div&gt;&lt;span style=&quot;background-color: initial;&quot;&gt;recomended_cities&lt;/span&gt;: #according to activities&lt;br&gt;&lt;div&gt;[Barcelona, Athens, Rome, Amsterdam ...]&lt;/div&gt;&lt;div&gt;&amp;nbsp;}&lt;/div&gt;" style="rounded=0;whiteSpace=wrap;html=1;" parent="1" vertex="1">
          <mxGeometry x="210" y="95" width="280" height="100" as="geometry" />
        </mxCell>
        <mxCell id="hvf4bfHNcFgB4ICie03p-4" value="Chat bot" style="text;html=1;align=center;verticalAlign=middle;whiteSpace=wrap;rounded=0;" parent="1" vertex="1">
          <mxGeometry x="50" y="30" width="60" height="30" as="geometry" />
        </mxCell>
        <mxCell id="hvf4bfHNcFgB4ICie03p-9" style="edgeStyle=orthogonalEdgeStyle;rounded=0;orthogonalLoop=1;jettySize=auto;html=1;" parent="1" source="hvf4bfHNcFgB4ICie03p-5" target="hvf4bfHNcFgB4ICie03p-8" edge="1">
          <mxGeometry relative="1" as="geometry" />
        </mxCell>
        <mxCell id="hvf4bfHNcFgB4ICie03p-5" value="Budget: 100,&lt;div&gt;Days: 7&lt;/div&gt;&lt;div&gt;Activities: hiking&lt;/div&gt;&lt;div&gt;Weather: sunny&lt;/div&gt;&lt;div&gt;Continent: Europe&lt;/div&gt;&lt;div&gt;&lt;br&gt;&lt;/div&gt;" style="rounded=0;whiteSpace=wrap;html=1;" parent="1" vertex="1">
          <mxGeometry x="30" y="300" width="120" height="150" as="geometry" />
        </mxCell>
        <mxCell id="hvf4bfHNcFgB4ICie03p-6" value="Classic Frontend" style="text;html=1;align=center;verticalAlign=middle;whiteSpace=wrap;rounded=0;" parent="1" vertex="1">
          <mxGeometry x="50" y="260" width="60" height="30" as="geometry" />
        </mxCell>
        <mxCell id="hvf4bfHNcFgB4ICie03p-11" value="JSON" style="edgeStyle=orthogonalEdgeStyle;rounded=0;orthogonalLoop=1;jettySize=auto;html=1;exitX=1;exitY=0.5;exitDx=0;exitDy=0;entryX=0;entryY=0.5;entryDx=0;entryDy=0;" parent="1" source="hvf4bfHNcFgB4ICie03p-8" target="hvf4bfHNcFgB4ICie03p-13" edge="1">
          <mxGeometry relative="1" as="geometry">
            <mxPoint x="569.9999999999998" y="210" as="targetPoint" />
            <Array as="points">
              <mxPoint x="510" y="375" />
              <mxPoint x="510" y="250" />
            </Array>
          </mxGeometry>
        </mxCell>
        <mxCell id="hvf4bfHNcFgB4ICie03p-8" value="CHAT GPT&lt;div&gt;{&lt;/div&gt;&lt;div&gt;&lt;span style=&quot;background-color: initial;&quot;&gt;recomended_cities&lt;/span&gt;: #according to activities&lt;br&gt;[Barcelona, Athens, Rome, Amsterdam ...]&lt;/div&gt;&lt;div&gt;prefer_sunny: true, prefer_rain:false, prefer_snow: false}&lt;/div&gt;" style="rounded=0;whiteSpace=wrap;html=1;" parent="1" vertex="1">
          <mxGeometry x="210" y="330" width="280" height="90" as="geometry" />
        </mxCell>
        <mxCell id="hvf4bfHNcFgB4ICie03p-10" value="Python flask api&lt;div&gt;/find_cities&lt;/div&gt;" style="text;html=1;align=center;verticalAlign=middle;whiteSpace=wrap;rounded=0;" parent="1" vertex="1">
          <mxGeometry x="130" y="290" width="160" height="30" as="geometry" />
        </mxCell>
        <mxCell id="hvf4bfHNcFgB4ICie03p-16" value="JSON" style="edgeStyle=orthogonalEdgeStyle;rounded=0;orthogonalLoop=1;jettySize=auto;html=1;" parent="1" source="hvf4bfHNcFgB4ICie03p-13" target="hvf4bfHNcFgB4ICie03p-15" edge="1">
          <mxGeometry relative="1" as="geometry" />
        </mxCell>
        <mxCell id="hvf4bfHNcFgB4ICie03p-13" value="For each city, find the weather and match it with the user preferences" style="rounded=0;whiteSpace=wrap;html=1;" parent="1" vertex="1">
          <mxGeometry x="580" y="190" width="120" height="130" as="geometry" />
        </mxCell>
        <mxCell id="hvf4bfHNcFgB4ICie03p-22" value="Athens_GR" style="edgeStyle=orthogonalEdgeStyle;rounded=0;orthogonalLoop=1;jettySize=auto;html=1;entryX=0;entryY=0.5;entryDx=0;entryDy=0;" parent="1" source="hvf4bfHNcFgB4ICie03p-15" target="hvf4bfHNcFgB4ICie03p-19" edge="1">
          <mxGeometry relative="1" as="geometry" />
        </mxCell>
        <mxCell id="hvf4bfHNcFgB4ICie03p-24" value="Thessaloniki_GR" style="edgeStyle=orthogonalEdgeStyle;rounded=0;orthogonalLoop=1;jettySize=auto;html=1;exitX=1;exitY=0.5;exitDx=0;exitDy=0;entryX=0;entryY=0.5;entryDx=0;entryDy=0;" parent="1" source="hvf4bfHNcFgB4ICie03p-15" target="hvf4bfHNcFgB4ICie03p-23" edge="1">
          <mxGeometry relative="1" as="geometry" />
        </mxCell>
        <mxCell id="hvf4bfHNcFgB4ICie03p-28" style="edgeStyle=orthogonalEdgeStyle;rounded=0;orthogonalLoop=1;jettySize=auto;html=1;exitX=1;exitY=0.5;exitDx=0;exitDy=0;entryX=0;entryY=0.5;entryDx=0;entryDy=0;" parent="1" source="hvf4bfHNcFgB4ICie03p-15" target="hvf4bfHNcFgB4ICie03p-25" edge="1">
          <mxGeometry relative="1" as="geometry" />
        </mxCell>
        <mxCell id="hvf4bfHNcFgB4ICie03p-29" value="Italy" style="edgeStyle=orthogonalEdgeStyle;rounded=0;orthogonalLoop=1;jettySize=auto;html=1;exitX=1;exitY=0.5;exitDx=0;exitDy=0;entryX=0;entryY=0.5;entryDx=0;entryDy=0;" parent="1" source="hvf4bfHNcFgB4ICie03p-15" target="hvf4bfHNcFgB4ICie03p-26" edge="1">
          <mxGeometry x="0.8029" relative="1" as="geometry">
            <mxPoint as="offset" />
          </mxGeometry>
        </mxCell>
        <mxCell id="hvf4bfHNcFgB4ICie03p-30" value="Amsterdam" style="edgeStyle=orthogonalEdgeStyle;rounded=0;orthogonalLoop=1;jettySize=auto;html=1;exitX=1;exitY=0.5;exitDx=0;exitDy=0;entryX=0;entryY=0.5;entryDx=0;entryDy=0;" parent="1" source="hvf4bfHNcFgB4ICie03p-15" target="hvf4bfHNcFgB4ICie03p-27" edge="1">
          <mxGeometry x="0.8439" y="2" relative="1" as="geometry">
            <mxPoint as="offset" />
          </mxGeometry>
        </mxCell>
        <mxCell id="hvf4bfHNcFgB4ICie03p-15" value="{cities:[&lt;div&gt;&#39;Athens_GR&#39;:{&lt;/div&gt;&lt;div&gt;avg_temp: 22,&lt;/div&gt;&lt;div&gt;percentage_of_sunny; 100%&lt;/div&gt;&lt;div&gt;percentage_of_snow; 0%&lt;br&gt;&lt;/div&gt;&lt;div&gt;percentage_of_rain; 3%&lt;/div&gt;&lt;div&gt;},&lt;br&gt;&lt;div&gt;&quot;Thessaloniki_GR&#39;&#39;:{&lt;/div&gt;&lt;div&gt;avg_temp: 22,&lt;/div&gt;&lt;div&gt;percentage_of_sunny; 100%&lt;/div&gt;&lt;div&gt;percentage_of_snow; 0%&lt;br&gt;&lt;/div&gt;&lt;div&gt;percentage_of_rain; 3%&lt;/div&gt;&lt;div&gt;},&lt;/div&gt;&lt;/div&gt;&lt;div&gt;] ]&lt;/div&gt;" style="rounded=0;whiteSpace=wrap;html=1;" parent="1" vertex="1">
          <mxGeometry x="790" y="140" width="183" height="230" as="geometry" />
        </mxCell>
        <mxCell id="hvf4bfHNcFgB4ICie03p-17" value="&lt;span style=&quot;color: rgb(0, 0, 0); font-family: Helvetica; font-size: 12px; font-style: normal; font-variant-ligatures: normal; font-variant-caps: normal; font-weight: 400; letter-spacing: normal; orphans: 2; text-align: center; text-indent: 0px; text-transform: none; widows: 2; word-spacing: 0px; -webkit-text-stroke-width: 0px; white-space: normal; background-color: rgb(251, 251, 251); text-decoration-thickness: initial; text-decoration-style: initial; text-decoration-color: initial; display: inline !important; float: none;&quot;&gt;percentage_of_rain = the percentage of rainy days in the whole trip&lt;/span&gt;" style="text;whiteSpace=wrap;html=1;" parent="1" vertex="1">
          <mxGeometry x="750" y="80" width="140" height="80" as="geometry" />
        </mxCell>
        <mxCell id="hvf4bfHNcFgB4ICie03p-33" value="" style="edgeStyle=orthogonalEdgeStyle;rounded=0;orthogonalLoop=1;jettySize=auto;html=1;" parent="1" source="hvf4bfHNcFgB4ICie03p-19" target="hvf4bfHNcFgB4ICie03p-32" edge="1">
          <mxGeometry relative="1" as="geometry" />
        </mxCell>
        <mxCell id="hvf4bfHNcFgB4ICie03p-19" value="AVERAGE_PRICE_HOTEL&lt;div&gt;COST_OF_LIVING&lt;/div&gt;&lt;div&gt;FLIGHT&lt;/div&gt;&lt;div&gt;= SUM()&lt;/div&gt;" style="rounded=0;whiteSpace=wrap;html=1;" parent="1" vertex="1">
          <mxGeometry x="1090" y="140" width="200" height="65" as="geometry" />
        </mxCell>
        <mxCell id="hvf4bfHNcFgB4ICie03p-21" value="&lt;span style=&quot;color: rgb(0, 0, 0); font-family: Helvetica; font-size: 12px; font-style: normal; font-variant-ligatures: normal; font-variant-caps: normal; font-weight: 400; letter-spacing: normal; orphans: 2; text-align: center; text-indent: 0px; text-transform: none; widows: 2; word-spacing: 0px; -webkit-text-stroke-width: 0px; white-space: normal; background-color: rgb(251, 251, 251); text-decoration-thickness: initial; text-decoration-style: initial; text-decoration-color: initial; display: inline !important; float: none;&quot;&gt;Budget = 500&lt;/span&gt;" style="text;whiteSpace=wrap;html=1;" parent="1" vertex="1">
          <mxGeometry x="1210" y="70" width="100" height="30" as="geometry" />
        </mxCell>
        <mxCell id="hvf4bfHNcFgB4ICie03p-35" style="edgeStyle=orthogonalEdgeStyle;rounded=0;orthogonalLoop=1;jettySize=auto;html=1;exitX=1;exitY=0.5;exitDx=0;exitDy=0;entryX=0;entryY=0.5;entryDx=0;entryDy=0;" parent="1" source="hvf4bfHNcFgB4ICie03p-23" target="hvf4bfHNcFgB4ICie03p-34" edge="1">
          <mxGeometry relative="1" as="geometry" />
        </mxCell>
        <mxCell id="hvf4bfHNcFgB4ICie03p-23" value="AVERAGE_PRICE_HOTEL&lt;div&gt;COST_OF_LIVING&lt;/div&gt;&lt;div&gt;FLIGHT&lt;/div&gt;&lt;div&gt;= SUM()&lt;/div&gt;" style="rounded=0;whiteSpace=wrap;html=1;" parent="1" vertex="1">
          <mxGeometry x="1090" y="235" width="200" height="65" as="geometry" />
        </mxCell>
        <mxCell id="hvf4bfHNcFgB4ICie03p-37" style="edgeStyle=orthogonalEdgeStyle;rounded=0;orthogonalLoop=1;jettySize=auto;html=1;exitX=1;exitY=0.5;exitDx=0;exitDy=0;entryX=0;entryY=0.5;entryDx=0;entryDy=0;" parent="1" source="hvf4bfHNcFgB4ICie03p-25" target="hvf4bfHNcFgB4ICie03p-36" edge="1">
          <mxGeometry relative="1" as="geometry" />
        </mxCell>
        <mxCell id="hvf4bfHNcFgB4ICie03p-25" value="AVERAGE_PRICE_HOTEL&lt;div&gt;COST_OF_LIVING&lt;/div&gt;&lt;div&gt;FLIGHT&lt;/div&gt;&lt;div&gt;= SUM()&lt;/div&gt;" style="rounded=0;whiteSpace=wrap;html=1;" parent="1" vertex="1">
          <mxGeometry x="1090" y="342.5" width="200" height="65" as="geometry" />
        </mxCell>
        <mxCell id="hvf4bfHNcFgB4ICie03p-26" value="AVERAGE_PRICE_HOTEL&lt;div&gt;COST_OF_LIVING&lt;/div&gt;&lt;div&gt;FLIGHT&lt;/div&gt;&lt;div&gt;= SUM()&lt;/div&gt;" style="rounded=0;whiteSpace=wrap;html=1;" parent="1" vertex="1">
          <mxGeometry x="1090" y="420" width="200" height="65" as="geometry" />
        </mxCell>
        <mxCell id="hvf4bfHNcFgB4ICie03p-27" value="AVERAGE_PRICE_HOTEL&lt;div&gt;COST_OF_LIVING&lt;/div&gt;&lt;div&gt;FLIGHT&lt;/div&gt;&lt;div&gt;= SUM()&lt;/div&gt;" style="rounded=0;whiteSpace=wrap;html=1;" parent="1" vertex="1">
          <mxGeometry x="1090" y="500" width="200" height="65" as="geometry" />
        </mxCell>
        <mxCell id="hvf4bfHNcFgB4ICie03p-47" style="edgeStyle=orthogonalEdgeStyle;rounded=0;orthogonalLoop=1;jettySize=auto;html=1;exitX=1;exitY=0.5;exitDx=0;exitDy=0;" parent="1" source="hvf4bfHNcFgB4ICie03p-32" target="hvf4bfHNcFgB4ICie03p-45" edge="1">
          <mxGeometry relative="1" as="geometry" />
        </mxCell>
        <mxCell id="hvf4bfHNcFgB4ICie03p-32" value="150 $" style="rounded=0;whiteSpace=wrap;html=1;" parent="1" vertex="1">
          <mxGeometry x="1370" y="140" width="200" height="65" as="geometry" />
        </mxCell>
        <mxCell id="hvf4bfHNcFgB4ICie03p-34" value="200 $" style="rounded=0;whiteSpace=wrap;html=1;" parent="1" vertex="1">
          <mxGeometry x="1370" y="235" width="200" height="65" as="geometry" />
        </mxCell>
        <mxCell id="hvf4bfHNcFgB4ICie03p-36" value="600 $" style="rounded=0;whiteSpace=wrap;html=1;fillColor=#f8cecc;strokeColor=#b85450;" parent="1" vertex="1">
          <mxGeometry x="1370" y="342.5" width="200" height="65" as="geometry" />
        </mxCell>
        <mxCell id="hvf4bfHNcFgB4ICie03p-45" value="" style="shape=image;verticalLabelPosition=bottom;labelBackgroundColor=default;verticalAlign=top;aspect=fixed;imageAspect=0;image=data:image/png,iVBORw0KGgoAAAANSUhEUgAAAhoAAAK8CAYAAACp/BbVAAAACXBIWXMAAA7EAAAOxAGVKw4bAAAgAElEQVR4nOzdfVxUZf74/9eZGZjhboYbGW50EBBvEKkAbRU1RWs1rWyxbMNys/TT7mZ9WrV2W912v65unzZt3bKtfubH1sot+8h2s7K6qagpUiqYiKggICggyM0AAzPDzJzfH8P9jQKJZl3Px4PHgzm315xznXO9z3Vd5xopNzdXRhAEQRAEYQCoVCrVjU6DIAiCIAjfUypJkm50GgRBEARB+J7qX3WG7YbuXRAEQRCEm0TfinpbGi8mJLGl+BrtXR3Hih3bWRxxjbYnCIIgCMJ3iuJGJ0AQBEEQhO8v0XhxA8iyTGNjExWXjeTlXcLLU83ttw+/0cnqlnTBiPJfObhkloGHK+bf3IGs97zRyRIEQRBuEn0LNFQG4n+yGGot12jvBqJ8r82mbiZ1dWa2bj1I6r5s7HaZu+++jXHjIviudcyVZRll5kVcXj+MAxl+FALiZWhBEAShD/pYo2Fg5tIVzByYtPSLLMtUVtZTfKGS0KH++Ph43OgkXZXD4aDRbMVmc/aq/U7EF00OlNllIIM9KgBclQDIkoQsyUgywHchoYIgCMLN5KZuOnE4HOTnl7Nr1zfkF5TzswVT8PZ271AzIMtyl89A67SWz04SIPcwjz7VODjXbb98++0653dOW3fppcN25I5RSfv0dbuO3HMUI7f9I9WacUnOQfnv0zhGB2AP80F20XRarkMiW3bafboE4WZkKSb13Y1s+SyVjMJyzNoI4h9ZxVtPxaHubvnSj/j50jwWv7uC4Z8tZNxzqXRb1ztyCTt2LCeKY6y5M4nsRV+y9RF9x13veJZbXoC/ZqxnJsdYc+dcNhZ23Iza10DEuDks/8NyEoIAyzHWPLKRiL+8xUNDrskR6Kdasj9+nde3pZJxqhgjOgyjY0l4+GmeToxC27zUzqUj+XlypyPkocMwOoEFz69i8Thtly23iH4xE4D5k0N4c1Es2p990q+UZq2K6dd631reRubOXsOx7jKIOp5Ve7ayYAiUf/xz7nrJwrLkzSwI/Zb7rPqIhRN+TWqHfaqJX901/w20mzrQOJR2ls8+O0Jx8WUUCiUnTxZhMjUiKSTc3dQggclkQalQEBU1hMbGJo5l5GMyWZkYPwJ/fy1ms5Vz5y5ReL6CWqMZpVIiLMyfqCgDFy5WcvFCFY2NVgb5a4mNCcPVte2Q2Wx2cnNLKSsz4u3tQVTUYFxcVNTXmzmZXcSF4mqsTXZ0OjeixxgICRnUY7AiGc1IWWUozE3IPu7IcYPBYkdxohTV8TIkq52muGActxucXXjNNhQny3DJKEUy27HGBeG4LRjF6XKUJ8pQGa3YBrnTNHsE+Lq37cjuQHGkGGVWOQR4Yh+sxWXrcaS08zjqzKBWoth7DjxdkSUJqaaRtqCleRtWO4qvinHJrgBkmsYOxhEbDErRt1i4SVmy2fjEQtaej2DBkytYPFKLJS+NnRU9NRPXsvPVjfDgVuLUUAvgm8CK1xYTpey0qNpAhIo+DgugJu6pzayapWudYixMZcsrr/Ps7wx88c5D6NVxLH54I0mv7uTuV2fSczE9kMpJfSGJn++AhMcWs+q/I/CnguwvP2Lj75LIrtrO1kVtrxWqp64g+bn41s/m6jxS31rDmmdexLBrPTP7+CUmjxpE0qSQPqxxA9t+VQbu/8PLzAvtPENHhD9gy2PbP7KZsHL7tw8yAHzvZsnSnWS/D4v/+jIPhTofHtUe1z+n3NSBxttvf0FjowWHw4Ek2fjs86MoFApUSiUjRg7G4bBz9mwJkiTx9NMz2bfvFJmZBej1XoQYfPlidxbp6WcwGhux2Ww4HA4A1Go1Y+OGcbmyjry8EhwOOyqVCw/MHc+cOeOQJGfNg9nSxJb3vuTChUpuvz2C8HA9p05dZPO7+6isrMNub8nUDtzdNTz4wHjuuutWumR2WUZxvgbXV75EUVaHPNQH82+noH7raxRZZdjNVmRZxv0DNeYl43HcGoTLm1+hOF6K3GjFIctokt1w/CQaR1U9ipTT2O0OVC5KlOcqMT83GTxcnfuSJFzeO450+DyO6EA8HEpsWRdwWJuQZVAcL8E9uwJJklC4u1KfOKpDelWp+ag+zkK6aMRubQIZ3P/hhuVXk2j6yegBP+eCMBDy3n2RtaeiWNH+SXJcPAk9rXBmCxuPxLNsdbsnQ7WBqPHxxF+ju6o6KIKoqHbbj4pijP0kk1/YSWrVQzzkC/rZC4h/bR1bzsxkychrs9++qN29jhc/U7PgnX+wYkJbARY3aSYJQUnc8/ZG0h59mfiWKiGtgYioqHY1RFHEDTOSMXUdqV9bmHlnt3VHzJ/sDCYmjRzU4XPIIPdul/9u0jLklnjio3qaH8Hi93aj9uj+GPRnf3FPvsV2/xf5+dJnMa5ez/JJ17cmo0UfL4k8Pl29kdSqa9QZVBnBnOeXkODfv9WXLbuHN97YSVVVPS4uKu6cHs2Y6JDWfhoff3yYhgbnE/nWrV9y+bJzOZ3Og/NFlRw4kENwsA+33hqKzWbn5MliSkursFpNFBVXcN+9cdhtNk6fuYDVamf/gVOMHz+cwEBvZ/IVCqxWK42NFmw2B9nZxXz00WGKL1QweLAfSQ9P5HJlPf/61zEqKoz8fcsBvL09GDEisOuXccg4Gi046hqRTllwW5SMrPdCGhOEIv8y9lIjVosJl1cPotC4go8bclQgUt5lHGU12Cua4KtC7Msmg0JC+uQk9noz0sF8lAlh2O8IA0lCBiStBoXFjuzuSsPCOBT/q0D5ZT5III/W0zB3DLLBGwK8UGSVNSfPgfR1ES7flCIP1iGNDUFxthz7xWqsl+tw+Vu6CDSEm1QeO3ecRJ+4tddPkseSP6F88irirlWZ0EtqtQbaN9Co45g5uZwXk4+x5IW465sYakn9505qJ63i6Qldn5IND6/nXzN0GK52jFRq1NB9s1OzNxfFdvv5gy+L+MU7Gb1O8Q1rOumVPDY+Opu0xOamDVMen/5lDa9/mkZep5o1w6KtfLkyHi6ksvaPa9l2MA+ju4H4OU+z4rk5RDQf8+Ldr/Pi33aSd8FI9mNzyf7NW7y1qCXQqyX7/TWseWcnx0pBH5XAgudWsbjdubTk7eT1v2zk08MnKbfpiJi9in+81Pfasz4O2FXOsV0f8ck1HLAr6sn+BxohhkG4u6upqqrH1dWFW24dyti4cEDi0qUawNmdQJJk7DaZBY/eQUCAsypy6FB/piWMxtvbo3W5lJRMPvzoIA0NFsxmC4GB3txxx2gullRhNJqoqDBy4sR59HotkiQ197MApVKBLMukf5VHaVkVkiQxeXIk48ePwGSycKG4ktR9J7FYLPzni29aA5VuSSCplFgeH4v9kRjwcEX1z2xUrx3CUVmPw27H/mAUTY/GIvu4ofr0FKrff4HDZkNR3YjUYMM27xbURy9iz6+AygaUB8/jiB2M7KV21sY4ZGQJZE8XHEO9Ueg9m3cMDPFBnj4c2dcNZJCzL7WlTe+J5ZmJ2GeNBElCuTsP1Ut7kSvqcZTX9u8kCsKNZMtjw7zZrD1hgTNJjHyv3Tzt3fx133pmdu5fbssm9WAFUU+M6dh3w2bBYrFgsbefqEb9bYKR1uYWC+VndrLhjX9DzAriW9/WUzMmJoqKTalk2+KIandHX79+PevXr+92s88++yzPPvvst0gYYDvJsRNmop6I7Vjw2MBitwA69P7dfPl2TUiWimN88spG0rQJ/Dm25wPV0iejcx+N+ZNDqP37/b1O8vnz57udPuDHCgALWCxYOkVUaqW6m5K4lp2/W8jzhw0sWPpXVvgaSXt3HVsuxLPipUeJGjIcTMdY88TP2Rm6nJeTZ2KoSmXD755noUnLjpcS0GZv4Of/vQ3Dc1s58nAE5iMbefZXC/lv/b946z49xf/4bxa+Wsuclf/Lqls05P1zDS8+uRA+3s7ikWA5s5GFj2xB/egK1v8qCr29nHKG96uJ7qZuOunYyROQQaFQdJknSUriJ47kzjtvaZ4utwYKIDX3Y5Rx91CjUChaAwhJIRE1xkBQkA+1tSbM5iayT11gwoQReHpqsFptNDU5UKtVKJUSFy9WYbPZkSQJwxA/mprsKBQSAYE6XF1V2Gw2SkqqKCq+3HNToQQqdzWWu4aDVu2coPdE4e6KoxIklQLbuCHOQACwD/VGpWj+rg4Z2eHAEeGHIyEcRWElstWGlF2GVFSDPFrvDB5qGkGtAoMPeKiRFJ06pDoPGu0TqZAUEOKLY3wIuDQ3Qus9kHTuUGHCYe9wdxWEm4MqgiXv/pmTE15E8+o3rJ/Ri3Ua8sgr9McQ2umWW/ERC6M+6rSwmrjndrD9qb4Of2whbeXthK5sn1YdEZMWs371AgztJmtDDfgX5pHXAFHtktRSOHYuQK9dwVlLbRVotW39SLDt5NnYn/NJy3OHSs+Cd79m1aTmb/XZzxn5Wcet6EbO5OnXVjGnH0MdfJlzuU81Gr+5y6/b6QN/rHAGtYkj2dBpsnrqyxx596GOBXjpJ2zZBfe/sZkVU50BWEIs5M1YR7btZRaEqrHseI9tVXfzcvJiEjwAFvDyH/O4c9EW/r00gYh/fkTeLUt46zFnh1ztpCW8/GQqd769jewZM0n9RxqGJ3awItGZNyOeW0/5N5PZ+PExFq/U89EfN2B5dCubn2mpATF0yHd90cdAQ41arUPtYe7n7jpvrrtIrq9697aDWu2CJLW8HCHR1GQjN7eU4uJq6k1mbDYHBQWXsFqbnFuVQEIiQK8lKspAXl4pdruDC8WVlJTUMHJkEDXGBoxGEx4eGnx8PMjJudD6psr+/dlkHi/AZnNQVlaDzSYjSQo8PNyQmoObK6Vclpvf5JABRWvCW6IAWjtoKhXO+W0zwUVB090j0PwzG1tVPYqiGhRnKnAMHwSNTSjL6pB93XCMGoSsUSH3+oWRztHRVb6EIHzn5bHxyRdJNRnhudtJa1ewa2evZ/cf4ruuUlVOBTriOheMvjNZ9XbnzqAadIZOt+fuOoXazYCmXQ2Jmrin3mLVDD2YikndtIYtxpmseGV51xpgXz06Miivgs6Pm50L0GtacKJFq4XyWmPbjlXxLHt/B4/azGA5zLpFWzqsoZ66gq1L49HYjOSlbGDNDjULXvozS2Kv/JzcUx+Na2lgjxWgMvDQS+u7dAbVaLupJSjMo5goHhrXrpbHP574kS+yM7sYpkZQXJiLeeRDxLarcVPfEkcUqeQV1kJhOYbYuA7BgSEqCv1fTpJniiCvUEfUre0DYD1xtxpYk51HeVUeqSeimPM/Ud2/cdXXr963peNYsfsbVlyDHV97zVUavVBfb+bTT4+S/lUuJpOZoCAfRgwPQtXprQlZBpVKSVxcOLt3n8BoNHG5spaCgksMG6bn7JlSzGYrERFB6PU6rFZbazxQWVWPwyHj4alheEQgcXHh6PU6goN9cHdz5ejRvGvztTu+Qev8kyQcEYNwTAxF8a9TyEYziuxypIRhUFiNVFaHHDsE+5jAjkEMza/X0ssjKbVLgBjIS7gpRfDQa1ux/DKRLaGr2L40tvXGqtH2seOcWk9ETBxxPd5Vdei0YKytBTpu21hVCzp9h5u6OiiKqFv0QBRRsf6YH0zi2Wf0bH9vsfMtll5qX1he24JzDFFR8OmRDGofMzQXlloMt0Q5CzfTha4FqNbAmFuchVdU7Bi0lkR+/uTzGD57izlBPe+qpz4afdVT00mLATtWAGjxHxlHXI+dQbtSdzjPatTtg9juKpHbTdMoAbqrFNB02m43S9TWUmv/ls1+7dzUTSdOncfBuMrSMmQeL2Tf/mwqK434+Hjx8MMTiRgWyOHDZzmRVYTF0tRh22Gh/gwd6k9WVgMmk4XzRRVcrqznSHOw8KMfReDlqWndvqurigWPTmHYsAAkSULZHMAolQqUSgU1Naa+fcWrVX90x1WJ9d5RaHbnYjdbkU6UQIUJl3+dRlIosE8JRQ706lSbIfd5Ny1BiajYEG5WWv8o5syO4/U3PiFj6cwrFngA+Orxx+isQQjtw45UBiIiNOR9nUYxEe2eNMs5fDgbRs7p+TVYdRxP/24BOx/ZwIvvz2TrY+2eU6vKMeKP/gpND9e+0ATQcveDd7PumddZuy+BVVM7hhWWc7kU2zqHVB3XT3huBffvW8ia1Z8y4Y05PS7b33EzOutNZ9CBOVZ9FBqBgTSOZcPMlpjKlE32GQ2GR53n3jBsOJr3ssk2gb65VsOSfYxsDMQP0RIxMoLiwxkU01arUXwim/LQBCLUEUSEGkn9Jg8mtdRqlHPsm2L0EQa0QRCl3cCnn+bx0KJv/6unN32g0eGBvqVvxRVKPZvNRnHRZerqGkAGjcYFH28P1GoXXF1V3awroVa7EB8/kuzsIhwOmfPnL5OWdob8/EsYDIP40e0RnD9fgZubKzXVYLfZqa424ebm2mXcDIdDxuG40uN/34psqbUZpStHdCD2EYPgRAnKi3Wo9uah+k8ujuGDaLozwvl2SjcDlvWtekJGQsIhO/qUbkH4LjE8vIKnP0vi+YcXcnLRQySM9IfSDDJsCSxJ7HSjdY8gIrTCWT3dvsrfUkzGwbRu7qo6IsZFoVerSXh4HoZH1rDwyXIWzB6DXmkkb98WNu7T8tDbd1+hUAb1uKdZkbiThW+s4dMZbTUAtefyqAiNI+IGvOmpnfFbXp63kJ8/OZu8+x5i5uQI9BjJO/wpH32WRu3IxSy/0mu32gSW/Womqc+vZd2+BF6e2n0TSn9rMLq6kVWvtVzITCWtums1gW5kPFHtm8SCZrJgxgZ+vXoNcX9cTKyumNRX1/CJ7zw2T3Kur546j3m6hbz4fBQv/yoBQ3UaG/7wEcz4K/cHgXbeAuLf/xO/fsXAqkeisGRs4cW3i4l/bg4RagNzHo5n4yu/Zo1hFQtiIXvbGjacGMOCF+JBDYuXTiBpZRKzT81jwX13c/ekKLT9jBhu6kDD2efCWcja7XaMxgYaG604HA5MJku3BbrDIWNvmS45B91qNFux2+1t03HWTLR8liSJW28Zio+PF5WVtRQXV1BZWYvVauP+OePQ6dzx9fXC319HWVk1Dllmb+pJQsP80ftrUSgUWCxN1NU1UlVtQm7dv9Q2WqhCAi81kq87ss4dyUXZeknIknMocAVSl8DlirUJ7i447ghDmV2GvbYB5eZjAFgfvQ0GtTXstXYGlWXkOgtUNYKrCqnJhmSxNfcV6bn3qizaTYSbnTqKJe9uxfDG62x559dsuWBGExTBzF9184MLqigSJvmz7fAxLIkJbc0dVamsfSy1m23Hs2rfVhYEgXrcCra+reNPb3zChhc2UG7TYYiawKNvrODpHgrZNloSli5n5u7/Zu2rqSS8koAWC8e+zsZ/0pIOb5xcP3oS/pjMjvEb2fjxv9n4hzzKLRr0IyeQ8NxWljwcj/4q1e/6+1aw+ON7WPvS68ybsOK6vzJ83diK+WTlQrrWzai5/40TrJ/dfpqemX/cjPGVNax9dDLFFh0Rk+bx1qblxLfcuj3iWfHOX1Gvfp1n56zBqI0g/r4/s/mZ5tdPhzzEX9+o5cWX1jD3nXIIimPm0jdZ8XBzjcjDf+V/LWv406tJbKkA/eiZLH57GYubm3YMD77F9mEfseUfO9ny3EZe9LibP7+/njn9GIVWKiws7EMpkcenL20h7Rr+qNrMZ/r/emtNjYn/t+pjzp8vByAiIpjbbg2lqcmOze4gN7eEM2cuolAomT9/Mj+5fxwOh8yOlAw+/jiN+nozbm6uTLkjiuDBvuTmlnL06DnMZit+floef3wa43/k/LGzpiYHf1n/OenpZwFQKCTiJ4zil7/8MRqNK2ZzE//61zE+/ewIJlMjKpWSqKgQRo4MRqlUYKxppKj4Mhq1C5Mnj6L4QiX55y7h6eVGzG2hxAYPwr47jyZzE3aNisZ4A2jVKJVK3Erq8NpfiLasAYXJQtMvx2O/1fk4I2VdQvPYx9jNFhSDfWj6bQL2hHDnAZJllF9fwPW3u3CUGpGUCuS5t2D5zR2gcWk9ji7/sw/V+5nY7XYkPw/kiaFIei+keit2dxWq9zKQ7Q64PQTL/8xEDnD+eqsyswTXP+zBkVuOjIz11PJ+ZgRBuMnkbWTuojyW7Hi5ucf/DWJK5dezNxDx7nYWh97AdAywliHIv63v9jga32GWY6y5L4mM+/rzBlV/xtFI2cJH13AcjYif9T/QcHV1YehQPRcuVLX+7snFC9WMHBVMZOQQXF1cUCiUzldem8MppVLBmDEhfP31OU7nXMBisbE39SQBATrGjY1g+PBgsrIKqa9r5HhmARHDAhg0yAuVSuLWW0M5dqwAm81OQIA3M2bcikbjHHFTo3Fh4sRRVFbVs39/NhaLjRMnisjKKkahkAgO9mVsXBixsWF4eGgwm5uw22Qs1iayTxWTkVGAudGK1dKEzeHAvs3ZaUmlUqHRuOChdsV7CPirvBhSX4ehRodO64ZSllEACkkJSNg6tIRIOIbosI8chOJSLQz3d9ZmtAsyAORRepQuKnDISNVmFP/ORR7q4xzkS+eKQpaQJAUOuVM3UZnWfcvIWPt3GgXh5hPxEItjE/kopZyEB2/MaIsA5SkfcSx2MStCb1gSrgsRINwoteRlnKT43E4ySjX4B/Uvr9/UTScajQs/uf92Qgx+1BhN+Hh7EhamJzDQGzc3V4YN0zNp8igkICIisLXZIcTgx+MLEziWcY5aYyP+ei0jhgdhMPhx+XI9H350iIxj+RxOP4OpwcJ998YxbFggcbHhuLgosdkc6P21RER07DUWGKjjwQfGMzYunLxzl6iva0CtcUWjccFqtVFb20jyP49gNDbQ0GChocGCxWKjqcmOLMuo1So8PDR4errh4aHG1VWJQuEc76PWZKbSauO03YHjXxVodp8gYlgg40cOZtRvE5x9LdxcsDe//tVCdnOBAE8kLw1NP70FeWjXwcLs04ZhkYEzl0DtgjzMD0eEH/IQHVQ3IHtrkCQJh78HslbTup7DoMPyix9B3TWq4RKEm4aWmc89zSdLt3DsvuU3prrfcowtybD4hv3OifC9V5vK2kXPk6o0kPDYelYl9i+n9a3pxJbGiwlJbLmGNRordmxn8bfo1CrLMjabo/lXT0GpbC6cAYfd4eynIYFSIbUO5uVcz9kx1Nl5VEKlUjQP4gUNDWb27TvFp58dpaamHk9PN8aNHUbCtDEMDRnU+vaIQtG1d4TVaqO0tJrTpy+Sk1PCufxL1NebaWqyY7fLOOx2NG4uBAb6MmSIDwaDH8FBPvj7a9Hp3Js7pDq3K0lS2/AZ7X7x1W53UF1dT1FRJXl5l6i7bCThzlsYE2VA4apq63PhkFEcLkLz+93YY4OxLpvc2uzRhc0OLb/NopRAqWzuGyqDrbmjpyQ5x+1oHbZDdq7T0n/DpfOvSQmCIAg/dH3so/HD4XDIXL5cy/4DORw6dIbq6npsNjve3u4YDP7o/b1w99AAMg0mK9XV9VRcrqO83IjZbEOpVKBSSWi1bgwOHoQhxJfQof4YQgbh76/FtblQbhuhlNbPvUufo11HWAfZp4ppbLAyYkQQPj7OYEJxwYhm+U6oN9P06ynYJoW2G9xLEARBEAaeCDSuQpZlLBYb54sqKCgo59IlI7XGRsyWpua3WiRcXBRo1K54eqnx1rkxaJCWQf5e+A/SotW6dahJgd4HE31Np93uwGxuQqNW4VLegMtLqSiOFGN/JJamhXHg+X3tzi0IgiB8V4lAo5faah2k1p+Jb9HS5NK8ZIdaioEIKq5IlpGKanB5+2uUO04jTwrF8vwdyEN9rm86BEEQBIGbvDPo9dQ5YOj6ufW/bucPuOa+FIrsclRbM1HuPYc01AfLwjjnT74LgiAIwg0gAo3vA1lGdeg8qv/kwYkSKKpBGuSF5TdTcNwWLPplCIIgCDeMCDS+D2RQnCyHL85Ckx0mDMW8ZAKOEYOcb4kIgiAIwg0i+mgIgiAIgjBgxOOuIAiCIAgDRgQagiAIgiAMGBFoCIIgCIIwYESgIQiCIAjCgBGBhiAIgiAIA0YEGoIgCIIgDBgRaAiCIAiCMGBEoCEIgiAIwoARgYYgCIIgCANGBBqCIAiCIAwYEWgIgiAIgjBgRKAhCIIgCMKA6fDrrQ6HA5vNhs1mQ5bFb60JgiAIgtAzSZJQqVSoVCoUiu7rLloDDYfDgdlsZvDgwXh5eSFJ0nVLqCAIgiAINx9Zlqmrq+PixYtoNJpug43WQMNmszF48GC0Wu11TaQgCIIgCDcnSZJa44ZLly7h6uraZZnW0MNms+Hl5XX9UicIgiAIwveCl5cXNput23mtgYYsy6K5RBAEQRCEPpMkqce+neKtE0EQBEEQBowINARBEARBGDAi0BAEQRAEYcCIQEMQBEEQhAEjAg1BEARBEAaMCDQEQRAEQRgwItAQBEEQBGHAqK6+yBWYa7F8cRxzaj62skZklRvKMAPqe8ahGacVUYwgCIIg/MD1M9BowvreNmp+e5imC53nHaVh1T9RTB6L11/n4Rnj/m3TKAiCIAjCTaoflQ61NDzzMpcXdBdktHF8eRTjHS9T9c/K/qdOEARBEISbWh9rNJqwvvImNa+X0TLQqPKuCbgvvg31KD8kcy229OOYXjuMNa8J6itpXPAONXuX4j3O5ZonXhAEQRCE77a+1WgUHsD4p2JnkKFyx/VPy/D/z3y0D0ahjg7EddwI3J+eh3/mUrx+0vwrsPXFNCzbQ1O/k1jM5l/OYfzd/8VrOT0sYr9E6jur+OmDDzLlnvkkPvc2nxdau1+2ajdL58xh9ur9iLoWQRAEQRhYfQo0LBsPYK1x/q9cmITvC2Eou1vQ04B2y2O4Rzs/yocPUP9lP0ONcwfYVRRAaOAldu06RtfwwUrW27/jhRQTYxcsZd3KhUzlAGtWbCDV2HVzhSk7OOZ7FyuenYJf/1IkCLXv7XMAACAASURBVIIgCEIv9SHQKMOc2lwHoDHg/vxt3QcZLTxH4PWLMOf/tlosOy/Q/e+6XVnW7v0UBk7gyR+Pov7AFxyq77SA8QCbd1UTv/A3LL93AmPH38kzv1/CDOthtu661GlhK66j57Fu9X8R79mPxAiCIAiC0Ce9DzRsZdhzm/8fEoZr6NVXUY4PR9ncC8SRe7nvgYb1BLsOXCJ4/AQSEqYQbT3G5weqOy5y8gRZ1lHET/Rpm+gZR/wYOPtNFnVA5ee/Y8rCt/l812b+9PoGlj05n9mLVvH2oeZA5OInLL77QV7Ybeq47fRXuevuX7G5yPm58sgHvPDkY0y5ew53Lfg1a1OLKdn+a6bcs4pdnQMgQRAEQRD61nQi25r/6WW/TknlgqRqWdfW50DD+s0BUqsMzEgYBYETmDEGju3aT0m7ZS5fvESdmw/BuvZruhLs74PlUjElducUS9luXks2MfXp/+Efb/+RhYZ8Nv95A59XAYMnkDAC0g4cpa5t7xw9cAzrsCnMCAFrzgcs/X+fUBC5kL9/sJUPX5hC5ZY/siT5NJZhtxAtakgEQRAEoYs+BBo6lIbmf4vLsNVcfQ3H6TLs5uYdBfZ1AC8rh3YfpjLsDmYMA/Bh6p3RcHY3uwrblqozmaB+P0vvnsP4H7f9Lf7kEtRb2wIHuw/3Pr2UB2INBA8exQOP3EWoNZ8T5wACmJEQDt/sJ62lZqLxGLuOWBmRMIFgrBz6JIUzuiks/+UUQn098IucxW8XhFNXAcGjRxHcp+8mCIIgCD8MvS/7VUNwHds8+FZ9AQ3vlV2lhqKShs3Zzcu44DI5DKkvKTMe5j/p9YyMH4tfvYm6ehOMiSfetZjPd53uuKxnHMs3/IW/v9n29//u9Om4jOsQRoa2++zjwyCs1Dc6P/pNnEK0PYt96c7mE2vGYdIaw5lxRwDYL5B1th71sGhucW3bhNeYWxipdGXkiPC+fDNBEARB+MHowzgaLmgWjkX53gHstiaaVv0d49in8Z7c3cifTVheeZfaL5rfNAm9Ffd7+zZCaOWh/aQ1gmXLr7hrS6eZqbtJWzCKeDfw8vAAqytehnBGurUtUqdsAk9XvFqnuOLqRs/8JzBjzGZeO3SUujsnOJtNIueT4A/Y67E2gqunJ67t1/H0wFUZQOhg1x42KgiCIAg/bH0asEsxeSZeDx6l5h8NUFOMadbL2F/8CV6Lb8PV27mMPS8b05/+Sf17Za19OpQLpuPWpz4M1aSmZmEZcT8vPR6HV/vXW/JS+P07h/k8fSHxCR4MGhyAlz2fwhJgWNv6hRfrUQcYCFbSzSux3fFhakI0a98+TFqFK2kZVuIWTmh+BdYTLzew1tdjhbZgw1hNnf0SJWVWGCGCDUEQBEHorI9DkGvxeO1nuLeM8llfifn5d6jw/xWlYb+lLOhXlA1/k7rNbUEGgP21v1PzRW3vd3NxP7tOwtiEWSTE3sLYW9v93TuLBN960nYdphJwHXML0a7FpB7Ib1u/bD/7zroy4tbodjUaV+c1fgrxZLHvg/2kWaNJGN/c/KIcQvQITyznsjjRLmqpzDjGWbuVM+euMBa7IAiCIPyA9f23TgZF4fOfZ/B60K+tz4WtCUdhLfaydoNyefqhavlBtZoyGua9RnUvg43C1P1kKcOZOjGg60zXW5gxMQDLN1+w6yKgu4OkGQEUbn+V328/zNH0FNau/pijugkkzehm/SvRjWXqrZC66zDWW6cw1bd1p8TPncVI435ef/swhcZqStI/4PdbLuEXCKVn8sUoo4IgCILQjf79krt3GNptK9EfmI/nL0aginRH8gQ83VGOG4Hbb+fhm7OSgAO/wOuuvgcbu/blox4xgfjA7udHJ0wgmNN89p98wJWxT/6Rl+7Vc+bDV1my+gPS3O5gxZolJOi6X79nHiQkRONldyX+jrEda0NGzOfV399P8MkN/Oynj/Hw304QtPA3vJo4Cs4e5YQYR0MQBEEQupAKCwtlAJPJxOjRo6/9HuoLqE18k7ovGpyfvQ14pCzFe8IN/pG1qhSWzN+M1wsf89IdNzYpgiAIgnCzO3XqFB4eHl2m969Goy88w9Amt6/ZKMb8r/4NRy4IgiAIws2ljz8T30+eYWiTn0Z6ZhsNFwLxXNjHMTUEQRAEQbgpDXzTiSAIgiAI33s3rulEEARBEIQfLBFoCIIgCIIwYESgIQiCIAjCgBGBhiAIgiAIA0YEGoIgCIIgDBgRaAiCIAiCMGBaAw1JkpBlMYyWIAiCIAh9I8syktT9CFmtgYZKpaKuru66JUoQBEEQhO+Huro6VKruxwDtEGhcvHiR2tpaUbMhCIIgCMJVybJMbW0tFy9e7DHQaB0ZFMDhcGCz2bDZbCLYEARBEAThiiRJQqVSoVKpUCi67/bZIfxQKBS4urri6up6XRIoCIIgCML3m3jrRBAEQRCEASMCDUEQBEEQBowINARBEARBGDAd+mhk1VbzWv4pvrx8CbPDfqPSJFwHGoWSyYMCeCZ8NNFanw7zRD64+YjzKQwUkbduHgN5roI07ozzHkSsty9jtD4M1ngQpHHr1bqtb51k1Vbz4NepIrP8wGgUSj6+PaE1U4p8cHMT51MYKCJv3Tyu5bkao/Vhhn4w0/2DGO3l3a/0tDadvJZ/SmSYHyCzw85r+adaP4t8cHMT51MYKCJv3TyuxblSShKPGobxStRYng6P7HeQAe2aTr68fKnfGxFubu3PvcgHNz9xPoWBIvLWzePbnKtAtRv/FTqSx4cOvyZpaQ00RGT6w9X+3It8cPMT51MYKCJv3Tz6e64C1W4sjYhi3uCwa5YW8daJIAiCIAioJIn/Ch15TYMM6PTWiSAIgiAMBI02mGneHmhUKjQqFW4K0CicRZDZYbviuo0Nl0i9UE6p43qk9Icraciwa9Zc0p4INISB4zuWHT+OwXxiG3NPGW90agRBuEG8DdNJuyuGSGxU25uDCgdXr1N3AAoVPq4qqkv2Mf3fR8kUwcaAGKP14eEh4b1e/sKFCwwZMqRXy4pAQxggHiTFjGeWlwZiJpGYt4Nk641Ok9B3amLCRxMvXSL5XAmlABo9iaEBUHGW5ErLjU6g8J2nYtrwSMKq0ondcZDMpubJrjpifHX4KJs/222UmiopqLNg7rSFoGGzOTY1mrk+R8msvI5J/wGZqR9MpJeuV8v+9Kc/Zfz48TzwwAO9CjZumkAjaHQi+RPDycnYQuyx8huYEjVJ0xezyfsksz/fx94+Fp6awTM4NTOYrZ9tZmVF80SFntX3L2CFdwnLP97Kurrm6cpw3nnoPmJPv0d8/RSqx5mY++EuUrzGkzF3EjHdPA2Yi3bh88UlVv8kiQm5m5l44gbVJPjFsHyoxvm/+3CWjfIj+cS1u0OEjUrkWDw8914ym5quvvy1p2LWHYvZHlzE/M92kNxwI9Iw0FTEj3uIPbfp0WDjCd9txB9XsXp2Ist8VdAUw5odW1lZceVq7yvydublyLI9jN6RSUG3y4zl0P3j4fg2ph8v71II3TAu0ex4dAazlN3MqznKxO37SOvN07dCz+r7k/hlw34m/ieTHEe76T9JIvHiNkanl1zDhF9/GqUKTJXktFyrCj2r71nACr9uFrYa2ZuXzvIjWWQ2319L60zUyKDp7lh3pgzhnQfn8YRXD/Pt+SzqfN/wn0TGvbdRmv4es3+Ata/BGnem+wf1atnly5eTnp5Oeno6QK+CjWsTaGj0JI4YTWJwMPF+vgRpNGiwYTabyKkpJ634LJvO5pDZ7zuEB4mhIZTWGIkMH018ZnnvLuCB4B3NU8G1rNt1sM9BBoC5oohMWyQT/NVQ0fw06DaYCVoz1U2+TAtSs66ueboumFiNibQyI+amXN44baNAbt0SKcd2samm0w7qSzA7YO+545RW3qhbspqkW6OJab0pqIgfPZZZObtIuRZBgVc0a+PC8ZHyr8HG+skjkqcMZjbt2/09DTIAZQiPD9fjDBdVxIyIZlaliiTf5tuGi57HI0NYXZHf78I/ctgIIuuNlPpHkuidybrO+RkV8aOiCSs7xPQT36EgA8BhpMAEZkcOy4+dddb2tLBUcaqX9yjNkBiSNAUs2dUuyABwlLO9yMiy8BHEHykh7WZ/yaPD8VC1CxpsmK02GiUVPi4qcNUxbfQM9uhUTNzpPCYaBSD1bXcF5/awvLC+wzRN4AQ+GNV5SRWzIiPxPr/nBxlkAIzzGURkL8fJePbZZ0lPT+fChQusX78euHqw8e0CDaWOxLHTWRsZTphL101r3HXEuOuICR7OU7GT2Hv6IMszclqj1F7ziiRRb2JvWhaRk6JJCjxIWsm3eIr6NuqymP3RcWqs/dy/tYS0Klg2aDAanDdo7+AQYkw5/K0qkseDQ9CczXVO1+uJbCphdYUNmrJYXtFuO7Kd0ooCkou7T0fK8X2k9C+F/adUE+YdQExAJCtDPTrO84pk7YRKvAtKyKwoJ8fc3/PnQdLtk4gxlVOt/tYp7r/GHOZ/nNP/fHBTUHZ8gnTR4KOC9gMb+7h8i5Og0DM/1Jec/D2khU5n/jA967rUVtrIyNhKuN2C+bvWNm8vYvneg8TMGs8T+iympRfRJU7qBXPpPmI/tlDTTRCemZ9LTnQkSQE38J53jTT2NKMhx1lTawfvwPFsv2sS0zTgM3gsTwVmsaT5e2tQgUIF9OY42KgxXiQ5v2N+8naN7iZYtbE3fQujbV2bbH4oYnTdVS11b8iQIXz44Yf89Kc/7XWw0e9AQ6ONZMOd03nCT9M20W6moKqKnEYTZpR4u/m1tcG56JgWPZs0QzhLvtjFppreXzRhYSOIbypiXUEuMZHjeSoihOUlbU9RQcPnkH27jUXbdpDc6WKN/9FC9uiziN1xtPlpQc2022ayNiqMGA2UVhfwxle7WXPRBIB38Hg+mDyWaZ4qGk3lJJ/YzZJT5ZgVOpLGz2D18GCCHBZyzh9k+eXh7IizMH+PidUzw0j5fHNbMOA9nkOJ0WSmbGZJWfvvauRwuRGfID1hinxyHCriA/WYK06xqdyPZdEhxCpzSbOriPcPgMp0DjeBZkRiW9PJ1Q6YQs/a69R0ogkcyzuxo4nVagnz0DifPFo05LNoxw62WwNYfe88nho5lQ9GOmeZzUYKaitJyzvIkuzeP6kGDb+TtYPyWXIENkz1uOKy3oFj2RQ/jllaJdWmEv73q+NofnQf0869R2xGJRrfSNZOmERSQLt2YgBspHy5k+px9zC/XfbGmsv89z8lJaCHPAIEhUzinR/dxjStc15K1j6WZJc4CyDtWA4lRnN453ssL+uY/zUhM8ifouF32z9lb0QSp8ZUMvcj580XIGhUItlxlm7z+LWnIshPT1hTOallZuaHOg9CdWk+KRdhr3U4s1wBzKQUlxMWGIKmtoTMhj4WhH6jSdQZSTmfQ7JyLE90rq1U+JE0cQZrhwUThImc0iyWpx2kdPgC0kZdYu7HLTVkKuLHP8oeQwHTk/dxqpvzs7wmmozZMXR4aa9kD8E7sggcNZ0NscOJdYXSihxWHjfx1IxoMnduZkndbRx6MKab69jJXJHOA/t1HJo2mw9qtzH7VPvmQRWJUxfzgcs+fL7Iwew+nA13zybJnM49/zmK94TFbHc7iM+uLGf+cIlmx/xJlO7dyKKi5n01mih16JgVGoympKj1OtH4RrN2wniSAnS42Y1kFBzlufRM0qyd7hV2AB3L7l3IE+XbGP1VcxOMewjLxo7nCUMwYWqorsthyae7Brgf1dXzR03ZUdYUxjBtlAegI9JHCSU2oDdtJn13tXvEFcsLRTBr585jwumNTMwy4R08iR133Ybb6c+YdsTMyp8kMeHcezzimNHj9fyH0zpeHl7pzMvt58WaeGR7FtPu62H7X/UvqO3JGG3fRv3sa7DRv3E0tJG8M2t2a5Bhrivija/2sCTjJHtNNrzddIS5aaCuiL8d2cOSY1mkNd+ENN6RvDNzBkk9tZ91SaEfSWF6qotz2dtUydaCcnyGRjbf6AB0JI4Iw1yc01Yt3+5bpeXnUuAfzfzmgM172Ezej9Vz6ngysZ8ks6ZCx7I7Z7PM27mvp24fT+TlQ8zekcySs5doiYdibpvDpmGw6d9v4vbhNtYylv+7PQQqSzhcdooUo45ZofrW/UaGhhNbl8vW8q4XV0ZpCdXewcSrAIUv0/RqMsuKKCgrIsdjMAlegEJHvJ+anLKijlWy7SnVeLu2/7v+XW6C/MKZNVhPpFenIAMze4/v54OG5qCiUySh0eiI1IeTGOiHhl5yj+SVOD17j+y7ehOMZjgbpk8i5vJuRr+3gdGHSpgQfx9PaZ1NUWiGs+HHs3lCU8K6tB3MT88krQGqy44y/4vPWFOcx5LtbxL88T722k1s2rOR4I93kiz3nEfQxvB+wliCSvYz/ZOtPJJtJH7cHDYNdwZEMcNHE1tXQHJLnlDQmlfNF3NJsYeRNExHQeFZMjThJAa3nE8PZoUGY7549to0PV2Rivi4JPITkzj0YBKJFftZeSaXlNx0fpcPiUMh+Wg6mwpz2XRkPzkRD3Pq3nlkzJvHan3f8l/8sDDC6gpIvmwjLb+AAu1wkgLbtqEJHc+GYbD1wDam70snpd4Gdsg8dYQU5XCWNR9X3J3/780+QloP58dcdpCJW98kfH8u1dZ8lnz0JsF7sqgOnsL2+HBqjv8Dny0bmVuoY/Wd44ltKmdvL/uelBbuYe6RSiaMv48Nhh5qeDQhrP3xDJKs6dzzRTppvTyPQaFhTHOBsJDhxLeUta7hbPjxdBLJYUnKFqbvz6ImeAr/NzmSXrWya8LZMPs+nnIvYXXqVmI/3cai9EwOf0c6a3u3b1Jp6the1Ot7RW9c7R7BVcqL9pvyH8v26bfhdiaF2Z2CgCtdz/9f7lky3EOYFdhp3oVc9jb1bvvfllKSGKK58kNbd1qCjZbAYv369fzf//0fFy5c6LJsvwKNmOHjmO8FYKMg/yBLTpuYFjOdDePG8kRoCPH+emL8g5kWHs2K8dPZEBVATtYeVhY1P117RbI6OqR3mUY7nLl+FlIKndF8QeFZMlzCmB/afEG7hjDL38bh0uZoXxnOOz99lh0jmk9cVRFpDToSBusANXMjwtCcP8iS7CIyK4t449BO/lYXzBOjggFww1kw5lQUsTVjD8vPlmNWBDN/mJ7S/HTWlVugqZKtR49zGBUFlRcpdZTzQZGRMMMIZwdNhR+JQ/UUFJ3tti+JubyETPyI8VeBRwgTvKpIK7GAsYQ0ky/Tgj1AFUyMd1uG70Ly4Im7fkH1z55u+3toBokDE/j3qCB7B490VyNRdZLf5Xqw+kfRBNH9DaK67CD3fJnTy4vGg8TbJzGt/CDP5V/9TQfvkGjmqktYdyyXAjvUlBxlTZEJjb2SzMs2vEOjma8pYvl/drDmdA5bs/bwwNe54K8nqDKfNJONmgYTpQ12wIbZYqK0wVm12m0eAcJCI4m3ZLE8PYu0ynJSsnaxKNfGrNHRRCp0TAv2pbq8iAwHgIqk6c9Scsdw57GxF7H3ko34wSF41+aSfEnNtJBg5zz3cBID7KTkFwx81a5LGL8c3dwvQ+HBrJF+pH6dSabuNjZMncGGiTN4J34s8Q2nWFPmR9Lg5jPrEszjo3p5TQMog0kaqmu7Ri6fIqVGR2JEp23YbZQaL7G3MJPlh9JJaQDMuazLNREfGUOMAmJGjWOWNYd1Z5y1kt2eH4eFUpOJUpsNsFNtMlFqhmkRIwiryWLl6UrMDguZOfvZZFShqbnY9nbEVdnIPJdFqsWPpBHhXQt7lwBW3nUfj8vHeWBXOmm9LtCdfdMaK8sp8Agnsbkw8g6/jfnqIn635yBby8pJK0xnfnouDI0hSXu1baqIv20KT1iPMveLg2wtKSensoSU4vKeH2iuF4WayGFT2ppdm0pIKR245qKr3SN6U14A4BXN9rvGE5Sfwuz0/K7H8UrXc20uyRXO4KLDvIK22qurbv9bkpAI7OWvsHbW22CjX4FGZkEmm4qL+ODYLtZYI9kwLpJI17b5ZrOJ0gZz24HS6HniR9OZW5fOoqwiCmqL2JRf0qubZuSwEURa8kluyXC1uSRfUjErYrTzgvbSEaQwkdNTU4y9kpw6CNP6oVHoiPSEwurytsLNUUVGlYUw3wC8HZWszchBMyqRksd+wTuhzcGKUkeYBxTUVLal2VJJQaOZnMtVzmOSn0uOdzhzvQHtcGb5GUnO76GnuLWEtBoPYvw98A4KIdJUQmo9YC9hb4WNSH0w3gHBRDZ/7p6ZlCOfMntnctvf3iPsve4dxkykpG1n9olyqttN++D4EapHT+Lx5o6Dnc91dclB7unDTdc7dCprg8tZ/lVOry60MJ0OTUMlOa07tpFRY8RcW06GDUZ766C2hL2mtnVKi4vIxI9I7ys8mfeUR1AR6a2DmnIyWs+BjYzKStD6EalqyUOXesj3NnJqTeChI0xhZGthCUEG51NsUMhwJjTlk3zxOrTRS54Ete9v5epB5IjxLNO3L/5VRI6eyrLBHrR/sNP0ob+GJiCSWZ5GUgqarxFHOR8UVRJkaKutNBems6ZGz9rEp2m8dzyRrXcrG2nZx0nzjGbZsEieGqUl7eRRZ97v8fx0R02kzoNqY2VbJ0yHkZxaMwVVfSh4FTqemDyVWfYcFqV3zZ+awWNZEWhh65H0vnUg9xhBot5GatZutlZ7MCvcWRiN9tY5H0rabaumrIQcdFfOuwAKXxIH60jLyyLzut8rekibezQ7HluO/MTTnJoWQ4wLgI3MrINsqut+lWvhavcIrlZeNH+n+KhJzJIKWH2spyDgStezkeTz5QQNaTfPkk9ya3+c3mz/xhoyZAhr165t/bx+/frWN1Ja9K/ppCqLRTu3sagsmBWjmqu+HSbSTu1h/r49rDyVw9bT6Szfv4slJ/IpsAOoiIkcS2T+NsI/2saabto7u1DomT+0pdmkZaKR5MISCIxsjd412KH9RSO1/2Y2zC1vakgaNCpo7DQKXWs+UwSzclwkmtJ05u7Yzpqr3dglaGzZdnUOKVW+zAr1czabGHPZ3tPbnA4jh8tNRPoFMy04APOllqdcG4fLyvHxG8wsfQBBlSUc7umpSrZTWllASnF+29/F8mtapdZ7JvZ+9REPZJQ4g43as/xvoQUqjrDoaC6lDhMpJ3Nab+alF/cx/T99ebJTMS00hDCP4XyQtBx58XIaZ0YTpAznnceWs2d0Lws4CXCAueWG13k0Qke75XpyhTyiUTmrk9oHEm0dGFVoFB1HQHRTdKzpMTvsoFDhBpQW5pKmCScxwPm0U1Occ32CSFsRe6va0lhdXkKpm0c3NRUqvOtK2lW328gs793DA6iIHxZOWG0ByZfbpmbm55KpCWP+UOf5DIqYxAp/E5sOJTP9y0wK2tcO1mWxLt/G3PjpzHfksOZsc81fX6/hbmj69HaDivjbZrNhsJk3Duwm2dTNIrW5bCpT88TEKUxz7WZ+ewqg+Z4SFjqceHsBHxSW8EFhFUGGSKb1VGPZ/k4u2+lSqCsAbCB54q0Gc9N3rGNpu/t1dVU+b3y5lWnHepufrqHWewRXLy+alRZlkSJHsjq+56arK13PBYVnyXBrnje067Xem+1/GzIyZeYeu+peVfs+GkDr+BrtfavfOjHXFLG31oa5oYR1Xx7ksO94Nk2dztrYsSyLncqGKTP442AT675MZ6/Jhrm2hLTaPuzAbzSJPqbWZpMWBYW5pDn0zI/wA5ORAoeWSJ+WV+48CHJREeTePPCIMoBILygzGZszj4owb33bjVOhI95bTWnNJcxuwUzQWUg5mU5yWTkFTc1HyF5JQR2EebfrT+CuJ8Zdw2gfX+dnRyUfFFURaYjmiaF6cgrPXmEEOxtpZeWYvUcw309JZtnF1u9XWlJEjqee+YHaK/fP+M6xsDcryxkYaQbz+LhJzA8MINZLjQYlQV4eeCsAzOw9fbwP1dIANvZmfMrEz7e2/k1Py6XUXsKalK0sKezalFJgNGJ29yOy9YSpiPf1Q6PzI0Zp41SNEbwCiGl349cE6InESMGVOir3lEcAJNDo9MS2f63X3w/qKslxVFJggjDvgNZmiUCNCjd3z9bXRyN12ub8DJjOklymZtqwcSQGWEjpZQ3gt+aoZN2Xe3jjYjlpRZmsKfFlxYjueqR7MHdMMGnfZJJSXs7e03tY3ttXA5UhJBl05HRuWqzOIaVaw6xhowlCRUxAMG6VWaw5lU9ajQVzh7uVjb2FRVS7aqi+WNDW5+FK56cLCzlGEz46v7baEoUvo701BHn7dXi7pifeIdN5/zZf0o7uYGVJ90165qqzLNm3hxSXGN6f1FJY2KixmsHNg7CWfXt44I2ZGosN0JEYGkx1sbNfTk5+Wzv/qRoj6AKIb5939cHOvFtrgyYb1S7qtpoppQdBGqhutID9Epk1MCFidLsaouvDraf9mfNZ/vlWJiZvJvjd9fhuT2bJ6YF/aLryPaJ50pXKCwBsFJSkM//LTAidzvtRPby9caXruTaX5EoPZkWMJzHQQkph+2u9l9v/FuyyzAVzdxHy1V24cKF1XA1wBhkffvhhl+W+XVZryGXR/8/evcdFXeWPH3/J4AyioIAoV0UuGhIrYgViIWqAKaQrpl8xWym3KC1bTTddSVtdbVUsb3nJ0p8mruS0GmiKqUgpmoK4iKSCgFxEhotcBAYY/P0xXAblquClzvPxmMcD5nzmM+fz+ZzPmffnnPM5n71f0GW3nFjL4cw1uf/Kx8DIkdXWhfiFfEGX747wfRtqSzebftirCrkts8Pfxr7+ZQIpd7QZ3M+ewRXX+f4mjHF8kTE9jJjgPBj7gix0bFx5y8iIkYNc8e+ajzy1vnnB1PpFNjxjhn2PXvg/7817PXL4+rcsysvzSSzvykg7R9wMezHBeQKX/zyKMdo57E7OwtTa5AmH4wAAIABJREFUlZlG2tDZiLdcB2OvqsK+Z++65uPE61eJNXBiplE+h1Kan1Ss/NYNEvX6MaZ7PsdvalRQxVmcLjdjZG9l0+MznlA6PXth3xmQ9mKq43P8w9mVfzjY42ZszgSbPjUVrEZw1ga3i7I4na3xKioHyknJySKxkXksbt+IR15uxkwna0y1wNTyRZZZSijQNsTZAG6nxiNX9WPZS88xxrA79maD2eZqj05mPCHNBcNNlZHaSl/fng0u9rj1MMKt/yg22Mk4/lsiiVU1TaTWrsw1685gmxeZKs0iVs+RZVZG2Pd5kUV94HRqbfPoHb5PzcLEzomR5df5vjUtgO2kPC+eWYdCmJdvzjLXwbg1MfBCx8ieZU7mJJ4LYdTPrW+K1zG3Y0yXO6RUdm94XvfrRUFxITpmdvjrVZF4Ow969GemVS/szRzZ9upfOVhX0cqY0N8aneJCdPo4MkG3NvMtHJ8GqjielEhiD0cW2XRHR0uG25888Ncthx5mDG1pvJPEmtUvOmJaeI3v7xgxQXNbrPuoz4VaxYm89fMFyjV+LGIzsygwGszqZ60ZbNSHuS6Dcb5zg0N5gL5dzQ9SzbicokQO5ckY068P5anx7Fb2Y+nIF5nQy4jBfVzZ7WqnLru3oTznBtGqPsx1HcxIw15McH6RN7vmcyizELjD17HnSe01ilPjx7Ha0Y7Buo953sZqJSmKLE7n5XHzEU6+11IdUavJ34u6Jaq4nX6S1y8W4fb82CYGRTd3Pqtb6U3tBjdxrrdm/Q/nUlHbw7rWBhnQbjODqsguu0M5OhRkxfNNZiFlWmDay5G3LLuSmF/Y9qsxiRn+fY2gM8z1MGtiIXve6nWGWaePMHjky8gnOFGgiGPGT9HcthvLtz7TMK3OR37mMMF51NwhVcWFtBuYOk4gdpg2ZUU3+CbyGP/KB7hO0C/n6ec2jFN/1qagJIuQi/Ecr4Dy/x3kLV1vlo0J5B+oSM08w8Rz/dg3uA8jJfF8rwKKEvk+zxU3yVV2t3TcyjKJLtJmZKeG4wRqx2nMlDY3PuPJpNPD6P6mPcPBHBw/uMFb9oZG6NDBky+VX2PW8V/4epg3CdMkUJ7DN6ePwPNjGWrWHXKuMePIMTa4uvLteI+aWwRP4nMmvvHZKWupmi4jY4DynBRijV4k3K87XcrzOBT3A2/9pg4YE+OPMKvHWFaNDmDunRsE/yznG+2hfOs2jVgdJbHXjjHjt/rg8mbqNaJdrLFPv/boJ2vS6sUEq14tD+7s3IsJNmYsyrrR6m6TMdbWmGp1xXTIWMY0ukxXJtgZEXwxko+MR/OPkW8wt/oOF9LjWVR7wWD8PB9ZlvPN4SMwbBIfOfQi5FxOs8enMeVZvzD1tIwNz0+jwA1u3k5kUeQNZnra42YE3zfXoqylbinQ6erIhpGODdOqc/jXf0OI1XhL/WNhzrHnx7JMEcKi9EgmntNhg+OrxD4PN/Ou8dGJXziugn5W/XEuv17f9VNdSEhKDosc7RgZfYRZR9Vld5uPK10qC4lN0yi7pfHMiuzONtdhHPyzDmV3svj+l4PqOhD1HThuP9xi7rOO+DmMZe7zd9j9cyivX3tMFzaP6xniLdURedDs78U9LWynLxxkUe8pLBs+nNPh8fd9XXPnc0rqdU4/34d+TZ7r96w/7BiH2rECvVCYx3RsW718W4IMgE6pqal3AawivnvIrGpjqi+D3i+T4GGHAeXsPvYVs7KgvPwJmQhF0ocNr03APv4rRiU8WFPR71Wq12vAw5QDbUa6BXDMoX6u/PLiLOSpt+hiZs8EzflW8s/g/N9ffmcPR9JmwqhAtnEMs2OJj728P/zxlOE/6k12W7d021s535/cjt/VR3k+dcV/1Bts6HwGh8MX0Bk4iZghSmbJDxDye52ltcN0xd8zgK91zzDwwPnmg+wabS9b2vh7zuJrjqjnE4GaOSj81beJlifiF3JQfbHWBB2TUVwea82hg43PZ9IhHuXvRc3jJvrFbWLU5fZ7flBrj5WZji5fDx7WqtlB2xpkQLs+66SKm0VV6BhW1VSy2hhI4Xa5eOjSH4OEfvo1P0rlOeyO/4Wg+NqBwL9gb/08y5yc1AFHNyPsO8GFx5ldoQVKQk4dwPTuy8y1NMRUoiQx6zrf5yixt7RjhEFXqCwk+reTzHqkQQboGA/mo75VhByJV3czXTvP9396lUW1rRpCq/TrZcfgHkZMNdKmTHFH466xR0xV1YrA/Gmff/3JllVeyjHFzVYFGpp3lbQmyIAOeKhaeWokr/98i8Hk8P01EWT8cSg5FH+SRZklfH/lGokVDdMSr/+C3/Vz2Fs7MlUnp24WPOEJVp5F8PGdBN/7fmzkY8hMra5McHLCXnEGv9pb3iuvE/xbDlMdh+KfIFo1WkWrF2+5jeUfhlUkZp3n9TOtnc/mwZRXKtHp3YepZoUkVgFa2pyOj6Sgqw6U54GxGW5wz/NQavOqjYmlGT2oolz1dHUnP00O52QyytisxSe4rl69mjNnztTNodEa7dh1IjzNHr6pXXiSiOMpdJQHKVs6xs8h9/RgTNsnoKxRRcr1Y4w9Ed/wwXNCs9p6rN6wtOWf9oNbXrCNnprHxAuCIAhPp3LFecbujadfj+41t7m38fPKQlKKnpCxfr9jIRnJWOl2482+du26XhFoCIIgCB1PpSQlT4yheZJV3b3L1tQrdNPWZpJ5v5Y/0Ep1saWO1iN+SIbwxNA89qIcPP3E8RQ6iihbT48HPVbZyjLWJCXwTdq1dstLXaDxUs/e7bZS4emieexFOXj6ieMpdBRRtp4eD3OsspVl/OvqRYISY0ksfvhhwnWBxgfWA0WE+gekoyXhA+uBdf+LcvB0E8dT6CiibD092uNYqe7eZVd6MvMSzrP+eiKXHyLgkHz44YdLAHrLujC8pwm5FeVklZVSdfduCx8VnmY6WhJGGJsS/OwLOOrXz7crysHTSRxPoaOIsvX06IhjlaMsJzo/h+O52fyvsIBbyjKq7t6lE53Q0+7c8grQuL1VEARBEAShvT2uWeYFQRAEQfgDEIGGIAiCIAgdRgQagiAIgiB0GBFoCIIgCILQYUSgIQiCIAhCh2kwBXlGVgG//JpMXsEdunWVYWTYjR56Oujr6dBdT4ZeNykyqZi1XHh8OnXqhLa2Ntra2mhpNR4na13NQ+vAZTrdLKHaQIdOJnpUG+ui6tkFVU9dKo1kVOu27rYsQegIzZXjwsJCUlJSKC0tRSqV0rVrV3R0dJBKpchkMqRSKRKJmL9CeDJ06tSJzp07I5FImqyT66KGlBt5LF4VTkVl88/vjv7x0/bNpSC0QXV1Nbdv3yY7O5suXbrcV7C14m+h89p/oLz5x0kb313XkdkUhGY1VY7z8/OJiIhApWq+Hl64cOGjyKYgtKi6upr8/HxycnIarZNBI9CQH7zQYpAhCI+blpYWhoaGAOTl5SGVShukd14X3WKQIQiPW1PlOD4+vsUgQxCeJFpaWvTs2ROJREJeXl6jgUbdO/+7nPlIMycID6NHjx5UVd0fUEh+TnsMuRGEB3NvOb558+ZjzI0gPLju3btTWVnZaFpdoCFaM4SniZaWFncbm0ZXtGYIT5F7y7FozRCeVk3WyYi7TgRBEIQOkB4+n+GBcooaTS3iwGxXrB2H4+Xji5ePL77+64hu1zhLwa6A4UzcnIiyPVcrtNlTF2ikhwTgOnkzsXGb8bUfjO/G5Adf14+rmDreF69XfPGdI0fRjvkUhFa5vA4v+4H4bn7wctwmqkSCfYbznjzj0Xyf8MdTmszhNQG8vugoOU02MOozbuU+vgxwwWHkB3wtDyMs5AOGtufNNAXXwX0pmwLtkbXjaoW2e8oCjSIy8OTzDQEow76HVzxRyvcQ/SDhqiqZ0C1R2C7YR8SPYYSt8cO43fMrCM1REh0ajmzkQ5TjtsrIQOeNtXzmZ/EIvkz4I1L8uIMf8OPLIPdmf+AV58P54VQy6Wc389YbQYRerTkBskN4c+R8Dt/bFJK2nYmeQUSWAiSz0c+LxedrE5PZON6L5XEARURvDMQ3YC2HT21n8Vo5wdNceS88k8NBfni9Mhx7e1eG+/jxN3kG6dv8cV0QpV5NxlGWz/BluKcvwz39eG9tlLgAbQcdGmhk/XyQue9+wZR3d7D+54IGaakRct5++wumLz3NlbLWrlGfof7+DJVFEXpYD48Z7zDOIJyvftQoCspkQoP8mbrxLJEr/HB198Jr8nx21RTiukIlseGvS6ZQtHQ4Ti7D8VpyFCWQvj2A4TOC+NuMAKb6++E1OYgDYnzhH5rqv99x+4VPyX9hA8X/zUOzF7Jq104KnD8l3/84lSVtXHHRUXb9qIfHzEDGdQ1n19GamlUVx2JPX5bH1y3I4TnDmRqigNJEds3xx2tyAG8GzGa5fDvvuQSwKymKj0f6sjyuprJWxrHcx4uPjxdR9ON8hgeEqCvMvp7MnOSEPqCQz2b4zPC6irTo1Gbe9PFi+CteDB8/m42n1CnNnhMZUQQH+uLkNBjr/gOx7j8QeydXXIOixLn0JKi6TfLpg8jlBzgWm0F50wtyO/EkB+VyDhy/SHbTC7bI2G8pX87xwUG3mYUU4fx9zlEsgkLYt1dORLATkXNmE5oBSfvlXHbxYYQ+UBRH6OajpAP09WGcyVFCjzfeGVNLeXwVf9tvzNydIezetpk52iFsi7PHw8Wc0UvlRGx/B2d9dz49IOfzBgF3BtvmLyPBdSURR8M4KQ/C5nQQH4aI1r+H1XGBhiod+df/g5e8eOclCPv6NPGq+rSwkKvoebyAVfIxdpxv2wA+xeEQTph4Mm6gDa/6WBO9S05STVrCxg/ZqAzgi8CexJwtxntVBPtmyti1YHvdMmpK0s8fJcFkOpsORBCxxLMm+laSkyZj0rrt7A4J4VP7s6wJiXvInSE8tapSKP3HeXhtPF1fA+U/jlNZVZ9WtiKBTlNeQjvuIKVHGx9x3RRFuJzTFp6MG2jPqz7WnNglV1eoEicm+Ug5Ij+r7lsuOEroeScmvWJM7Ib5bFT5s3vvdr7ZNg/LH9dx2NSFobbuzA0054cN6nWkh67lB4t3mDtSyWF5FDbjfNQtdlfD2bhf3Wdt7OmJw/kQDmcAyiiWLziI5fx9nPwxgoil9pxYEERoNjR9TmSwbf58IvvO42jMBa6f2sy0/saMWBLGmaXuzXxOeDSqSP0phL2RF7lyJYGzh0MI/fV2o0uWXzvIzv+e4uKVKyScOUjIgYu0NW5uk/goYi08meRU0+Zh4cOkgYmEHr5OQnwmAwc7qevj0ssc2BVFsgrAGGdHYxIuXG921Qnnz1L+nCce+gAybEcMx9ZmMA6GLeSp4CynL9szaVJNV4u+E2+MsyY2Kq6JcSZCa3VIoFF89X+E/fA/4u90wepPA/H4kzF6d25y5IfTyH84jbwuzY7+3SH17Gnk4bHE3GpNwJFM6N44HMb7YAtYvuKDc/L37DqrBDKIPlvEUB9PjKmAKhkyXdB3ccc2+SzRmm1ginCWb9dn5qpAhpo0bOCTObowVBdAhkXfniiLRDH7I6o+d56yTeepUugieXEQ0hd700mRgXLTcUo3Hae0Ns11IJKeoAo7TulXZ1CmtibgSCY0VKMc+/jgfGUPu86rWyQcxvtgHBVOdCkofgwneZgfow0yiI3JYOAId3XQILFg9HAnejkOxhYw9pvNtIIdbAwPZ81OJTPm+WGsSiQ20ZwhjvoAKK8eZcPhy+oARt8JZ5vrxCYCyXHEdnVn3DD1cjJHfyb1jyOyJj+NnhMFZzl92Ylpge4YSwBjd2b5W3P66Nm6wXfiXHqMqnNJS9MMLKrISEmjiipupyUQcz6Gi9eyKa+G3JS0BoFFeXoSmR15A5e2DJ373lSirCoGFSCtqZOrlCirNPoUZVKoK11KlKU1f6oqKKx5W3Zvh41K/QnZQ4z/EGM8Hk77zyeuusb6T+SEFQIY4Fj7fkk68q3pGgvWplWReuwYq48Blgp2bPJmQHMFIu57Qi9DYfZUXL9Sv1WuUpCw8yhzXVyQSZXk5N9TmSkyyJHpY9xV871MFBJ9ejXWvKfdsFiVizvO/niqLlMyYSfKDEDbqP5EuZ1C+Qcp9cvVpVWi2n6QO9uBwdn0+HU8nZs5u5Tn9xB6BQo331OOdx1l1nM+6Pf1YZL1RA4cTyTpQC4e89yRcX8TbnmVsr4CldgzY44LXoFByKZt5zMb1JU2MmS1RbpKCXU/IDJkEtQVeWkRyvuraPXy0Ow5IdNIkt2znDiXHiOtHpiY6EBefT9ITyOI2fslx5Lrw4ojvYfg7dAbHUrqula0jSww6sinTTh5MlSxim3H/fhspDHKtHB2njJmqP8gHDBnxYmjKMb7IIuLQ4GCmMtKPAZmEHk6E4cp9oACVEUkXEhE6W6PLOMMsTfBGbB1daL70iiii9wZqq8k9sejJCWbE1sAtgbN5MnABbeB6wgNTWT0DHtkRYmEHkjE2cdJBBoPqQNaNMoorhtzUUz8ydOEnLxJcSPLxZ+MJSZX46075S001ymJDAlH6buSqFMnOROlfp3d5k/3qBBC04wZ7efC5S2rOJxRU0EWJbJrxR6KxvszQjOoGOCJt+FRFi/YTOjRsyQoxA1QgqZS7tZdDBZRtec4pXsyuP8u8VKqvjtDpWYMXVBGdbPrLuJESDhK37UNy/Fmf7ofDyE0DUBdlmO3LSJU6cmkwQAWDHWx4PKJmgFqqmSOHE0kPf4ytV+vLFKCTIayuEh93Sexx9k+kxMnMgAlsXEKZJlxxBYB2VGcuGqN88CaTsOMKA5cUAfpystyDlx1wsNVv+nNMHDBbWAioXuT1d+lTCY0LBEHV1ExPxm0sRk1iVGDrDAxNsHmhXEM0zrbIMgAqLoVw7FMW8Z6OGBh3BOTAcMYN34QPZovxA9H351P14ylaN1Uhnt64RUYjuWcL5jrBLZvBDFDuYWJPn68+aM9n+8KoGiNP74+73LYehELfGvKpESG8vxKJk72w3f+WWSm6rdl7vP43E/B8jf8mRoQyAbVFGY6JRJ9vqU63oIZKxfhcGY+Xp6+eE1eRIzLSr7wFwOnH1YHPyGtivjwI8Q3mlZOfPjptq1OEc7O4/q8ttMTzepP5jKdGU6+bAuJY9qClXyrWsXiwNkkpCpQzl/ECP9F7A50aVj5SeyZu3M3DvKDRIavZeMiJZO2y3m1rZso/P5VVVK1fj+NtiRXlVG1/njb1qc4SmiUOa/tdG9YjofVlOO9ccyY74T+SD+GrggkKWAtDjWtFg6BK5m5ZClvTpajLwVLn3cYvTGKaEUAll3PErwumVc3r0UZtIwNcS4sdDJm3PwPiJ7/Jl77e2LhMpt9C+JY/lc/lueD7axlTOsLKEBmoEfSxgC8sotRYo73kpVMMoH0xrYBqK2Yc5Z8iFcoyJBi4blUVMxPhCqSw75kb3I3bJ6xYYCjNuhpc/vX3EaXLk/LoNzJAhstEyjJ5uzudRzoPpy3p7nQ40Gz8Mpa4l5pOln/uUC+3B94f4KuEzM2hzFD4y3n7Z6NrYGhs7fz6XP3v+8cuJawBqv2r//TxJ/dZ+v/t5wRwpnafyw8WbjNE/EkmfbVMYGGxJR3tgYy3RKKf/yWJUwk+BUdUN1ky9ab+L/rjB5wZW8UeRPdcZMAlw7i9+8WOgWN/fjmvF8jCRZM23WBaTX/2fotYvd4P4LHzUe5Qs5Cx/olGxQqfRtGB3zAaKawa5ov0deVzAwIQQxXEwDQtkA3cT5dn4Hq7Zsp4i/0COgCVRmULMxAd6UrWkDl50eoft8bmTbcjf6OfP/2KcfIXPgs6kLDRXTtmbYypH4ZAP9AQEnC2pVEOs0m7DkXlDOt8V2xnUkhgdj29+Pz/Zrf58437h/c//WG7izcHojtPW9bNndONFMxN/s5oWNVZ5CUVgKlJSTHZpMM6NiPYkhTy2tBSVoMJ89oBCKlqaSVu9Dj/sEUgtAmT9k8Gh0hmW0BUzlgMY85nqLBV3hKpYWwONSYmbPVrSTGr3zADPawXEzM9cdUraTknltUyzNz0eln0ujVZbd+JlSl33NHSvUdSlo99cCjZsNMeUQjrRnCk6hjWjRUBZwOOUiuPlSk5ZLKEVanakN1CVcTy8jbdBMpUHLtJsrcYk5rAbkpFFdbtl8eJPbMDQ9rxYI2zNge0aCZTpO4KvsDq8qjYuV3VPeAu7/dQsV+iuO1gSKqzpRRMiedTkB1XAZ304uoAMi+xl36Pfq89g1g36mA+v8lNszYe7LJcn2f5xZxcn/rFn3Qc0KcS4+QVld6dAV1oQRtAxuGDDKhR79BeBf8wJHE23VdgTqWwxjr2puSFBccqmNIuFkToUi700NcewntoIO6Tgxw8x+r0XXizUet6DqJbqnrRBAeJW0jpPNf0+g6GY9eK7pOKqJFORYeMy0LRv3lbaxSMilR6aBTfoljkUc4G9UNq+eGMXacDlWqKuikA8WXOLbrFLlVOli4euP3XBXl6GDU1waL5ibdEoRW6uDBoIIgCMJjodsTG4eeUBhDyFdXuF0FUELqr0dIBXXHeYM7S8rJOHOS3lPfxttS/DQI7UeM0RAEQfgdu30lgdSKRhIau321+jZXEsS4HqF9deAYjQPkdoOK9GxSOcjq69qgKudSYhl5G9ORAnnJN6m4VcBpCZCf3r5jNAThYVXlUbF8D6oewG8ZqPiOogudgVKqzpRRXTNx191L6dxNyVfPJZGb8njGaAhCo6rIu9n4La1NKVHkUYIV3TooR8IfTweO0RinMUZjrBijITx9tI2QLpyiMUbjNfRbc3urGKMhPDGqKClt4xPSyksoARFoCO3m6es6Ud0mNMgfr5FeDB/phe/MzfXPMClNZNd8f7w8vRju6c/H+5PRnAtOsSuQN3cpml2uKHw29vaDsXeseT03mwN1M5oXcWCOP8GXQXFqM++N92K4pxfDX/HnY3n9OhTH1zHVR50/r8DNRNc+uDbjKMsDfNWfGenL1BVHSb93SuY0OW8O8yW48VnOhN+L5spxbTl5xZfhPg3LFrRDOVadZfHkZUQrRTn+/dNGR6eN15NSnUaeQ9J6zZWpJ4OS6KVeDJ9zVDwC/hHpgBYNY6x6Ktgyayk7AFRVKFmFx2Z1qlJVxZ7DB9X/qKog5GTN56qgvzemLTz4Jn3/ctYo/PjuqB+WkiKil07lb6sGcnKlOwkb5rNLNo99R93RzwjnvTfms81RzkwbAAUnTilxW2RM7IY3m1wu4UIiDnPD2DejkdkNS88SmenKDMujLP/rUSzW7uPL5/RRJofw7htB7HIKYYa+nL8vucCI7WHMsFESuyaAv62wIWylE4eXLCPWZTMR2+2RlSYSHBDA4v1OfONnXLNzEglesIVYpQyHhz0MwkMyQdLvFqXPz6UMoKqSuywit2aeq7tVlZRv+k79T1Uldz+JoBMAlTB0PJIWzqymy7E9B5YEETtsNxEzbJBly3nTbxmhLtuZZgHtUo4vRJHQ352FqqN8PF+U4983bWxch2GRdpKM0paXRrsnQ9wGPfhsoKVHWd5UmbJ50JW2M1UGOcbv8OV8T4wfd17+INo/0JCY8s7av+GdVdzGKFabnpbGGLWwlI6VB5/NG4WlBEAfB0dzyg8oKFIlciIKPJbVTOts4cMkl1VsOJHBTBsLKIgi8o4Lc0wTOdDkcpBwqYiiq0F4hVxHqe/Eq3MWMdddXRyVZ6JIH+KHg0SPcYuCcHiu5kmXVoOx1d9BegEUxUcRO9CHL2xkgAznST4YTz5KrNIFh8mL+NSl5hHEutYMsZYRqSgCjIEiIpctJdnnAybt2tKmPSd0AG0LukUtRieliLtt6QnR1kbLzoSWHhTZZDnGnUlbTjKu5gFnyqIilBKNh6K1QzmOPX4B2xEfICNDlOM/AG3TYbzx3iCyFbcpr2qmMGvp0MPY5CFnArVuskw1VETsxvl8vDeRImQYD/uAL6cqWLzoe5IzksmR2WBpAKAkJ1mBjpU1zv4rWaAM4rXkQM6scIeMKIKXrWLXmQyKSmueMqyrT3fflXxrvpm3smdzcokTCbtm857cmAWblzJaGc7Hc9YRqVDCgaNMW7KSV9OCeG9nIulpCjCxoJcMUCpIz4ZeNvZMmu5OzI76fNn29WThrunINt+T/2U+WEqKSAhdR/DesyiUoNR2Yc7ORYxu5pFBfwQdM0ajSzesbDqmh894yBg8av8pOEvwtuu4BbpjTCIZCj2cTTSWNemJ4mYuYEHRyShyXD/Alsyml1OB0sAF70nzmDXSmJzjq3hv3nx6hW5nWl8l0SeScfBxAl3wqJvDX0nS3rX8oOvD14Mh57wCHWOL+mdYGFvQ604UOUX6eHjWz9evjN/OhlPWTApUh/npofMJrgpk92R9NuzqiD0ntFk3fbQdO6aGaLocAxIZMpLZNfNDNkZlYDxtM6NrLr0euhxbJHIizgKPWTLQtRHl+I9C2g0T80cw6qKZMtWAKo7QEAXjtp9kZv8iFAoZxsYyvtkfQHTQcIL7blK3xqmi+Nh9M7ZfhTDDAtK31a4gg23z5xPpuJKjG90xzo9icUAQihn7+HK8MUmbNwNFRK8NZPF5Fz7fGYizPqRvDyGy7zwi5J7IFAqUhvrou6wlzC+x5pEVYepHVsSvwmuBjM/lH6ifMzS+Jl/mX7Av0Eadr3vzL4Gk7bP521l3Pt8ehsMfPLjQ9PSN0aihTAvn42lBJI1fy+c+xoASmnxmZBGnoxQMHWHT/HISJ2ZuXsvckRbIkGE58h2mDYzj8NkiUMVx4upARjs1XG/s5kDeCjFmycaaAtlUO45GSKc4voqps6NwXrGWaX1BGb+Ov+0fyKdBDR+yJfz+3V+Oa9kwbWMYZ6I2M/TsfD4MVdAu5Tj5JNHG7rg1mIhJlGOhvTVWpjRIXJjkV8EGP1e8lsahb9zGKUgLznIVbEeYAAAgAElEQVT6shPTAt0xlgDG7szyt+b00bM1JVdJTngQb4Yas3CjOsgAsHzFH+dTs3FxDyS0yBj9lpoem9JY/lVx7NqlZNKCABFk3OOpnJVFcXwV7y47g8O8b9j9Sm0ftAUWhrmkK4CaqzxFbi7GfXtC6VmOZA5mxoAWllOcZVe4Eo8Ad+pvtJUhk6Du17Z2Z2Ht+VCayK4F89mmnMDnIQF1BbmXiTHlcQqKQF3ZKjLI6WpBL11Qn3yz+Vu4MTM3b2dSf/XKYveHk3S1iDdHhADq5nIChqNYEcFn4vkrv1uNl2MFseFxyNw91ZWVgQvjhunzVvx18Cl66HKcdPwsvdz96wMBUY6F9tZEmWpAEc6GED1myfcxs/+Dlw2Zxkdl2g3XI3P0YxrhLF8ThfMSdfAbu30dscPWErXmIcdnNJr/IpRP1qjXJ8ZT16Jx59LXTF2WzLjNIXz6isZAN4k9I9whMjRKPZI4I5zQUz0Z4W6B8nwU6U6e6qi6meWQFRG7bRkbj6vHIhed38GuZBfGueuTEHUBy5E1j5pXZbDrg9mEmsxj3+aGJ5L+ME+cL8sJvaoEiogNDUcxzB1nmZKEjYH87ZQLn4esrKucAYYGRRB3/gxxZ88Qd3oz06xsmLH9pKicf8eaLMcoSdgbxOJdieors4KzHIgqwnmIdTuU4yIiz8rwcK8psKIcC+2tmTLVgFKJEn2M9WWgyuDwrnCS2vIjbeCC28BEQvfW3NGiTCY0LBEHV6eadj4Z3fu6M3ftSjzOB/HuNvX5pCxVIjMwRh8oipezK+oB7ztpLP9VLkyapGTbnCB2HU9EIYKOOk9di0by9U4k3TzLcj9Xlte8J3P6gLBdATjPXMqkoKVMHLkMJXoMDVzJjP5KYkOScXilvs+j8eUAPPl0TTIfr5jK8BVAV3smrVnKOMNEgs9b4D1DXYSVJ7cQHJVB0dnZuIfUrFSiz7h1J/nM3Y9PFyTy8WxfdimVyPr68dkaT/QL5AR/FUe6KpGpw+oHyVkGhBAxx/5R7DrhCdJcOZ62YinpQfPx8lQCejhMXstn4/WJXfKQ5VgZzlSJO1/U3hwiyrHQzpovUxoLWvgwNyCKj/292AgYPzedT8fRdO/3fSyYsXIROUs+xCsUZEix8FzKF/733GWl78LCjR/w3rTZfGy+m89nzGPonPl4eQIya7xnuzzYhjaafxnOs0P47rlwQo9u5t1V19H3W8mmGfat36zfqU6pqal3Af4v8JtWfSD6x087NEOC0FqXL1+ma9euDd7TtQpu1WeN767riCwJQptpluPdu3e36jMLFy7syCwJ7UCxfzae22zYfaCRMSq/U43VyaDRdSLt/AfZE8LvQnV1NZ06dbo/oa2TEwnCY3RvOZZIRD381EvezlQXV3y3KJk0Z8ofJshosk5Go+vkTwPNOX/xxiPLlCA8jPz8fDp37nzf+6qX+iI5mvwYciQIbXdvOTY1NSUjQzzU7KlmE8DuswGPOxeP3O3btxutk0GjRcNv7GDRqiE88aqrqykoKEChUDR69Vf5wVDRqiE88Zoqx46OjqJVQ3iqVFdXk5+fT3Z2dpNlt26MBkBGVgG//JpMXsEdunWVYWTYjR56Oujr6dBdT4ZeNykyqajEhcenU6dOdO7cGYlEgpZW4zdNaV3NQ+vAZTrdLKHaQIdOJnpUG+ui6tkFVU9dKo1kVOs2HnkLwqPQXDkuLCwkJSWF0tJSpFIpXbt2RUdHB6lUikwmQyqVimBEeGK0pk5uEGgIgiAIgiC0p6duHg1BEARBEJ4eItAQBEEQBKHDiEBDEARBEIQOIwINQRAEQRA6jAg0BEEQBEHoMCLQEARBEAShw4hAQxAEQRCEDiMCDUEQBEEQOowINARBEARB6DAi0BAEQRAEocOIQEMQBEEQhA4jAg1BEARBEDqMCDQEQRAEQegwItAQBEEQBKHDiEBDEARBEIQOIwINQRAEQRA6TH2goSpghXsMCw9VN1ig4rcs3h9xDv+gPPJUGgmqErZOOIf/ikKKH1FmO1Y10UExuDmea/Tlu6ywQ761Ivo6E10usTW2uuWFH7nW75P4Nf/D+91s8hpZS3NpaiqiP43F+/V0rio13o5Mwvve73W6xI5r7beFTask7N3Gt9vtuUTCch9FHu7RqnOu9cesIjIJ3xFJRDaysubSajLzBB4zzeyVsuO1c7iNvk6MsuXF29WNLN5xiWXJocoOWHkFFz6fyojR7/B1UiPJZcns//csJr46Du+J77D424vkN7JY/pFP8P3zx+y/0QFZFIR7aDebeiOHJR9mctO5L+uWGGEkqU8qjswmQmbC4tnd0evgTD5K0hdMWPGOPtJ73zfu1gHfVknk3iJMA/sz3fnJbVxqzT5xHNUdo70FRN4ywa93w+WaSwPgVh7y6C5M32RJf5nG+0PNmOVVwtbbRiz5pwn9dbVAG2SPpMBJMDPvjNRAhv8iM4b00EzrjJXBo8hDQ20551pzzKQvGOEmSSEyWoWHl+SezzedBjyhx0xDYh4RtzpjJr1NRLSKIR6NbEOHqCZ+by7Fvv1YPaZz+6++4iI/nQFTw2yO/ZTIW7b2molc2LyMTcnPM2/NIvreimDt58tYabiFz8YYaix3g0NhyTgHrmd8n/bPoiDcq+lAI7eA4A/Tie9nyfrlvTC75zzVe9GaEA8tpI/q/G2ry3tYvL+SlyZN4GXbNgQJPXQY8kL3+yrojtEZj+V/wkv3EQUZqnNs+uQURmMmMGZYH1q9V1qzT541wsM8l8hIJX6TZa1PA+jZk+UHeiG9N0mmi+9Ke3quSWLF31XMWt4Hjz4PuK/avO1aDJljy/RrV5CHleH1hQlWj7mst+mca80x0+2Ox0uw5Fg+xV7GDYOX5tLgCT1m9eKPF5D1TC/e75nN1rB8Znk0sg0dQgvHmc+yQ1ermX1fwk/rVpLQx49JYwZh2obKpiL2BFEV9rw1pYRN+49w4U17Btd+vuQU+6MqeHnhDF62lYLtG8y78StvHzpC2pgp9K1bSx8mrdqOtMujqeUEofEaoLiIrR9eJ8LAhOXBJlhpVialpUSsSsR/9AW83GKZ/mE60Zka6ZkFbP3wEr4u9zbbxrDkWDV5+xLxeD2T1LoPVCJ/O4Z3dta3b+b9msmS1+Pwfu4c3uMSWbGvpGFTcXEJYauuMH10DB4uMUx8Pe3+5lGTgdipTrF21lT8531J6LlsKh5wJ2mKXxWH90KNTgBVHkvc4lgfW/cGV/dd552xNXl76zryS/V9TsWRSUwcm1qXX6lGkJG67RLe7+eQpyok+OUmmu3rmu8TkGequyX8g7LYs/ASE91i8B59iRV7SxrfVoklDpb5HPr3O/i99QmbDl0kvz12CoCkM0Y9q4mPKCCr1WmVRG+8gv/LF/Ad+z/eX5XH1UNJeL98nRiVOj1mexpbDpWSdVHBwr8ksvVXjebo4iL2/P0SE91j8B2bwIr9JUSvisN7ruL+roUH2XbdbkxfaYXb9UwWrixosM6skEQ87jkm6jKsJHpNIhPdz+HhFsc7C7OIL6j5kLJMfe6MiFGn/T2TGI0umKyw67wzOgYPl1j8375O2G+qhtvpeQG/V1vYzjbRwqi3FGV0AdH3raiptCf8mAGoiog8pmTAUAO8XuwG0flE1u7nxs6tEdc5+G0TxzMyCe/Rqepty83mI5cE9qSoV5W1/yoT3S+xProSinP4yC2RrXtT+WhKHF4usfi/m0b0rcYyKMVugCFp8k/w95/F4m9OcK2x/o37VHDm+DkqBj6Pu/sw7ApPceicxg5JSeRahQ0O9vUBRN+BA9G7kcy1MuDMSnzf/ZLQbz7h7Wmv4f1qALPWnSBNBaTs4e2xs/hWsytFEcacV2u7aPI5+80nTJ/4Gr4TA5iz8QTXflqG7+QvOKvZpS4Ijbg/0KgoQT4/iR2/6TB9sTmOupqJlUSuuEpwdGem/NuekG/74a3KY8H7acQrgdJC1r+XhDxXl+lLbQleaoKbORh5mBH8tV3rugd+y2Thh7fIG2rJ+u+fZXVAF66su8qK/TW/zKVFbH33Knty9Xhn9UBCvrNn8bxeDZtvAQwH8XrQFuQ7/skkq2wOLQ3A7+1lbDqSSH5zJ4YKlMpqKjRfbTiRKn5JY+GaUvrPHEDIdwOY5VDGjveTCLul3n/R+wvBw5AhjVzYW3kZYvWrgojM7rz/X2eOHLbETVfGlK1OHIly5kiUPW87a+E4254jJ57B11z9uawfc7jyghXbfx5MyDxd4tekIW+079UE98B/siNkC/8cY8i1PZ/g5z+Lf317gmvNDUFpzT65VUDkRai4mNcw8GwmLSskiSX/Bb+tgzlyZAD+3GTuZ4UwSI/+Esjam8TCnZV4/NuJyPNObPlrZyL+noQ8Rb0vI5YksSPXgMUHhxD2rSWmYUks+W8l/YfoN3L1+oDb3tuIucGmGP2YwsKdpXUBnJlff8KinFgfIEPqYcm+KGfWT5ZBdCbB+8Hn3w5s/cKcoSZaNe2G1Vzdco3lv3RmSvBAQr7py9BSBQv/nkWqCihWsGFVEUYBduz42oYpgzojk3R6gO1swzFTlXL6WBkVBcVE/qxqVdpTccxi8jmZ2YWhL3ZBb6gBQyghIqKm/pDUnFs/9cWj9tz6wYqxrzVxPBtVTV5EEh+tqWDo8gG8P7Smi6SiBPmhTkz50onIE8/gq8pl+YaCRoJ+KX29P2TNjt1snTkM6cVtzJo2lVmfyzl7o6Tp7So5x7FzFTi4Po+hyfO425Zw5ugpaj9RUZBPXjdDTLtofMbAAENVNvm1gUzSEQ4VjuDTXQcI2/R/GEV9waYj+dBvGO790ok6lV330fxTp0gw9+BlW7gpX8Ynh2D8qt2E7Q1mMnLmbDxHhf0gHJ7UVm3hiXHPL3818RuSWJ8lw7FnKfLtDa/iuJWHPAJ8Flnj+4IuZnYGTFluiUdBLvJfqqn45RbhBfrM/cIaPy8Dho63ZPHHBhBTQrGdfqv6tWP+qyB1kAVLZhrRv08XHMdbscRfyum9uaQCV3feQK5nxurlZgx9tgtmfXRxHNSlyQpXajKI8TPVldW8QdkcWj2HZYeavnyoOJaK93MxeGi+hmi2WDSnmtOHboO3Oe+P6YZZn254zLHGv08J8rBSUJZwOrYTQ4bWNAKrilg/Tt3SA4C5PkNMyon5tRKpngQ9AwlSQKbXGT0DCXoGnZFpA9LO6OlJ6ptmnzFm+vhu6Em0MPIwYohBOanXmxlc2q0PLn41Fd2btlzbs5JZ60491D7JOlZAfE9dhvQuJ/JYWYPPN55WSkRYCUavmuNnpwUSGUMDezOkqhqrZ7uhRykR+0swndyX6S90RirrjKN/P94eVMqe/xRCbgERv4BHgCmOeoCBPv7v9ECvojP9n2nqB6Lt2w4gfcYY3+chfr+CK7UtZzL18dCTAZKaYyVD/aMilWBkrkP/F4yZ/oGJOn+qEo4cqcRtRj98nbtg9owB0/9pzpBrOchjar9JC73eXbB6tju+My3xstN64O1sVTm+lkfkjS4MeaETMRH5Dc/1RtOehmNWTcyx2+T2646bNWDQg6FDIP5Ibl0rqlRPgl6PTurDqNcZPT2tJo/n/e6S+3Mqc5eVMuSfA5j7osY4DIkEjwBLhphrga4uXqN0KU4pvb+Fr275btiNmMI/1u5mz2cTMIrdxscf7+RCExc2JedOEFthg/vzhoAJLq42lMSeIKqmOquoqID8I3z853F4v1rzmvUfrqmgojbakdoz6c0R9O0CUvMRvDQIbty4BfRhlLslaWdOcROAfKJOJdJ32DD6coNjPyVj5P0XxveTgsQQl7/44ayqoO8AmzZ1aQl/TPeN0SiW6bPwS1uG/pZEwN/T2DBcnwW1A6nSyrmJLr7PaMQnet0YYA2RKeVkVVWgtDPk2Z4ayS90x1GVyZUU8Gox0Kgk64YK02d1MdJ41+pZXfR2lpGqLCP1FyVD/I3vGzPSnPwrJ/ivXM7+U7cwcvVj/CDDJpeVDjUjeOY9fdsSLcysW/NNSm7euIupr67G57vQ/xkJWxLvUJFbyU2lrOk+a0kXTPtA5I0yoA0DyXpLMatfCXoyyGqhiblCkchP++WEHjpHXp9hTBpt3+SyLe8TJSePlWLmbcfbpPL+sQKy3uhSk6cm0lRKbmaCVT+Nyy/dLpiZS5DZyUBVyM1MCQMGaTapqX+QcmPLyMtUkoWMIf3q96W0rw6mul0YYNd+2w6Qte8666NlTN9qiWMzv4fqfWXOX+wTWDE2hg0vWhKyyURdlovKScuV8aydRsHV70p/cxUxSUp4wZi338hh+vtxHDEwYMlRWzxkQGbZA21na8rx1YgCUp/tyY6Act6fn090gXHdOdpomv5TcMyUxUQeq8TsVQP6S9Tf7za8G8GfFRD5mznTn2n+e1qkKmPPmjL0Rlmx3uPec1Qbo54a26arBbUtSU3VV2XZnD3yPXv3HyGhwp4xk0Zg1+iyJZw5eY4S2zdwMVG/03fYMOz+3384FJXNmPEmSKVS6D6CeWvfqG9luBXO4oVxSGsLQhcTjOoiAyl6UikVZerKwnTYCOy+PcXP2X5Mkpwi6ool7u/3AdUp0jKhz3iNkdxd+tDHxJButmI0qdCy+wINt8B+eJkD5n15e1Q8y1el4THImqHNBQlVAOorBCRaNKiLGztpVNVQd/LV/F2X1sz3dKqkuBiksk7NLFSrhLRTRwiVf89PV8BuxATmbfLGvU8L8beeFMdB3ZoeyNVcgKNSUawEmaRhICGt3cu126a5jioabLNMSpu6atqq5MoJ9srl/HgqHemz3kwK2sIYZ5PmBw22tE9u5BF5qTMe8/RxxACr3QWcvGHGlD7NpJk3sS4VSGv3X1ubZKuqqSuHjXiQba+4mM6na+4wYI49059tueuvODKdrTFSpgRb4TuoS33AXFqNEhpuk+bft3LYsFOJ40xb3vfu1nBc1L1a2E6g5WOmKiEyshLHiUZYPV+Oh34SEScr8Rrfuek036bW9eQcs4pzeUTmQt43ibh90zCPEYeKmP6MfhszeA+JBLfJPcjdl07wIX2WjLnnQDV/H199PusCp1PkGT7PmEmfscjbHsOm9l/hKX6KrYCybfh7bmuY9tMJ0sZPoa+BIUYV+WBoUt99ooASiQmGhkB6C5kyH4a77U6iTmXzkvQUCX1GMK8PoGp8b3dkPSX8vmjd96+k9qTvjNccC9xK8wheU9OF0lcHU8q58ptGs3xxCVdSwLSPFDNrKbLrpVwt1VhlQimpyLDSDHwVlfVzKqgqycqtXV9nzPpJuPlbaYM5F1IvlVLctwtWki4MsIWYQ3nNzMlQI34nC1ZHUGL/Bmt27WbDR34tBxmtoKevjTJXI/+5leSptNGrDcRU1aReK9Xol1Vy9TcVVnZdkfaUYSpTknWjZnuVleQVVJOXWzNYTlVG6g0wNW/hsvlBqU6x9uMvOcswAtfuJuTf7zG+pSCjFbKOFXDF2gAvO8DOCA/r+i6SJtMkOpj2gdQUjW6WolKuZqq4eq0MJLr0t7tL/K+aA1sriU9Q0rNfF4zMu2CGktSU+rJYca2U1NJyUtPaadsLCgj+JJu8UX1ZMLFLc0vWSY0tpXhQL6Z7dcOqt+avRjWolKSmaNTOBXe4minBylYGiUXEV+njF2BA/36d6/PV1u1srUt5RGbq4jFKBjI9PIZLiD9WoC7XTaU98cesmpgjtym2Nib4OwdC6l72zPXQIjUivx3m1JAxZKIVS2Z2Ifqz6zVjT9oqn59Wf8w3id0Y8/ct7Pn6n7w7ppkgA/V4iQsqe15fvYUdW+tfa163R5oUyU9JQD977CSJJFyt3/s3Ey+T18cGu1YVXxNecrcn7dcIDv2SiJ37MEwBJL3pa17bxVKjMIm07HzSUrKbWpkg1Gn+Eq13L2bN1Kc4LI0NkZXQ2wi/UVWEr0glLLaMrJRC9gSlE9nTCN8XJUhf7I1X1wLWr8ghPrOSrEsKglflUjGqFx4a3Snk3mbPziLySiuJ351JhEYlM+TPxlj9msGKbQWkZpZx9VAqK0IqeM6vJ1aSznj81RSrc6lM/8t1doQVktrUsPt+/8eGkC18+ldvHJruKbnf7VJORxcSc+/rYhkVgJWzHmYXc1i/v4SszBLC1uYQ36c7bhqBVFZYOlsiSsm7VUbMtuvsuKaLn68u6PbA40WI2JZJ/C0lMTtzSB2kT0XYTaJvKLm6L5OwTF08XuygQEMyiHe37mbrwiltu+W32X1SRsSxcqxGGalv/5Sof6CuHMsntdm0Lnj5diPvUBZhN6pBqSRyTQ5XdLVI/a2UCmR4Te5Oxb4brA8rISuzlOhtSWyN0cFnYnfoaYCPB0TuzFYHtrmFbNlWArqVXP2tkYmS2rztKqLXpBBW0A2fl7RIvWfbrzYxYZeZtQzZb3nIfy0j67c8tr59iSVhtb9u1URuTiHskpK8G0XIP8skpo8xvkOAvrpYqUqICKspV8sSmL6sgOK2bmerjhnERxSQ52yER28ALYZ490AvpoDTuc2lPeHHrLSAIydVDPDtzVA7XazqXt3w9TfALDufiOj2mBhPC6s3rJn7fBnrF6YTX9ryJxoyxPWj7exb8yGTXFtz224+UScvgpM3fx7Uh7796l+Dx/vi2uUGx35KhG7DGO8u5dBXO4m6kc/NeDlr5ekMHuOtcWtr80yHDcMuUU5oog3u7jV9NPRhlLc9xT/t4VBmBVRk89NX35PURUraleR2uZtP+H1rsaHPbGIf3o64TPBnaQwdZIvHomcoXpvGng8vEVzVmQFDjVix3pwhugDdeX+9FVtWZbJwQhrFujKeG9OH1R8YNRys2bcr3aKv479Rhd4gI9xe0KofMPWMOcu/gPXrUnhn812k5rp4fNCftyeqf3ylz5gRvKcrYXtvEbk9mR0rtPFdbs/ce/tLuxnSlviiVsWvOSz8Nef+hGdM2PEfS/o7W7J8gYoVm6/gvwx6OhuxcKW5uj9YBaCFo7ceedt/w+/aXfTs9PBf3a/mDhEJHnNsuBqUwkev5mD0ggkLVpoiO3Sd5X+5RKpMB98l1vh1WLdnNwyN2/6pZvfJMi0ir8nwXlrfL281yoABXxUQeYym066ZM32yLctzrxP8Zhxb0cJqlDnB8wqZu7GYeJURQ0b1Y3luGsGbr+B/C3o+o4ffF7ZMtwPojMciW24uu8HCsdkodaUMecOWhdeTWB5bRMVEo3uufNu67dXk5qqgoIStc++fgtHj30NYPub+ON3Itw9zL11n64eX2KHdGcdRvXj7RRmUApIueLwI4R9dIrigE2YvGLMkuKbs9DNh7pxSlm++gv+qTpg5GzJltj56SNq4nWrNHrPd3YmMVOH4V4P6rp1Bhgw3vsbJ4wWkNpUWWYnvE3zMin/JI1rZjbfH3H/5Ln2hF17Wech/LGCWh1E7zKkhw2tRP2KmJ7FiVTe2zGnbpw2N21A7KU4RdUmK60fD7q/Tug9jzDBDPo46oZ5TI3AR7677nHWzwiiWmjDYdxHzx7Thu4yH8bL9NhIqR/CSSf3bpuPnsyj/CzbNnsomutF32BusCDzFnG8ukqAaxmBx54nQjE6pqal3H+UX5u1LxG+/Pju+NcfqodemIjroIgtyLZBv6tVgAOljoSph62tXSA1wYrnvYzrzVCVsnXCFrJmDWeL15M42+oeTmcX7Ewpw+85BPXZF+N0rDruC705dtv7HsmZg6pPn7L9fY5V0Efv+NuhxZ0X4HWvl0KUnT/G1Iq5mlnIk4S49nWW/q2nQBUEQBOH34ikNNJRErLpG8MVO9PcwZfG9t/EJgiAIgvBEeORdJ4IgCIIg/HGITnxBEARBEDqMCDQEQRAEQegwItAQBEEQBKHDiEBDEARBEIQOIwINQRAEQRA6jAg0BEEQBEHoMCLQEARBEAShw4hAQxAEQRCEDiMCDUEQBEEQOkxdoHE66AWsrKxafA1acOJx5rdpsf/iZVsrrGxf5l+xrVg+9Sv8BlhhZfsCAd8moWz5E08wJek/beDD11/mJecBWNmqt+uTXx5vng7MHNB0WbIdy+qEx5k/oCqBDWPVeXzhnb2kVz3m/DwhcvYEMKD2fH/nAEVNLqkk/eBqAl99iUEOAxjk4ceHW06T08x+LPohkEFWVlj9yY/V557us04QhNb5/bRo/Gk8o22AqiQO/3C6hcBBScyevcQoZTi89QVrX7dF9mhy2SGUv/yLgJmr2f9LEun5SnhCfjBlT+gTK2spz+xl7xUl3Z//iE1rJmP5lD75p32lNzh/Cn/Zz4+KxpfMOfJ3/Gdv4PD/0im8o6QwNYb9KwIIWBXTxPmXzt5dJyiUWTJ+xSY+ev5pPusEQWituqr12b98QYh3zT9V6RxY8Xf2XgFsJ/PvRePqK2HjZx95JltF24FXvB3YcCWB9GOHiVnghltT9VhVErEZvRgx/X3+Oc8N/Uea0fYXc+QwSUpAZsv4Oe8z7k8W6Mt06GX7OHMlY3TQZv5680O+OlcIXW0Zv+jfzHq+uzpZW0Yvi8eZPyUxselYevyVv66YxZCujzMvT5DUwxyI1QgT7pzmwMF0Jk+3bLhcVQI71+wnvQq6v/gRm4JGULRnPrN3JJDwbTB7p4Xwxr3HN/U0SbIhTA76J/8c26vDN0UQhCdDEw9VS+er117mX+eUyJw/+v/snX9clFXa8L+vjDPOCvI45oQioM8MizYkIjuWmmwkT5Bosmn+etSk1MzcNE2t1chc3TR/bJaZpmWrroppixkGLTouJlSTosUEPjBvAiI02vjya2dnHHzeP+4BBhx0UEhrz/fz4aPcP8593fe5zjnXua7rHEj7aA63dczylrMbSUhYiwk14zcfZ3Xsv8eMqejNBGLXm0AVw5KdG5iq63LneGjsRRxcNpdFe0zYO2tJfGkDyyfrfvbG3S+VorcTSFhjwq4IQtTKVesAACAASURBVKsupagUFPolpH04o2kfYFpLwuiNmFAz9YPjLH9AAVUHmfXAXNKrFMS8dpztE4UxIRAIbjp0UsXJbYuZFDuIMF0EgxKSWPlREfaLKSTpetO7/yxSrC3c6kxnnq43vXuHMWZLqXTsXApJeikmHJawkmzXvfaidNY+ncCw/mGEDRzGmPlbyb5o5+RrsfTu3ZvY1042KdputUjxZKeF9MOGprFlp4HFA6VnJLxZ1Hi89iCzXPJM+qAULqaQFNZCXkHYJHacd32BnK3MmxjLIF0YYboIhiVMYt76g5jcH1pbxME1sxjzYARhYWFEDEsg6eWtZJdf+1la+67uaCe/wAydAqwGVib0l+LrYQlsPNtYX6Y9yUyKG0REWBhh/QcR+/gsVu45iaXKwGLXtx/2crOQ09mNJGh707t3BLM+bnyxKtNB1s6fROzgCFf9T2LxFgOl1/jLLWRvW8u7GSap3NoiUpc+xmPP7cBUe+173Khcy54kKb6vHcTiTLeHOYvY+KiUaxE2eQel9eVdt46qOPh04z0Wd6mPbWTe4668g2EJzFpvoNRexNbHwq59tifKs9n6chIJwyII07agSw+u5OTheQ25ENf8xK3F5JSMyN69exP2+FZOntpB8jTX++hjSVpxUPJkAaVbxrjqvVFH6+s+/bmIJmW2iNNE+mGprhSDZ7DkdzoA7LmppJ9temnVdyaKnICPFq3GZdb+Sos2CMCO6TtXG8tJZpi2N73Dkkg5m83WhZOI1YcR1n8YCU+vxVAva32OVTNdA7DsmnTtu1WZSFmWRMLgCMJ0g4idnMyOb6qwZy5mkFb6XqUIBII7gZswNOycXD+RSStSyC6ygI8C+zkDWxdNImnhPrJrQTH4ER5ReVlcVTYrn03GcBEIiuf1LUsYogLKDzJ3yiw2Zpgo/Sd08qni5EcrSZo8i3UZRSDTEp8Q1VSuw4aGhL7KY6kYWjJ2bpVzO5j19EpSc4qw1Nqx11ZSasrm048NlNYPoHYTG6eNYe7b6Zw8V4ndbqey1IRh50omPTaLFDdbp/Xv2gxVDEs++oglD3ieQVo+Tibp5R1kn7VQabdjr7JQZEzn4BETVb8awugEyS1emnmQbLcx1JT2qTQwdY8h8UHJB1F1LJmJ4+ay8aNsisorsddWYjFlk/JaEmOe2oqp4X47J9cnkbQmHZMVkClQKKTjRR8nM2naRrdrvStX/dgMxvVGMiR3pTYYB1VHtrLjOzvIghg/azxB3taRB6qOJTPp6bWkGkupdHZCUVtE+ptJTHpqJakmO3SNIX7YdfxF51KYNW4SK3caMJVWYm+jfBm7eSvPTFnJwXMKunfvhP1iEYZtc0laIxmHQY+OlsI/9pOkp7sNsVUGUj+vBBToHk1Ed708lO8+JfUsgIKo2Hhi4h6RrneaSP24aeaupdwiGY+yLvjXu6dkXVB3kb5NZXlpU0O/zsS6aUmsPWZBoVZDVSmmjI3Mmr1RMlj6J5IYBlBJTpr7JKGU9LSTLuNnNPG9AGcRW2dPYvEHBkzllXT6FZR+sYPkyUnMes+AxakgPC6eZsEegUBwm2i9oXEuhXXvSbMeddxqMo1fceb4bmbcU0n2sZPYURCuH+ida9xZRMrCeWw12UE1hBfe3sDoXgB2sjetJb0c6Kxjxk4jZ4xfkflaPP5mA9nngK5RRIW5lVWbzcFMtw7WmsOnR1rOl2+R7o+wOiOTzMxMlteHXnQz2J6ZSWbGGyQGgOXzdE5WATItU99O43hmGttXLOH1LauJ7yHdUrpnJW8ZK0HmT9T0DRzIPE7mriXE9wbK00l+aSuSrXET73rNdyzl4NK5rP3cAt2jmLpsMwc+3s5UjVT+qcxPpZUAQYms/vg4x9N2s/ql1byzYSpamYIhj8ajlQEXDaQfd43+ThOfZkiDizp2NDFdpG+89mWXNyIohhe2pJGZcYAN06Pwl4Hl87Usets1IJ1305MHX+BAzlnOmr7hwIp4gmRQaXyL5A+KGurOq3IVQ5g6bQgKoPLzHewwAZSSsi0VixMUkVOZ+oBUZ97U0bXf0cS7r+2QvATa8Ww+doavvjrO5se1lH5uwGQHxcAhRLVoZ1hIWfEn0kuluhy/5gCZn2dyYM1UdPU5INpElqzZwIaXEgn97R/IPJZJZsYGxrtkCnp8A5mZmRx/b6ZUJ/VYK+k+bTfHj6WRlnmAJa5EytJjBvKcQI94Rg/2B+yczEhv9OpkfkqOFVBEkZhw/QDoyY/TpUG/cxTxw9UQFkOMS++K0lKbGKGVdtcvtenM1dV7YoaRnFN/3E5lk29rwa55gY+OZZKWlsnup13ekrMGyash0zH60SipbnM+5dP6ScK5dNJP2QF/Yh59BDVQ9fFaNn4uta0hL6XxlfErvvnoBYbITmLIsYAsiMGDhJkhENwptNrQsHyezslaQKZj6vzxBCkA1RB+//Qj+API1Oh03jRyO0W7FpOcYYHOWqau38yc/q4e3HmS9GNSV+k//Pf8fnAXQIH28d8z1dXxKcJ06Nw6fPvnByWviCKKIXp/oBJD2qdNXOLe0QV1by1arRa1y1pSKPwJ0mrR9lbTRQaduqrpVP/cOlD00BIzeQajw+oFsriMLlDoF/DG0tFEaYPQPjCD1xcm4i8De24Kqadu7l2bU7prMckfFmHvMoQlH+xm+bR4osIkWUFBF1W9p+Nf2J3grx3C+KfHNyZA9h8vzSadFgwZrvDJN6mkmwFZEKMflQZ3++f7OFgqHRv/x83MidOhDYti9NJ3+MOD0iBn+lsK2U6wHHPpiWIIc1bMIao7IOtC1OTXWfKoGrCTl2GgqJXlBj0+g/FBgNPEvl0GLJ9vZUeuHWRqEqePb8gjuHEdecBswGCWvtmQaQskg0SmJn7+1IbEYq3uOvkl59M5eFwaXnVPv87qx6PQ9tIS9fhyXncNrJRaUDwwmtFxOrp0VhPUW4tW04su9WL590Kr1RLUq1mejSKK8ZOjpGfLtAwZ7GpjlirX7F/NI7+LkXTrm3TSiwCq+PRwDpVI3oDRvVt+dezZHMyUDD9FZDwxPZASrIfrGt4t/ZaWoyoYPK7e4FIQNSwKtQyoq8TiMioavDJVBtKPSC23NCOdk3Ykr1psF8BO9jHpnegxmjnTdCgARf8ZzHF55vhVOOGaWxBVIBC0Ka02NC7Wu0wVoWh7Nx7votXSSwb4BLnitDem0lWWQpPI+Afcuu9/XsTishB6abWNHbusMR7s30dLY6CgCkOaQZrVDoxnybjB+AN240HSm8Srb4R3KZRd4ubwh4QgFM4iUp5LYJBuEIuPuV3gLKXovNQpB/XXNXHhdonQofORrjGdrbqJd22G00TKnmwqgaDRc5jqwSIZ8vQSxocpoDSd5MeG0b9/EgfdnT0ybcNs0nLsIIZaOHnYIM1uNaNJrJ89ny2UOniFjiED3Z+jJkrvWiJsKaX0MpTW60nvgUQFNPl6DBwoXWsvLaLU2bpy6RzD1MkuWT9eyzOvS/tfKO6ZyozhjTp0wzryRHkp552ATI1W4/bFu2vRqgEUBPW+jnKfK6KoTro/Sq9rckqnj5JWbtUVUWS+gRyekKlRu4UjFZ39pe9SZ2/Iq+ny4GjiuwP2PNIziuDip6TnVOLuDWgJuzG9oa0E9VBQ9Hk22Z9nY+kSJBkEzlLSDzbm8PgrXPWkiGF5xnGOHzvO8WMHmFNffwoF/s3l7+5WtwqFq7XZqXeO0COR0Q9IhmV2mgGLs4iDGXmSV6zeq4aF0vJ/SUWE6NA2FKlAGxYkldmjlzQBEggEdwStD50ortOCfQAU173EE/Zv3iJ5i6kxEVGhoJNrNk4LezEo3B9iNZB6TIpDhw+PRzf8EQZ3AWpPcrAhXu0ml9NtZlb3r4Y4utdynzdx6lzVdfbqqKKqsr7MTtecrb/PXvev1r9rc/5ZRJFrgOjSXe3RVLKcPUmR9fqz0YbZ5OVs0o9lk35Mmt3qEtzi+j7emmLQqV5m2bXv37DPh8w12LSiXADtxDkk9gBqTZz8RvJmPDJ9atNQww3ryAMKBYob7KXR6bqC1j/N80W3tD2VQtFkXxKPT+g8hNFxQYCdvCPpZGemk10LqOq9AS1hJ/tgesNGW0UfLiZp8iQmTZ5E0orG45YjB0l3GajqHuoGQ4EuQQT1DiKoVyc6uawG/x5BzTw/zfoFj3XehUcedXlljOkYjOkYTFLuTbzLq9aknOZ15eO6QtHphvUoEAh+OlptaGg1odJMxV5IkVtCo720iPN1QJ2FUi/jFUGPrWb141LHeHLTIt6qX7/vo0Xryi84f7aoSWJY/aBqKT/f0HFXHUklpwpQRBEfHwSqGB4ZJs2M8g4fdOVCqFF3l64/Xz/bBii9iKUOoBPqHk3mYC1QRfr6ZFJMldB7PBvSvuJs0RlWP9jssjrpn6Lv8pquaMg5KeUA1M+aW/mu16BQ0Mk1ABWl7ZDCR+44s9n48lZOXgR13HIO5HzDWdN2Rjcfd3okMv4Bf3BayN6yjvRzSHH9Rxvj+kG9Q6VwhN1EtvteC1g4aXTtrtpDi7YraO8Jl2bC506Sd7np98sxulY2aLRoZa0rF4AuMcyYrGscqDTjmDHC/YW8rKPm9Nai9QGcForMbrVWVUqpy71vKa/0eCsAvbQEubxVJ41NkyeLjCelAbuhvtsDBUMeHY1WBnbTp6zbk+3Kpar3BrRAlYGDR7xotFYDn2ZI13XRaF0emlKKzrnO26XlsKBAq7u5BfENXpnabHas+ZQ8O9A7ntENm3up0UruJexmU8OqG4BSs6Qr9ouW6+5OKhAIflpabWgohsUT0x1pw55Nrm2ba01sfc9ApRNwFlF01pskTAXqsCGMf3k5U7WuMl5aK83AZFri41yJYUfe4q0cqTxL2lZSvpF6FvvZPCkJDgufpkmhA4U+XspKpwsxI2Kk8Mk3n5JuAmRBDIyQ3N6VRzayNs1EadFJdmxKkVZWdB7IwOslQjRQieWi5LpFBig6Ya8wkb5lMfPWZ1+zXbP92DoWv2nAdK4UU+ZGFq9Pl8IEmnhGD2ztu3r6jAMZPMjfdd0OkuISmLViB4b6Hth+sSEGjgw6yaDSbGDHsnmsTHNfANiFGNds0vLNSSkcoW8a12+s+1JSX5ZWyRSdPcnB1+axzuVR0j2WSJQMFMPGSffWGlj3/EYM56qwV5WS/fZcVmZIiXwxj8WjbmW5rpei8nJjyAB7FZVNLLHW1VEDbgmV2R+skxJ0qSJ70w5JL7FTZDK1bPS5DYimLYtI/vAkReeKyN61mLlb6hNrx0vemPZiYCKJ9wD2em+PuzfAM1UNK7QUxLz2FefOnWv68/lyhnQGqMRwMF0ynPvHE9MLKaSyZSvZZ02k//ktPq1CSiZ98Cb30HDzyphOSd9a96h73UNUgit5ufwgGz+QrrEXpbC1Xp+tJkytCpkKBIL2pPWhky7xLJgfg1oGlrTFxA4axqDBCaw1gk6vRYGdUzktbUHsqbwYXlgmub3tZ7eSvEoaCLTTFkj5BrUmtk7RM2jYIIY9m4KlVxRRQUDpKU6dB8rTOWi0Awqi4huXtHV5MJ4YFdLSvMMmQMGQp+ZIA5r1JFufTWBY7BiS00oBBbppc0js7o3AQcQkDMFfBhSlMDe2P/0fSGDWaymkvvkMSW83G4icFgzrk0h4cBgJ09diKAe6RDFnxQsNqxe8flePqBn/4gIpeQ/AaiJ9WzJJCbHS33DpPJjE4VKnb0lLJkHfn0FxSSR/kMrW+UmszGmUtmE2CYA/Q0bHN43rd4nnD8vGo1WAvdTA2qcTiI0bw1zX37dQP/hCY9KjIooXXpuDrrO0aiTpwf6E9R/GpDVSLo16+B9cSaGtLBegPJWN+9zcaedS2LjH3WhqZR25fcvEhTOI6iLdNyt2EMP0eiZtM+E/MAqtDCy52S0bfQQxddkSqS5qTexYOIbYB2OZtDQFUy0otONZvmx0O29W1phvAzTzBniiik/TXMmVXWKIj/NgIPSqN8CkkMbBc4AsihnzEwmSgeXYSibFJTBrmwk7CnSTFzD+pnd9VTDksdGNYTBFFIkjmua7KPQzeOF3QeCsJPu1BAYNHsaghMWkV2mJ6u8P9jyyjTex4kwgELQLN7VhV9DEzex+bQYxYWqotUCPIUxdtps9f55KlEJamZLttaUBXR5YwvJpUtJf0Z7FrMysgs5DWLJtOy88FkVQF6isVRCeMIfNu7az4MEgsOdhyCylNM21uqHzEEYPd+skO8c0/F6UkcpJJ9B7PJv3bGbOo1EEqRSgUKDWxTB1xW72LIzyOk8gaPIGdr82g/j+QfgrFCi6qNE+kMiM197hjem6JuVoH3uBOY9Foe2uQNElCF3cDFbv2d707zx4+a4top3K9rQ0NswfzxCtK/xjL8Xw2kpSy9XErznA5ucSiertj0KhwL+7lqiEGSx5ezMvDG4qR/2eGqhiSPQw6KgTVvPRhxuY89gQtD38USj8Jc/US9s5sGVGk9UxCv0L7Nm5nKkP6qT9FeqvXbidA282/dsi3pdr5+R7WzFUAd1jiK9PHvzLRgxu+2O0po7cUejmsP2D5YwfrMWfSqpkWmKe3sDuD5YTHwacM2D4ruWqQDuV7R/uZsnEGHQ9XN87SEf89NXs3rfazZBrP4ISxrk8EKAb0dQbcA0XPyX9cykc5D+spf1vXCtaAOwnSU1zBSMfXc3uDXMavrF/7ygSF25neyvakkf6J5J4jyvfQj+a+GuiMGriV+xm87Px6Hr486+qKrr0T2TJtt1snx6DP3ZOZRqu88fgBALBT0kLW5ALbgmngcWDkkixgm5+JmnP/ZQbuNsp/WAWscsM2GVBzNhznCX6n/Dx7U15CklxizFUKdA99xEfDUslYeJWipwKopamcWD6z2Kz/FumdMsYYl87ib1zIpvPvEH8zy358dRKYsdtpYggpu48zvLBt1sggUDQXvxy/nqrAABLTio7Ml2hAUUQQbf1D5e1NXay670ZqhhmTtGh0E9l6v0KwM7Jv7jOCQQCgeCOQRgavyScJnasWMzWzy2AonEZ6C+F8ykNuRnax2e4whBBjJ8u5QpQmsrGPUXXK0EgEAgEPzHC0PglcTkPU7maoIExTF22m90vDvkF/ZVUO9nbtpJdhbS8dVpjHoDigRmMv8fl1fhga8NeDwKBQCC4/YgcDYFAIBAIBO2G8GgIBAKBQCBoN4ShIRAIBAKBoN0QhoZAIBAIBIJ2QxgaAoFAIBAI2g1haAgEAoFAIGg3hKEhEAgEAoGg3RCGhkAgEAgEgnZDGBoCgUAgEAjaDWFoCAQCgUAgaDeEoSEQCAQCgaDdaPLHpZ0VuXzyyVFOf2/hio8fgbrhJDw6mBBl/XkjqQcyyL1go6NKy+CRY4kL82u43/pNKvszTlP8/6BLyAAefiyRyLtuTrCCD5ex/Wubx3PKgUksG98Xy5E3WfdZmecClJEkJU+g7/k0Vr+ThVXRl7HPJ6H3d523HOXNP2dQpklk6fTB1L+F81IBWUeyyC0sxloLHf3uJuQePQ8NH0yIX/OHWMl6ezVpJSALHcuL0/U0v8Sb8qq/2s66AwXY/CKZ8vwEwjsD2Cj4cB3bv65GGTqWBdP7krdtBamFnl9XFjaWpU/qUebvZdkHudhCm76XN7I2Uk3OuytINXs41UFN9LOzUX+2gv1nnS3cr0T/5DKiL7zJuvQyVMNms3hkSMPZ+npT/fY5Fo8IxPqPN1l9uAxZrzjmPvsQapf5a/vqXZYdMBP48AKeG65uUVrn2f2set9INSoGz1pMYh8Pb2TOIsNgpOC8leor4KcKoe9vookb1he/enP7+1RWb87B2iuOBb9/iIYnmlNZ8W4O1cEJLH42GlVJ63TKWxkbuFrA3uXbybVrGLt0JvrOru+Rv583dxixXlWiGTmbJ4epGxrw9cu3cPStdWSc92PwzKUkapo9r3A/K7YZqfYgiqzfBF6dpsXoje41O15fr35DZ7P0UVf9X7WQtW0TaWYb3KUnadZY+vp52e7qv4vNj8ipC5igcz3xajGpr28ipzqcKX8ci+2DG+umvnA1m45bG3TLWx20GLzT6Za4fj3ZML5/PdllhE9dyRSd61e7hVxDBjnfmimz2kCh4m5NOIOHP4S+Z/23yWPnyzvJ81RkZz1JU5Uc3JKF9WoLj+yTwNJZ0fjdSPYbPWfpWFT/uLVvJ/j50mho2M188sFeci7L8AsIQWUro/hUKtudnVj835EoncVk7NyP8ZIMP3UXnJcKOPrXPXR5fiaDuwIVR9mVkkMZfqhVYDXnsP+vStS/jyPQzW9izT9Kjhk0wx6ir/+1AtWj9FOjVrdgaPh3bHZAhdpP1vRYp65NOz5bARmZBUSO6UuzKxux5PD+5lTMtUAHGX6dO2KrLqMgp4yCgmImPDOBSHeZL53m9Hnpv87vjeRe1hPdtfXl+f0mgWhjERkluaQZBtN3ZAiyC1l8dqoaZIFEj9Tj5zYMyPzVqBQ0RaWk2Vdpyo1kbQmZEpXKr/GbdVDhJ+uIUqVCrQZwYqu0Um13l0uJX/NRxwuc57PIOK1nysCWTSAPd1F0Os/1dazknTIzso+mSR1bT+1k04d5VF8FFEr8lFeotpgxHjZTYB7LzGn6hoGlVXijU17KeEMqstiZYsR6VYZ66BSmuBkZt15+45XNdavjfzStyJvSvQZsFPxtu2RkdO5L4hOSkdHqdkc1uZ9lMaxf077FJfEt6ebN6aC3eF9PTb9z43s0YC8mY9u7HC1xAjKUfn5gs1KWl8X+ggLKps4mMazZizbvJzv7oZQrUavVyK4CV6qxXLY1bfNdG6Zg3uuYp+d49X0Ev1QatMH5f42cvgyy0ETmTtfjZ8tj5+qd5H2XR4E9knv/bw7GS6AMH8uCKZFUf7aOdUfMGE9ZGDxcTfHXRsqcMkIenc3soR3JeXcVqWYjxuI4At0s32qzkawTQP/rGxoh8bNZEO/dS6h+M4EFbhZyS1R//RlHBvclrqens1ayPvoEcy34hSUwZXw0IZ2BajNH9+wkw5zLwY/D6DslsqHRWM7kUXYVZAoZTnsxp09biY5Rtb68DmqiRw0h950sLDlpZA+agPJwFmVXQTV4NNEB7nIqufd3C5jQz7tvU0+9rMgAZ3NZm+NH+KBwjpjzqL6qJOzR2SSGNusqEhcQDoAN47Zl7C+8Vi6LJ4/IdbGR99kRzLpENM0Hs5awF3A63yYFAa9CtclI0UgNfevvr80l7WPpPUKGT2FKrAa/DmAryWLvjjQKzqaS+mVfZg6+uYHl+jrlpYw3oraA/TvTMNvAr/9YkkZqmnbct1p+Hz36XkaOnnfSUT2EKU8ObmZ41Ru5N6d7Ek4sx3ey9ysrKAJ5aMoUBqvhZtodABVZpH2pZ+bg5josI9wL3Sz+piU5b0IHvcXrepLRd+QCpvRvlEnydDReUWbYLxkZXcMZO20i+gAZOK3kHd7FnhNl5BxIo++CsfRVaBiiV5GXYwV5Tx6aOYXIZqqe9Hy09J96j15ANEnuHj1vZO9w4+dYbvrDCX7uNHQnsl7DmDBxAhMfDpdcvgo//DoBOHFehR+Ky7AB6t4hKAF1Hw1+wA+lZdio5sJ5K3RQERKiAvzQ9FYB1Vwosd6G12qBq2XkpHt2EWM5zeliJyj6Eve4q7MD8NPw0GMPESIDW4GR09WNZeV+UwYdAol+RI8KKDttbGxMrSxPFvwQCQP9wFnM0b9sJa3QCX6RJAwPad3Mt4X3lmRVMXiY1GE3kdUDfgPGMnGoGtlVKzkp+8mtvFUhvOSykbRs77skW34uBTaQhT5EdC+gtgDj2UZPmM1klM4HP8SEhzUNYRJlcDRjH+6LDCfmr3O5aS29nk55KeP1cDrLyPrrXsnI7xNH0vhIVM1m8bdSPgCyQOImJtK3M9gKP2FvZhktOe9vDifV+alsP2zG1kFF5Ngk4vq4tLq17c6tTPORz8hrxWt6TSt10FtuuZ7quVqM8bQF8CNytMvIAJCpCB85hmg1UJnH6SInoEQzcjJxwTKozONgSg6WlsIktyR72zxH8MukcQzzC6TvgMb4mO2skbzLQK8QQpRgra4GZCg7u+YVnZUoO0B19WWqr1ZhrQZQuowTGq6rrq6GitNs2nxEmlFfccJVyNqyhGwf6Nh9OLObW88A54/ybkquhw7cj8jHZ/JQcOMR66m9rCtsOhz7DZjAzBi3eJ8mkvBLueSdzSDjbDhjm4UNnBVl/HAVuFuDpvnkVqVBo4Jii4WyCsAPuHCaPAsQEE6kXoPtHznkWPIwno8joddNlIeSvg/H0de0n4JLVkCJ5uEEV76GOzYKDq5jXbr7sY70HfkcCaHXfCyJeln9w4n8bQj/+iKXXDdZPaNEM3IKcRc2kPZ9HgdTsgicHn1TIQbr13tZd9bN0V/reVgPHBCJ7Ztcyv6RRu5vkuh7w5JtFJwuwIYMTfgQ9LVnyTpfRsGpAmz9JYPqwgULTkAdqqHjqb2sM7hyetRDmPKIhsAOBRRfLOaCExrmxhVZbF+X29g4rlR7NiRuoFPeytgy1RT8bRcFZhugpO+waAKvsTpvpXw37tIz4fFi3txhpMywi9SQ5xjb3PV+M7oHUtjnVIGUB9BLz0P9GxtEq9pJfW5J575E9iwmtzCXDMMwwr30fHqDtzrorU430kb1BFB7AUslIAsk7D+bKUSHQLS9/Thqqaas7AfQBYIskIcmJVL81n4KCj9h72c9mR3fmgmMl7J7+ZzWfzvBzx2Pw4bzghQPrsaPyIcGowacjiuuOzo2vdN5hSs4ueI63RCs7SAp0hWnE65ewWZ34rRL3hHpPul3m+MKVzxZvvYqLBaLxx+rvdm1tVYsFZamP5X/anKJTBlGXKwGGdUY07MoazZlu+Jw4gRkSuW1jb6DEmUnABtOh3So+HQelqsQGB6OWhZCZLgKrlrIO1V8NdTQjQAAIABJREFUU+UB4K+hb8PspCeR/Ty7822Xm71rxQ9YrzMxqpfV755wQpR9CQ9VNpG1RTqoCdcFIgNs5/MouNn+wGZtWn+1nufLsuBhJPT3A1sBnx0xc8O5XnUepwudIAvh3n5+qPuFE9gBnIVG8lyWgc0mlaJUKpvKcamKK/V1c8WJ7YpbuU4bVnedu+xZkhvplLcytshVCwX5Vldbs/FtpstYb6vym6H8z3A0/sBVKwV5xR69Gq3VPYBqcwHFNqT3OJ9FxunGG26qnXTwY0C8ZHRZvkgj51Lb+V+81kEvdbqBNqwn7Db+BdBRidJDckwn10Hnv9xk6tqXAX2UgJMyU4Fk3HlLa2T35jmt/XaCnz3XGrUWIzvfT8Nsk6EeNpHRrsxumawjcAXqFaf+X1lHOiKjY8dmx52S8nSUyaBnHAteiwOg+JPVbDoB0c8sJsHNK3ENmkSWrk706iWaZzG3eN1vEojOeZOjF7JIOxXZ5FxHuUxKX7DZkOaPbly1Uf0vACUyOXDVTG6e1TUQS76YkP7hqI5nYc0zYh4RQkhrynNh++YzjnzvanROM0c/MxM5pnnClZLIacu8j5PXy4offftJ30ij06D8Jq9BVk1LUxtLFnv/XowTJZq4sUTf5AqilrLMr6UL4fHD0eSnYjamkXVfp+uWW52XS5ETZJp7CfcD/MIIU2dQVlFM7jfV6IdKyW5Qja3Whl/8bFYPdSvgUpbkqegoa9pht7TqxNO7XUenvJXxuig1JEwZgiVlJ8YLWaTl6Jk5tDEv4ZbLb8BGwScHMV4G7hrM2BGeElxbqXtuqH4zhbHqLN4/XExeegbmflIORKvanRsde0aToDfybo6ZI38PRNtmbnrvdNB7nZZou3oCFEo6AVyxYbNDcwutulYyj2SdGmuw+lQqaXk2yeswfriHJNqWaY3s3jyntd9O8POnqRpU57H3/f0UVMtQD5rCTLekMz9/P8CJzaXE1FZjuwoyv674dVDi9ysAG64JJFWu/0j33SF0CGR4vB4/nJhzcptY27KAQO7uAFwo4GzzfIRLZzFfAmRqAgPAac6VwkrqcMLrEzV7hRN+F1BZQG6hs1XlAWA3k3E4l2pkqPuHo+4A1q9TySi5NWu/QVaqMW5bzOLFi1m2J0+aqblk9XxjGUdTMii2g7JfAhOHtry8tE3pOpiEIWpwlmH88noel2ryzkizbqc5lRWLF7N48ZscrQBwYj4t5V2oe0qrMyyF5mtyUqoLXTOu7iH0vNlEmOvolLcytly2Cv3EKURrwnnotxopn+RIGrkNFs8tlu8u6Tf72f+VFWRqosePpG8bLhOQaRJIGhOO5v449F2ByzmkukJYrW4njaWiGf4w4Z2h+ptsvm2tV+B6eK2D3tJ29QRA556o/QFnMXmFzXwuzmLM5ySTLTDwbunYpRz2fJxHNTJCHp5AXK/WKHsrZL+l5wh+ybgvPJWS/i6DX/hYZo7p22QfgLt7qlEClnNF2ABLyQWqgbuDAlGiIjDQD65aMX9vBaopOWcFVPTs1dLKhtuDLCyOuDClFLpxP6EewIAQGTjNZKRkYHZ1XM7KAtJSJJe1MlTPAD8nRacLqAbUusjGWW+HEAbopATYvNMF2LwuTzpeZkgl5zJwl56xYyeS+BspFJN9MOsWkqoaZZX5qVCr1Q0/qs6yRlk93Fecvpcj553gH8nYx6+350bbE/jbBPT+4HRex8i6lEtusRM6KPFzey+12rUs7/xpTleAX3gkWiVwPoO9nxRgdRVZbT7Knr+bcSJD85twbkVLW9QpL2Vsma6E9JJGfNV9cQy5C6jN47PPXHV2y+W7uGxkf6prgIidQEJw2w4QyoAQKbdHoWF4bF+pH8k+SNYlWtHuPBTsF0ncb0OQ4RaSbSO80kFvaat6qqdDCPoBasBG3id7yTnvasF2C7l/20/2JcA/nAFaGVy1cDTlE8w2UIYlMuG3rZwweCv7rT5H8IumcXnr2aMccVnH1YUHWbfsoOuKEBLmJqEPG8KArnnk5O1n3brPcF6ygkKDfqCkUJrf6FEbj1J8eBPrvgCrxYms5wD0zSIaISMXs3rkjcSqxrhnO1kVVzye7aiOZvJ/6xt+95QMSgc10VOnoKc5fuhHRJNjzmgWU1cRnTiSgndTMZuP8u6fslB27siVWpvUifmHM3p0JEp7Hqfzpd6w+tRO1pncirBVSf/k51JQG+5deQCWLA4ed2WRj4gjRCGDhx8m3LSXvPNHSP1yADMH1/v2PSXkQUd/PWOmRdNkuxt7gSRrBxVDpjYNVTnNqax6N4dql6yR7kmnV8vIzZOSKHEWk/HuOjIan0TIwzMYq2vDKW9zlH2Ji9WQe8Dc4uoHy7enKb4KsrAE5j7pbghVu5ZWl5F7uoyH4vWMHpFH2YECyo5vZ3WOEj/FFapdcWFl6EgS77tVY9izTnkvoxebFMlCeOi/wjHuycP6dRpH9Vr0Zm/Lv/4uF7bCXApqpf9bT+1l3enGc5Je1YeEbqB7Xrjj/QY+zODjBRytKOboJ7lETov0vp14QD00Af1Xm8i5dONntwovdNBbvNcD7/UwMGYsDxW+y9HzBaS+tYxPOvvR0V6NzQnI1AwekyAtPbXkkXfe9QaWLLb/OauxkPo+8jr76Xgt+8CzN3zOjYPbgl8qDV1DcX5BYwzabsNmc/3UXpEamkLDyGlj0QcrsV2qAlVfHvrvidJmXQC94kgaH43mP5xYL9no0mcwY//b04Y63mCj+lLZtQmerp+yS9VNG7+nZNCKy1R7tlMgIJoEvYdGHTCYJ3+fRNxADerOcKX2CnRWoxmUwMzfTyGyK9jONnbK1yTGVbqkshdw2lTtVXlQjfHwUYqdoAyLI6F+APeLJGG4y13+d3d3uaeEPAtlFus1HeK/6mVVD2BAs3wYWR89erWbrC1xzbctw1rb8uVthd9vEohucW8KC3mnywAlfQeGN/O2+DFgkGvW7OokVYOSmP1kHJEaNX4+NqptoLwrhMiHk3huWvM9I26Sa3SqdTJ6g7J/HNG9pFlq9qHP+KKNywcn1Zbr65W3utciHQKJfjgSP8CWn0ZGvs3LdtICshDi/iu8XTaEur4Oekvb6wEAihDiZs5lSkw4IXcpwVbNlY5+BPaLZuwzHjbrwlPdXaePbK3s/3srzxH80vk/586d+98bXyYQCAQCgUDQesQfVRMIBAKBQNBuCENDIBAIBAJBuyEMDYFAIBAIBO2GMDQEAoFAIBC0G8LQEAgEAoFA0G4IQ0MgEAgEAkG7IQwNgUAgEAgE7YYwNAQCgUAgELQbwtAQCAQCgUDQbghDQyAQCAQCQbshDA2BQCAQCATthjA0BAKBQCAQtBvC0BAIBAKBQNBuCENDIBAIBAJBuyEMDYFAIBAIBO2GMDQEAoFAIBC0G8LQEAgEAoFA0G4IQ0MgEAgEAkG7IXP/pba2lgsXLlBZWcnVq1dvl0wCL+jQoQP+/v707NmTzp07t+peUc+CXzq30j4EAkHb8n/OnTv3vyANPvn5+QQHB9OtWzd8fHxut2yC61BXV8ePP/5ISUkJ/fr187ozFfUs+HfgZtuHQCBoexpCJxcuXCA4OBi1Wi0Gn58BPj4+qNVqgoODuXDhgtf3iXoW/Dtws+1DIBC0PQ2GRmVlJd26dbudsghugm7dulFZWen19aKeBf9OtLZ9CASCtqfB0Lh69aqY4f4M8fHxaVWehahnwb8TrW0fAoGg7RGrTgQCgUAgELQbwtAQCAQCgUDQbghDQyAQCAQCQbshu/ElQN0JVv5uBZk2z6d1M7azcVxA44GaE7wybQVZvnGsWj+P+1RtIOkdRk3mCiauPkG3UcvZ+Jwe39stUFtQZ2Tl71ZQ/dyHrIqVNxx2FB3gxYXbqNAvYt3iGHrcYoqHNSOZJzY7eGrDKhKDb1XmCrLe38T7GWcornTQY9xGds/Q3GKhbUTdCV55dAVZDg/n/ONYlTKP++6gdBnHF28w6eUM5DFL2fiHofwCm61AILgNeGdoNCCnW3BAs0G1Iz385U2OlGce4AsimLv8l2lkQAWHDxth0GxeffYXYmS0RFkGK5dsoyRiHm+1gZEBJRw+ZGbgrLdu3cgAivesYI1RyzOvvMX9gb7IlXeowvkHEOLeTvxVd5jeWMk8ZMB+73Ree0EYGQKBoO1onaHhE8GTG5Yz4gY9pJ/+Wd4dGkRI91uQ7I7Gl2Gz3yI2MBjVHTQjbXOsJ1izZBOnek9n/R/i2sDIAAhm3JrtyJXyG196Q2owfVtK6IjljLj3DhwafSJIHBFMVmoJyPvx5JpFRN+BYkrIiUxaz7uBGnq0RdUIBAKBi1Z6NK5DnZE145M57Ijh1b8tItoHyFpB3B9P4DdiFfufjwCgpiiDd7bsJeu7ChzKAHRDH+OZGaMIbTBeaig8vIP3Uk+QW1aDXKXh/sQZzB3Tz20GWENhxl52HTrBqZIKHD4qQuLmsXGWnoY+su4MGya9SKq1qZjy6KVk/AHJpe07ivW7ZxNZZ+CV371Olv8o1u+cTaQPOAwrGPWnE/iNWsX+5yLg+z3MfGYHxfpFHPhjDD20btZWXT7vPDWffTUxvPrBIqLNm5j0wiF+HDCbPWtGSbPDSgOvTHmdLN841n8wj8g7vTOvyee95NfJUk1g1bIxhLrLW5nPvjffZt+pH7D73k30xOeJLkom2TqdTfceYvrm/CZF1YfWyg2bWPO+gcIaOd3uieOZqV1Jmf8JurXTsb6czGH37Q5841i1fx6R32ew4a0dZJU4UHSPYNzvR1G9KZnc2C1sHBNAqDaA940GCmPGEOrfeLtpcxIrK0cywmEg1VhKtTKI6MnPs3CUBk+fPuuPo9msWsXuZ/tJB+pO8MrvthGwZjvPhIHj7CFWrtvBFyUO5IERjJg8nadigpF/u4mxC8/wyMYtPKVtXqovkTMW8dT/zOe97wysWd2PkD+NIqTBYLNyeHESa07BfS9sZ1WcSjq2JIk1X/ky4k/bWTiwhqz3X2dzRj7lNeAb2I/oUU8wgb8w9e0zTR/no+GpdzYyLOtppu0qIfLZv7I+UUXh1iRm7qvgvuc/ZFWclX1/WMA7pxyEjFnOxlkR+FYY2fX+Hg4bzZTX+RISEcPkGVOJDYbMPz7Oyuaxn+6jWL/zMQrnJ/FOkZ5nXgjm1K4Mciug2z1xzFo0nWjVddrfy0OxGnfw+tZD5JY58AuL4cnZQylMTuZwn3nsWRknPCoCwS+I1iWD1p3h/flPM22m28+cN8jydj+cixmsePENDp+2ogiOQNfdQe7hTcxJPkBxnXRJceoK5v/5EF+WQcg9Gvxq8snc/CLz389H6u5q+PLPC5iz9gBZZ63gG0A3uQOHXNVsAPElJEJP5IBgyUCRBxA6UE+k9ua6sELDMQrr5EQ+4CFU4tOP6PsDoPIER76ogfAYhgWC47sTZF2ULqkxGvjCBj2Gxt35RobDzL4/JrOrSMOUBRPRKd1PWsn8czLvXRrEqzs/5NDGZ1FlJrMi00rovf3QjFrOof1/Zf2YYOQDZ7N7/4esSgyAszt4aa2Rbk++xYG/bee1mAreeXEHJt9+hGv0zP3gQw7tnsd98gAS//RXDu2czX0OIxte3YTp1/P4y/4P2b0oglPrVrDv+wAiw6WcoNCJi5jcxcD88Y8Ql/A481MrGiQtN3xCYdTzfPC3g+x5Totp85/ZV3IzH6SC1C3bKPz1bNZvXMXCEcH4+cglfeuuZ9zEkQxsSa3kGia/NJtoFdSc2sbKXWYah20VsZPi6IGDLw9lUAxw9hP2nXRA2EjG6eU4vtjGmn1nKK8LIDJCQ7eay9D9broGaLlvYAS6AEmZfPtEEBl1DwFKz2LU192Xm1fyzqkaug2dzWszIvCtMbLhxWTeM+RTrdIQGQjlXxxg5cLXybwop0efCCIH9iNEakT0uDeC+yKCGg0Bh5F3thbRI/YxRtwjp/z0Ada8b8RxvfZXcoDkP+7hyxJfIuNGEek4wZr5r3P4Iuj0emFkCAS/MFq56sTBj9+XUOz+U1SBtc67u8uzMviyEnrELeWDd1ax/p23WHi/L45v9/L+iRpwnGHfnjPU+GiYvGY7765Zz+6Ns7nP10Fh6h4yK8FxahtrDpdAcAwL3/0rh3ZvZ3fKh3zwRLMEQB8NiX9YzvpXJqCTA6qhzP3TclZN7Ne6Vwaggty8EvAJIryfZGaYNicR81+P8GJGDQChYRrkODj1bT749CM2Jhgc+WSdsAI1fPGPMzh8AhgW4+H5dRVkpRoo9JBsW3PmEKlnrNeeaDccmP6SzHs/BKHzzyd1j5Ea99PWExw2QuzECeh8Af9+TJmsR+EIIPTXASD3xddfha8ckMvx8/fFVw65mRmUa0fyZEwAcuT0iJ1OYp8a6N0PnRzkvr74+stRAPIuKnx95TiMBrIqIxg3WY/KB+TaUTwVrcKh1BDap15cK8XnLtMteioL/7SKhbGNScly7cM8OUKDrw+o7o/hPt8fKC69+S/j6x9ASJ9+RI+ZzuRo13MC9Ix7YhSR1xsdA/QMC/cFHBSeONFgVAPIIx4j8V45nP2M1DNWMvcdorjOl+hxowgBHDU1OIAe909g4bL1fJCyhYVDVfjeP51Vq1cx1xWL0SUuZf3K2bi9/jVUZL7BitQS5PdM5NXFUiisPHMPh8vAd+gi/vLueta/s4VVicFgPcH7qfnoJi9n/epFjAgGfIIYMW8Vqxa7e2V8iZ61lLkTJzJ39khCfaCmtIjy67S/woxPMNkgZNxSVj03nSWr5hEtr8HhE0Dorz19SAfFhkNklXjIqq0wkpphbqqjAoHgjqJ1hoaPnoV/+xTD391+0leRqAKQQ0sxfNfxku9LAV90DV4BFdGD+yHF2s1Q9h2FlUCfocTe45r2B8YQfQ9gM1N4DnKPnuBHAhgxbx4j+vhe84x2oe4HissAHxUBLQwo8rsD6AbUXKjACoTGPEiojwPTiROUW0+QecYBgTHEhl17r2nrS7zy9uvMT97TxNiwGjcx/+VNbHh5xU3OxG+OGnkEC1etZ/mzMTgy3+CdL9y68YofqCCIkKBGt4y8p4YAeRC6Ph4Kk0qk/EIN8qBgejQcUxESpKKHVttiUmR5WQkOVbBbWA1C+gQhD9a4QjlWDq97nS8189j4h4nERmjo4V5Y1wC358mRKx04HJ6WgHigzvUDQACJT4zCcWA+oxKS2HDmOvd5wJq5ic1ZNZJ3Y8EEQpvoagAjxg2lGxUc3pzMrhM10GcUk4dKL+IbPZFxYXLKM19n0qP/zZpTrXu2O8Xf5lODihFPTHB5qRwUfmfGgZyBDw115Rv5EhmjpwdQ/j9F3NDE9VERHOT66L6+Ul06ruBocfLhoLjECviiu9c1OfDtR2QfgCBCPCQI15x4gwV/2sQrL77OYXdjo8LAyheT2bD2RVZk/JTGuEAgaA1tuI+GHLkcqHM0dDI1rk5dLpcDDuw2R+N1Dbg6jjq8MBZqqK50gM/dhAS0Q/yhrrETczgcbi5uh2vQuYEx5QPUgR0gWDIqHN+d4EjGCXJt9cbHtbeGjphAdHeoOb2jwdiwGjcxf9khCm1yQmLGENsGKzS8Q859k+cRGwCq6OnMGurg8JubbhAe83Lwbn6XV3XetHRHnaPxHquRzNMqho9qYeVPK41Ph1v9U+eQ6hGAEvZtPUSNfjrrN77GU61xipUd4vW3T/AjcnRPLuKpsGv11lc/gUQtOIrMFNf5ct+YkQ16Yj11iCNFDuTdNdwXG0PkXa17pyb4AFg5/P4BCm+uyjzQEUX9d/bye8tbaro+zfsGCd+BY0gc4AsXT7Cm3tioMLDyxdfJLAN52CjG3y8CLgLBnUrbGRo+d0urTOpKKf5eOlRcVIoDCAi8G3ANLFgxfeXKt6irIPMf+YAcbVgQBGil2ev3J8g86+oJywxkfQcoNeh6+xIaFgR1Z9j39gG+LGtjh2llBcWuiVFxiZuP3cc103KYMRU5AAc/XpSebb0o3WD9nyJ+rINuDbP2AGJjI5A7zrBzzxkcPhqioz1bC/LgOMl9XG9szJ3DnGWHKHbICRmxiPXP/8TLDX3qe3sVsbOmc5/DwJubT0ju6YAgAiil+IKbGWY2U+wopbBFr4svIT1VOEpLKG84VkLhOSvl3xe16PbuERyM3FpCsdsFxUWlOEpKkSa2Ul20PHtuHdVWa6MsVmvjbL4yn7zvfRk2bgyR2gApLOQNdSXsW7eNL2vA9/7ZLBnTgrXoE8ywoa7Zvbwf0Q2DpoNTfz9BeZ0v0c+uZ9Xi6UQrSyhvYT+bG6GbsV4KVZ7dy5o9kicjVKuRnvOPE64QaA25BiPlQMiv72kHvZMTGqYBajCdNkuHbGZJd+oqqKjwcItSw+Tlq3iq3thYOJ+ZC+uNjImsWjmVSH8P9wkEgjuC1q06cSWD7mtysCO+989g45MR3BcdgfzbM+xa8jSmPlD4bQUoI4jWq3CflxYfeJFp+f1Q1ZgxlTiQ9xnDlGgVyFUkjulH5vv57FqYxJdhd1NTlE95jZzQyU8Q7Q/yxGeZbExm14ltvHhiG7599IwY9wRTYjW3vi9B3RneW/EGP/ar4cgh9x4vgNgRQ9n57QlSX51PeRiYTkJoWACFe15hTn5XrKfzcfgE88iIiIa7VENjiNx6hi9tDrg3huHX8UpIxgbw4htkfW+mhttkZDSnexxznzzBzDc3seGBCJYMHcqI+3ewYd8hEsPHEGoz8t6eM6CsodBshXs8S6uLiyHk8CfsOhHDwqG+FB/aRmaFL1jNFNZBpIfZsHxgHLH+yaTuyyd6Rj/4bg/vnajBt6aIwjK4r4+e6Hu28d6WTYQ8GUekplnopJU4jAfYaYxgyq8vk/X+J5JcAL7BhHSv4XiGgcLuGmq+2MGGzGAWrp+KzmpkX0YFoaM85GmUnSDzO5fen/uIl2Z+1HjOR8O4VxYxIgBw5HM40zXoOs5wOLOCEWMCADkhgQFACVmbX8SRDqZT+djDp7P+j81WAnmBrzKIEc9OJyv/Db7c92d23r+ep+LGEJu6gsys13ni3CFC5T9gKrJC96FMHtM+G5/1iB1F9L58sg6s4EXHUHqcM3C4Ro68rpTC/6mBYA+V6DI2SH6R906bKUQYGQLBz4VbTwb93kxhhTQP7JG4iFVPDCXUp4Lc76wotDE888dFJDZJUPNFF61HddFMYYWckKETWb5yesPKhtCJy1n/3CgiA6D4WzPVvv0YMWsV659wLUv07cdT67ewcfFUEof2Q1FhZN/qF1mT2QYxWlUEA33PsO+wmeBovVt8H1Sx81g1YyghlJL7bS2hYxaxatVS5g7tTPFpMz+qIkhc/CpPuedgqIYSO9AXkBMZE9OkPE80ejbuECPDRY8Rs3nq3hoy395EVqUvsc8vZUqXz3hp0uOMmvMXrHFLWRrjS+Hp/JaDKNqpvPqCnvLNTzNqbBIvfR7Mk8unoqv5DlNLnhBlBM+8MpvQMyuY+LvHmfaGmYHPLyWxTymn8qxAAIlLV/FU7xL2/Wk+k343mkl/zKD8Jj0cvmEBFG9+mjGTXiTVJ4L7VK6R3KcfUxZMIDh/EzOn/Z6Vhx3cN+5haaC/aGTfnk84dQP1q6lo3m5KsLo+ljVzD6ll0G2AnlC5A9OBvXzpcq2EPrGEhaMi6FaTT9apUuTaoYz47T03v6dJQBxzn9Tj6zCzb91eTMqhLFyzlMnR/fCzmsktgx73j+HVNYuIbS/lU8WwcPl0ooNryD10iOMOPXPXLCJW5eDUV2daTux082z4CiNDIPjZ8H/OnTv3vwBfffUVgwYNasdHOchc9jgrT/iSuP6vzL23bUqtyUhmzFoj8hGrOPR8xI1v8Cjatfto3FZqanD4+nrc78ETram79q/n24fj+wPMn/sJulXbeeaeZifr8nnnqRepeOJDXo259stes4/GT4Ujn3dmzmdfhYan3llF8L6neSWzBt2Mt9g47idLzGkbrIeYP2kTucETefedqR7zkdqEuhpq6ny9DmH9knVeIPg58LP9o2o1JzYxZ+58Zm42SrHmPnffbpHajlYYGQIXtgpMZ/Kx0pVud4IbyEvqvRm+Q8eQ2MeX6DFxhPg09WoImuHjvZEhEAhuPz9bQ6P4uzMUfpfPj/Jg7pu4lIWjrrOBgOAXT80X21iZWsN9zy9i3M9FFRz5pOwz4vAJJnFcjJRjpB3JuCg5WE/w3qGfcE2zQCAQtBM/YehE0F6I0IlA0DJC5wWC28vP1qMhEAgEAoHgzqfB0OjQoQN1dW20IYHgJ6Ouro4OHby3F0U9C/6daG37EAgEbU9DC/T39+fHH3+8nbIIboIff/wRf3/v1/iJehb8O9Ha9iEQCNqeBkOjZ8+elJSUYLFYxIz3Z0BdXR0Wi4WSkhJ69uzp9X2ingX/Dtxs+xAIBG1PQzIoQG1tLRcuXKCyspKrV6/eTrkEN6BDhw74+/vTs2dPOnfu3Kp7RT0LfuncSvsQCARtSxNDQyAQCAQCgaAtEVlSAoFAIBAI2g1haAgEAoFAIGg3hKEhEAgEAoGg3RCGhkAgEAgEgnZDGBoCgUAgEAjaDWFoCAQCgUAgaDeEoSEQCAQCgaDdkN1uAQQCgUAgaIna2n9Scv4ClZXVAPj7+xHcqyedO//qNksm8BaxYZdAIBAI7jhqa//J8WwjtbX/5D/7BKPq+h8AWC//P/7v9yV07vwrhg3RC4PjZ4DPvHnzlgFwtYS0d1P5/q4BaP/D7YqrP3DkvRROd46g310/RaTln+R/vJv9Rb7c82sV8psux86Frw2kHv4cQ/ZJvv6xKwNDu/7sY0WWz/ex9fg/Cb4nEL+f+8vcMVTzdcou0iruIvw//dvNzVf59UE2f/Yj6n7BdP3F+xI9t2PnpbP8/VA66ceMfJV3gX/69aC3SnFbJW0XnBc48sFH5Pvdy69VbdVQ/0nJl8f4OP0zFIKKAAAgAElEQVRzDNln+Pb8FboHB+LfrJP8JejZhfIf+CzzOAP/P3vnHl9Feef/9zMzyUlO7iQQCBIJJmJEkFCw3EGQqoC9QKUrXlqrduvKr92t7b66rf39drftdl+1dtuubi9WbeutshWLIkq5CEggCiUKhBCJCUYIBAJJSM5JTnLOzO+Puc85JxfBG50Pr4c5Z+a5fJ9nJuf5zvc6+QpmfHIKo0aOIDcnm9ycbEaNHMHll5WRkpLCplcqyR+WS1ZW5odNso9+8NF7DLuaaeJyllxTyjllKDi2hxffgOnLbmHiMPl8UffhItpCw5kCFi6ZRtFH7859fHGmiWMZ0/jM/GLevy2vnYaWILOXTGfcBbivxiHR37Hayo71VZwuu467biygp6GSNRu3kDniM0zN/jCJfR+gFDHx0nRWH2wkUlp6Xp6rSF0lz9cFWfx3tzAuLUztxnW8uKOQu64tdvyQf/yfs1AozLZXX2Pp9QtcDMShunoALhtfCsDFxaMZlpfDupe28Okl1/iSjY8wzm27at3NY8+0M/vvF1GmtbLn+ZfZnVLBisUTyGmrYcOmfTRFZNICeZRPK6RpQz3FK6bSsfYVansiRKOgpATImLCIu+bn0lC5nW21bZAq01GZR4jdbO6ezspRNTy1q4VoLEZUklFSCpl381ImdicZ4wvLmK7IKBJAFDAZjRgNLz1BpXI5w8400hzqJRooYvqn5lExPJ4ZOb1rDU+3V/DV60v0hWrdzWP/28nsu2bR8/If2fxOlGhfDBQZRehton0xSJFJGzuPry4Zw8m9lWze28jpHgjklzBt/iymjjJ+Abqa2PqXSg40h4kGsii+YjbXzigiAwgdqWLtphqawwo5o0uZvXA65dnQc6aZjnaY6JQ6RVvY/IeX6Zl7C0tK9XlEm7bz8CZYcttcipLdiy8sY3qBe87x404humP1wHOd1cnTf2qhqDRKc1MnXRHIL5/FktnF+kYT7aR2+xZ21LUSIkD+2EksXDCJogAQbad6w1+obGwnGiigZPIsrptWSCDSwp6N29h9IkZaWpARkyaRU7OF5gk3sWJSkFBTNZteraHxdJioMzfcmE9yTeANtjpoTsufwoqbKshItK5SL2ffaeG0NokR3ocgKQ3LKW9aO4hnoJRIUzWbttfQ2B5BaVnH6avmsfCKXPcfn9rEhkcT/F1MbuHxJ1uY+pXrKE/R6al+dTd7GlsI9SpkjJ3FyiXOzbyJDY9upLYnZvRjPNdazOq3aNYyVkzOInKsmpdfMejKLOSKWfOYX5alPwdOmoMFlFk0h6l+9mkOl93Cikn6cxx6Yx0PN5Rx97LxcOBlflmXxdRAC81nIjQ82cy4WQu4dnwWtNRzuHsM86cVEpAgUDqVyW8+Te1bnUydmpX4mWefY/4xmndv5MU9TXSoQYpKK7hmwQRGDGZdjlfx2J9r6IjFiKoyivWTECOKjJKSx9TPL2N2oJGtm3ZzoLmTaEqQovLpXDuzhBwlxuGXnmBH9hJun6X/0UQOvMwva4q4/QuTSJSIfkRZMYE/HeJgVykV5n7Z3zN9eQtrf11N4U3LmD4MIMbhF39HVcFybv1kLi3HWgkUL2BcpgxkUV4+mq27TtNBMflAR10lL+5qJCSlkla5l5xxnWzYE2DZDUE2/+kYk29bykRjQU5WrmZ1+xTuWlJKNNm9VlvY/LuNRK+5hWuLdXoaXnqCbVlLuH12QT+/jwsoU/q5VwPg1Z27mTn9E3FSikNvNQA2owGQlZXJzOmf4NWdu7lu0byBO/fxocDNaKgR9j//G/Z7a6kwrr9e+lrZs/5lqtOmsfLa8eTQwtYXqzhTtpS7ZhWinK1j7eptNKVPYHZ+MUV3fpFrW6p4bE3YeCghdOBl1tfKLFxxE+XZEZp3vMjqvWGKFhQx7IoSVk2JUfv879hTqP/REW1h65+SjDEMkKax5KpKNjzzezZEIGPSUu5eUAhAyzudTF2xgiXZMZq2rmZNZT2Xf3b8EN46Akxc+kUmqk1seKSSwNKbmD8KiDay9te7yf/CCmYXQKh2I2v+GmH60luYWgjNb7zC2udfIXDzdUzMDLN/0ysczpjLrV8tIeNsPZvXbWRtYBkrJ0fYvb2OtOkr+MdLYjTWHSOQ0o9URimk/NJU1hxuIlpagkKMpromlHGLKO7vXgzz3ufWBOOmUzyIudJeDeFjtASWsuK2QgJdNax+vJLdlxQzfxScrt7I5uNFfPq2z1CstFK9cSNrNwa5bWkpyuEqKtuKWXbHcnLO1FMbDiAToWHrRqoik7jpS5PIp509a9ey9VQes4uD0L6PtS/sQ5k8l5VLCuD4PjZsaWLYp5YyvzhIRuBKJqtNbHi4EmXpTSwcrc9va6J17Uu2sP3RkMvESYNZl32sfvEQGXOu4+7L84ge3cval9axOXgj1zpfOaVirk3wd0F7i+PvrIUdf9pI08WzWPalpeTLEULdilvyJxVz7Z136P38Ocy8uxYwTgKOVvLLl2HJl2dRLAF9TWxaX0Psk0tZNSmL0JHdPL/hJXZkr2B2YB9rk9I88F9H9NgxIp9eyu1jg0QOb+HRLbtpuGQBo8+0E8ouZJj1qxMkPy9AR1sbqEmeeee9OVvD1j0RJt74RSqUFg4egYA8yHUZNZ3b755Ox561PHb0Mu42/t5P71rN42emsWpJCYrayo6nttM4ci633lBCRqiRbeu2s0YKcutsD0c+CHS820Kor4UDtZ1UTMui/+dp4LfxaF8vpBtf+tqprT1B5tjLyQc4U83zm5oYseRGVo4NEGrYzlPr6qFsESOGF1A+bB+1b4eZOCkIaisH3+6lZGYJgfZ9PJvsXo8d8pRtJLtXAyAUChMKhbm4eHTctc/e8KmEbS4uHs2evfsIhcK+VOMjCo/yMEDZgmXcfssKu6xcQHlGP0+I1kb1upepDk5nxfXjyVGAU40c7irkismFOieTPZ6KsUHSRhQxIqG6MkJD/THkcRMoz9bpKJo8nhFSFkUjk2z/A40R7eRYwzGixdNZ8aUvcveCIqtpxtjLjHFkii4qQDl7lo7zni09QkNdExlXzNYlGFKAoinTqcg8Rm1DGCLvcvhYLhUzSshRQBlWyvxPFHKy9hCnJQVFhmhvDNJzKZs8geIB9EhF40vJaKqnsQ/oO0btkVTKyguHdi/ew7ju9gVcOrFQZ9gyR1OcHabjbAzopLGhjaIpFXp/gQIqZk8g851DvBUCFBnUGD0qZIwez9SyXJRoC7VHYoyZNIF8BVBymXxFEUqwgKJs6Dhcz8mCCq6dVcKI3CxGlE9n3vgYjfWtBJL9og11fgPQMBh0HK7n5IhJXHNFAQFJJqN4GvPHyxyubSY6+JXV+6qpYn/GND4zu4T8FEAKkNHf32Y/iL5bT2OglNlX5KIgkzN2GrPGdrO/pvmcaVZyS5hobJyBiwrJj3ZypgeifRGip/by+EOP8DOjrDkQJtIbIzqYeyPJKMSI9kEgt5iKycXkSOdxXVrqqe0sYva8EnJS9HnMmz6G0KF6Tg7596GV/Yc6KZtcQlfdIb39eXieADr2vcwvf72azWeLmT4hTz/X0MjpnFKmjtV/LzPGXU75MJlhowpRyKJ8fD4nDzcSMuZ5uLeY8rHyeX0+XUhyrwZC09FmxpUUJ7y2cfOrbNz8asJr40qKaTrafC4U+3gfIXm/pWUWkD8s11GySBP99KC2c7I1oouLzd66w0REgEwHj5CWESQjLyuJrqaXSAQyndxoWoAMOY/83IQNBhyjY982Krsv49PXT6I4182sKKn2j5Ai6Ztc8vk5Pg/JP6eXUDfkZKU7zmWRkwWhUC90hgkRxDnlQFaQQLibkJrLxCsLObl9NT/75RYaBvMXP7yM8uxmDh6JEDlST2OwhImFDPFevIdxnRABApZoVEZRIKYCaicdoQAZGQ4iMoNkEyYUhsDYCZRTw5qHH+Hx3boLG7FuIn0ymUHHvUoPkJGXT74EoVAEJTvXIbKWyR+WRTQcJpKUwCHObwAaBoNQKIISzHK9XWdkBon29EdnQmI4ebSdnOKic7NdMhDpChNNzyLDmodMZmY6kXCYs4Oi2fk34/n7CQQImP1Kiv6cqbraRhk+hVvvuYN/NMqyK4IEUmWUwdybzFIqxoapeub3/OzPdQYt529dot1hIulZOHkUJStIIBImNERGI3qsjtreEibOmMClvfXsPx4b/PPkGCua4DcnZ9J13L3qi6yY0MnWZzay/yyEwhFID5Jm1QqSkR4gf5j+A5NRVsaI1kbe6orRXNcI40opVs7D85ns9zHhvRoYHR2dlneJF2/ur+XN/bUJrw3Ly7XcX3189HDuJoVyCQtvLqXhT9t5flcuN80oRMkIEtBa6YqYI8ToOttJSO0kSkGCQVPJSIeuUBgwHrJwmFCsk46zgFfED9DvGHmcPN5KYPSsQW8IiREl2tdLzByit3cIXL4+p47ObrCUMp10dELG2FTQokS1MKEewFBFRkJhIsF8Mvrq2VrZSsm1N3FteTLmzItcysfnsuetI7zFu+RcukwXqQ7lXkTey7iDQzQWoac7hmUvE9YZreIgnHx9B/sDFaz8+2kUmXxZSjqBlBhdYbtNJBQm1CHToUJGRoDomU5CYP1IdnSFUdKCyVVgQ53fQDQM4tnKyAgQPeWmM3R2ADqTQdbbRjkP9yYag259A9XnEaOrq5dAMEj2IGiORGzmoifSD6PuQGBYLhln2zjThy55IMzptgg5F+cN7t40vcamplzm33IjUwscq3ee1kVJDxLo7iQUw3ppip4NEwkECUgyUQmiMXuu0d6IbosT11OMpgONULqI4kAhSimsPXCMeYsGeJ70M/RY6qIoPb3uniPd5pYdYMQVFZS/sZbD78YoDgahO0wPRj9qmI7OCB3tYSgOQsZYJo6qYv9bjZxsgLLri1AY6PmUkaUYPVEHvbEoSoq5yv38Pia7Vz7+JnFe/K6UYAnXXn85vLGFDfVhGF5CWXYLtQfaiQLR1hr2NEWJtrRwJuGbQYDiS0YTazjE4RBAmIbXD3FSbaO5JQkv3O8YMhlZQULH3uX0Ocn/IHr8MPvPxEANc/hA0xBULAHGjR9N6EAVe45HQI3QvLeK6rOjKR9niDHUFvZXNRKKQrS9ka27Wxgxvox8NUYsKqMEUlGiYZrfqKKqITzgiDmXljLi6G52HM2lfLxu1Deke/Eexx0cYjTu3U1TCIi0sv/VGs6MKePSDOPHW9GlIdEzjezYUcPJ2GjKx8m8W3NIX/NIC7v3tRDtaqW5C3IuKWVEyz621unzihzfx47aGCXji5JvNkOdn9Q/DYNBTlkpI1r3selAOxE1RqhpN1vrBqAzIWSKx48hWrONDW+0EDrH5xogeqaOXQfbiRIjdGQ3lQ2plJcXDoLmGKfrD9HcB0Sa2X+4dXAMeGEpZenvsntPCxEgdKSaN04WcOmlWYO6N9FolBgBAqkB6G5lf+Vuats5f+tSWEJZRhM7tjXS0af/TW57rZFAaSlFEhSOyidUX0Pt2Rh0N7O7tpWcUaPjGcZII/uP6GsJUFReStqROg73DeJ50jo5XNNEBIieOkjtcTcT13NkH3tO6eeip96lqTOLESNkckpLGNHRyBvH9GsdddUc7oKTLea9CTCuvIjTf62iIbWUy3XS+r/XUh6jC6Fp3yFO90GkZR/7jwUpGp1l35Mkv4+J71UMop00H27iZHfiW5CTk8WZtvYh37ozbe3k5GQNXNHHh4Lz9tKqjJrGp+ec5qmNG9lz41JmL57Nho0v8VidjCLnMXHhNJQN9TSchREJJGMZE+ayuH072555mh2KTOCiKVw7aTdbm1qIlhfHEyoV9jvG9E/MYuLzr/D4I4fIH15AUekkZk8aqkGXgpIFTeuepqobci4qGJKEJKP8apaFtrN53RPsiChkDB/DtE/PYmIm0A3IBQyL7eMPD28hQpCiCXP5zJRckLKYPauJFzc+wU/6FHIKS5g6PwAMIBrMLKW8sIrNaoVhgzLwOrnuRXppknHPB4IU5Xay7alHOB1RyCmexKcXjScDyPjELCavr+TxX+2GQBYlV0wnQ5YZMXcR0zdWsvoPNShSgBGT5zJd3U7TuxGmTpjEZ66PsGHHWh7cGNWt5Wddx8LSfugd8vxkxvVLwyDWJtem85dboyiZBZTNGYDOJAiMm8fyeZVsqlrHL3cEKLzE4bnzHqAUFJJW9xK/2hommlZA+fxPMXuUDPRHcxiQyUg9zYbf/56Qls6YwgKUwWzwUgGzF09n8+aNPPzXCAQLKV+0wHBtHfjeKGOnsXDcRrY+/gibJcNzKSCfv3WRCpn96XnENlfx+K+3EE3Jorh8AStm6vZNyhXzWNK+ja1P/o4NaoD80tksmRb/YxaqO8S72WXMHm6cGF5GeeZa9h+OsKK/52k8IIJkdO3h0V+/AoF8igqCnHX0nXNRAR3bn+Xhjl6iapDiOQuYPhxgEks+1cmLG1fzmCRDZgnz58ts2tPMSbWYIgkCY8dTrDZypqzMts8a4Pksm7uIls07ePo3VUSVLEo+sYDZF5mqn+S/j8nuFZEmdmyoJv+zt7DwovhbUHxRES9v3EbFlROGdOsaGpt8r5OPMC7wyKAxQqdaaD5eT1XlMYo+bXgfONGwhQe3B1lx2/Q448g4963ziVO7eexPnbZ3wQWHTvY8s5qmSV9i2fgWNjyyDWVxgvX38R4QI3SqkR0bttF8yXJun5HMkCk5QnvX8vCRy7h72VC8rYAE7q39IlLHmt8eovjWDyJWxrmvy4eKaKPHvdWNhg2/Z3P6ddw1t/CDpy0B3q/fx5c3bqN8fGmc58lPfvYbAL75j19xnX+n6Ri1dfU+o/ERxgUeW1ImY3gRxUWFZCuxIRpz+vDx0UQ0EgE5VX/LviCZ1PcGf10uDMyZOY2dVX+ls9Otn7xyYjlXTix3nevs7GJn1V+ZM3PaB0mijyHiwv9z7Kph7XM1KFcsYHYCUZ0PHx8vRKh96Wk2HA1QeMl0rp38MXtrf9/gr8uFgoyMIPPmfJJ1L21h5vRPWJKNRQvnuOq903SMnVV/Zd6cT/rxMz7iuMBVJz58+PDh4+MIP6nahQOf0fDhw4cPHx9Z+GniP/7wGQ0fPnz48OHDx/uGC9wY1IcPHz58+PDxYcJnNHz48OHDhw8f7xt8RsOHDx8+fPjw8b7BZzR8+PDhw4cPH+8bfEbDhw8fPnz48PG+wWc0fPjw4cOHDx/vG4bEaMRU3xPWhw8fPnz48DF49BuC/FRHlKY2aDjVS0NLmPbuKKGeGEIIAIQQ1mcLkv5dk3QeRhO46ieC97xVX/KcJ3485/dE4yQb07om4vu1+tHc3yUAzW7X3xziofFhJluRzKGFTofQ4qZgQdViSa7o0LRzm4fZ3jz+9qtXnFN/Pnz48OHj/Uc0GqW3t5fu7m66uroGbmAgIaOhqlDdFOW1t7o4fDyEBqgCMBgLm8EQxO2vwhCSmBfMQ4KNOBkDYjIYkpC8DeI2xwEZDal/BkAgkCT3OFY/ieo7mBNvhTh6XVD7pUNj4A1cGpCZSQ5vU0Hi+Wma1u84qqYNgqlKDuccz6UfHz58+PDxwUJRFBRFIRgMkpOTQ0dHx6AYjjhGo6tHpfJwHy/vbUUy3/SNPVX/bDIXTobDAeO75jolEh41tLg+EkktErU1mQ7NsfF5JSGSkFA1tV8GIBFzInkYjTjmxsFkJKM3bhzPdy9LIUQ8w+OFpvbPrCQaJ+56P5IMkw4QSZkec200TXtP8hnzfmuads6SER8+fPjw8eFAURTy8/NJTU3lzJkz/dd1flFV2PF2lL+8eQYhS9aGaggzLCZCCEnfcARxm6wmuTdpNYlEQwiBLMlx17yfzc0oqVrE0a3JUDjrKNLACWq9zI7sYEw0TbVUKFZda13MNhoIjXh5i6NdAnMYzVld0xmv/iDJcr/X0TTEQH0gPFygW6Wjr7eUdCYms/NepRGapqFqms5UvUdmxYcPHz58fDSQlZUF0C+z4dqF//pujA1vnjE2U2ypgYNZMN94TSYjmURD/+yQCsQxCIntPJwMRUJphfBu8sklJt4+4uBRxcRJLjRbepH47Vuz5ygEiewwbCZFsr+be73mGFQMpHrpR7XiYTD0O5RM+uFQmlhMhk33QBINYdreaBq8R4mELEl6+wSqMB8+fPjw8fFCVlYWvb29SdUoFqNxtltld0O3vvFL7g0bHKoTwy7Dbathw5RoaGYjs72LARFWf4n66M+o05Zi2JKTZIyG+Tme0TCtPO3Z6fIbc7M1zpr7rzA2RtyMj91cs9RJ8YyGm3mQNIGGsJg3Z+0BJRrJGBFhMhoGjZBgA/e01UyGUcXmeEzGzOAhtARSGKN/zapk0uCZjeZcRMdpc+nNvn1Ow4cPHz4+9sjJyUnKaFg7ydut8PaJkCE0dxf9rV7om4vkkWx4IBCGWkWvIzmKLCSjCCQhGZu7ezTJ2MAlBxMSV3DXSQaLTquAZaQg9A1TMpQawrFBS5pRAEkSSGjIAoNu+ygJkCSQhd5eP+eesyTpdfR22O0Mkpz9KJLot0ie9pKnvb7GIp4GIYx5CntdJRBSPL2ykKy1TVRkY/31viTjvLFWOMcx6HKeM9ZawkH3IB/iLV8rin8OsoYxbsoSVv33To47Kx99iIXpApG+kIeODnKA84mhjN/TyPr772TJVeMYlpVOet44pnzqTh54qZGeD4TY8wvzPhV9bcuHTYoPHz4+QCiKQmZmZuJr5oe3T0aRjE3GtKuI0yvo4gPriynZcEIz3uwlo24iiUN81x6JhjmYh4dIpmbxfvcajHo697SxX7qFZjAfTuELDkbFlBgIk0bL/9VemiSv6M4lNdd4INoSXu6XsdJAM2jREkwUj12IRY8pXhGGmsjdxtsiseQlzrw1wTmn741mjHcOVhpdbTRWr+eh6i1sqX6SzY8uY9R77+2DR/sW7vv05/nhq22Ok41Ub3yE6lfWs/7Hm3nxn8pJ+9AI9OHDh4/BIz09PaFUQwKIqXDsTK/1tqu/qerSB0mSEJJknZOElFDKoJ832gihSwKMN23hOUqSrp5JWIR5dL9Vy5KE7KUDj1TAqm98xikpMc+ZUgmQhYaEZr2py5JJt/n2DpLQLNptlRFxRTJp914z/wnH3CRbomFKFoRDUpRwfc12CYtBu5CsekKW3EVCV4lZkhRh0yAkSxJl3TtJ6l+C4l1zyZTeONcrfj1kSS/6vdOGrDlJu/5BGtraaGtro7l2M7+9u4I8eqh9fBXfe6FdrzTyZp7Yf5CD+5/g5pHn8FfzXjGo8dtZ/407dSYjt4J7frOZg40NHNz+JPdePQqix9nyf1fxyJEPkG4fPnz4OAekpqYmPG9Jrk+09yFJMpIko8h6kWUZWZKRZL3IsqxvQLKMLOtMiFUc9WVJtjZuWZKQZIEkS8iyvoHJsjA+G0dPMa/rzIXsKookocgSisF4KJLQv8sSiixQZH1cxepDGJubsIoi6e1TJLudPZ6ELLuL5OlDcsxJkk0mQErIOFkMkmQybfp5a+6SXWQ5eZEkgaLIxpjuYq+TubbxdSRFQjjX2UOb1V6SUJzr7Cmycd67RtbaSZKx/sStu/U8CPs+yQPEOYmDkkZebi65ubmMumwBd/zPs3x3ThpEj7Pm8fW0A5x4klsmXs7lE2/hyRNQe/8s0oUgfeYD1Dq6ajTPf+ohGgGijaz/f8uZVTaM9BRBel4RUxav4pFqQ4kRrea+SQKRMoX7nlvDfSumMC4vnfRRl7Pku+s5HjX/mNzjJ8TRJ3ngfxuBPBb/9EUevGsB5WNLKJ+zkp+s/gk3TyxnwfXlpLWZYw9AGz08tSIdIdJZfv8jrJpZRHreOBbeXw30UPv4N1kyZRzD0g2V01XL+eb/6uqZQa8PPTT+730sn1LEsPR0hpXN4pYfOebtw4ePv2koSmIvTwWMN0xD7G/97DvUFJIwzAUNOwfhqJfUENPcQEy1Ao7rhlTd0nAkVJ3gUNNg2XvYahHD9TSJKkUIgTA8GzTXNVv1IWF2r3lo9NJl6RK8ZDnOJvHS6G8f9fbRT12TlkT7spvK/ga0XXBN1Y9AEEiRmDA6nXEjAhTlpZKXoZCeqvOg3b0qbaEozW29NLZEqDkaJtKnOh1iDSIca6Rp1rrG02Oarer/zt2/tYTF15dz36vVtFXv5WB0JTM9NcpvXMnMf9/Jluo1rDl0L9+9DKCWp57bSw9pLL5xGSX0UP395Sz/92p6MkdRXlFBT2Mt1S89xJ1Hcinf9wO732gtD9x2J6NmLGbBIlj/XDXr/+MW7iyt4cXbB6e86dm1i51dQObV3Pw5T5uClTyxb6Wz9sC0KXbd9f93FT1KOnmkUT61nJ6N32TJlx+ikTxKJlYwtu0I1bvX8MBtJxhVUcm9g1ofOP70nSy87Ukao2mMmlhCWuNOnvzOcvYef5Gdv1hA7hDumg8fPv52YEk0BKb6QFc4OEX9kmOTNw0AwSvqd6pG7GvJDBPtt+cExZCoJBK964aEtlGmrRZxGx7K6IaNppGi/l2zDDLto4gz0nQaa4ok10yjRlnYb+36W7/sKrZEIoHKw1LhmH1qyYvQkNGQtPhi+LFYqgyTD/IW93WVolyFz181jH9bfhFfmJHPtEsyGT0slWBAsuYeDEiMHpbKtEsyWTEzn3+9cQyf/2Q+RTkpyJqmF1T7s6bTKWuqfoT4IkDWNBQ0lKHqThJg1Ehjoz5xghOJ3q7HLmPl1WnQs5dnnzPe2fev4dnqHshdbGz0bRznchbMWcx3n2/g4Ot7aXj1B8xMAxp3Ud3q7LCHvBseZO9fnuC3q7fw4I15QBu7XqketAHn8aO6jICCUYxMbD/lwFBog56Ry3n28BnOvLuXH8xJo7E1jZmLZrLsx5s5uHcve2vXcW850LOX6uqewa1PdCcPfP9JGqN5LPjxXonA8WsAACAASURBVBr2HaSh+kEWF/RQ+/APeaR+kBP34cPH3xys9yDZEZVSkm07DNBt9nR3VWG8oWsOuwO9jVeQYYYiTyTxMAQa/USG1M+bkTKFIYWwNn/THNGTi8Tp/SmEHU7bdNl0SiSsDdgpNfH05+jN/c0x7/4lCDYkyZx1MnjEJAlr2O6rA1RMCEPAg6bB4ivzmDM+e6Ce4rsWMLU0k6mlmeyo7eCl6tPYcTgSxe6Iz5siNE3nNpw38X3FKJbftJhvvbCG2ufWUPsv34U/P0t1D+R97mYWF+h1Fv/bEyz+N+g5UcuW53aya6OhFlB66OkCCsz+0qhYtNh4g8+lpGws0EZ3V/vgSRqSumEQtDmQd/VKFo/UacsFcm/6CU/cBHQ1Ur1xDTt3rGeXYX/a1tUzuPU5tItdjUBaOQvm59J29DikLWBBRRrrN+5k56527i31ZRo+fPiIh8VouBgLKT5gk74Nah4RvzNAlXlS8rRKDN3AMT6Sp/5d71M1o4K6NleDCXHqXswN2OFSYal3zNwdZuROYasphIfBMAeRBrQbcDMaltopoZ5E1bUJqmoM6g3qJRyuIHY8C/doRhtjHEl7jwnaBIzIllk+rYDReYmNdoaC2eU5jCtMY81rLbS0J36XF97Pmn6/zTAe54PPOH7C2OALcslNEgg294abWTxyDU9WP8ua6sXwXDUoo1h202JL5N++6wFWff0Bnt19nB4gbeQo0pOMmZdp+4KkOcbsgUF5ieSNNKxEW49zogvceod2dv7vFpi2mJlj04ZM28hRo9w0nNjCD/9hFQ+8UEtbFMgcZXnnmLQPuD5tx/W20Z3cd1UR97lGTOPE0ePeSfjw4cMH4OAKJMmWYji9PJxFN2g0rwtkmXijRctA0TSgTNCPLOubf7JomwYs40vZHAuHKkLSY1h4zictprGlZfzoMKSMM/7sv7jrOCU73kibtq2CZejqipeBXmQNWdZDjNvGmHYxDSh11YeGkPoryddi7PAAd80feV6YDBNFwwLcsXA0JYXphseJu1jePUJF0lQkzKNmqVHODcfZ+epeeoC8iplMSRZxPnMxK28YBdFa1v/3QzxbC1y0jJWLjC25az3fXPlNnqzuYco//ZbN+5ppO/wTrk4DSIvPCqScm9Np7oyZTEkDul7h2eeOuy/WP8K3vrycWWXjuOW5niHTlpbmpK2dp772ee57rpa0Rd/lye0HaTtVyXenpbnnMdD6ZObpTEnaTO596kVeXO8sz3L/jSXntB4+fPi4cGGLH4SKkDQkWdffS0Kz7AcUzKLpR0MqEGcT4ShuV1N3kdGQJUiRJVJk4SkSKbJMisGMCGH0Z/SraAIZO/CX0BIFhXIGjtIM2wx3MemQhKa7WTqL0+U0UXHUkSQsJkJRpPgi67YbsjkPyz3YaXti0KqZ6iE3PWbAMAXdBkLS1HhbDcseQl8TbynMSuHmGcMtI8/zifRUmZtmF1GYnY6kyUjI+j1CQkEgawJZ1dddMRiPFAwbjaGKNKLQ3dVDT1cP7SdqWf/9O/nexh797fvWxf28U6ex4NaVlCg97HzsEap7oORzK1lg7slHq6k9ASgz+PJ37mDBxFGk1R6ksQd4P0Jnla7kHsM2ZM0/f55Vj22h9kgjtRsf4s4VP9QNRQsWsOzqtHOjLXqQvdVtQB4L7r6PlXPKyY3WUt1oerOY7QdYn7IZzBwJRBtp7Cpn8fWLWTyth/Xf/yEPPLaeI1E/2ocPHz4Sw3oXMtUYktCDHCQODY6xcwmHU4mh3rDsKWSrrgYuw1Hr6HmLjR9H78t+21VtrxNXTUl/izc9MhwqD7tPpx2JsNQtwppQPPqLNmpeT1QjYTtzPM08GuHCvcnMANXIreINW24Npuoh0HXThmReLolp/9zUYe8Lk2EiPVXmc9NH8psNTWiqiqbG9AytqvEMCFWXZGHdjPekNel56U6Ksu6MO19y00/4/uf6F92nzbiZleUP8MP9gFLOypsc/ikXVVAxEnYe2cIPb/smJ2b0sOXRR6iOAnTT1gZc9B4ITopRrPzFE+yt/zwP7N7JQ19eyEMuYku4+Rf3sywXUAZB29gkwyiXM6UiD+rbePa7NzP2QDknXnrUis/R3t6NqfLod33SFnDvdxaz5h/Ws+YfPsG4h8vJPb6X6qM9pE27mu8nG9+HDx9/87B2Htv7wTDqE3ZxiuWFMO0MVBJGdTTboIvJLaNLs5jhvfsrqMjGGELS9LDaZntTtSMkFCEZ3iQiTrohNFWXDhjRPmVhe3XIpieHpr7nIjCLLhWRhOY4ZxdZBVnFkDyoHiZDL5IppTFpd0lXYoYUJmaodgypjyKRoghPSSQhElw3KZdRuedPXZIMo/ICzC/P5vg7Rznd0kpby2nC4RDhUCdaTNVDtQtdjYShAhpqGA0XMvMombaYe36xmco/rBw4KqhSwc03VuifJ97MzRXOvhbzgz/8hJun5XF840M88Jud5N72ID+4Pg2iteyqOp6wy3NCwQJ+sqWSZ//9ZhZMHEVeWhppBSVU3HAPD66v5IkbR50H2nJZ+Ysn+O4N5eQ1ruGBnz5F7dh7+O23ZpJGD9W7dmGZsPa3PkDJXc+y+dF7WVaRS/v+vdT2jGLmrT/hxecNDxgfPnz4SABx5MgRDeA/X+q2z0oJpBCYb/ICTWhopiQjkcQCZ1eeVPDCGYWDhG2EpCU+75AkGIIVl6eJPp6ZrMudzlw46R1gcxuMRMP1PakhqNPQVLXpNr0zTIZDs41idUGFMx28arXX2S0z5oeGpqnxUgGHNEQIGJ6lcMe84f3O53zjWz/5C8dbuxAapGelk5uTRVZWNsFgQJdyaEbyPWPJ/vnG8R8ofT58+PDh4/3BO++8E3fOYUamb2iS0J1HhZCcMbccRz3Qkmq6ghqtze1NAEISaKpmhRL39mF+1gxpg3ePNtU2Xn+W+KysGK6viVUm+iC614f+zVCzDCCzl5ymK465uGl0f/YGD7P7MqnxNLAkGnYsEl134lEpCAlJUwEJTVNxSkNcLrZx2VL1kaeVDBCkIXKUl3/1C367bjs1R8/CsEuYMncZq75+OzNGAmdrWfurX/Hbl1+j/vhZAsPLmbJoJatWLWdKXuIur591CY8+u5e09HSG5eSSmREkI5hm0W/ZpvDBOLf68OHDh48PD3YcDdkRR0MIhGG0CF5phZ4oXBKaK+Km9ygpps0HxnnHUZgbbDL3Vk+fnvN2vfjsn0J4BkRyfNVwqnuSSiE8YhJJ8V6P/y48lHh7lm2+ApvzkVy1zTXTPJnPbCbHrK93pmqa4YYsrD6cbsmKpDFxTDInSCD2Nr+982b+47WzIGczZuwlRI6/za5n72fXxo3ces9cTj3+a14+GoFANmPGXkTkeC1bH/8eu3bW8sun7mN+Ambj6unjWLvpLYSUQmYgQDA9gGSQGXMwqO54JD58+PDh40KEK46G85gYmrVhG4k+HSoJrKOuAlB1hkUi/roRT0IPpBW/2UjCkCTEhRi361hbq2aqVEw63IyEhuZpKzBjW0jGpm9lIzWCOzhlCk4D0vjsrbikJU5YrIFqS4kcTTzQXAfhDXxlMQ+Oo9A9TAyFjC39MWjVVMGlhWn9buSn/nw/D7x2luxZ3+LRn96uSyhip9j18Pf49s+38/iP3gCymXDr9/mvry+lNBtdAvKDu/mHZ57iPx5bzvxvlMf1K4Rg+uQx1L8bJpAioyB041CDMZRkCe+MfPjw4cPHhYk4rxMsLw0Nr3BAGLu7bqeRpI5kbnvCsZl71S/6Zcmok1hCYKheXJu+1dRxNIwnNXcdS0pgeNFI1rxU3UNG07doM609CNszRDhtJKzL6Ool4WY0DJgeNpbAxoDkoceV/8PSIZm8RDKuwDOWQ6ckG3YdmsWraBbDdNGwZEElACL8tfI1IvIl3PqN2201iDycGV/9FX+69Ad8+XvbGfPVn/Nft5YTMJsFLuK6b3yJ+X/+Hlsrt1H/jXJKE/ReXjqCM52n0SQJWdbNb1WhS1w0NCRJMlbCZzV8+PDh40KGLdEwj5ZawzZwtI+GPYIwk6xhGW7aDIVb+Z7YRsPcbG19vRN2H5rrmpPRsDUQmod+dz9Cc4rpVZ2hMujTNz3PuMTTA9hSDzTbRdNBhzkjyWO74lBqWO0dndoHU1I0EMOhCYsaTVXRNNsANqbqEqDe3j46z4YYlpGRpB+ACGfbIkABpQlSmQ9fcB8vLEjSNPsixuQBbZ2cjeG2XTUwujCb1LQuYqqqW/VYkh89loiGZkmUfPjw4cPHhQsHo6F5mItkTALGfmcmXXN7iEhObgASMCvx4otEthcOQUNCSYYdTlyzGAq9rce+Qjg3ewzGQ69sBjbXDAmFK8OsAzYro+r0muMngNvqwj12QmbDM4YtrLAZCruSp3ch6I320d3TTU93hJ5ID+1nO4j09NLb28ewzHEJadSRzYiLhkOsgb1vRVgxPNBPXQ+OHqTmFFBRwPAETAZAdmYqCD1SrGVGgpOJc8cR8eHDhw8fFyYcqhM7lLam2d/d6hFLPGAe7M05ySbtTaZmtsViFLxtNIuZMdUUrvPGJSvFu2aGTTfHc4yNMKQiVkgvhw2H3UYTyeZgMCQu9Ydmq3w0Sy5jbaTxxqkumQku1Yn3iuZeGzQJTVWRZQUhBLGYati1SITDYdra2mhtbaU73E00GkPVVDQh6OvrQxIyGekpceM4MeMzSxnzzGOs/elj3Dr1q0wYFK9xirU//R17YwFmLF3EmCS1UlMkl6eOnWzPOFrL4jMbPnz48HEhI87rRI+0KaO7ISZgEgaQVAzoQSJMBiNeNaN/MQ1AVUs6IYzzVjszhgYOzxXNPZ717i8kPYur9Uptv0mbc/Ju/LaNhm3HoQkQmmqM6aDDbuTuw/qkes4k31g1TdJVOhZ9MikpKfT1aUR6IvRFe2lvb6O19Qxtbe3EonpmVDMiqqYZtiKanoZ9IASmfol/WbqOf1j3C+745+H870+XMyaJhELHWXb96Kt8+6VTBCZ+je8s7z9UpjAztJp8k8C+UapmM1U+fPjw4eOChZ1UTRgJzIw3fQlHbhJhRr/Evu48l6CY27epbnEWZ99xBd1RVDakFLLQ86LouUKM6J4SVi4VU7qRaHzzKBvxPOz+jQicxlERziJZydzsZHJG9FEzMZyQkIQjsZqwo3paOV7wlGTzNdZSOOYsAaga0b4+GhsaOHTwIH/d81de2/Uabx06zJnWM2gxzcj3IiFU3btFj0KqoaiCFE0i1N03wO0fznX/+nPuqQhw8qXvcePXnqI+kqzuKbZ+/3a+/FgtkYuW8p8/718C0htV9TVUZGTZKI4Ecc4kfUNHJ+F1f0fb4c5B1Y6+sYpTm98clOxkKHW11odpffIPDLTKesdv0vH7VYQGR7IPHz58XDCwQ5CjJxlThIREzJVEzUyUppibMnoCMP283VY26itgJBMTjkylAkWS9KOVZExzFWfSNkVIyFrM7tuR5E3P+imMz6qDEbKLXl/o2UJN5sMqhrrFyERrzsWZIVVyBJZSHLTJgCtZHF5GSS/WujhpTlokFCGQNBUZjRRJpruri/pDb3Hi2HFOt5xC7YuSpqQSkFNIlRRShIwiZFKQSRUKqSgEhEK6lEpQTiVNSeF0myPaazJkT+behx/jnqnZnNz4A2655zFqvMxG7BQvf+/L3P14LZGLl/Jff/gxnxkg70dXOKpLx5wMpsHo2QyVHgp+qNBa/0iorpaequcG3uSjbxJ6/VWiBx4mPNAmP5S6dNK984/0Nf+erkEwPNEDD9N98lVCrw+OifHhw4ePCwU2o2GkF5ckDUWW9YykkrdgZCwVKEZKc70408RjZIDVEhQ914eeh0RztZMdqdNlSd/sU2QJRdKQZU/6cRk7DbkCkqxZNNp06IaqsmKkkzdTsjuKLIzzip6G3hw7vhjSHmMNzFTvsqNI3u9WWni3dET21DMlJpKw6UhJkejpCSPLKUjIZGQEyQgGSU9PJ5iWTlpqKmmpiqukGyUYSCUtNYX0lBSaT3QN7inInsy9v32M73wym5Pb7+fmOx+jJmxcix1l7b/czD898zZcspz/eXxgJgPgTGcvZq4WyVmEZhnw6us51ERv+gYfVYETv6fr7aQiGMDY4DuA3lcJ7el/kx9KXa31j4QOtwKtRAZieAwGRgNiBx6mO9QvyT58+PBxQcHKdfJoZR+SZEYDNQwoDbG27UniyVMiTNMEzbKrMEXh5vZhfvdmUzVZD2f/+v8qsmFpGTNtNSSdJtu2QhgZQQUauijea6MB6O1UzabfOXGHnQeGvYg5ihACVYCZn8Qb3luiH68Tz+7kzXWSHHruEtCDbfX0RDjadJpId4RwOIRAQ0VDURTQND0suuGeKzTQVCNKqKbpbq8xlWlXFnHb568cYFwHIrU8fs9X+X/bT5E99as8+vNlvPujL/NP644SuHwlv3z4PuYPMm3KjgOtNB6PZ3SEpscriaHqAdmA267rzzsG1JOv0tPcSLTtGLG2N+ltrEU1lzPjSlKLy1HyRqPklqCMGI56opZoewOxtkb6jrxK1ORFlNGkXHwVKfmjkfPGoeQOR+t4e1B1U0aMg45a+k43EGtvINq8g942s3I2cvFsUguMfkdcghw9Sl9rg07zydfpbT5mMS5SwRxSR5Ug545DGV5OoOQy5KHyWz58+PDxEUSiXCcWo/G7ql5H6HGzaAYzkcBjxPLQMDZ/yYyaaWzAqhlfw8FomBu7YbxhMzLGKQ+zoJmbs6ThjMotmdu8kIzgW7ZJoeR1b03EEAjNyupqzsVkXjRjvu4o4G4mIWmaeKdxqDn+IOTkGhjeMTqzEI2q9PT0craji66zIcKhbt1mQ43q/ZsRujTbBlVVDQZD1YjFoqiqSlpqKvd/51PxLsX9IfI2q7/xZb698RSBYIBIOEJg4u08+ttvMSNJbpO4+Wiwets79EXjmStJ041zdSZRn8Mtnxrbb3+9e+6i7ZXXvfFS45E+h6wFl9Gz8WH6egeoK40mMH0+6p4nB1U3beE9iL3/Rvfp/iUoEECZ/K+khx6k8/CxgShGjFzFsJvuIrW/2Go+fPjw8TFBv0nVUjQ9kJJAGMnOVH3T1pybtel14pAaYEgdrG/GJ1nyxOWwj7rkwC2hAKeniH5eFWZsD08eEYckAlUXwVtMipM2IRlhzN0ZXW1RjGbMT7OMR/X4IJou0TAgOTZ0HYldVBEOXZR9yuqjXwgsiYYQGuHeHmQtitD6yExXiPT0osZ6AYEWi+p8hoqdwVVzBvuKkZaegkCw58Bxpk0sGmBwBwKXsOIXT8I3vsy3XzqqSzZ+9TWmZA++i8bmLrSohpyQM9ClXprhwTMYp5PUqQ+Sx720vfJqcmYjYw7ZKx4goyBAMBPO/Plh+pLxBNJo0q57mNwJo9HGBAddV5RlI565l3BSZiOAMuUBhi2cg6xeibTuLjrqkjMbUtEq8j7vMxk+fPi4sGFJNJ5+PWoxBkLInjwl8eoPw2HR8g41mQOXmqIfRsMSQxhtk0o0HH3Y3doSDQxJhLutk9lw0m1uU4b0RdLF+CaDhaZZIcmdEg1hMVKOThMtpmMO1jkt8fl4GGnfjURpGhqRSISzHWfpDnXT3d1DX18foKFGY0R6ehFCsjw6UlJSkGWZQCAdSYL09HRAomhkKp+dO3agweMRO0VNZQPZUz/JmODQmv7l9RO0d/YvJnDe0xsXJIvG4USE3j2rEks20ueQfdODZOTbp9TmBzn9zMNEo97Ko0lb+gfyygveU11Cr9L+9Cq62+IplCc/TMGiq2xmUz1G+Pnb6DjcGldXjFzFsC/cRWpqf3P24cOHj48X+pVomFE+9d9/1drE3bCTnOkhpE3JgGp8Vi1mRc8imihfiiMglyEpsGNcGAfDfVXVhPXW64yRqXt4GJWNgFymigfN1l9IkmQkAXHE2zSZG6NvSTZznGjGOKCZqcqMxHCaFc/DmJODVhccgg5vhFBrbgnUKwCq5ojtYaiUlPQ0MtLT6Oo6i6aqRPtioOmSIkVRkCWZQFqqy5NGU2XDBgaEiIHUR31zF6VFA6SL90IezoS5gzTIcOCtpk7OdvYiCTP6qheGhErTktq5JEaAlPzRiS9Jo5E9ah0pf1ycdEm/kI2cX/Ce65IxDiUdSMRoePuRRqPkZQPxjAZZ41B8JsOHDx9/A7Ajg8rC2rxNT4D4zKt2Wnd3FE3ZqBsvwYgzBjWl5Q6puezZb8y6iqToDIuESyRgxr/AkL4IRzunUkNnniRX6nSd0VAtU1RdZaJ/0gy7DStSqCklkUzzT72dbauSHGZbU2WiORmJBJAM4mxa7ff24cOHE4vF0KIqqmn7YjBReqp41Vp/O2SqCiIGQlDT1ElBToDcjP4jhZ4r2jv7qHn7rJ5ETYs5crg4oNnP2MBSHjdipxrsVZGwl6i7gWgIyHIMc7qBmFP0YdZXG4iejsCIwHuqi9pAX1uCukD0VAMaBY4pdxJtPZawrnamlqi6kFTfCNSHDx8XOBTnBzvSppHiHfNNXriO+g6iOs5oVuZTCbdY3MqI6jC91N0kjHbOfs2+DImFnuUzgV2IqeIxRBBOWxBvHTNkt923abBqjywsqYheX3VIQfTgW8nStg8My0bDoiuJGsUY28lOWcP1RXU7ElkCGWKxKBAFoTNpujxGp9m087C8dIwO36hvZ+aEfFKV92dn642qvFHXrhv2SgINxZI0ueBQcQ1FngHQ19oIUgEpE+4ia9YS5Nbn6Nzxe3pONBA9jYfROISqBpCKv0DWnK+QFnidrlcfJHy4gWhrIxqXWeMPpS4djcQiIPIWkj5rFVlje+l5/UG63niVWGsDMa6y/6jUY/S1RSBQTtrUe8j8RDlq7cN0VT1Hb0cD0Si+6sSHDx8XPCwbjbVvqLYXiKQrMxKHFzfUDGCoKySc3iaSQ+oRd7SkGeZGbnq1eIgSht2F4ZkSx0Qg6VIFy3MEvKndE4dE1xCSIZUwetLnaVw13zY9jITs4QyE3pXbjsMQpXh5CEsqotoSjcSMhpfhcl7zWiUYTAWmAah97C/EeV6mwtTxw847s9EXVdlz8Axnztp2GWpiZYQFM68OwJKZhYMYJUJvzXpiRYtJzwu4zvcdfo6+nL8jOMI+qzatp5urCBYXuFZVPbmZ7o7LyCgb/Z7q0vk6oaZs0ssvwxkCRAu9SffbEQKTrnIksz1G995DyBMWkuokOdpKz4HXkcoXu8/78OHDx8cc/bq3vvBmFCFJlkdHMo8Rd2sSMhi2JMHbhyMtvGkWIWnWNatbs51JiydMtRk+3KmM8Lq1Wn1oDpdbNJB0jxpdmmIQY0hFNIMZsNUczk3bHFFLaGehJuARvPUspiORnUYcrfGd2dIKfS42k6E5bFi8RzeygilMGpdLznlSo3R09bH/cBudYXfIqgFVS455XjtzCF4xPnz48OHjI4t+jUEVxS05sBgC3EfXBuKqY7pm6lyEbZuh2X2Y3iXCw0wkVI3o53QbCjfRhkUFmhAmu4A3F5g5nv5ibUo+VJ0ey8tF9zLRJJuJADejocd80N1kJezYFbY7rVuy4Yzt5TQIVYVJt0Gb1ztFuNczHgI8zJTp1qpLN4xgXy7VSTxCPb3sqjnJ+OIcSkYO0UDUgyPNXbz1zllAj57qpMyU4CSD9VwM0U7Dhw8fPnx8vGAbg2KECDclENhbv+voVBc4hP0JmRFXBliDbXDkELE3V49qwtlXgrd/uy+MOBkiTlAvGTu6hjNNvEOa4hhHE5rVH7hkK5hnNDQjImhirxMJncmwlDLm/Bz0W/NJsLkKD52DgS3HsI9xpHvbGHxIfVMHJ06FKR6ZQdHwjEGPqwHNJ0M0nQgRCvfFMXjW8AMkS7MYqqFM2IcPHz58fOxgp4nHwTg4mAPv0XUd4bhmq0jsjVWyPVewTloSDasP20LQ1ZfZTji/OOkwxxOmFwqWi6mlFhHOpsLBaCSwuxAJrByEAFW1pRgJmB8NW5JhSTdMrxNzfKeNBm7YKzE06NN1q3fs8RP3pjrqh7r7qG1s53BTBwW56eRlp5IdTCUtIKMYdhzRqEpPJEpnuI+Ozgitbd1EY/osFClh3NXB0e6Vjvnw4cOHjwsSdhwNI8+J+WavCwTMjV+yziG8zIi+3UmGqsJmPCSX+sUaxynJwDy6GQxvPhV3LhQrO4mLITLdQy0DU8MeRDPH0txjukexP1mMhoYletDM9TDHF7ilEiL+s3nKcm8VWlxV56LYazFEXYIQbs5Is2lOWD0BBbEYnDwd5uTpsOPe6BFSEwlJZMnhRpyEXK9Brf5sOdbAYkh93YkPHz58XMhwBewCQ+SdyJDTw3zY5/XNXZi2EEIz8o+orj5c0giHkYIzJgdCGOG+9Uiflr2D8d2WtgtHkC/h6FczVCW6KkSSNFRN0jc4gxFyyiycjIZDGOKJ/2DnWXFulK7tWsR/NKdtLItb0hG31/fDhAwApyTG3VeS3pJ6vJjMmc1EmAycZbOSyIAkwSmLUfOcFYbeRpfySC41lg8fPnz4uDBh22g4+AEheV1Usb47jTSdG4UZJ8qWihi2GJLwvBW77SWchqBm/2ZmVbOZGaPUldzNKf1wMi8WwwSgoRg0OnOrOGFusOBQfzi3bQ3DhkSzOJBEYca9J62vFo+jxbnEeik5lz3XZJVMs1dNSzxfG17VkZFP1zR2NdRRZq96HVuSZEp5EvaqGRYtHpGHMJg+gRH+PQEdPnx8FJD9xT8D8NmrRvOHe6ZZ3weLs7//7PtBlg8fH0so3g/W2z9Yb7eWXZ/jzddmTAyXT4diw347jtt/7TrmJmSFKtclKZLFzOjQMOxHHEyJGcZc78L5th1vxmmFwo4jxDLbdNGoac6YFM7zWBtjohd7TdUlH8LDTLhCkffHSYjE/SYYCVvuIuIuOfgbzxwSbevu9bKYR+MZUIwLXEr7xwAAIABJREFUJpOmq8MEmha17nLCqRjRWJ1uxWYwMtPgWGgqWN4+A0BtZttT66gLJ7hWMI0VyyrIHbiXoUNtofKZtdR0es4Pq2DF56e9P2MCrbtXs+bNGOOv+Qzzxg4x0cxHBr389edfZNWzx6HsDp5+5FbGOi/HjrP1l/fz3+sPcJp8rrjmDr7z9WsocloXxw7z6zvu4unY5/iPB7/OzJwPdgaJcO3kkfzsi1d+2GT48PGxgsvrBEsTYm8Q9uaDZecgCc0KG25uTLoaRbUlHMJ0TfUEmzLVMEK4Yl/YsTcc6gevQaWwGSFz4xaGSiRRZFAdMWMeyTY0r1uLU3phn7Pm6ZVmYAo6NNfW63R/dX/oD4OppLrque1ZnKoh1c1AWVFeVbzshpcCgarngrHW3c4qq6GSIjuZOuFqbQRxN4JZ2XVskw19J5GELUUZEFKQ0ZeMh0R52rLyed+Ca0q5jBlbQP3+ViIpuZRcVkKuAqSPJv39GrOvibpGKJmz9GPMZABdVbyw6bj++fB6/rTvC3xzkn2nmp/9Af+6+jCj5n6O5XIVz/75x/zrqDJ+c9PFVp3e6vVs5Rr+5ccfPJPx2av0IG1XlQ5zfS8bmcnu+jMDth99VZK8PD58/A3C9jrR9H1Kj3+hRwk1Xy7szKiatbGqOO04NEvaIKFH9VTB0mTYnij6NcmQlGiagyEwDSMc+75k9W2rAzRvOHBDEpJwk3aqVJJBi1eVoGm6qsOcuxkTxFTTeHgT5/ZuGqAmYxn6FWokFGkY8xXOOTrVEQ46AdVgNjTcKeuFFjWuJxlcMzd+e8319TcYE6GHYtfz4CRxxdU0BDFMdsacsR0vRbLsNPRMtUmXwoNcSmfMo7S/KrFWarZtp/qdVsJqgKxhY5g04yKaX95KY/okPnPjdAoloKWKp1/YR++4RdyyoAQ6GtlbVU1dcythguQWjWf6zGkUZwEEKJ6xhEXSi7z0ZitN73ZSNG8WEwrtcJ6xJO1Hd2zj6fV1RMbM46brxxMkQv2mP7KlIZUJS1cwq7Atnt6585iQ3knb2Xaa324iMn4CASK0HKiiquYIrZ1RlIwCxl45i9mXFyR2Le5rpW5XFXuPtNDZE/Ms4xVMyTrA3nc9p6esYHlOFY+8coyiK6cQPFZD45kIgfxSpi+YR2l6PRuf2tLvOnppOb19PVs7YPys6bRWVvGXP1fx95PmGlHij7P1lRoimdfw99+9m/lyBZ37vs0Lm7Zz5KZbOX3/clatH8nyr1xMVncVP7p1OU/PvZV/+fZnKan5OTd9/Tkii/+TNd+eTirQvPoelj94mJnfepoHbghQ9+zP+NET2zkSzmLs1XfwlbLtfOfBTr7y+EOsvGjgpw3gD/dMS/j9z68f47aHdg/Y/qzPaPjwYcFmNIT+oyQZInJ9b1HByHJqvakbb6KSqWvH2HgsVkJXh5gBnCQcG57AllhYohJbShDvqWDaBriDUHkjdnr/18cVxs5viuwTq3GMQN6u67alg95OddAoIEFwbQ09UZuDoiQbevIAVXbP8U31NdWEGdEU217Eo/oRxHRGTovhjC5i2buImH7fTHcc5/CmlEECiBmMj2pl07WkHEaWX0nzzMeYuKZpjiBrNqMnGQyLZnnGDJ7ZaK+rZG9zxHNWJq90OhVjAoTrqqiqbyUwcjyTCmK0hwsoHH4JWSWv01hXT/2J6RQWQcvbjXSqQcZfWozc10zlyxup6QxSeMkkSmmh/u1qXl7fy9JlsyhK6aR+yzq21HcipwYJhOqpfKGZxk9ex/UTC5D7mqlK2n4Kk0bWU3XsTWrOjGcaB9l3JIJcNJVJRTLhgwnozZXBM8XOAxtZt7MZcou5bEIWne8eom7Hi3SyjKWXZ3nWI0z9Ky+y7UgEOauQomERTp9oJ6JCsLCYwuEjGDG8goph7TQeaKQ9pZDx44soKEqHkH7Pm+uamDRjLvPOVFP5Zh2Vu4spuaaE8SXB5OsYd7eOs+GFKiKpU1j+tVtpPlrF7yrXs/XkXG4YAcTe4chRvd7Opx6hji6aAY6+w5GYkbImVsNftl/K//n6P9P5ws/5703/w28q5vDA4sV86uLn+F3lJnZ2T2d++jv8ZVMNZM7lU1fn07nzx9z78010XfY5/s/yi6l7+mfcu6EXxt3BzEEyGZDcRuOzV4327S98+BgiHHE07ARqpppAT/0uuYxCbeNN1bCVMD0JNKuOWcM82oabnmBXmmYfE0gerIRsmi22120lHIwPtljf1dbcZNVEG7ezHigOoi0jSqHprqkCFMOwMW5j1YnXM6iaqh8NgyHwQjIkIcmMNBPFpHDrrIT3kmZklTWkLJrB8AlNRUZXZVnhyYXOLKiavjaa0EBTLZWP08AWzRG+XTK8doghW3UM9UcC1YcwxDoxg+FARBHIFnMhabo9i2qMPyiNEhBuaaT+cLyRRkHuFCrGBAzBj0xweDGlVxSRlxXQqRxfQlZdDY31zUwvhEMNnZAzicuKZCJv7+NQB2RdsYilMwuRiVGcspp1Bw+x78hUClN3U1XfSXDcApYtKCUYa2Xfhhepem07+8Ys4/JT/bdfVFHKvpfqqNtfT16shlY1yPgrLyMLCCej1wm1lZqDzcRSipi39DrGB4FJuaz7YyXNBw7Retk0Cpxcb0c9+5oikDuJpcunUyhD54F1rN7ZjDy8gkVGTplitYnOukba0wqZME3vI3ZY7yKrbDrTywqhr5v6/S00dXYSRqa4n3WMw6H1vHAIsmYtZv6oCZy+tozf/aaKZ//yDjfccjHQS2c30FvDC7+vsdul9hLpNXPjZTL/S3dzwydTQdYZlebjZ0Au41qjvw2VXcwft50NhyH/2sVcndnLzk2bOM0oVn796yyfAL0j3mHn15+jt6yMsYN81vrD7vozg5JoeCUiPnz8LcNho2Fs2Ag04ydPF8tHbZUBZrElEbYkA9cRe++2YknYBpyGqkEAqmb15c31oRKzaNIb6VllnXubKXtwhrzWN0ljszc9aLymGGZ7B53CkBKYchOrfgK7DAcBhkxHtRZIFVocKyGZ9if9eYMIm1Z9Hu4RNYuVwCPFsOUGFrPhCByiM2z6d0kYzIFmL4rNQBpTMhLZSZrOWbnUYghDfWV4pcQLRdDQiDnameowSdWZKd2D2kgjP0iRRtHcW/jK3OTXg5dOonT/y9Tt38iaw6Vcd8sCiiVg5HhKh9VQ3XSIpotk3g1D7pTLKJSgvTNMDMjLN9UQMvkFWUAn4a5uOrV2wgQZf1kpQQmQCphQVkhVcxMtLTFKQv23l8umMKmwnqr6bWzTYsiF/5+9N4+2rKrvfT9zztXs5ux92mqphqakgBLEUgPEiEJij5AbIg65Mm6M3huivuvQPL0XB76HT67x6otNEhNeotER8/BJQhTEhmCEYBKaggILi8aqovpTp06/27VXM+d8f8y1m1O0djeJ2V/Goc7u1ppr7XXG77t+v+/v+zuf7RvVs693ELZBowWUphgr5M8VpxgvwXSrQcPC1OD7Ww3aBsI161mTx//K+pMYl9PMNxpo1jyjk2sXYSnXhcjA6bCsdn+Fz3IeVyLhwW99iwMaJpfv5Y8+uRNqjjw88a1v8chbf5ezCagUgdVv4c++/LucrQ7y//zWf+JLxwLCroxDTVIZzR8UQwIgSZxI5+TXvJGXfOkz3HPX3fzzk9/lgF7H5W84n4AmjeUE1DrWr3IfDVatZb2CZN265zjylfjti08B4NyTx3j4wHLvMcCWtSMDebohhhjiuTDgo5FnHPp5+dxGuuuHYfMgIfLY0dVbdP/cunes/btiyDMLNk/D55qMXlDs8ofebBEAkxMTA0LR02h0iYK1SNGdwOqKOO55w6Deoys0tVoPHEsfXeJhLU9pOe0+7A+Xdz9yRXDPCVJOKkw+D2VwI85u3KKEwGDyNa3s1+iRNQHGZj09w+BCeqZfJ5Y6BlbXbcE1tvtd5d9dXgKz1pW7jO1+f7mluuiXxqRwj7XtioAFfaGte7+U+Tq6hmwrCJx1du5CoFacK4MwEjeFVri5MULnGRV+BtBM3383TzRC1r/opZyxds1AAJzijBes4aH7DrPjAWjLNZzzAtcvUqyUUMDSwnwehDULiw1AUakUCZIAxRJRKwacLqPRqAMhQQGK8tk/DyHbzj2FXbfvpU2JLeduy+/Wn229AxAVKmWgNc9yB9aUgGiepTZQqVA58dyVS5QkzC8v02ATFSBenqdhoFKpPCfJgKfODOrjmc/jCjTv5W/uXABgYdd3+caugdeOfJOb/+kqzr5wM+vXAQePMR3B2eogx2aBDZs5WcFC/vZnFPmu/jXedP6f8OCOr/JHew7C5qt40zaAEdavm4QHjjE9A6wGFmdY0MBy83kcfR8ndpZ85uSfV4/REEP84qNPNHptotAVIErbNSaX9FpPrcgnoA6WME64vWbgrpw+iXBtja5M0r0rN8asuKuVsk9chNF52n8guyC698w2z4A8zb6lAJMfQ+5iOUgSBnFiduDpIE/cRbcE0tOQWJQ1WCxGuJNq6HqLWKS1eNLrbWCFrmKAcagTykcnalbkM84Psb0f2R11nwd1V/LJUxZW59kEm2c2RE4u8mXkWQhvQOQL9DITg9+5pPcFryAbFuGuFZy+B+NyZBY9IBDtzrtxa3pOdKZ56P491J/ue1Jr2fbLJ9NuxYBH0m6zNL2L3Q8mnPKKV3POKkXlBVtYv/OfmF4GtWELW/IOhnDzWWwpH+KJR+/gls4prOE4e59swNg5nHNKSCndxikPTbP3nm/yvcYWxpNpHn9sGUa3ccZ6RWif/fMAcZLkeTlNksRACcieeb3lwS98ijO2rmH3fdP8423fYWZjkejQXqZ1yKZzzlhZNgEY3cq2k3bxD4d3cNu3ljilmnBo735ifw0vPmvNc5/n58AzncdBLNz5de6pwfrLP8VX3ru9RxYad1/P5dd+l7tuu5uFC9/Aqy7axpf+9G7+7P/6LI+oe7mrGXD2r13IyfSJxjNjhItecyF/cPd3ORDB1v/ya2zNGdJL3vBrnPytr3LzH3+W9ZdvZv/X73D6jz17WGAbk8/zWH9c34wTMdRxDDFEHz2igTVYXA1fdTsD5ImBD/IbZReUuin4vEuFfn7BkZRediS/w84zGiB6d/ICgx4INlaT3/mCzO+vLNmKYNdVdwpcet9lR/r7FgMpCkeW8g89DaNwNGowd/FU2AGNSf4Lg8G9G2ZdVsC9R+VPCOsm2Yo849JbWm+JAwLP3v4GA/zAWgfIydMeSbccYrs76HesiG4ZJI//Ij+eLtHokbT8O7TW5Gs1dA3Y8qIIwipsl7wMnAqB617KzWWRAtrtNp6f6zVUrqgRAqut02o8x5RXAOJ59v/oCeafTvriJ2y6YCtbzn8lx9Md7H3yIXb5FcbXnIIyeWAvbeGMkx5g+gBsOn0LvabRYBO/csmrCe99iL0Hd7ObElObXsxFL3+ZKz2oU3jl61+J+v5ODjx8L3tFyNi6bVz8y+ez3gd4js+beXY9dIjYDwlNzKGHdjF/2vlMyfBZ1rsSYy96HZfIe7n30QPs3Z3hVabYeuHL+ZUzThSCApTY+qtvJLvnn9i1fy+7pqE0uYXzL3g55/wsbsif6Tz2cJDbv7GTWG3mNa/dviIjUTn/Dbxm3Xe5ecfX+MbBN/BbV1zLdbOf5I9u/xo363Wc/esf5LorNj/vpQTd7S1s502vGfjctnfw+x9o8LG/+Cb/9ycrbL3wnfz+hXdz3Rfu5p8Xf503TTy/7T/26dc+77UMMcQQzw5x4MABC/DDRyOMACUVVmS5cZbClU7o34nnhlo9nwyge4cK9Eydemn5wSyD+8VtzLqMhLUGbbotj45w2PxuV3bLJj0i49bQD/x5UOutoe9o2n2P6pKAE+7+7AA5UL0wvzLome7RnVAeempeYaVN+Qq79JxcufM5QGiEyQlSTjQGSxA50TInduEMalPE4C/dXAO98o04oR7U2741vfMlcd/LU4bYdbMZOaFy6+4Tqu4+B49R5v9aA2iDNAahLSjIdOIorSeJ0qR7lhDCyUnPfOkLn3JGfxHQfvw7/PXdhyi+6BLOj7/Hdx7XbHrlm3nd1n8D/hh6P3d86Q72j/8cDdGeL3Z9lkve8zXCKz7Hze/Z9r9kl1+//+hP9flfH7a3DvHvFAcPHnzKc/2Mhsl1FNIFK6MBNJ6v8JQLRjYvc3RnjXRnkLggZFBSonrp9sFulUFhpaabJ7G9/0z+yOB0BTYnFN1eDNsLnF29hvsdsP1ujZ6xFGKgFNTvPhkIlSuEjGJAEXpiq6h7c7+3ouv+uSIDAdiemLb/ej+4i/x92j3XbV+RuMBvurfqghUmVk9p9+VpMPCkFQMOpvlRdokO1nlgdL8T2y+JuP8PkCkr+icsX/fTwRqXPRHaIq1EhQGRSfCKAfc/8BAyhdrcArPTxzntjDEWl+r4wSjF0jjtdoxUHp1O5xeTaOjj7PrBIeJgE+efvZ5NyTam9uzg0MO7OL7l/J5Yc4h/nXg+nSXPhqGPxhBD9NEjGsemj5AakIGHEhJpBcVikWKxRLFYQCrRVWtgsWRolBS5rkC7mn0emLqdCUK4PoWutsARgzyTgcsUGGvy7gaTB7Rca5BX9lcqAwZ/Iy/F9OsJPTLCgLV114J8QHe4MhvTJyDWnuhJ4V4VPaIgcL4iAwvo5gdsf3+Dnhv9ZIgdSBJYDKZnniXyjhR5AokR9ulqBc+GgcyEhS7R6O7DspKsDBTFsCuOpese6s7MSq1If4HGWKwB30rSNEOaAm2j+eM//WMe3PUY1cIIZSTLx2bIbtvPaGWcibGTSGJDliaEoYe1hv/yoXf9mMf5rx/tJ3awuwaVs1/MlhJQOosXb97FHU/uZscT53DJWf8Gshr/jjHUWAwxxM8OvdLJ/fccZm65xrH5ebJY40sfrQ1CKKSQCAlKuhHhSkGpXKAQ+oyPVpiYqOJ7jlAoIZHSdSRI6cZySalW3D3bvGRisRhtMN3AJlxGA/rpe9nVdAxkRwaj5WAL6Ir3uB319RSDuo18XX1pQpcEPLXcAANllwFJRv9wusSpr9noCR0BjM39NfpEwwLaGid16ZZV6Jab8hKEtU4oSzcrk88LWRH0xdNnOQYyKb3pq6ZPJJ5Ji9LXdAwYpOVrWbHXLnmzLrtkMkMQFqjHEXfvuJ+Pf+aPkMEk49UiWX2W0KZM2AVee/FFFApFdj28k7nZw0xNVqhUynzmH/Y9w3qGGGKIIYb4t4RnLZ0EgaA6WkKEq/GERzEoIqUCK51gT1h8JfE8hRS5S6UxSGuIOzHWl/i+5ya/GmdwZaVE5m2fJwZx2w1ixuTphty8qdfJwUA8HLjN75Zqet0rfRbQkxaIE/dhV2g0tM5Qg6WdXgaiH077ZY8Bl9EeWbA93Yqz0ta4dtxBB9N8fT2i4XQpwnb1CWCEy5B03266+0CAMWidCzK7k1+Ny/g8ZWy76JMkKwb9TfrZmF6L7DP6VgwQJdl/7qnkZuBryKma8gMOHDnCrbd/m9vv/HuqpSJxO6KSZQhVY7IqeYGWqKO7OOvFW9nw4grt1nrm5mZI06VnWM8QQwwxxBC/COgRjYLnY4WgOlpFIglV4EjDgDbCCQVtLsDUWJOghEYpgdUZ1iZIq5z+wYq8O0UgpOhZUnfbUnN1YH7H7V5bQUVyl83ukydOQe2XKkwvgyDyTtmuLsEpR/IAmosrhDG5uVeWB3yRu1+KlSUPuiUQmydauhNIuyPQRb4ODWgQumfGZY3JXTFFLsVwhMJpGvLCTk6SLH2tAxa0taTakmqN1hnWGDwrXMup0Qj6x7tC7ykcyXAdJf0TJ1EIBNp0rctdpqRbkOp+Td3yST8b0+0Isb3vpytONcbg+T5ZpplbWOLxJ/dzy3e+ycGjB5kYrxI1G4yVi+i5A5w8aXnjL7+M9fEcfqiZKB9nLGzywl99IfOLa2l1nm4k6xBDDDHEEL8o6Gs0ZuaQhRCiFIWHJ5NeRsEYQ7FUIvB816apLJ5vUEpjidFG43me02OYvpun00EIlAGByT0y8iJDPlTL9PQBeXdLb+iWxTf9PIiUAx0lK+6y+0FVCIGUsjfwzXGLvCNECKwwyEz3PC+g29WSl2MGZR2iWzYwvfWarrYEHys83BwVixB9bcmJc1ikHbAm72Y2EBjhdCzaCqwGmXuzLtSWOTQzw/TSIsVikVAbKkFINShw0rrVqFzLMejhYbvzXIQjgkJAUAgQSDpRgkAh8xJYnCZ0oogszRBCYgRo2T0Frl1YGUeipAQhBXGn40iZUiAk2hiiaJlvfvvb3L/zIRqdmMJIkW1bXkDaXGJusc7ayYTSiOWNv7SVM1Yp6rPz1NoNTG2EYrWAKGo2nLeVpSNP/pSX8BBDDDHEEP+a0SMajx6eIRWQ4joIXMq/P947yzJ8pVDKQwhLeaTAxFiJdWvHKRQCPK3wpYcvXLOoFK4bRFmBwrlSOrdIV2ZwFQKdx3cDQruSTF4mscacIIzMbdGhX8bAPTDGoLXGWEupVEJZ6MQxUjq9iJLS2RcLi1HOIlwIR6B6pMUOiDhzIaW0uQ6B3P/LdsetWaxIBztLcyKT85UBPYq0jlrJXkdInhXAYITAGDDaolPD4vIyWkgKk5OcsXkzUbuNZwyjQUg1CBzRyU23hLMddYPO8jV1SzzSCuoLrd7xWASNRhuLIpOSKE6I4xRjXWbFClBKUCiEKKMRzSYCw9jYKMZqjHF6kqDkE8UJn/3jP2bPk0+SYZlas5bTNpzExGiZ5WMHCZMWb7nkFYxUD7D9rAuwtRmOT+9hzfrTqR+dQftlHvzhE+zY/R0uf8vlzMwZxn821/IQQwwxxBD/CtEjGvc/cZCwUmHVurXOZAoXXJMkQQhBsTiK9X3iToIQknbH59iRBnMRrF4zRbNeAwQmTqnVagjfA+GKI1qnlAoB5557NoXAA6OJOm2SOKZSKRP6Xk46LKDR1oIEGTpdQ2aM64SwAAKlXOmiSxKstKhQrch0yCDI438ehv0AKZyhVq9TRfbfb63t+WkkndgRC60hJ0xCyJw8WTqdiHbUcnf6xgXybk1HCInIxa9CCHwlCYKA0PcRQmB0irWWKIlJtQYkcSel2WiSZhlGeejAw9brCCEJrCUuZMRhRjkI8LrHIHMLeCXBdIkQPWKlQx+s7mVi5Kjvvk9psJUiXmYQSJRUKCnxlEexUMAXhhIdlJQUikXAEkURJrcmP3LgAJe+9c0YKbBCYgUUCx4ia7Np1SgTRUmlmDI6WidQCpsl1JcXmZ322XyyQgjBmu2SeqvOw0eXqdUlL/65X+ZDDDHEEEP8S6FHNKanipTHqxwTbWy3E0JJRChQUiJlgic1YkSitUHKjLBUYG/chEO1XBchUUJifEvDT1ziQRuKlZAoqnHnD3cgAV+5WbF9c6t85Lxw4+WVdNvxcE6TlVIJZS1BGCCVy1JIpXJDMNftIqXqlVeUkBSKBby8XOAJQbHkpmMWjCWwFs/38H3fuXbmZELnQ908IZEyL/tIUKpLHFwJaFUgsVlC1omddkNDkqROjyFkP8sgDL7yiNotPOlmkDiTLNB03UOk278VdOKYFEuMRUuFFAIfS4hgNCxQ9B3REEIglBOUKqXwpI+UHgZodTpMTE6SpanrFFIC4QmEBCElMq+9dLUy0rifrq7F+aPleRtrBybiSZqtJi981fl5dUuSaUNmMjKTEHgaj5jlY4cp+4qiXyFqa7SVFCd9xlc30VZgsgyjDWM6oZgmjKfZ/6prfYghhhhiiH8B9IiGNzJKhCATgkboBJwKDyklnlL4XuDumIVESI+up0SmPZdhwDgjKunl5l4id/2EJWvwKyO0ct8Ma2yPMLi5GI7YqLxLZaRUJo47lLIM6suMNRtsGB0hKCoinZAlBiEV0vMICgVA9OzHjXYtsnOLi1g8dGbJ4hgT1fFMh1HlsXp8gtFqFd/3sTIveeBacyF3ucwJipcblFugbVJqnTb7Dx3kpDVr2LxmLSEKNzLNGXWUiwW6KQZhLcIkmCC3XLf9ltp2GpPorJeZSdMUIRTaGIwe6H4RAt/3WUxjisUCCIuSisPTR9l/5BBpmlKSHhvGV7H30cfx/JBiqdjrSPEDH6UUSZaR6YwsHzKXpinHj88wOlKiHIZIDCOFIlmWEvjuPFTKJUojZeaX5jl4+BCFQpHR6jhSKlqtNvPzi6xdtx4hLRs3reX4zBE67Ra+Cmh3GmzbdgbNVhOUZGxsDKktS4ePsXz8GFPjY1SqY6Sy+HO9wIcYYoghhviXRT+jsbTM1nPOIVWSSinESglCYYXEWBCeclbcAqQSbraIFEglCKSgmBlXmpAenpCkcYZCIKXXM/USK1L+qk808gyKEirPZgg6nZjW8QWOzi2w6aR1nHXqC0Bo4jRxmQepsCbvArEglSNFMpA9wSh4NAPJk3v30Gm0CWVGq11n3YZTmBqbQghBpgQdT/bIjrXWiV6F6BGN0POxQCw0YXOZvU/uo1Qss2rVGqphwQ2H63Zt5C2hwjiBpjJOSCpEXy8CYAbEpdpoRzQQTg9h9IrOXqBnFS6FwPcDRqpT1Foxq1ZNItOErZs280sv2U4Q+GRZ4kgflrAQYq0lThIQgsxorLXMzs7yD3fdydL8HJs2bMGkKf/h0stI4titUUhEJvDLPp0kQUpBlmmCIEQpn6jd4Qc/2IXvh4RhwFlnvQAhTS7yNRidUSoW0SYDKciyDKEt/jaNjVoIkZBiaSVPN7Z0iCGGGGKIXxT0iEZ7qoBeX0VIQSiku5O3EikEoRdgMg1GY4wTcCrfw8kcNQGCAs5CXOTtDyaUvelaVhq0ybDWtWymxiB035vCEQ2JJ1Wua/AAQb0iOO6lnL1xkvmSQKQW6Qco6eUBW/SyLG46ak4WsL1WUgoeU5s20qmWSZqLiFJEOjZCuxypabToAAAgAElEQVTQcx01EmsMcez0JyZNEUKgcOPOO7aDFRBUy4yNTjE7u0ht4QE2rd5AbaZOs1Hv2ZRbzQDRcCxBZ7o3q6VLjowx+RotOstI07SX3ehEEdZaPM8dU7dE0u2qEQI2nbqJVjPmyOFH6NSXueBFL2V5foFOJ8IYjTGuJBGGrhzUzfyIvGCzYf1p/MovS4qB72zjjWZpsY41bj2dOCZpx2hpSU2GFYIoip0niRW8ZPtLWF5uMDu7F6UEUdTg+OwxrIVqpUqj1iBJErLUIH0PYwxZkmIabSoezC0epjJR4djsMv/zcy/7qS7iWx+7le8f+D6PzDzCkfoRojSi6BfZUN3A2WvP5hUnv4JLz7z0p9rHEEMMMcQQPxl6RKPUSlFLNeZqC2yN0zwLgfOCEIJU594Q2qC1RZuu24QlU4ood2NQKITsT+kUeQnFGI3JiUbXY8LZVOTun9b2DKkCz6daGcOcNEkSxyTtDmkUs3fXDyE1eMrLR9YDxuSTQN22ui6acSfGCokUHsIaVBpj0ia+D9/d/01SkyGkdP0wRqG701WtxWZuJgmyWzpxQ91++eILOenUzazbuIGiH9LJMr7//bs5Pj2D9HyQCk9InPW3zYfcOk8MpFuX7s6Lyf0+PM8di8to9EslUsjcMRWyNMs7WxQKqNWWeOv6txKWy7zk9M1MlitMzxznz//kCxSLa5zrqNa982shf2xz/w5BqVjAGoPCEihJlsRMHz7C/fd/n+o4xJ3YjTuRgkwbQJFlGUEQkGUpf/+9v2dsfIJXXXQRI5UyH/zAB9i7by+NRpNCEDI1PsHs7Cyl0gjjE1Mcnz1OGqfQSTh5cg1v+A/nkcqUffc//BNfvDfcdwNfePALLLYXn/JalEbsWdjDnoU9/O3uv+Wjd36Ud7zkHVx93tU/8f6GGGKIIYb48dEjGmPjY3genNSMGV2OUMLiKddSanKSIYRzCc2sxSo33dUiXcYi95GQ3cFmIh/x3nOxBBBY6+WPHVHQuTOoozUKLSyp1ShtGFcFtpy0iXarRb3dojG/iBdbJE4A6SQV1qkobM9awm3fWqRQuJKNyM2myiSpe11ag00tSANSo1C5macEnzwzYpDGYnWCNpZGo0Wr3aFUqrBmcjXLy01a7RjlFUFIrJVk1h1Hr5vFuCCtje0dd9+zwpEtnZd+ugPrAr/oPmcMxhgn9DSQYRDaUA6KRJ02mc0YGSmzenIV80em8YIindjDiG6pxTm0utyPQRpnjqGzhHarw0jZY+boEfY8/hjLSwuOCJLRbObGZ16e1ZI+VkhGSiMopei02ygZEMcZygvASjy/QBhU6HgW3w9ptRMsHsYqarUmAkWWRnhKMafb/MWN36ZaLTK/+FSS8FzYPbuba//uWnbN7Hren1lsL/LJ73+S2/fczvWvuZ5tq//XTAEdYoghhvj3jr4Y1IBnNaHWhNqghMDPOxGU8EE6B80sMyQmI+uWAIQroKietXbufJmX3nsGnn3PblyywP3uNiARXZWD7HtndIecukyDGTABy827usYV+Xah/1kGPTgQ5P0ePX8viXR+Gpj+2Hk7+FnnTeF+l3nJgZ5wsxN1CEJJX94pGdxjT1zBym2LbiusPdHaq59BiqIOAFrrgfktCpOPmhP5ELosTYjbHbKRBJNpjHYOpd1W274lusBZpAs8JcEY9u37Ec3GHLPHjjJaHWF8YoRypczMzDFWTU0QtdtEaQdpJWmq0dpQKJTIsoxiqUxQKCA9z2k5lM/s3CK1eptiscKpJ5/CK1/1Sv7mr/+GhfkFrDUoFTBSHmPV5CRRmpJGMc1mgpATz3J5PhX/eOAfufqWq4nS6Mf6XBe7Znbxlq+8hRsuu4FfOflXfqJtDDHEEEMM8fzRIxq+hdFCkSAsYKMa0vNRvkQK8KQA5byqtTFIbVHCzVoVuSsl3fJHd8DYCn9s+mZW3bkdsssNRN422vXFcFqJIhAnsWs/BbR2DMFal843wnGUbr9J1y+jN4G9F7dzUuLSCHlwt70WXicAzddIHpKtdVkWIcHm2Q6gu1OTGXSmsZ7JR5w4d07oHtPAWPUBAuQkKfnxk7uS5gPPrLWuXDVgRuZmtHSHxeX24Bas1iSdCKsNWZLRbrZJooxiGILStJM0X7s7pwZIkpi9e/axtLiINRlZ1qBUFHiBZnJqhNnZWdrzNbRJqdVrBJ5HGIRIofADSLMM5XmUKxV0luB5Hsa4LJfn+YyMjNLpHKZUqPDYY3s5eOAYrXaEJCBLwZiEMAw4+dTTyLTl3nvuZevpW5mennneF+vu2d0/FcnoIkojrr7lar761q8OMxtDDDHEED9n9IiGMhkiy1BaU/J9PKWQJh/1bjUC5ay9tXGzPGQ3JhpsN0Wfl1aciZaLlz2+ccJgDpEbTFlsL9hbDUZaPN/HDySBXyAIOkgp8kmmTgiJVM7Rkq63RT4Lxbq5HW7cejfAa/qZhm75Ip8xIrozVHKhpnDBXyl6pl5WZwiduuPMxZuC3J+it0lnNGbpkpb+wLaVmQ3XCNs1Hut9Pn+cGsfnesRJMrAd+lkaq3PvEfdclmY0m3V23H8vjU6EXygxNTVFEmcIYGlpkTiKUNLHmAwhDFnWIggqlIqjvOyXtvOtb32L0PNpt1tYGyCUT6cVAYIgLDI2Psbo6BgbN27ksUd3u44ZIZwpiMBlNoRCeSFx0ibN2oyPTVAICiwuLhAndZQH/3zfPxJ1IkrFEgcO72HDSeuf14UKcO3fXftTk4wuojTi2r+7lq+97Ws/k+0NMcQQQwzx9OgRjaryGJWSIPQZKRWdM2ju55BJQSYtxgoyK/M2V3f/b7QBKwi8wAUxacmyDCk9hPBOTGzkJYxusM9bQaVEGA9lFVpqOkmTqYkqJmvgy4xJv0Q50RRwQU3kdt7dkofThJp8mFuXvFiCQJGmGVmm8b2QJInxcpOunquodZ4erpvGdZ84UuNcNaU1WK0RnqBaGUEKSxh4jsxgCH2F9hVp5ghNn0jggjCW3sy0rtmW7OtXcvdzugPW3MAzjbAmF4m6f7WOkQWDsRlx3MDoBN+TKGmxJmWsOkIYKows0IhaHDnSQgBxFJGkMWSa0dEqUatBpVpmtFJk9dQkx44d5a47/4HxsQnCoICvAtdeayyFoEBmDKeffjozx48jpWTnzp0EgYfB9ubKGAuTU5NMrppkfn7B9SJlltm54yjhUSoVOfmUk5mbP87oSJXa8iKB547tyNHnRxxuuO+GH0uT8Xywa2YXN9x3w1AgOsQQQwzxc0R/eiuGkjF4wqKzxI0sz0lBIgUZjiRkaLJ8Vokf+HSSyFlYC0E7ifELoEncrJKuAHRghzbXCthcP2DyiadSg8wsRhnQKaVAEcZ1JktF/CxltDBCQUoysjwT0iUZeXnA5BoOC1JaigWfTZvXM330GEksKBQCosjkQd2grRO4amOQykcbjZDgKYn0faTwMEYjjaYdpUihCHyFFC6boWQusFQ2Jx8+rShy2pNuNqS3wrwaYl1QFuheicmt2alPnPWFQdgUITKMscRRh067TbPZpKFrFDKDL5xluJLOnyTLEtqtFgvz81hPOQv0fO+jlTJRBLWlJZQw+MqwdtUEaRKztLSMMQLfLxBFMSOlqiu3mK4uBJQQPLlvH6nWPVv1TOu8HddlsQAKhQKVyggj5QpKKqanj2O0Jos1ng9xnBAEAc1Gk/GxcaxJyXRGu9l6XhfqFx78wo93ZT9PfOHBLwyJxhBDDDHEzxE9t6SSlARGM+J5RJ2IKI7opDGdNCaJY9I4IY1jsjRDZxlZ/qOzDJumdJp1fDICNAVpCWwGSRsbR5B0IOkgkg4k7rHSKUInSJ2gdIrUKSpLkVlCQRiKyhKgGSuFkEaEaEKh8Uza+5FZjNIxARnKJkiToHSMSSOiaJn9+58giWrouEmztkDcrqHTCGtirE6wOgWTgslca60x6Cwh6UTEUYskjoiiFugMnSaEgQ9G9yaoSilQUpAmHcqFkKLv0Wk16UQt0rhDp90ijVrouE0aNUladTqNJaL6Au3aPK2lOeLGUn6empC08WxC1l5m7ugBFo8dImkusnjsELXZozTrNVqtJstLiygBgec5szCtSZOEcqmIyRIUlqTTIUsSWo0GWEN1pEy5XKIyUubY9FEAOlGHYqFElmk6UYeZmeNgYWSkQqlYZvu5L+aMM86gUChQKBRYrtVI07TnAeIphVKunKWNpt1q0Viu0Viu0azXaDTqtFoNWq0aJtMUghBPKeJOTL3WwBqojFSe8yK99bFbn9LCGq6+ik+/7V4eff8+Hv3f7uKvLr6UjU/j/RWuvoLfv/Iu977fvZ0/Oe8CqgOvL7YXufWxW5/6Qf0Yf3DJWZx6+tP8nP1ebomfx19X+27e9/KzOPf9d1B/uteP3Mh/PPd8fvNTDz/D61/kN888i3M/eHfvqcM3v5dXnnkWZ77+w3znechb9t5wOaeeeTmf+9EzvOHRP+RNZ57Pf/ziYzyfQxpiiCGG+HHR99GQioryGC2VWciFkH0BI9jMYHPtgRQydwaVboYHGolG6oxTN57C2Ng4Dz60C4EhM/TuhMHd33tegJSGTGekOiPpZHhIhJZ4MsMjpVoq4LVTkqiJLwzoCJXFiKRNV+/gSQlWYrVF6AyBwBMKFQikyog6dULjuY4N09VxGIzuCiUFVrvOGYzpiSeFNQgsnifJcl2nMZZiUCDTGpkPWMOCzjIW5+c5Pj2DMRalPKTnIYQkTlOEcTbjIj+RXa8QYwzGGqIkZa6TYI3EE4piMWBxfpokbRM1W4yPTyARhMIQY1DSI81SsjTBao3JDFZZ4k6HLE1I4g6dOMFTPmHgs2ZqHe2oSej5zM3NIZXADwIWFhcZHx9naWkZz/MxAuIkYWpqilqtTtzp8KO9+0jShK4iRAgPrS1K5fUeBMZo0iRj4fgczVqddavXU6/XCQPXrkvo7OmXlxeR0mAzje95eCNlhDBMjD/37NbvH/j+Cc+s4opXXsOl47v5/N99jCMb3s012z/C+4/ezvueGAiXcgtXXXwdV4zu5PPf+wKc/n7e+fLrOHz4tfz+9MrtP6Oh1/h5vPv3LmGjAojZ+cXruengcy7ZoXQhV12ygVtuvJFbZl7NVWtXvjz3yFE2vuezfOid564gP8+Ew19/L2+79g5mt17Jn/75tbxq1XN/ZsvlV/KqGz7MTV+9j3d++DzCE17f+1id7R/+Ih+68synvDbEEEMM8bNAj2hIaygJj6IfuFZWVF/Mabsdmd0eTWe1nWUxvg9C5EQDy5FDBzh29DA2ixFWoKBnHmWtJc00ncjFoCRLXOlECBRO52BpEYmUJNMYAurNNhXfR/qCyXGfWCrAw1qFNtBOYtIsZaRUJPB9At/D8wXS0/hBBZOB0ZJ2OyYzmjhJMVZjrURb52Zq8hHz1rgfkXtYRK2ENInJ4hSrBDpLEZ6XW4kLMIZOu42wlsDzyDKNNdrZr3sKjGMpEusIhzHMz82RJHGv3KPTjCzVWOsI3Ei5SG1pjlWrJ4mbDbKkTRynRFGELgVUxidopTE6TUk6MdYasiwlTjpkWUqWZvhhgSDwqJRLCAHlUhlrDJnWlAslGo06SZIRhG3nq4Fl3YYNdKIOx+fmGSmNkFlYWK4TFAoEYei2rQ2VkRHSpE2WpugsxaQZQahQts5YWXJo/xNMTE5SKsk825MRdVqEhSLV0Qo20ywtLQKGOO4wOzvNc+GRmUee/oVkjt3T97CveAUxo3SSE143e7np229mpz/LzmV47dp3gImJT5jj9ozbByifxUWXX852BVCHb68kGnP3fZGPfeor3PnoEeLxM7noLR/kI+8+jy4H2Lj5JML4Pm66eR9Xvfs0AHZ+9DX85o0n8ZE7v8jHXw93XXM+v/31c/n4fTdwxdMyjpi9X/8g77jmDmbPejt/8fkPcEGXn83czceuuZ6bHpiDDedx1dvP4p6P3syWz/4dH784hInT2DgBd912I3e+9zxe191+vI9bPnU9n/v6w+xt38Zd376Ed3/4A1xx+pBuDDHEED9b9IiGEKBbEVZ6aKNdJwndnlQ3MMxJLqwLnKLrMWGADGGd82SnbdGZwZi8F0QI5/FgDMVikcD3aLUiUp0RKIWQEj8I8D0fkySQ1Ak8DyM8kqyC1U2KvsKGHq3WDKZTJ0sD4liB8NDGkhqN1CnG8zChpGQNfkkhY0kqfYwVKGExQuekSJBkGVG7Q5pmFEplkiwjSSLnMJpqlAXPA18K/EKIXwxJ4g5hccSJToWgWCoQdyJC32dhfpHHH3+ciYkJ57ghBVJYDBJfCmSWEnci0jjBWoPv+WitSZIUlZt1tZOYYuiyRlE7Ymx8nChqkZoEFUpMnGCzjE4cOYtxYwh8HzJNkqZIIQnDgOJIiTROWV5aplZbotVs4Xn599qCzFj8MHBj6AOfThJz+MghonbHZWuk6JHMTidCeZJ2q47n+UxNVFmYjzEmQ1qD0gZlGxTDJQJ/mdGqpl47CKHHSKWCUgmeb7E2otmKWD2xmunpBarVCsZkFIvi6a7LFThSP3LCM3Pc9A+f4rVvvoZP//Zr3TNPvI8/2f/U5H+9tpudcjvX/NZf886JmL07r+Pzs8+1/eeJg1/kd3/nk+w++XI+9IkPwANf5A8+ezW/zY18491nAvu46eb7iIHdN3+Fe955LRf8BHE8fuCTvO0bR5jVsO3ll7C9lwSa46Zr38vnHzqTd3/us7xu8Ubedc0NHC5fwjvPdzuKv3cjtx8BuJsv3zbH665cBdS56/rf5X1/E/Oqqz/K+zcf4dbP/SH//e11qrd9gtc9d5JpiCGGGOJ5o1fVNhg8JbC4O9Co00CIFEhApEhSJAnKJngkKBOjdETSWiJtLaHbdbJ2A5HFjJYKVAqKkUBQLSg2rpngRWe8gM1rpxgrBowWFSVlKIiM0KbYToPFmcMoEnwbUy0o0naLzGSkGlAetXqddqtF0o5YXlxgfnaGpYV55yeRpaRJhzhqc3D/kxydPsLC4jz1Ro3lxQWW5hc4uH8/SwuLJFGHqN3GZKkbSS8EVqeOMAmNUoIg8Ag9D2ssWZpxfOYYs8dnnMA19+iQwk1APXjwIDvuv5/HfvhDJsfGqNeWKRVDVk1NonVKmsTUa8t5e2zfYdXmIlghLEJoglBhSd2P0Fih0VZjBRTLJcqVCr7v04kihHRlG2sMSspcUAsIqFYq1JaX6ERtoqhFvV4DLNWqE2kWiwVKxRJGG9rtNrWleUKZIZIGo0UYH1H4RBS8lGoJJiqSohczVlYEIubIgR+hRIqSBg+LB5hU80svfSlXve0KJid9Tj1tktGq4eJffSmXXnYRxtYQsoEQLc4591RGqh7N9hxbXnASm09e+zSX5Uo8taV1I5e9/J1cwE4+/513cc3OnYRbP8J152x8+g2Yvfz1d97Gu3bsZvX2T/Ppc1e+7ydtmT18x23sbK/iims+ylWvfzVXfejDXLE5Zve372C3Bh7+W256NGT7xedRPXIbX/7e0yoxnhPxkSNw/pVcdlbI7j//IH/wcE6o2vdx130x4flX8p8vPJNtv/5bXLEVOP1MtpUA5rjlq3cwu/ZCXnVWzD033cxeDeiHueXbR+Clv8P/fO8lvO7Xr+bj776QcO4Obv2noVJjiCGG+Nmil9GwxuBJSdJuADEWQbvTcS2MxjhTKWGwgO+57gudpvhWI8lYs2oVcbuN5ykCZag1Gz3XzDiJWGzWiOOYYrnEZNFnNJQs12qUyiVq9TqFkYAiKYVQkJoOIm4gMh+RaWySEZaKZElCUSlGR8tUKgEWHyEVzXaLJEnAWMphgWLoE8cx1mTUo5RioUK5UEJJhUXk7aKGNHGlhoWFRYySTC8tUAhKtJdqeFYghCVqt0G7/QutkdYZmHlKUlAexWJAIfQ594Uv5MEHH6JUKjF99CiV0VHarSbl0gheEKA8j6XlZTfbBIGSLnPg+RIpYWKywmtfdzHf+94dbHvhFg4ePEi7HTldRNof0KaUh+/7hIUQWgIpFZkxuZOXwZgMJQWdTse10gowVrO4uIjnebTbEVpnCCsJlM/4RBVfxYx4ig0nrWNiYpzjx49RLpfodFy3S61WwxOS8kiZZrNNwSviozE6RVuNNoYnnnicY8cOUWscIgh8dKa58+9vY6RSBdHmvPNfTuAXuOe+u5iYLJBlNfY9+UM2nPQM5GAARb+4kgwEF/DazauID36MT/3wduLiai499zq2b34x4a7DfVGj3MgFL3wVW6J7+PKee9jbup13vmQ7F2x+MeHD/fcV/Z/HqPqYu756G4fD83j/dW9n54/ezk033sbc668krIZAnXrLva/TjsELqT5DtiN86X/lr264mo0/qrL3yhv4/DWf5KKbr+UCFRKqE96sgDCkAHDwNm76p5gt//lqPrI25jXX/S1ffuDtfOSl+Xu9gc9phhhiiCF+LuhrNOjaV2tKRYXIuyqkkG5Oh6HnC4HWBL5PZXycYqmAtIY1U1NMTx+hXCjTbDZBu4K574coqcmSJqHv0WktAyCkRIkMT2hWT1SJOhGmXcfSIFOCUijwYutmfKQRWSJYnJ8nSGPK5UnSzKfZjvELBZrtNlIphDWknRZxwSdJ24S+x9xyk1J5DOUFNFotojjGWulGrZerFMICUbOBlpJASoqBop3GgEApnwBBag3SajwBvrR4EjzhtBcmdV03P9r9Q6qFkDRNKHoBPpZquYy1bkBbGAQUwrBnWJ4btbushKc4dGg/tdoC553/Mr5353cRQhH4pd68EmssxUKBYrGIxhCGBbx8kJvNm1ktllApVk2Ok2YZWMviwiLWWgJPUa1U8HyJ1hmdToqwmubyEpPVkE0bTmJxcY52fcERqYLPKevXcORoB0/7LNWXWT05xmi1xMJch7idEEUdmu02xmqidkqWpLz8V17K4SOHWFxs9/bxohedxe7dO/G8grNAFxkvPGcrp552KlHrue+gN1Q3sGdhT/+JbC97l+FVG67imnNh3+o3s13G7J5/lFhu4dJXvIPtndv53I46F2y/jneXd3La6K3MrXsz22TM7ulHV3RYbKhu+In+eDZe+Gq2ffYPueUT17PlnecRPvBFbjoYsu39b2Tb4m389rfnWP2aj/K6teex5bLT+PINX+Evf3Ql7zn7XKr6Nm75/M2cdt5RvnxvTHj2uWx7JqKx4Sy2hMDZv8NHrrqD3/z8jfz3T1zIN647j9deXOWW793In999JpfFX+GWR4FVT7JXw+xX/5adnMmHLjuXjasu56JPfZBbbryD3zvvQl578Spu+caX+G+fq3LF5jluveFu4lWXcOnLhxqNIYYY4meLHtEYyQxpp01oUrAxvvRQUhHHbaamppidnUNJSalYpNmoIxTUlhfJkhKtRp3jM8cAmDULZFlGHKdkWUapqJFKusyItLSTCAQcO3aMzZs3IxQcOHyAbdtOpyotq8am2HXoOO00ptXUFHwPjEZiyJaXsPVlUjlLuVzBDz32Tc/jeQEg8AqSZrxIOVGMyjKrxjaRJgWOHj+KMYJKpcJEqUS92cTGGfUoog4EhRCpYVwI/KTF5OZV1JcXaTUaVEYCosgjTmNslmCzFLIUD0vBk5DGSJ0RSg+MwRcCLSA0Fm0NQeims/omZd3UGLXlJXSWsPX001mYm6Veq1EplCirCZTv05xvMlVZh1GSVjvCdKe7WEHJCxFZRugpJyS1gjAo448IqpUyayfHMEmCJyylsQLSl2xcU6TVSmg0G+hkkfmlJ9m69XTqyzG+God0CptGzM7ME7XbtJo1RsohJk05fHA/gScQ0uIJSyFQ1OvLaJNgTINiMUCbDEGJi155Gbse+WcOH3mStFPiFa+4gHv/+X5arTbNekQYFGg1Y8572YU8/NBjmNTj0UceY/ro3HNepGevPXsl0TA7+dR3rqN68Tu47OJPU80Os3PXdVyzYy/IV3HBGVdwResIf7Xjc3zuW9ew6tfexRUXXgfxXu7Z8T6ue3DvU7b/E+H0q/mLzyb8n5+7mY+9/0aYOJOL3nsDH7n6NA5/8cPc097AFVdcSAhsu/ytXPD56/nrG+/jPdf9V/70vXU+duP1vOu2kI3nXsnHr7uS587thGx/z7Vcdcfb+fKN1/OxC/+Gj3/4s/xe+3r+/HfexJc3nMcVH3o74Sfu4M577qZ+yz7C8z/KZacBvJqrXr+K73z9Zm45cglXXXsDHy99gs//5Yd5Vztfw4c/MNRnDDHEED9ziAMHDliAj/7Z1zhlwyrac9M8+fijrF+7Gs/z2LN3L8VCgVWrVuEphdGagwcP0W618AOfYrFEs9FAG8OmTZuoVqvs2LGDKIr4jd/4DX7wg4fZcf8OXvZLL0MISaYzpJQcPnyYVtyhPFJGSEncbnDqRIGRgmDPYpOL/9P7eHy2TcGXVEOYGi3w2C3/H2MmIc0smRG0Oh06mSZJDXFmmFqzGq01WZyiMomnAupRg8Rk+EGBZrOFH4Z4no/n+xhr8EMfP/BRSnJs5ignn7wBazSdTouRYgmAQwdjGnHKf/vItYxMjnJ09hiT4xNUwiL/7xe+xMP3PYBInX5jYmLcaT2ERUhDlnQQwrB29RrGx8f40aO7mZwccwPhrKBRb1Eslmm1IubmFxmfmGSkOsb88iJxFmOEIYoiRitVtM4wQtKx8D/+4DM88viPeMPrX0NUX+TJ3T/ghs98hhEvAFJOPW09C8uL1BpNok5GEIaURwKq1QKV6giYgDTx2LvnIHEckaYJnoLKSIlO1GRycoz9T+4DUtKsgyZj1Zo1xGnGxk1b+L3//f9g//5Ztm07l7Fqhb/80g0cPfoEh4/uo15foFSqoDNoNBqERY/QF3jKZ36uxvHjc6w9aRWZzogj+OGeZzeEuPWxW3nfN9/3c/sj+PQbP/3M7a1DDDHEEEM8bxw8+NT+/4GdJsgAACAASURBVF5GI4raCGNoNJsknQ67Hv4BUrok/+yxYzy88yGsMYxPTOSDz2KKxSK+3+TAgQOkScKT+/YxMemmcVYqIzz22KM88sgPmZic5Mn9+xFCEBYKZHHC+Pg4JavpdDpYoFQcwZNFsjQBUyLpeMStiOJIERUIbJJBp4FN6kxUR9FpRjVImTppFY16HYmkUZ/FGI9mlGG9AGNiJgJLWCghlI8cLxEUSzSjCCMkxgpSnbG4MMuaNWvp1JqMFUc4uH8fI5UyayemQEp8FLv27EVYg8KgtHMMDSSkcYvAhzRLKJVKYCN0kiDUMtVSmVI1cOPom4+xet0pFE/zEbrNppM2k8WafXuWaEcNpqoFTh6vYkxCks7QaE8TCNDWMqIkm6cmmFlYJsGjuRyj0oyCNZSkplotEo+PMFn0GCsWyFJDe2GGqUoJL/NoSSgUfFavnSROOxR8H98fYeZYzbWaCigWQ/zQQ4Q+l1/+VkYqJQqlAqWyTztqEAQeo6NVlpcbtFoZ+B6pdvbuSZrypssupVjUPP74D1iuzeP7BTCSheNzdNpN5ueOkWUd7KkxzXad5XoLKUvMzbef88K99MxL+eidH32KadfPAhOliSHJGGKIIYb4OaJvQR4ECGlIspj9+w/SbtYIAp+NmzahrGD16DhR3GHt5BQzMzN4SMpBgdnZWTauXcfCwgKlUgk/b2TRacaDDzzI1KpVTpjZNeTONGMjFdI4xisEjFarzC8tYg1MH5wjTuaIClUKhSow68SbxsNmkoWZGTasrWAay3gITts8wfoNFpMWGa9U2fPYkywvedQKmrlokdl6i4mxtTTnljjllC0cnzlOs9RElEKiVpu169aztAi6NUJ9FlQ6RmvRY/5IilrrMx1HLNWWiUWGTtsoYfGkQAnwhMXajFIpJEnbpGkH3zMUSxXGxyq0F/5/9t4s1tLsPM971vBPezxznRq6emaz2WySTUpsRoLGwJQCRLIjBzEMGIETAglhIEGQAQECIwgCXiTxRe4CIoCvHCC6MCBEniBKcERTIkWr2aRINnuueTjz2eM/rrW+XKxdp8hYNjQ2k8Z+Ghu1u86pff7a9QPr3d/wvof88ud/GQv8s3/8j/jP/+N/lyt7G5yenHLn9m3eeuMHZKbPk7sJw+GYLEsIylHVJZP5jHEv4Npdhhtj2qbh4Og+v/pXfo7Xvv8evWHCxngLJGDFkeIY9xKe2N9mXAxou5KymrKYzaIRme9QKmNydkbQghhLv59z7+AB0+WcJElpgyeUgaLN+d5b7/CTr/4EvdEG1568hlKOJLUooBjM6PWGlIuA8wGRgA+e47NTnnl6n2VZ03Qtv/hvf55evsGbb/yA+7fvcGXvMv1C0xu25D3LP/4n/5wbN47pmv+3+cUfzxc+8wX+3tf+3l/0/c8XPvOFv/DXXLNmzZo1j3nso+EPqZaK09OHZD3LcLhPYi11WxO6hl5eEDpFs1jSzwoOj4+oTUaR9PC1h87TS3PquqHoDajKhiLrM5ssyPp9BA+h5crlDZpqjgqepplh2o7PPb2DxTOZttj8RRaSckU94A9ti82GWDFcTrfpFWNCL+Xu7dtYrRi5LdTUcO3KEyyD57yzbFwa0p22vLC9w/I79zHTjstFTnP4h/T9kpkbc3aW0tWGG9MZw8GIrWFLklR85Ik+o6ziYx/dppUamyq2+wlvvHOHyXxBohwJkFmDJqDxTCbHeN8wGvWiz4gW7j28zyjL+J2vfp1xbtjcHHPjrXe4/WYHojifzPC+Y9ZO0dpii5xWHGW1RGtNuVQkakRWwOz0PtZaru6NkLZEI+SDHKxmNp+jNUjnsdaQpAmTxRQR8MGSFEPK+ZLat7zyyVc4ODwkyy3vvPseh8dvE8Qw2hwiq0A3FYSmcXzzD15jMNrktde+w3/1X/+X1E3Jl/+3L/N3/tO/w972Jl3bUIU5/TyhqecUuaJcLHj37RscHy85Opjy9psHhHCXd95+B/GepGmYn9cE1SEENgcv8qmXn0eU+9fdmz/CF1/9Ir/17m/9hQarfWL/E+uckzVr1qz5S+ZCaLjyGBsGdPUZp+d30QpGgwFaYlrprJpjtMWjWTYLRC+ZLCuqsuYTn/g4H/vkNV771rcYjkaopOL6lW2+/UffRVtLowomkzP6fUvveMa1/R2yrKBeQpH08W1DXqRce/I6f/jdt9h/8qPkecYgtwyKFF252F7ZvcJvf/Ofs7Ux5vz0iK99+y6vfPJJPvLckm9+4/cZFbGy8dKLH+N4MmVj/xqbAoO+IcsDTz75At8/OKeUHGv6KFIUlo3xNnfvHEDIoXOkDowourpCo+mPe2Qbg+h5QSDPUnpFRr8XHTi1VuRFzuVL+5TVkv5gQLWYcunqU2xlYOl4uGjQOmc+WzIYX8VmV+malnnVopNNrl27RjOdoJRCzCl4H1dqm5Y0S9kcDTC9nF/+lc/ysc/+PNPOkSSGJMnR4tjd3eXX/v2/zmgwRlD0ej28FkyScDadsL23x3Q6BUVcsdUWURrnPN7H5FpYrTIjlFVFv9/j9P5DjFH8J//h32Z6eExd11htERHa+YTJkcH4TS5vj2mais99+tNMpzNCXbNcLnjyyhWW5QJ3eo5SivmiIohjaHOCtGT5HxNQ8q/hS5//En/j//wbfyFR8UVS8KXPf+nP/Tpr1qxZs+bfzIXQOLz5Hid3b/Lc88/xn33xf+Wb3/wD/sVXv8bJ8ckq+6IlzXLMckFZV6RZhvctrWq5e3KPb795SJ7nnM9P+ZVf/Wv0hwPeu/0+y+WS6eyUopcyHvUocsve1pB+mpHsbBEwVHVDVbd893vvsGjh7vfe4md/7W9RuAfYUBG0p0lqXnv/Nmd1yslxA6FHsj3A7j3HH9095/ZckS1bzPEJ37n1+1y/fp3nn3+Wwxs3OKkqksxxWD3A9oZs7+7GAVBrUCplMa8YjIaUJST5gGwwIijhypWrgOLVq7t0CBujMYTAsFdQJBmZsfx3/81/i2ujHbhzHW+99Saz2YLhoGCQG7rJAS888yST+YKgYnZK6wLKWK5cu04IiqZxVFXJJecoy4rdpxqapsb7QFHk5EVBnlh6vRSU5vDwAJUN6ao577/3LoV2DC3s7l4Cgc55FmWJl8CiLFlUJafHp5RlRde2VFW5EhiOznUE71eeGwrnHW3bYoyJK7hagBCj4d0q40QUqU0w2nL/7JB77wa0llXAmkJrjYhaiRdBawjLCZqOAQ5wYBugopqf/4lv1pf2XuLLf/XLfPH/+uKfS2wUScGX/+qXeWnvpT/za6xZs2bNmj8ZF1sn/+N//1/gvDCdzcnyHsuyYjJdcno+QTOg1xvxzHPP8ODhfQQhzTIkOFCB7d0Nzk5PuH7tCULn2N+/Qp7lNE3Hcj6nalrSPMWqDrc8Z6A9mWkJ0iJ6QKcSFmXLKz/5WZpgkMGYfLzHmzfeZXN7M1qUG8ub332D0LRYFWPpkcDGaADBEVxHP01RPm5/FFlMHD26dQdFx3JxzO7eFsPhCKUV+1e2GG3k9AZ97t074uVPfI6uS6hdbIqIjrapWms6o0ErumWND57ZfMFg0EOJoAKIBNLE8u3XX+ONH/yA5XJJP0/Y393g2vaA/c0NyrpaWXo76qbDZjn94Rjnoalb2q67cOus6/rikaYpIJgkYzgakRc5XRDSrIfXBk9gs8hIugajWLmOKtq2wRPo9XrMlnPwgjVxBVdrRfAB7xxKBbQBL57Od/G9S7O4PuscLnTRMj0xiI9+HiJCmqQYbVACxsZAHK2jgZhSMZwu5scEfHAkdYOiQdOggifxoJnj3ZJf+1++8qe6ad84eoO/+5W/+2dqo3xi/xN86fNfWouMNWvWrPlL4N+4dTIajKhrx96zV1EmxSYZw/E2y6rlypVnCKLRBtAQgsdYjQ4eaVvyNKO1Cu9rxFcYqwheyJKCNEmjQVaaoPF05RnvvPFt9rfGMbxMZ1SdMF9WaAyjfp+m85jpKerwhHIyZzgaU3rPlSzHWxsDvpwHJTSLOdYalsslC+dQrkP7VUKq93jnQDzWCOfzOSF0jIcFoU1ZnC9oljNc1fK9115D6FF1gmhD3bU0XUPTNPT7fUSEvMhBKSQId+sG5xx5HvNbXNvSzzP+yi/+HFbB1373K5wf3WN/+BSHB/fZHg/RIbDZz7l7fsjueJ/hSNN4RdPrcT6J7puZUiwJpBIYdAHokNSiU9DS4RsosowEh4Jo3AWIio6nZVky3tiibRqyNMF1Lb0swUh0Q1XG4H2HMR2pcSAxbM1YQ91VjIZDTFXjug6rNZmORYzgOkKQWPnQGnyLwqCVQjworeLKbvCrID6BEOi6dmXdHrA4FA1GVRgqCiWkw/6f+kZ+ae8lfuNv/QZf/uaX+fvf+vt/om2Urd4WX/jMF9YzGWvWrFnzAWMfP1HsbW8zWyzRNnB+dsZ8Nme2LDk5egBKoo9DjAxDAVagJxrjhE4LIbT4MMdaEGXQypJlGYjGu1U+m1TU9Zx2PkNLnAuoW8fe5avcu3WTJC3AxwS3HWvBe8LpCfiAci3BxxaFW8Wto6ATEB+D3XSImxiIj3HvWtAqlv+plrTekfS2sZ0hNz1yctCWLMnIehs4ohPqvClxxK2a7cEqwVSBVjGWvtaaxXLJxqBHnqVkaYJ3jmo55+HJIccP78T5EgkYDcF3MZxODIn2+GaGZcCs7pg1gg8NhVY4aUikRaRFqYAThSOgCSQ6kGhIEayEuGLrHNroCwfp3b09zs4mIILrWtLUAoJWYKzm5PiY7Z1NmnqO1h0GoV8UnMwmPPP0kzz77DM8ePcmpwdH0ffEeSRoQlAEE//lBeI/JkJYGc0jEGT1ZPWrDzGMLyhwqJgTQ8Aqh0kr+mlGniV/5pv3i69+kS+++kV+883f5Gu3vsb3Dr7Hvdk9qq6iSAquja7x8v7L/MxTP7NeYV2zZs2aHxOPnUGtwviavhHqZsk4M2jtIBW65pQgbezBB08goEQworAYshDYtykejyOQ2HR1GAXwFcYmiNV4USyrjkylWC+IcngRTo4esLUzZlhskKQ52kRXUlQ06q7rGKvetpA4RdIp2q4leEcIMZo9k1WKrPJYPIYAsvq6dxR5CiqQ6AbvF6TpNazpIcGSpYrz81MuFZtMp1Nu37vLsim58uQTzOYTjFFcuXo16pogeO+pF0vOT065d/sOSWLZGI+4/sRVcmv5+te+xquffYWjh/c5OHjAaNjHS4dCmFQLHp4ecdnCnta0bcunXvksy+mEB298Bx8aOl9HQYWJvqCr+Qkt0fZci6AkCigRRwhqtT6smEwmzGZTfOc4Oz/ipY99FB8CSmlu3LhB13TcvPEen/rUCxijyQnodsnOKONXfukXYDTE1AvOj++hlcFajWtTQhB8gCAhJsoRXelXkb5ALGKwCngTgeBBROG9IF4wKma2aJ2QZJY8CxRq/ue+iX/1xV9dC4k1a9as+f8oj4VGIqAD2gak6QDB1S1S1wyLnOmsJi96KG0Q7TC6IUPRQ5OLZ5QvCGKpO0NVVySpJS8ygobp/AznhNF4h7BsSLMeqEDnalrfkqaeogBLAuKRAP7iM7pgDKvUU49WHhUcOsQcDRUciEO5FoXDKsEGj1EBRYhx9jbQLM946uknqb3n+Pgh9+9PuH9nxmAw4pd+6Rf437/8ZX7l3/ubvP5Hb1AHh8Mz3NrA+8DBwQF7e3sYk1x8YL925QrXrlzl13/915nNphwfH9DrF7RVw2BQkCYJk8mEW7du8PxHnse7BkQYDvtMzk8Zb43pvOMjH/kIL3/qFaqzY8r3vsPRbIHUU6RxqLCJSgzGWrBReKFUbE0AKBUrTPLo/zW379zmiWtPoEXx8P5tlvMFWS+jaWvSJOXy3mXeenNKuVwyGFkSAj0jNHT80Td+l49/6pPMpgf0e5rOtYQgGN0DhCAuZrdFTUOsaaxyW0SByMVsRggepTV13XDj1i18VfPS80+glUMZhU0Uqe0Ym+4DutXXrFmzZs2Pgwuh0VRLjs/m1C4wGo64c+Mm/f6Q4WjM4myGEU1/mOFci00AqciImR49Gxj1hDrkJOMttvpXuXvzBkWRU/uaN+68weHBKS+/+GmODqc88/TzLJcLjBUGox7XnvgIRS+lqbs4zLjK9hD1qD0ST1KtAlpWn+hDiDMewSHSgWrR4jAiJOKxK9GRWoXKEn76V36VT//y5/n+N36Hf/B//AOm50uSpI8C0iTlhRee4+b7b9I1c5LhmHoxo2saHt69R9d2PPfU02yMN3Fdh3jPfHLKfLFgNMiZz04wJlBXJVYlzKcL6qpicn7OcjHn9PiYza0RRmuapsYYTZYXSPAkqgJ/RGEnLCY3seLJVIOoQK0dOlmJDBvXUWXViggqRszDo6KCIkhgtDGOtu5OeOqpp3jnnXf49E9+mtn5hOtPPEFd1jz77HM4N8eoFLNyO+0bWBzf59u/d8Z8UZEGj5GAc45S/EVomxAQNIgmYIiqJ6oOIawKGsKiXHDn7h2CeB4ePISuo1mesVkIvUS4vDen7HdM84QrH+Qdv2bNmjVrPlAuhMb779/g7ZsPcDple3NMahKefnqP2WzBfHaO7xaMhx3GOFxVMigsz1+/wjOXt2knhyyObjDe3OLnf+1vku89w+tf+Wd8/V9+A22FqmkRMbz5xpuM+xuEuqSr5ugi46UXXiAE4ebde/Q2tjEMMKQ/dIDFI06hVyuWjkQrghBnAEJAiVsZP8WkVCWBRHl6JpCnntHumJd+4uOQwr/41msoZUmsw4sjzzTWGnZ3t1gulwR/znLS0rYty/NTJocPWJQlv/1PJ2xubFD0Cq5e3SfNLIvFnF7R8dyzl3jxpae58e49jg/PUDplNp1yaW+XajGjns14uBIueZ6xXCx4/onrDFMH03f4/j/6KtPz+wyylrLTiMpRQKvLVWJuQUCjlEYZDUoQFYcuA3qVA6vxEhso5+fnFCZhOBzSdR11WZElKdViAQhZZrh54wY7Wx8l4EmLhKJQoB3a12ylhjZA03W0nWMeJoQgdMEjIqA0igxUjyCxTSbK40N8T4MI79y4wf0H91ESZ3qQwMlszsnhhCvbI/r2nEs7u2x9/GMf9D2/Zs2aNWs+QC6ERtEfUtYdnQ5kVUI/i5bks9kpJyeH9IsE13VsDvscHZywM9rl9OiY5/a3UEZjdzb46Kc+Tb69Cb2Mp/dqDvfg4XkgrwOLTsXckCTDBw8SCK4ltA6lNdevXOPmgwO2t4fxMJNVm4BHbf94pFpjCDqmwXadID7gJc5mKHGgDACpTbCqjRbdoeTb//dvEhJLefcGfQm0oUOAxpVMp+dcurTLrVtLrly6jEOT9wr2twfMLo25eeuEQTHg8OE7jDZH/MRPPkvnGoajPk8/8zGmsxJUj4ScOzd+lzztMZlMGPQHvPoTn6VXFKQ2pcgLrNFYbbh2xbKZLymoWbQlWdsgoaULGc5rnEtjtyRIXCn1AWMEq1zc/MBEs3cFYHg0GGvsqtWyaqc8++yzPHjwgL2dnTgzoxqUarh2fcydO29wbW+Hpgn0nMGkHsHhRaGwhELRqIZ2cp8QBOcDPgRm8wUhJAgFjpymS6hajQuBID62Toxie283jnMEwYlC+4aN7ApXtkbs7S3YeGLIaGddz1izZs2aDzMXQmM8GpLnKYv5nHLZoULCfHkMqiXPLUrByfExrluACA8fPqBQnt96eJNhoUiSwHxRcnkv4/ztCfe//4/JW42dpSTTGmqBIoattU1cDS2rBV3XYZOYqLq9sY1Wis6HKESILpUijy/Yu/CjD++IY4lxSDWsBhO9jzMCo8LQkyW98iHfe+N19ro+82BIhikzSSgbx+/8zm/zCz/3i3zipY+htKJzMTH1+OyEUWFpyxLlhX4xYGtjm9s37zCdniMINklo28Dm5mUkCE8++TTbGzuMh4FBryA1lul0QpqCsSM2NneZTc85m7bsbG0RnKFzKcs2p3SGhXi6pKTJlhReaJopwpLgcrQMca3BB8GmGY0yNC4gyoAyeAXz+YKmN6A+n6MIOPEcnRyyXC4IzjHoJ+QZ7F/a5ujhXZ752c9y/cld9vbH6DxAz8b30wk4R1vVJHOJvh5Ny3Q6Y7ZYUJae+cKzKIXJVCgrSxcCy6rGh0ATHCEMmM8WCJpF2WBIOa8bzm7f586p4f3Djt13pnzxFz/Qe37NmjVr1nyA/JCPRs5Pv/oZFt6zszNEE+jnBe++9TZZ2mO+WIIY9vYGZMkAK57NIqGnWkaZZZQo9ofCyQ/+IcHdo29rJNvmuHP84k98jnprl8oorNF0bYcPsdTeui46TlpPYmz0amA1ZLgaz5AfUhpaHv++Wn1P3HCJz4MPq5bCo/kOjxWHmz7gct+TmB6ni4QjB6IsWMVgc4M0tdR1xc2b7zNfLCj6Pfr9PpubQz72sc9x584DRqMdxI14/51TvHcoDdvbQy5f3ueNN3/A008/z+Z4iPcerRPee/cGL77wUZ595gWS/IAbN99ka69j79oALylnPuHy5hW2R08yfsbTUFO6GdqWdO2MvaVQBsv50nEyr1iWmvm8wUvALZfMO0UlCSEIrYsR8k3XMDk9ISOaaWlrsMZG8y+TUS0D1TzQlFPOzjXffO27nMxGXJvssr3Tp1dYlvMpk/NzDg4OaKoaOe1TVzVV08b3VFuqyhNChusSulZjVQEeCg+dUTS5QivDaDyMczCb+xgJWF9jjSNRO0Bg9qdwBl2zZs2aNf//40JoXN7f4/JlS1OVtGnObD6HoLAmBx89Gyw6ChCvSBYlxhmkCDibUicFoh3DFGq3wOs+tVaU7QkqH4IqMUpjGIK2tOI5Wsyw2rA32Gaj1+cMT9M01D72/DUKjaz8N4S2aamqimq5pFyWtF2FDxVKdVjr6KolmR/Q6oqQl/isozqpmWxvMDRDejsvcjaf4Qaepzb2edKl3DicsEgsJ8sDfu877xJE6LwhnCRcu/5RHj7sIMCTzz7FaLxB0zR0Ibp5VnXFnfsn3H14wmQ2oT8+p5GKvKdZNn164zGT6ZyucexfTfj0J3+Kna0CFTqmzvHcy6+wcfkqtA70AvwNfOVwjWd2phguLGZWI2FOokomnWfUTymXUHUCkiJtTFE1Pm6FpKIJomi6joCia2psmnJwdMiVS/sQNB5huewwO9d58/b7uO6ce3dOGY6G0YbcOcqq4ny+oGob2qqP0MeFHhqDVgleaSRLSbZGYArOz+ZoZfDOoUUwwZGGmiR4jDg2ZAOvNVlvG6UVJrUEJZAMfpz3/5o1a9as+UvmQmjcPTjl+PiERVkiytDv99ne2iEExajfozCxjP/w4T0GVy7hpARUzMkAsr7noNRs++sk2b9F7QOtOPJLLfPmFm2dECjo1IzZpMUnA9pFy8QndGXHkZlg8gJdjJhVHV4ZfOdQIdA0NSJC0zRUVRWzRZqGzjUgDaiGIoMih/72OfubGU9d2eLypR7Xrl9hvHGNapExGj5BvrcLtsNPH2IyuHPrDkFSsrTHq5/c5fhkwsnRgpPzmtadMbAVbUiYT6ecnJ5h8wybpMzbmqAUOssRYGv/Girro/OaaTkH6+hqT1XP6Rct007x1o3bHB3d5uMvPctzz+1Qnr5FHg5XcwwdZ6fHPLh7wPlpzflpTXCaybLEGENZC95PaVuwZkDrLI3XiMkJVuN1HATVNhpgZdrGedq2xSSWnf4Am2RI51EKin7KrJ6ztfcZzHhE5VqCygEBC+l2yv7lBJvnBLdFUIpeUaCNRozCaegsLHzLe7fe58H0mI2NEd6BEU0SCnwoEFqstCgp0KKog8MAdjVzo+VfuSfXrFmzZs2HiAuh8dWvv07T1hit0dqgjaaf3YuWUQqyPGc8StncyMnHHrtT8sQTO2zv9NjbusTuxiu89eYdtp75GfrDS6iko6mPefLTtyiyhtn0PVxTU84Dk/Oas9mQe0c9bt094sHRMeiE7e093KLmrBSWrcOj0AqqehWgtdqqkBAIGrJBjyztgaoZDhN6uWJ7U+jlnmwjpdgaku929LdbhsUeP/jWt3n/tSN0YtFJR9FTdI3m4b2GNEk5Pz5huSwRb0HloALj0YggBWOvaH3AKZg1NZkdEUTjhbiRIcKD8zmQQWE5XlS0raOX5RxPKsw0YFNPmu1z9xwW753w/uE5O5tbtFWNBDg/WTCbdjSNRXRBCBk63cBkKaLBFlF0iBmiVcEo6WNsihdBG0NR9MiLPihFVvQQBd//wQ8YbowB4cXnX8A3bdxMKZcczSa0ruPFz36W1KY0bbd6mwWlFd53KAJWFFoJSgJ12yCpYR4aTmdnPJye8m5Zcrx5iXlR0O/1GBYFiVYQWtpmhoijPCtRoumcZzDos60z0gAS/L9yU65Zs2bNmg8PF0IjHYwxfrBaR4zOn5t7e4SmZZAZEuUYDAxp4hmO+vQH+6S9lKzXp2os3/jDN7h0/XkGz78A2QDSH2Crkuxkyb1b32fY9ukmhnomzA467t8/4L17LSeLhnxrl/HWLovzOR2WLqTUbUcTAqLkjxca3mE7UMsOUTXnS6GXJ0zOxowyz+GDObdvL/jo/GkuX1VsbDYMxvvcePiQr379DUKwaJ2RZjmdb8nzlK3NDUaDLdIUorFoDpKRphk2MyufTkWyOaJVGucVzsMjW24RtXoExHe0bYMxhjTJGI+HmASUaTA2gDLMgqYte9E7RCnYNYwuA8aB1midY5M+/UEfETDZEm0MiRliyFHK8siVM0lSsjynbjqUUgQUohXdrdsMr17j8OiIqShsmiMKTmZTyjTF5SmTLCVJEhr9yNVT0FrjgkZEOO0sEMPaGt1xUtUcLRzTbsRB6TkRSHoplU04d4pBZxj3luTGMMgHJDgGeR8tkBLwzvOgrqiXJV3bfFD3+po1a9as+TFwITSmTfw0q0VQCEZpSMTc/AAAIABJREFUbj88jS4NyiAEfGgIoUNwWAtpqjFW6KWancLwP/3P/wGoErpzqBpObp9x/GDGzfdb3n3rIU1TsFh4bt88pFEp+eYu6eYmp3XD8YMjqqXGKYU2HQ4hSLS8rmoXTapECIpYcdFZtCkHhCG100zKwEHToBfCoOyhjwO/d/+IfrGgrr5Dr+ih0x2G13+KpnMoHddCs1Xbod0Yc0JgtDFCEK7sx9XLYX9AUWQYrREUogyiktW2R1zDRWsAfAC0iq9toKprhBCt0MUjyqO0R0JLD0vicxqVgtX0QmBWTwmZIR/0o4W3V8yCxNh10yf6cCZgLdoaHB2OAKoltKDZIs0ymrYl4PmWU5SDEe1JRTWvMF1LZRV32sDO9lP4heP7hwnOwCRLOJOaMK8pXaB0mrw3Yto6vA4czSexbeI9k9Nz6qoCpfDSJ9QeYxT9vMAuA6NmyE5hGdqApSHXHZkF4ytMqDBpASblR1aK1qxZs2bNh44LoaF7w4tNjritoTHaorUmqHiIKqKLJAjGxhz1zne0maJ3fcQ//fq3SU1AScd0MmU+XdJWNT5sMFUDDssl00XH8OmfxGCoXEcZAul4F0GTji1WacDERFIRREEPDdbgEQKgjUEpjTE2josK9Ps9MKCsh0QjKkRjqcQSipzcJiR5gVEZfZOTZxnWRKGhV6ZgRZGvsuFjQqmEuMlSG4vO44yBBEWrEzpt8QLOO3wIK9vtgFcxJdW56KEJKVqBXuWDKCUoFQg2kIulEEswGW2WIEYzTTbQg4JlcMy6CkHTSQAU56dTBOhcrPB431DXJUqtIuAxuPYhZVmyv38JIZC+8DK/c/seW1PH5P5DXv3pV1mkCvXMgKlLKOs7PL2VMRz0aampVQ8ZZtRBaHTC25Mps3qGR+NHm9GCvnV4M0CLQisNvkZciQ/CrKwgGM684rAVem2HCYrMWMaZJZeURFIS22GSgPfr1smaNWvWfJi5EBrXX/g4Smu0VhRFD4gfNj0xldMjJEmKNvF70iQhzZI406EcvX7N+5VCY7A6JR8+Q5fGQ0RrGGlIWs9GKXhnQBtQIeZ/agNaIzp6QXj3yGJb03QtWls8QiceL7KyKVcYbQghpm0Yuxp+1IJH8LI6wJTCGR2vveihbEYnii6EuE1j9Gp9VlClxE0IrWIrQ8dqTpCArhuU1ihlqZKE1iqcDzgveIGm7RCJz4OCuulYViVKWZSKLRetDVpprNW0OaTaMW47lCzxbsB5l3M4XVAyow4O8VFyKW1Q2qLMEESRFz2MNRQC/Q3D66+/Rjs9xm5vYLZHPPvyK5z3crquZtAvOEPIB5oXX3iBQzzLBLJBwUhZBtWSl59/lp1xwnEL351N+FYpvH16ynFimF7eZLizTSKa4AK+80jnSUUhPpqJ6VBjqWKir02xSYHSKb3UUJ8dcnZwH38+47QWbOewwVBkhl6/QGfmg7zf16xZs2bNB8yF0PjUz/78xafysIr4LqsaD/iV0GCVcaGNJk1S0ixDK42nIWQzRDJEckiHNCal7VrKuiIY6LywNI5FCHhv8K6jdRVKBbQ8ttEOSuIGxWrNsnJgNCR5Ths8XmKlQiS2UIJIbCaYOHsgOrYytIpDrUZrlFJsjEb4XkFj4qBrYg1d13G6KDla1EgQfPC44HES8ASqtkatQsxERctzURpnUoJO4hzEam4kqGgs5oWVFbgGk6NJMdpS5QZZzWtobSiShidy4Wqvz+Vxj3dPpixln/TyZYIBLYEQQInBr4xCYqtH4YxFjKYRcOIZpQlN10JqaVPF/V4PZTUhz0g6R3ftGc4nLe+EDO+hDUIaAtdyoV+MuNkEgoNKQWMHnOqSJu2BsmSkTH1D4gOm9UjT4p0nIATnEe9BXIxqVZBlHmc8TdHhc2HnuX2ufvQal02fxAWWJw+Ynj7g6OCMw3nJYrH48dz5a9asWbPmA+FCaBx5S1ku41Dj6qA/X9QEFU0ig7BqoawOcBOwdVgd9h6bpXRpjgsJwxZU1sWYdgVd01IuAvPKsWgcjUAXoLsI7lw5gBIPbKMTAgHvhM5F+y69dFGEsIr/QKF0vC6AsKgQrXFJFBqxreJJdAL9hKSqsNWckU0xXuN1wr35nFkHmR2uQsPilbggBB1Q6SaiBdd1oIW0X4DRBGUIKkFpTZImGGOiYZhSJGmGUtBoRZKkYKIgIY3tGK8Uog2qfsDVccLPP/08L6Tw+pWa35gF3n5wgBsOKJVCO0GCouscEqIBlhIdBUjwKDwSOvTeGEHwEhANM+/RJlZlEhSNOPpFysNyCjaFAEndkbQZA4Gvvv8Om/dTrBHO2hqjFJfFsO0UQWlCE1eYtdZgYKYUpXfUuqNTgRroREAZnPIEX+NrTSWWg2DIs4SpahjnBZtPXWbvhSd4mpRq0dE8GvRds2bNmjUfSi6Exr88WlDVJUECiY/hWfPlAgFmwdHFowa1CvfSqxkOa5P46b2XEcYdaaq4pFuytKBuhNm8pFqWtCWUy47StzQaPBYJ0fNBqdXrah1/yiqOvfUNkEGaA5p4whKfKwU2wazi00XHh+plKK3JixwwdGoAI0VmZjzVN/zc1X220yG/f+OAYy6DSsBbNAqUQSnIbIpXRIGgFKsOUMwuVSAqiWIjxNZPQBAJcSV0NRjaGU2rVWyb6CiKHs2NoqGXb7LMYargHPA2h7zFjgYsdUqLZiVR8PJIBMUXcRIt2rUIOih0CHHQNHgkBLQErFGAQzuHMZ7MpSRKWHRLVBCMKFSieOryDs+NErZ78WFRKJXwaFoHIPHQKZh34BI4aWHatsxdx8PzUx5WjqM2UIaAM5ZOAyHQOod0GmMUR5nn2M3RC+i5nLHOSJTC9tatkzVr1qz5MHMhNP7gqCKs5hrSs5KmaQghkKUZ9XhEsLGagWgussrFkOoMrw3epIDCVDU1HZ+8vEuX9jhuFGW6zTL3+L5HAhhrMcpgTYK+2BxRZFkaHa51vKx2kMZh0GKwshWPw6Cs2iNx4yEe8DZLY+JJiBbkWZ4D4MMGSV5zSR3zU09u8+9sjeijGVza5ejWQw7qjtbmeO8JIQ6ghhAe9UoATRw51at3SvPI71z0ozrIqqzyyBNdBQhxP0QUaFmJJK1QWqEESpPx9qIiuX3G24nlrCs5Lht0pxlaSy6KTkCJEBq3slkXRMXykqxmTHAeRDAiqCAkivjeBtDKIHVHa4UtbRAl7I56ZFajqppL4wFXN3ps5p6r/ZyRb8jR1OLRKkUC6FUbKmjoJeA0bOdQZSllMDzb2+H+PPCwNhy1JRPtWVqY4fBVR180fZ2wUMLCdVR4zrslpWpJ0DGcd7f/l3eHr1mzZs2aHysXQsM8/TJGxUjvYrdBlkuCCL1+n429LXxiELUaSlTmYiDTB8Erg4z7BLNgw0/5haef5K8/s8WZgq/cOOPbxxPuhYyWhMQLSQDlYyiaiBBWUeKP9g/86lBvrYDWzJQGpVdbJyux8egDt+JivdQYHSdJtKbVjyLVwetAXgwJIeMQQwYcdqCzDWxXAhbvOpQolAjKA8SpToVaVTEUiKwO3tXmiO9iW4VHUfaRGJuuH2/xyMXvrmLvA0632DTOmlQoRj3DJzKL+BRte3TecNxWCDAnzqHUjyoqXiFicWi8xOtSIaxqTisppASkA61xSWAsKa1vUcrQTzPoQDcB0YbjxQQ9n2GMxeR9JklC11arGRFQyuCUUAZPMI9FVx08tWsoJOFKnjFMCk6qJU3QNEajiwyDwohl5oRzLBPjmSuPb4TGC+pCwK1Zs2bNmg8jF0KjurTHxWG5Ezc6lAiL4AkKlIkJoYhCJG6kKKVJjAE0RTZAGdgejLh+fYsnbDxkn39qizfnJa1PqcloW4duo5QQowGBldCQi5NaXfyiLqoJCln9F7c4fvj7V1UDrzDR6SIWPAS0WtIkFTe7Do4N73YJSiWcTSuqvICmxpoE7+PfXkQwnazmH0DE450DidH2Hh8HH1dR9z9c0Yjx7fG6ZGXihdboVfVFEdjcHmMNPD/c4DMbA561io0kYNIURxRbTmKhIkiCUzBdDhEU5yHQBKFxnsYHFsFSeY1vGpZ1idMSN1+8x/kO7wOSWfqpJvGCEx1zRnSC7SUEDyfTim0Rroy3+ORWHwvcOKk5niwgzVczJdBpoQ4daIVR0To8Vpls3MpRJX1lSG2OEYMoaLWwkI5WKc6cX60oByS1dKIITuHder11zZo1az7MXAiNoFPUyjypMqtDGghaIVrHGQhi6X81rYAxAiagNZQypdbCzS7lK+8Hzi9pTjvP988n3HJxbSPpWrz38YAyRLUSZDW4EJHHT1ES10LjF2T1aT2KAeRR5SB+h/YerSDTCiWK1jm8CqStpywmLFPFe43lvaMpRjtSrzBdYIjG67jtUiMEEWjN6sWjSyqPLkOI8bGxpgKoH7lGpR7PZKy+jDYGbRNsnmI19Hs9RrlhL83Y9YFPFpYn0pQD4E4ItAq8Am01SYirwUkhOGAjRMvz86ZDqVXXZN6B67BWU9k4UOt87KqIJHQqYdR26CLOjwyLARIMLlE4wKXCMORsmZwt4Dj46AuS91mkOZWNbRgIiKTRO4WAdp4sQBE8BiiNsEQISYI4xaSrWLiKWkNnYNJBJdB6h1vEv08Qhbi1YdeaNWvWfJi5EBpJ0I9L/yvBESsCerUU8njNEx61EhRBNJDS6YQgjrl43qiPeOudA9JkQBdyCCm6C4QukDz6gbLaM4ne3aufpS6+hshKf8TcDX6oDeGdi4OYIj90vbEM0HYtXjydFjAa0YHN81M+cmUHLRXJTsHW5Uts9gYkDsQLpWupVaAm0CjDndM4izAtl7TB0zgfqwM+VnyCj0OXCh6vvcCqhaN+pLKhlAZjaZXCi7DoGrQxHDUVdZGwOdpgLPB+47hZOzoN7Sq4TBMPYxcEFwISFEEUwQs2QG7AZhrlTGwVaU9LoCcJiaQo0TjRkOfU0kAQagXKCE1TE3ygHwxNF6gTaMYw14Z365LT1jMPgdoaig7ignMUc0Nj2EhSkBB9QoxmVi+5Vc3pbA8dDJUNiE6Y1zWColGCCwrlAsYHUqJNenCBNWvWrFnz4eVCaKjusYhQ6nHfXK3OUWHV91/NRChNzANRnpaORBLGNIzaOd7MuacsqTYYb+lKh+oEfMwueXQ0P/KgiNUKtXqA+HDx9cejGArxAfGe0Dlc5xAJUbBI3PowCEoJYgSbJhhjsT3N57Id/vYrL5MU8PVpxTK1bOXQAxBFpzJqYBE6Jk2HutrjvIVuoHFdg3EOOk/oVo7ZPsBKbPywhbYotdrK+aGyDHFbJGiFUoHSdbhFibXCrc5jr26ggdJY7nrDvKpotCfYGGJmEawLSAhI7FXQsxmpKIKvSQT6haVRgXk5RRJNPykYesX+aMjxvObWcs5EAoPhZkxpFahCtHf33nLmLfe9ZuDh9dMjXp8vWSjLHMWiha1WrxxNY0vtUnPG1Weeojmfgc5Ispyz8xkPa8c8aVnUHXUSMEFIiDMkTlSsA3UCnYvCUusfFWpr1qxZs+ZDx4XQIHjUqmoRiJsberU1oaLKACWrNc1YzZDVIWHEYZpjXk4C/9GrLyC65n947R7nU0/lGpwYTFCYEIUArAyueCwofBCSNkQbb++jcZjzUVw4H7c2QogHkzwaUozVA2MMGIXODWIVKtGYXoYtMtzI8+zA8qkCzoB6sWRmB9guwa1GRLpVeb8SRdOCAzoHkhqcsfgutpCCJf69Y2Tr49bPIxRxomRV0YB4ncLqOgloDEoU9UizkI4FMAFOCRw5zSJYnBG8AqUcWRAyERIV7eCttWRJwUCEXHkkOIY6ZSmOIljK0KBIGGU9NhJwieJ+rmlbwamESnmCFmoTWyeVeIwo3jcwbxzfOD/mTsipjHDetdTaUjvB6Fjd0hK4Ph6j0/jng4KgodUppfFMk4y50jTGY5yglg2Jc7QKdBByp9EBnBJ8cCtn1zVr1qxZ82HlQmhIUz+uNKxmDDyPqxx6dbAbY1BaIUouRheUaEY64cXxGX8tg6XO+Ycy4PXjI1zWo8vAdX6VaxE9IFRMTCN4B65DBSjrDhUE6f4f9t4/Pqrqzv9/nntnkpsQIElRE0Ql+DMq1WCtS7S24GpLqFpCtStoW4XWtai7FrS7Qm2rYFsr9bsK+qkF3baCW11CbUtwa4HWVlBbiS2VULQkIJLwQzJASCYzc+/5/nHur5nMJIGAP8J5Ph4xmfvj3HPv8PC87vtnUgUaRNxUUm9iQriFsQy/FLo0BU5EIKwosiCKzDNwIhApyIdohKJoHqcXWAxyYJsBjcl2mp0kRhKKCgspLCxwBY9E4ODkmbS1O8SSXRzEJiklKaEqfUovXsMUYEZUbIibjSId6VtmIJiy5/Jxy46RMCBBIWYywn4nyTZbZQw3793P23GDLlOScATCyOMjqXxSQHtUIogQlYJBtkMknkA4NimniyFGlHxhs9+0ORC3SZgWB1I27SJJy4EDtNop/tEeo6uohHc79nFApkgJW7mtTINBCYmdtHm65R1Eq0HK+AgHI6oLbcR2iCYc2pAYtmBINIrT0cV+J0XiuFLaD3aQZ5nkFYGRb7Evtpe4EcFImQzqBImNLaPYZj4CVWCsM6LEpJAoC41uqqbRaDQDmqCpWiKJE04ZBeUiCedsCoFMpXzXgFfCCwwSiQTFpw4lkg8HEtCyexfJeKfywccjROI2ZsrGTiVIJZPK7eGo2ArTHc/u6vIzNTAMsB1ExMCMRNx4C6/4lcqecCIGdtRQgsSKwqA8iBoYUUHCVOmugzFJmCYdBrQmYddBi3fzinCkw54ug7wOEG7nVSEMbAEdThdJJLYwsIV0m4eBNFWaKW42jBIYyipjGG6QasYbuspAkSp1NthAImGzF5smCbvb4dXWNtqKSrBtiZ0SmMkkO+0EhiMxhIEQJlEMumwVfFtaUkh7rBPLVL1cEkLSGTHYlzLp6DxIVBiYgwazI7aPOBEOdibBNklKiS1s3z12EOjId+fmAMLBSaqgWGmrvjGOa9Xan2hncDQfWxrsOxDnYFeKofmC9g5o3roN8k3i8TiGjOKFzeCmrwopVMExlDhT4s5JC/7VaDQazcAjsGgc7AgEhhH83z8tC8RN2bRxBYh08y+kASmHZKdBh4Tmd/ezbfvbxI0CHJnAxEQ4KvbCTiVUaiieaBDYIoUwDUR+BCKm2m6qFEkjYiqBEYkgTSUy3HaoEDUgIgKhkReBiIFjSLeGhsSRNjucLjYBb+xziCXz6RR5SFdAdCofEcI0MEywDUk8om4u4kBUoqw34XIPXrAqoeoZbiaMEc6gkdJ1DUg/kFWiUlC7bMEOafP89v1E4w4bbYu9XUmsSBRTKmtABOG6XpQVSCa7KIlEEEhKCqO0O0ksI4+EKTjopNjZeZCYKKFARBlmDaI1maKpvYNY1CKVMojYhiomZpgqmBdIKhmkvl0pVXyMa2kwXJePIcHAwXAkic44YnAUw4jg2GDbkIonMAyTZFeKlIwgZApTSkzvoXn50OofF8q2I7xE5MP/16vRaDSaDzxBeuuBDj9pU4kLtQDL0MLpeG/yIdRCZOAkHRIdgoOJFBu3baErlcKMCqIJmzwp6TTBjgiIRsBQHUkRBsJEdXGNqOJaRAy3k6sBpqlqbRhCdVYTIvhsGG7vDYFjGsj8iBtDItx4AoEQBh3CZmPHXkrl8bzatp8OU2AYCeWFMVTsRTKqxjZMQ1XeNCTCERhSorrNi3BFbj/bxX1KrrHHs1iEomfdP6QkOF8CjsR2YB/wxsFOInaUd/MK6ZIpEokUeVIt7uG0WYlqYmYKOOmE40lEbOw8k/1dnUSlQVuygw4nRTuS/QfjCOkQtR0ORvKxTQsnGVHdVoUSfML9jj0ri3DTZExpIKXtpu1KHOG4t+JgSoHpQNTMY9+Bg+TnFyClquhaYBUgD+7342eUcSfIKFEBu0GWkOE+l8zAWY1Go9EMLAKhkUi56ZhBHATe276btqle5KXrUglqRphSMjjq8GaHxaKtB3l1extdQwdjS1NZGlAuCQwJEdf1IbzfuH1LDOW6MQT5loUwDBzANA1sKcEQrhlf4gihLCCmEiWGqUpkS0PFl9imgePW/OgAXhPFvLXtAAeEQWe+JCVsPw2ViABhKxGjfAfqpd+RygviKMsHQrlGhBDKXeI4vmhQ1U2V28SLx3A8l4r7fL1MmgBJQsLulIMhbWxD1chQHgVJRELKlX5e5k8y5ZBvCFpibbTbDvmGSdLMxxGFbN0Vo8soICG6yMsvZJ8NpoQu6ZCIO4Dt1ixRQSPSn6tw7QrCzeDxAnTdjB6vbogjVYXQZJLdu3dz8mmjaDvYQdv+PVgMZeeBfZgOFBqSLjezyNdjIijyZkipLCf+dh2jodFoNAOZIL01GvHCB/xeIlLgLubKgiAMgeH+9juEGQIDSWcqzjuOSdeeffz9QAdi8DAMIiANvxw3hkSY7hhu/IcQqkmbMAOhYQtlRZAApmtid60KXn0s6c9JnWsIVWpcpd6afhqug6DNEXQm1RquBI8aw1GKQMWnSkftwxNbwo0z8KMJ/EwXKVF1NLyYDE9ouIumIVGfCRk4QrVJgECggKpCmlQBqQ6qMqh0VOWK4BxBMmWTMN2wSmGSlAZxxwQH8opKsA+8i2k6SGmSFCa2YWIA+YYkZas6GNJtBCe871p600n5MTNqv7LoSMfBwQYHkimbfGFSOKiIlOOwr72dIUOLcSIRopaFlYS4LVUBWRmkMXv3L91nFN6nC5BrNBrNwMYXGnaeykIQhuFX3ASUS8MwwBMcrsXDTbkA4Voehg5lu0zx9q6dpAYPBSNKROQjzAhenxI/MFIYrshQfweFrpSrxpZqoZPCrUzqnut41wUQEmlCNC+i4glM1b5eumP4ZcpdcZBKpQILiqPiLtxXeF8sCJTAUcGXwo+nUIkmAsf23AhuGXT3XOm9pTvSd6WQITS8EiSBR0X6lVhxoxVk6Bw1pVBsgzQQCOyUo4p2OQ4Hk3FkvoltR+lEknLdIslkFwnpKSp1/w6uxcVVF9ILGnEfqBOqCWK4Vg1Vp821qjgqW8SIqDRbw1D9bgzDZN++/XykdBi7W3bhOOq5effl/3ZFjON+VF+ljtDQaDSagU5QR6MoHyLKuuAv+uBmgLjBl6ZwBUCo1LZQgZsdVh6GsHGERMg8kCYGphsroRqTOSK08IrAsoErDqQrXiJ5FoYreIQhSLlLl1u+w18ehdseXmWCCD9LxnPrSDc4QmmCYCEH/OBN4QVxevsccLuqYSBwZFCBVAUwStfNIn0hgqM6p+K+qQvws09874EMiQyU4Erb4C7G3ibbc8t4lhRUHYtUMkVXwiaaSpJIJYgUDMLBoVPapESovIdt+88ifL+eayQt/xZfkvjCSjrqosITYDKIzzmwv52Dg4soLCoiHk9g25J3duwgaQskpiviQl+2e/1AVAh/XI1Go9EMbAKhUagsD07IJWG4YsJBqqBQ090nDN+iodweETdI08BEVcBMGOrtOyIhKgSOkK5rQgkCwxBu9oq73BjCd50UDiokLxolaqm26HE7SdxOkbQNBBFlPXDdFcJ1b/hDe/cTshZ4C6i07cAi45vx1d8yLb7CdVl4sSihd3QIrD2eUJFIv3iZurT0hYZ/aEYogid8/A6v3nmExIkrNLxsFQxVDr6ryyYhJXEpSCSSRKVDh50g3pVUIlC1m3XjaVyx5QoNJ2RFEBlzUvMNW1E8cSEDK4QhyMsfyp5YnEg0QiqVolOCWVBAav9BpDBVfIsrUtKeCZnfj47P0Gg0moFOIDTyo35PkaBWhWvN8FwZrqsEr56FZ0VwS1moNTyiAgyiEC0sJJJ0sOMJ1/pBEGjqB5QCbgyGcK39KSdFvogweHABhUMi7Nizj65kCjvpBi9KQy3UjqMWeMfTPUG1Ut8a4Fo2/EU8nB3iLr7+b3A/B03TQC3O6pObmeIfGwgD/4w0v5P0F3N/jPC5GUKjGzIQPyCR0gYJtiPoMiN0IIgIE0tCwpY4tqO+H+nNPRAZnhvGFxlkFxpZ5yrcXrQSEskE8WghUTOCaSvBKfMiOEKStG2IeC4hkaYjvLHCY8oe5qDRaDSagUEgNNwYDIFyjXhxE34eqHA7t4YCQaVb7wK3u6vjuiiEGYU8iTV0MJGkQ0fbPrfQF0EqaOjH2+YFeyYSCYR0SLR2cRzDSCZNbDtCYJFXDdfMSARHSpxkShUOk14ghCcsZFowpoqrcALhkWF1CMI2AtWR6e6QjuMX+HIH9vf6cRhSutaI0AJLxsKaFn8RHBMmbCUJXy5hp0gANg6245Byu9VK168kpNsXBdyAWNLnFtxQN5Hj5oukz8tzlUlJvKuLRKEkaQiSQj3HZEoVACscNIj9XbY7brrbxHMr+dfMsN5oNBqNZmCSlnXixz1IqSpxQmB5MA0348NNcxUCwzQREdVnxDEM5WJBEi20MPMNnIhBZ1cCJ2riOHbo7dzTKtne5ZXaSHTZJJI227fvxskzcSImfplSAXl5eUSjERLxLhJJt1qp5wbx3SKZKaUi2O+47hIveNT1MsiMRRECA4XfYM5LVRXgFTHz4zPcE2VmzEbod+Zi628OxUNIz4URMrZgCHAg5Tg4brxMMmVjCoOOzs5gjg6BVUaItHtJm4vsvtB75dilF8NiqG9NIDCEID+aD9Eo+5JdqryJKUimkuxua2N/IoVpDcJAdZoNjxq2IAUSQ8sMjUajGegEJcjdt3Qp8LMu1A5laRCG4S/0Xu0LIxQ0ahsAyuViuDUw/OZo/hux5z1xTRfZdIYUoSJhglTSQUSiSFuoiEVDYEZMItEopmEiSLjuFPd0qSwBwpGZ63goPlHg/1d6y2jGoSG3R+j09KnaXkhoEPvgGSGEG//hB4EKlfLqXTPrmN6x4d/uGIYQbukOgRFRJQ0fAAAgAElEQVSJYEZNHCelOrDiWpzSXC2e7pJ+SAoE4s4TEoQFX5bnFfwpiAhB1DRoa99PfjRC1DSJCDDz8xhcXIyIJ2lPpILr+F9KqF5G4NHRaDQazTFAULDLDISF8CpIQrAQhVNbcXfg1YsQKt0BMEVElazucnASSVUfwnHjMtyz/MZj0nXVeGN49TtAWUpAXdNPR1XIpENXKk7KMPwYDbUDdS138kZmIw1XVDjSccWFOw/XzeF4L9nKZBMsvDnWYQgWUO+e/OBUT1R5VhLX+hGei+eYCdwp4V/C74/iPXbDdVl1dHXhyAgYghQOkYiaQVpHWW9enrAgu/BS34N7ReHKFNfNFH56Qkoc28YwIohIFEwDG4dU0oGUasBnOynlInLVleGJKwGGqcaWjrI0pV9To9FoNAOV7BaNiBlkVhihKqB+jIX3xhpUCxVuocyUk1TjeFkVuO6FNJd9yDXhZUUYQayGv757sSLSRtjKGyCFwCaFI8ERhiooZdsYwvCrcwJ+jEQ20i0Y3rIevGwj/b/UI0gPWUi7Dz/WwF1ce1w2M1b6TOtG93m6v71jHCUAU1IiHRvpgGFESNmptGHCTe+Ca3efu/9d9sG84KAEQ0pKZCpJfkE+EdMklUyQdGySjkPKEyhCuGnNbm00N4PJc8ulbFU4DCF0MKhGo9EMcIJgUMOtBCoMpPRKgwMIhJBB1ghh77pqyKUEhfCtH9K2/YDSbimO3uqmhg5SZQlERtpbrpRgu8kvpI9lY7sWBLcLqJQIx+0Q6h7qdHuN9y/t34zwrRLuAux4Db/cY0OWjfBovpsG8IpPdXO3uOLDPoS6Ed0yNAiEgSOlioVx1HNyHJvOZEoV08Jd2e3AUiJCFg1If77u1xt8d/6dyG6iSAp1h0kplfHKNElJgSMiOAI6uuIkbVRpeISqy+EForrPyn9+4X8T2qCh0Wg0A5ogGNQ0g4XQDQR1QgIgM7Cg5xfRYCEThuGWvc48QsVipF1DqHbrXvVI6abVem/+Bm7tDHdhDAdter1FPHkQSgbJTYZqcL0eeLUr/BCD0PHpVoJQMEWOS/Xnhd17NoY7kHJluWnG3jGOVKYeQ/VoAVRhNS/g1ZuHMNLiN3IiXHeL28FVTcArUObGmRpwMJX0XTTJZJKUI/2sJURm/oy6ASlD1iw3iwWhlYZGo9EMZNIsGo4XR+G/8Rrg9r0I2zHSggTdY/0USjdA1MtSEEIoc7uXXioIrB1uRoO3Ajool4ca2AmVo3DPdRyEmyninweu0PDiEaQbh0Ham3N3E32ouZd7U8o4In0BIXvrxOG5agQExcfTLRv++H1YT0XI0hOes1fITLiuE69Kp+G6nBw39gFT+GXGJWBGTQxDxbo4joNt237hrt4nA4FZSzVUc4R0s50F7fG4H4+CFAgj4j6S9Bv1rFRhN5MhBLYXT6JdJxqNRjOgCVk0DAyCOA3/D2HQLdrBszKE4jYyF1JPDHgBhp42wDPne2+9IXdMmMymXP42zwZPEP8RLoyFJ4q6W//TimOF/85MgvUDNXO4XUITwn9T928lPTU2uPihv7lnuhUcQ43TLXPEHd9/xt4j8Iqr4XZoddxFPzMINew+EcI1NLhi03V/eIc6SLBtsKUvYpCB28XXjVnNOzIQc94z6e0ZazQajeZDTZB1Eo6TkEHwZ6AOgroMIQ+//1fgXHH9/O75Xot3DK+RGgQRAyI9MDSTYPVWgsYJCnH5Csd7S/ZM/cLtkeLFRNjBHCFdYAQXCV1ceib+Pjga3E5v0vOzhHws4dvxgiD7m2FhuPcs3WDQsHgJj+wLMgHJZFJZN0LCIe2ckEAJi4ugwZvMcKGJIEvHcXzJZwhPanhuE68DbBCj4YsMT9iQO4ZGo9FoNAODUNaJiddayxAZi6xwMj6nV/X0N5OhF7wYA1PFB3iBk9nwFuJw47PwAi1zLEi+6PGOyVJN0xMl/l2FBQwQxHV41TDS7yTntcOepDQfyVFePEMiwC+p7l09M5A2IyA395hKHvVJDLnXDARNKEVZSv+BSOmVRVf7DcNQ4iScyaTRaDSaAU0k/MFvCS5M3GVHbZduXAXhBcJ1m2QsYo4h3fRGyFxwg6xR4btd0pb1TFeHJyNCPgTh+2rCJnrh7/NKaHv9UNT8Hf8c31vgF/cMFkqB4Zr3vQ6mTnDNLMiQy8BIK4ZhkB7TIt176HnB723hzfr2H3IxeWXC011K7jPwBFh4v2cUcuNaArFhuF4NdY4fJuzXvxCkCSv/+3F7rYBfP0SCX0k1ZafS7lFK6df50Gg0Gs3AJIjR8OMeQwsBuL4Gv4en+wbtRSOI7umJ/hqUvigG9RrC56ed1o3MBb775yxv8L5bJkQ3d0lwvm9jCblwMp5AzjCCwIUkCSqdBjEk6YEKIvORZBmrf/hpxsGGLOKN7vPwYlKEEnWeZSNLvVS8J+a5vtL3Cryy7761RwiEGfRK8bN6NBqNRnNM4AsNN3mA0NLbfaHMQlqth/Aal/V46cdq9jaWd3zPiLSTJDLdioEER4QsH2lnZp1fv5AQ3KDgUIpEqDN6sXh0U1DZBgm7fLIc0m1jdxdGOMjUs0h4MTvKjZUePuu70fxAjCwi0vteMq1cOkZDo9FoBjQh14m3OohDer3OtUx0ExpCHvo63uvxGSuvDG+V3Y55b4z0IaFxiFfs05rbyzG9jpFp3cmuB31BIITAjEQQQmDbth/MmX5NGVSCzeIKkeQWFFpmaDQazcAmcJ1kWXG6WRiyaJDw57A5vbvhQgQHkb74+GNI0j/3wX+fHrcQtmh4m9w8iFw6R2TeRT/JtGqk7Xj/yfZIu3tSQlYRR2Lbtvvdi6wBNY7fJEZgeIVe+2RByh3/otFoNJqBQWDRCGUv+MGFGQeLXDvC+zN7qnt41pL0DWkLkj98puDIgaS7t7/7FINmYllf3nN1ke0PXlWtbgO//2LD66LroTRDtu8q45z0E9L2p2Up5RB0uQJddSyoRqPRDGwCodF7OIba5emDXOuzF56Q5V21myzIsMJnDVTsBb+6p6+S0kNR37835mwiI1PK9XxGJn19ND3FPWT7Xt5Pw4vudaLRaDQDm7RgUI+e/t8ffgMVnsU8vN/blLGCZIqMbC6Ybs3Eekj3kN6YGYaRzEX2fRMamStot1f3LM+jt9f7XgIwwkW2ch6TuSEzu6QPjyvIO+npmMzr5DpSKw2NRqMZyISERrA0GD39v993Q+QyaQh3vIzTuvk4gsXqkC0ZrnHAS8UMz6unhetQX9aDUt+9HtnDvkxnztE3GfRWj6ObqOwW3NnrBXqfQ69DHHqwrEaj0Wg+fASVQcOLiwM9LQJ+MzQZWAy88AyvQrjXhdUPi5QQqpuFip0QaSIjnCfS8wzwMyMyC4HmLK7V00COJ3jSxZMfrNqXQIKcFwj5mtRFQjgZgS/9W3jTeqDkPqhbok5WDdjzlejx34c3cJa5pV1Yo9FoNAOeoNeJ31nT6LUvh1d0KdO1n7Z2uCojl0vDO6vHNfF9fuPtSwn0DyL9Le3d7/Pp3eihy49rNBrNsUHgOnE7ZzkGgMTo3tPUR+Z6o5VukKgQGI5aoL2GXOF12u+RkRG4mWW4AbAgeSVX3eeZFkVrZDyDnsVMX57FB0EQqeDcXtw378lMNBqNRvN+E+n9kO6I0B/dYy/wLRndwh+9g/u4ynyQREavc/kALPB9MiW49CRIervXw8kO0mg0Gs2xSajXSbC49NToSni93g0RNOoK7wcV8yCEcseEMkhEZhRiLy4JmR7U0X3/e6BD/NbovQiJXoWI8BqtQRC5Eh4zW7REXycZsv54rp4c0/ELnPXkGsux3QjrRNGz4Oj389JoNBrNgOCQLRqO6/Lw2l34wqMPpC8+aqXqccH5IFgJXI6+RaP3lFHILq78OiKeRaMHoeHHpmZ8F+m96bLPw3Omed1cc4WEOhkxPh8Ed45Go9Fo3h9CMRrBYuAYWY9NQ4azJbyUE2+LYYCT3gJcymChku4G4cZ05FqGPlTvvD3mBGdbbL1lWvqZJ0KY7r7c8TG5Mop9e4jRc2u2QABkChvRewCn90cvusEwBI50XN0jSNnu30b4H5YWHxqNRnMscFgxGqQZMbJFY7jLWMabbebSJt2qnjmXnGPBvJ5xi73Vl8hpqQhtF6IPSjH81Lu1hFdCp3+WCPe7dSQR00QLC41Gozk2yV6CXKbX8QzEQuCkDx/hrY3hRdIzn8uMBc0b3xtX0MPi2cva1JfKE15785zI7gtq2r0h/EyansboXRLlOCJNIIREmTCQ0vGfTaacCz8zvwpI2IKU63J+iEbG0xPhdGJ17cx7DmwwoWCNbtcJxYBIqSxfhpfGrMWGRqPRHGsEwaChlanbm2zaYqICPdMXRREKURDuUdJdh0Roc/agym5dYvtKX87r1SqSZZCMUJKMP7Jco49z6RG1jAv3OQkhEMLw04MRuEG22acZPGaR9jnbVfo0m54CdXt6piIkQhAIIZUb5ViwTmk0Go2mG4fsOvGDP7u95WdbsOUH2/0Rstxkt+D4G3ofqnfTSt/G8IVG8NufmxGaa47hgn4nuabRQ1BM2lSzu8PA0xJSHZdVlAVWLn9e2Xq7aDQajWbAc+hCA5RFwwisGqoA1xGe2XuIlxYK3eJa1f4jd6U+bYKw6MB3Q+BajnIJjSPnnsg+KU9YSBHUhU07UoR8KV4teu8AJyPA1RAZtWU1Go1GMxA5RKEh3L4lSlikmdZltz8+FHgv7wIvW0MtljLkz3lPl0MRREGoGBdURov0MksybQMZp/b1EoeBZ6AKC4SsokwqgSElfu0UX5R65+U4X6PRaDQDi0O2aPhv1GlvqCK0YvRdaLzvRZ1E6K08FHSprBqBiyHUaLb/oiNX7ETaXESQ4OqmzfoxE0KkFz7LMU7uy/e9g0y2jNxAjGX5pv3wDK+RvAwCf430TJhwkKtGo9FoBi5BHY1DPvUD8Cp6hKaQGZ/heAGv4f2iH0Gr/uBusGbaIhv6b0Zcg+NajvoaMyLo2xx7P8RTVdmPzKlzsoXsZGQaBWJFZHVTaTQajWZgEQiN9EzHXug9oPC9oKcaHCLjd+5BZGBZESCFocTAUbg/32rhihmp/CNp+8OOERlyUQkv06efwTB9EhkieB7ZEE7unZ5dJv03SNcC5n9nOQJONRqNRjOwyOE6yUgnSOs4So76CX2n3yWp+3JtI5yi0bfxMi0bfhzjEQiyVL1kvAJmbpSDN8Vueaoy7Ze31TQMHOngODKri0SgqnKG6VYjJEt/mm6D9AlvDiLNRaL2BL/94brNV4sMjUajORboQWiI9M9pq7DstoB1K+5kZK9O6adfqg9p54azWHqimyUjc3rC8D87Qr1NG261TIkMLAQqR5fgPVwNbBgqRsK7I9MXItJfPf2YidDnnnHccxyVPYJUAkYQNLQL5bH6xg7XdWIIw3e9GEbucuHdnlyWolu5z5QZR+UohW54x6hzRPrHwDIjjG5BwiL90P67ozQajUbzgaZvwaBpXVf7/yZ6pJpsZWvoJt1ubyIzNqAv4+WwBhyJoNS0qp05MkfSriPSn5PjOEgpiUQjCCGwbZtsVpbM8uPe88g6p1C8iPrj0EqPB8+YHHek0Wg0mmOdPsVoeD1J0ra/z5ZvT2R45cGD9udqoRWErCduUkzOt+eQRcL7bUipyqi7roEjnQHjBUJKVysZbo2McEXObtVXhcRxHCKRCIYhSKWcbq6SXjHCggfAq4cSqoXix2hkPDBp4Eipsm0dB2XayBGr4bqecs5Oe040Go3mmMAXGs5lI97PeWg0Go1GoxmA9KXNp0aj0Wg0Gs1hoYWGRqPRaDSao4YWGhqNRqPRaI4aWmhoNBqNRqM5amihodFoNBqN5qihhYZGo9FoNJqjhhYaGo1Go9Fojho9Vgbt7Oxk165dHDx4EMfJXWFSo9FoNBrNwMcwDAYNGsTxxx9PQUFBn87JKTQ6OztpamqirKyMk046CSNH7xKNRqPRaDTHBo7jEIvFaGpqoqKiok9iI6d62LVrF2VlZZSWlmqRodFoNBqNBsMwKC0tpaysjF27dvXtnFw7Dh48SHFx8RGbnEaj0Wg0moFBcXExBw8e7NOxOYWG4zjakqHRaDQajaYbhmH0OXZTKwmNRqPRaDRHDS00NBqNRqPRHDW00NBoNBqNRnPU0EJDo9FoNBrNUUMLDY1Go9FoNEcNLTQ0Go1Go9EcNXosQT4QePfd/Syr+yMlJYO55vOfeL+nA1KS+FMzB2Y/R95bMYyvf5JBt417v2el0Wg0A5Q4Ld84nT891wpYDL79T4z72lmHN9T+TWx/6lG2rfkd+/7RRLLLInpcBYPP/wwn3vA1Ki4oSzu8ZdZx/OnXsT4Pb93wIlfMHps++9ee5M2fPc3O1xro2huH0gqGXvA5Tvzy16k4v7+1ruJ0vPI0TStWsufPDXS0tpLsAHNIGfmjqii99DpOnzaJwfn9u0q/hYaUEiFEf4c54kgJ//u/f+D7DzyDYQhuvPGK928yjgRD+PNKrPo7yZebSAoYbHzwnp1Go9EMFOzX7mfTr1v7P86Gx3jla3exZ3c8tDVOsrWBvc83sPf5J9l280+pvmMc0X5fDSDGzoeuZf2P1pAMb97dyN7nG9n7wpO8c/szXHTz2MO6nv3OSjbefTtNrzR337e/mY7Xm+nYUkz5tEkMPsw78Dhs14mUks7OLm697VGklP2cxtFA4umf960hnJTI/XFiExYohRHartFoNJqji735MV759+9ywO7nQPtX8pfbbs8QGZm0su9HX2R93eGKGovoYMv/1PH0F7uLjDB2K3sfupY/Pd18yFeyNz/GK/9yVVaRkUZlFUP7ac2Aw7RoSCn5xXNruf/+ZxDCBIS/dgpB2t+OEyz4nuVDbROAdMcDw/DG8BZhQTdDiQztda+jfgfnSCkxDJE2p8wx3EMVthOyNkiEWw1V2o77t1QHe8eHby77w1HHS4eOx/9I+6xlWDLibkt/PhL86+HI0DXw56TRaDSaQyXOvmduZ/33nuRAR/9H66h7iO2+frAorH2cMXdMonRIjL3P389f7nmMA10Arexc9Ch7r76XUhOGXvcw51dDdp3Typ5F99CyRYkX8/y7Oe/mKrWraw2bHl0ZiIwRkzjn+w9z8ulw4Lf385e5j7n31cqeh+9h+8SfMmJIX29mHRv//S727A5tKxlLee0kho0+C6sQ7D3N7HtlOW0n/hOFfX9MOTksofGlL89n48ZmVzDYTKiZg5QS24bbbruSRx/7NdKR1K+4lx//+HkWP/EbioqKWPXb+9iwoYmnlvyOF1/8K2AipaSycgQLFtzCv1z3PXa27sUwDB566F+5uLrSFycHD8aZev0DtLTs45WX5yOl5JVX/s799/8PrTv3IYQB2Nx15zVMmlSd1Z1jvxNj36XzkQiG/OJmzBOG0DnrF3TVNWBiYF50CkUrv6asNQt+x8F5z5OfhMTQKCUv38XemkcQW9qIChN5/CCK//4tiLhCQUr2jJkHm98l/18uwGjczYG/NiMdhw6SJE6dA0JgOhD50kXBpATYTXvovPMXJJ5/A1OYiItOZshvbz+cr0aj0WiOaeKvPMTGhx9l+2vNR2jEVna+uC74WHYjo791HaX5AGWUXv0AZ7++kleedq+39WXadkNpGRRecB0nX5Bjns9/kTddkUHJJM6e/5/umMDry0NCoIzyWY9z6gUqHqO09mEu6mpmzXdWKgHTtpJtv40xorZv8RoHnvkW27YElpnoBfdy4YL/ZFhJ+nEjam/p03h94bBcJ5M+V43jBNaI4uJBXFxdya0zJtLZmWD3rjbefXcfdXUv8d8/eQHDkJSXF/G5Sd9j+lce5ve/fwPbtnEcG9tOsHFjM/feu4SzzjgRIcC2bWbOXJR2TdM02LZtJ1Iqbfjd7/6cf/u3R9n+zm6un/pJzjyzjGQyyfcf+Dl33bUIKbO4SyQkWveRaGlj75ULeXfUNzGWbcB2bDqcLg6s20zbP/8XHcPuhnv+j4IuOGh3kdrbzt7z5jHsz7OJDC6gw+6is3Uv7d//P2TK8Z9D9MRSUqQw2uIYX/5YaA4Sjh9M9DNnY31nIiLPVJtth/3f/jW7x8zDXLkZIQUddhcHX36L2Hn3H85Xo9FoNMcwcXY9dU9IZFhYF42j0OzfmOYZkxh20VgGjxqJddE4hqW5EywGn1KRdnyyNytK23I2zHsatdwXM+yOB6g4MTTC1mZ8KWBWMnR0uogoHDeBof49xdj3yrocVpNMNvHOc6Fj88dxxgPdRcaR5rAsGp/7XDXz7n8ax3GIRPJ5eul/AMol8j8//z2g3BDzf7ic73/vJgYNyqejI8Fppw1n+PBS3+Xx5pvvcP0ND5BK2WzY0MT/PX8/nxr3Dfbvb8e2kzz33DquvnpshnVC0NHRxS+eW4dtO4z71HnceuvVgGTc+Ls5cOAAv39xA/v2deTwbiiBZCRsSjZ8k8jJpeS1xHj3rO9gOzbJ9dsY9KtbiF56uhI9g++kQyYwEw4iajL45Vkkz7mXlGOT+N4LFN09wZ0VkB9BIrBL8hk0/RI6/vNXJDo7yRdRSl7+horZcCTt333ev5e804+neNnNGB8pIn9vO4mKOTiOQ7J5z+F8NRqNRqMByK/khK/9iPOu3sSfL1vD4XtQRnLyf/yUk3Puj3Nga1PwMVJG4bCexouz59Fv0eJaLMzRd3PO5JE9zqCbTiopJhrB98kkt2yigwk9Bm3uvOckXnkmI36kaw1vXBbljWwnXPQw//yTW46I6+SwLBpC0M01IYRI22YYBrNmTeLSS8/lwgvP5NJLz+XEEz+Cir1QP0VFBf450oFUyubOOydjGALHcfjpz37nxzMkEilM0wQc/vu/f4NtqyfsZZNICeedfwqGYWDbNr/69SukUjk0nhBELxpF5JRSMAXmicXkC6W5hCPJ+9QZCNMABPFBbswGKobCPLkEc5T6V5SQKeK//qsbbCFINe1BRAzyPjsaRJYYk4xnJExB/rUXYBw/GEyBMayIwogKBnLs/kYvaTQazTFIYSWl1z7MRfWvctHNY7H6Zc3oA7uX0/x8c/D53HEM6yleYuuTbHqm0f0wkhPvuCVknVBEy8qCTBK7iX1bM4JQ32mmIxX63NpER49LRjNtjX1PswWwKs8/IiIDjnIdjWQy5cZOBMJkw4Ymfv/7v7B7935i+9oDMSCUOPnMpy/k299+GkiwfftOkskUeXlRYrGDCAGf+tR5/M///B6QSAnf+s5TdByMk0o5dHTE3UBQg7//fTvnfXRk/25AgIhkajFB0WPXkah5BJmySX3reZhwjhIRm3dTgIl11UeViUPHc2o0Gs17iMXJ33+1B+vDEaargc2zbmdnm7ehjPIbruthgY6z879/yN4u9cm84OucUW11O8o8fwLDhjxJy36AZlp+9Bj7LrhDZYB0NbPt4SfSM2kOxug5t3IkZz17gLPW3s7Kmx7zg0yjtb9hwv1Hv45TP4SGzPjdMx0dXVx+xRzi8U4+8pEhfPlLl5OXH2Hduk2udUKtyoYBlWcN542NW7HtFKtX/4UrrhijAkwlTLvpCtasbnDdL4KTRxzHcccN5YQTijnhhBLKyko555yTyc/PY9myPxz+7eVCQN7YURQ5UQ5Im443dzAo5UDCxkESufrcUEbKoSuNILlFp8BqNBrNB5auTfzjtqvY9EpgKYheei/nfKaHoMy25TSvaHY/lDFsSg5RMmQSZ3x5LLseVvEU9it38cdPL6ekspjkm+vYtz3DOmHnymzpjZ7SdY8cR8ii0fOCKiVMqr2XeLwTIeCpn93FsGFD2L1nPz/4wTLfDeKN9fjj/84ln/g6UsLcuU/z6U9fwOrVfyUajXDmmSOIRCPYXQkMQzBnznUMHToIwzBca0ZwzaOGAOdrY2Hh73Acm+RrW+n6xV+REYOiBV/oR2pqaP59FHAajUajeY/paGDzrVexaW0o5uGUGzl/3o09uhs6fv0ke/a7H46bxMh/zi1Kht78U0ZvvYoNzzUqsdG6jj3e5QorKRzSSIf32bS6x3FkkC1GI1l3Fb+sy3Jw4XWM+eNPGXGEfCeHXbBLHMLbupSSvXs73bd0gWXlYRgGpmF0e3MXAiwrimXlI6UkkbR5/Mf1CCH56U9m4TiSsWNV2qvjSL7/wDOYZrrIsHuJb+i3R0MIhny/ljxhIoH2Wcvo+tEfyZs4GmNoQbcLpV1Pu1M0Go3mw8v+dWz6SobIGHEd5z/+OOXH9XRiM9tXBBkf1rhJGdkrGZgjOfn7L3LJ9/+T8vMrieZbUDiSwePuYPRPfsLJJ4ZcLkOKe6kOeogxGmdUUXqkAjQ4AhYN205Qv/JVzjn7FHbubCOZTHU7RhWpUtuldPjVr17mC1/4JG+99Y5ftdNxDDcd1MS2HS655Bx++9vXcJwUixat5JSTyxk1qkxZMWZfxx/+8Aa2nWLVqtd55tk/cPnlVdgph40bt7Gsbi1vbn6badM+jWmaQYEwA4b80xk4pYUYF5ykrAZenayIQT5RnGymkGziwHbIO/UEEpvfoeuv27GsAoY+dWPasZ4HpVPY5C95lejHTsHeEYN4zlpvAdqgodFoNB8sOhrYdNu1bH4tw5LxxOOcfGLu0wB4ZyW7NniuijJKxo3t1QoBxQy9+l4uvPre9M32Ol5/J+T2OLGilxReN0bDXsfrn76UbdvdzfkTGP3bX1LRo0DqP4ctNAYPKaSt7QBSSr797Z8RjUYAk1v+dULoqGDVvfnmCTz+eD227fDQ/1fHDx/6BaWlQ8nLixKPdxGLxUilHEzTxDQNpt10BS+88Ge3amiUZctm+2MNGVJIVdUoXv/LFlLJFA/+4FkeeODnCGFgGAYXXXQm9fX30d7eyaRJF5NMpnh7+x6WrHqNDZUG27e/Tfvqf5D8/e8ZNKiAU0eVcY+ra7sAACAASURBVMFTn+eq8edhxlNIQDoy3QOSufAbAvPmsYhvLAchKHzy+nRBIsEcVIA40IF0HGL/ugQjP0KBE4F/HauqkGrzhkaj0Xw4sJtpmnkVm18JRIZ5xi2Mefxhyst6OM8l+coa9nnmjPyxnHBB9yDQbnTFiLe2kiw8i8FhMdD6Ou2hyp7WGWf1LUPErKK8eiTbnml2x1/Dtl9uomLaYTaZ6yOHWYJcxVnc/m+PceBAJxd9/Cy+8C+XcuYZI/jznzdzzec/iRBw2qnl7lu9YNpNnyYvGuXp//kdQ4cO4mu3TOSSS86ldWcbn/vcvUjH5p8vv5vFi/+d004dzmmnDae29pMYAs455xQcR/rukUjE5P89dhuvvvp3frzo/2hubmX48GFc8/lLuOCC0/m/3/yZr3zlYZq37mLfvgOuVSOF44AhDIQwkUikdNizZz9bt+5kze828INvL8EUBqXDhlJdfQb//m+TKPzSWIyOFMLJUBpCUDD9Ejrv/AXmiBLyPzs6Yz8M+u2t2Ncuwm47SMHl55B388VERp9IYuXfiBxMqXTZc8rTzonc8HGGGtqcodFoNB8c4ux5+Fo2rglZMkbdwpjFD/fiLgnY++dQoawzxlLSUwps1xpev+patm1V7o7CL7/IP/9H0NX1wPPL2esPVkZJ9djuY2TF4oTrbmLwsnvcrJU4+xZ+lTfO/SXnXJQZLxLnwPPL6aq+rud03T4gmpubJcApp5yStuNvf/sb5557bo8ne51bHcfB8HqESOn3N8msreGJBS8uI7xvxoyFvPqnvyOE4LTTTmT27C9w5hkn+b1LjFD3U+/cvXuVSPjd7/9Gff2rtLcnSaW6MM0Ijm1z/AkfoaysmDPPHM7555/KOWefTHl5KUIIv2hY+v2obV1dKf7yl3/w6xWv8NbGt5n5jWu5oOpUMI2g7oftsO/q/4e9dgulb89DDMrhbPM6t3o9VdxmJ9KRyp7hbfPmYAdJSqqWh0aj0WgOm91P8sdPfdVdmHO3iY+v+S4bn3cLb5mVnPgfd3CCu8DaG+7hxX8JN2crpnTaA5x8RjarRDFDx01gaNri3Mzma0azyXWdRGt/yRX3T+jBddJK01dPZ8OLrntkyDjOeOynnH5BMR0v3MP6bzzEPq8C2Sl3UP3LB3qO90i/U3bO+ziv/Kwx2GSOZOjVN3Hypedj5cdJbt/Ent8+QcvrlZz9u19SkaNyaDadsHXr1m7H9StGw1t0PZHhbTPN7C4BTyxk60PyyCNfw7ZtHn7kOX7+87V86UsPIoRJXl6EoUMsBhVZ2LayQNi2QTKZxLaTGEYeUqY484wT+epXxjJu/HkMHTKIaNT0y6Qbhuh2zWxVQ71tlhXloovO4uMfPxPHkTiOw7N1L/HpT3+MoUMLwZHEf/Yy8Rc3M3jOBERhD9+w538JiwYhEDmekRYXGo1G896T3LyS7c+5PU3McQy93RMaMd55/LGMDrAx9i7+KnuzDWRWccbyDKFhN9K+3YupsCg8pbKX+IwyRlxzHW+++KRKQN2/hs1TT2Jzt2tVMuI/7j4EkaGuf8KsZzhn65W88WKzO79m9tXdw4bMDBSz8lAGzslRLdh1KCirRYSv31HLHf8+iVTKYeu2nezcGePgwTiplE3ENCkszGfIkEJOOKGYj3xkKKaZTUSoz7kET1/xRJNpGlxzzSeQUlkcki83ceC2ZygYeRyDZl2hM0k0Go1moNK2nO0vHlpVzW7sbyW+P/holfUe1BG9/AFGX/c6659uyF4jI7+SEff+kjHj+tZMLf3cszj1sRfI/94X2bB0HcmjXIj6AyM0PDx3S16ewemnnchppw5Pq4khspX2fq/mJSWpN3fR/plHEbZk8B/u0O3cNRqNZsBhYXgmhw0N7Ovq53D7Y0HLdyyMwj4EglJM+bde5JKP3c/mpb9gT2MTSdsiWlZJafV1nDz9RspP7Ms4OTBHMmL2i5xwzXKa6paza+06DrS2kjwI5pAKCiv/ieM/cyPl/YzPgH7GaBxTSGi/55d0/NcaDCEo3fQtjLIh2X0wGo1Go/kQ4sZS/GMSY9b9lBGH5JI49nhPYjSOKQQU3XcVRfdd9X7PRKPRaDRHgy3Ladkch8oq1VdEc0TQQkOj0Wg0xzwHXriHv8x7iH2pkYy4+cYeW65rDg2d4qDRaDSaYx6z7XX2dVVx8gMvcN7hBFhqcqItGhqNRqM55imc/AxXXG0R1S6TI87AsWikYrS0vjctbzUajUYzwDC1yDhaHJ7QSNUz/Tjhp6KGfwquWEjLEZ5k78Sp/9oYrn9aXTn25ERKj+Q8UnVcX5Jxr9ECSk+/mOsfaUDLG41Go9FostMP10k5U5e+xA8+kZHHa5VQnv2Eo0osFvMX/OJxs3nqtHJyVE09TCqYUb+eB737TbXRuPybTL19MnPO3ciD4/qRz6zRaDQazQClX66T4mEVlI8oT/8ZZgEx6r86itIrFtKYAmhi8VXDGfXVemIArauZd+0YhpcUUHrSGCbftzqwPsQbWfr1iZxdXkpBySguvmkhDe3AhnmMKZ9OvdeFPtXAvDHDmb4SGh+ayKyVbay//2LGzF5LbM08rr+vnrbUWmadPZzpKwObQ3zNrYw6exar473MIxtWMVaRpX6Ky6m6YQa1p7fQ8Lp7VnM9c2rd8crHMHF2HU3efP37KqCgZBRjpsxjtdufJ/bkRIZfNYs5117MmI+OYtRHJzN/ZT3zplzMmLNHMXzM9SzeoO0mGo1Go/nwcZRiNIqpeWABtU3fZNaPG2l8ZDrfbK5l0QM1FNPI/CmfZ0nRLFa93cmOP8yl/FfXc/0jqplNw31TmfXnKhb8aQedby+jtnUeU+9d2+PVKu9YwYMTShhz90usn1cd7IhUM/WaMuqfXe1aO+KsfbYe67O1jLd6nkfvxGlauZj6Nyuo+li5Ej7XXk/9iDm81NLJjnVzqVwzncn3NQBxVt81mVmvV7OgoY3Ot1cwy1rC57+4EO9qbS+shjtWsP6vG1n0qQZmXTsP7ljF+o0beeqS9XzzodXaRaPRaDSaDx39EBotLK4toGBw+KeUyU+6NeGLa3jw0Sk03TuRife3cdPCBxlfDGyoY8mfxjLz/ilUFoE1soa5t42l4ek6GlNrWfarVmrunMP4ERYUVTHziVUs+drZhz3Lqs9PpuyFpdS3A+2rWbqymNrrqnueR9aRmlh8VSmlx7k/g0u44OuNjPnhEuZ+woKGZSx5u4Y599dSYbnj/WctrUuXsDa+mqXL40z5zmzGl1lQVMmUB2Yy9k9LWbrJm+hkpo4tBizGVFVScmEtUy603M8VxFtbtNDQaDQazYeOfsVoTH50FfeNTY9NsMqC/OPicdOoPW4h8625TPWO29NCa3w1t44u5U7vwFQnncMqaEnFaG0ppqwsNGZZJVUAG7rPoLMv0xw9hakVF1P3QoyaSB315ZNZVQWs6WkeUNntyZQz9fGXmD0W4k31zJs5n5YJs3nwK1VYAHtaiR03korQ1K0RZZTFmmltj9HWXk5lOHiluIKKohbadquPBUXFpGVuRyx01IdGo9FoPuz0L0ajrJKK0yrSfsqLgv2ND83iCWsqk1nIrY+4doLicsqKJ7OkaS97d7s/TVvYuGYO4yPFFB8XozWcptqwlDmPrVWxHak4cS/mgTZibX15x6+g9ppKVi9fxpJn66m8ZgqVvc4j2zgWVlkFFSMrqBw3g6fqZlP8xOeZ/F0362RYGcW7m2kKTSm+vZXW4jLKioopsVpoeTs0XKyJpvZySo7rwy1oNBqNJgctLJ0yClEwkcVu3Btv1TGr5myGDy6g4Lizmfj1ULzcnrXM/+LFjCopoLTiYqb/OHfmYNPKeVx/6ShK3XG8zMYjyqZ5XDx4OJf9oB8ZjM0LuayklIu/5a6VHzD6JTRie5po2d6S/tPqZn9smM/0B9q4aeEiFv3XTbTdfyvzNwCja5l8ej1z766jqR2INTD/ixdw8d2riUXGUDupjPqH5qtAyVgDC++bQ10TWCdVUMFa6p5tIh5vYe0jC6lvDeZiWdD2diMtse5fVcU1U6haM495L1RSe02F2tjTPPpy8yOnseCHNTTeP4256+JQNZnak+qZe089TXGIN9cz57t1FE+qZYw1nimTYOl981jdGof2RpbeNZ91o2upPas/34BGo9Ec2zQ+cj23PhuOrWti4demMv9P5Ux5eAkLbihh3SNTmf7jJqCFpV/9LLOWd1LzwGJmj21h8e3u2pRBy7PXc9lVc6iPV/O1ex9k7lerqSo7srmMAE0NbVQ9sIIVd1YdthW7paGFynv+lxXfqeYDWdO0ublZNjc3y0w2bNjQbZtPcoWcNgwJWX6GTZMrOtfLuZ8okVV3viQ7pZRSdsqX7qiUJZ+YK9cnpZRvr5CzJ1XJ8mJLWsMqZPUND8qX2tyxOzfKJbeNl5XDLFlSVinH37ZEbuxUY2x8YpocX1kireIKOf6ORXL2hHI5rV6dtuOZaeqc65bJlidqZMnlC+QOf8JtcsmkElly5aLQtl7mkXa/y+TU4go5Y3Xmjh1y2XUV0qqaLV86IKV8c5mceWWlLC+yZMmIKll79zK5JekeemCjXHSLui9rWIWsvm6uXNXizi5jvlk/T1gks01No9FojlU6186WVcUVsurCcolVIxe1SCnlDrnq8Qflg89sVAe9+aCstpCVd6+XsmWRrClCltywTK1NbVvk+vUb5Y7OjIGT6+Xs0UhGTJPLevkfb9uLc2VtVbm0ikpk5YSZctEDtbJkWK3871/NlJURS1bfvzFtTOvCuXJjD+ct2R0efYdcdGWJpGyqP4+2pbWyJFIup9a1yZfuqJBY4+WCt9W+Vbeo57CkzT2vuEYueltKKTvlqtsqJEXV8sGnZ8rKSPq6XXHHS2o9nFApS4osWT66Vs59YrYcX1Qup9VnPpyAbDrB0xThn8MTGhqNRqPRvJ/sXiGnVVqy6o5VctU9VSGhESK5Qy67sVJaVqWcvbZTyldny8oIsnxcrRxfWS7LT6uW0x5+KeMlbqNccGWFtEBSXCErR1fKytGVsurKBXJj5hzaVshpI5BW1Qy5bP16ueLOammBtK5cJHfIjfLBsZZk9Gy5Pill5+qZsiJiyZrHd/RyXjqdv5wmyyMlsvanbVLKHXLRBEty2ky5qlP2IDSklOvnyioLWXnbKtn217myughZecdLsrNto1xVv0LOvbJEYlXLmUtXyFWNm1xhMl7Ort8o1y+dJistJMOmymUHcn8FfRUaA6cEuUaj0WiOEZpY/NXpLLFmMPf2SjgQB+LEdseCOL54I4tvuoypP4tRff8S5oy1IKVc6y2tBUz50QoWXWtR9/XrmbUy0+We+dmiYkKNiu8L01BPfatF9Y0zqa2qouaumxhvQUXVGMqpZMpXxlPSuJTFf4ix+umlNA2bzLRryns5L+PKE25iyult1P9sCU2blvLEGqj64jTG5/SzuDuqZvLgjRU0PjmLyTfPZ23RVObeXY1VXMn4CTWMHWkBxYyZUMP4EW+wZk0b1uXTmDOhkqrrZjK1ysIaPZaqolzX6TtaaGg0Go3mw0X7OupfaCHeMJ+JFcO57KFGiK9m1sfHM78RaG9gfu1lTF8Ok59YxYo73PiHkyooj0DJx6Yw9RNV1NxQQ2Wkhca/hWM8KplR97/MqASKx/PgixvZ+Nf1LLulovs8smYHWliW2lp+zQxqy5qoe2wWi5e3UHHNTdQU935e+jWqmXZjNfxhKfMeWML6SDXTblCSp6CkGIgTjwPEibXHIVKAGsZi/D1zqS1qYPW6TsbfdR+1w3I8z4hF5oTUEEcm+1ELDY1Go9F8uLDGMaduFat+s4pVv1nBghsqwKpi5hMLmFIRo/7rk5m1soXyT9RQFVvN4kcWsnhNC4yoofYTJbStnM+cHy9l4cNLWJ8qp+r8DBERqWbmN6dSsX0x02umM++RhcyfPZ3pjzSkH3dhLbWnx1n75HzqNjSy+rGlrIvHad7QqGwiRTXcdF0lLc8upi5WxbQbx6uFu7fzMqi84SbGW2tZ/GQDBVdOY+pId/vHxlCeWs+SHy6m7um5LH6hDevCsVR56iDe5lt42tp7SHOwqqmdUE78hcXMfaGRxl8tZklDnHhjg1vdu5/oGA2NRqPRfJhZH47ReHuBHF/UPVGh4o5V6uC3V8jZXtD+yGo59YeZMRoenXJL3WxZO7ZClliWtMoq5dSfbul+1KsL5NQLy6VllciKcTPkgntqZEnZNLnCi21wg1GtyxfILYdyXsZcVtxYLolUyBm/CQdntslV90+VVSNLVFDp5TPkkkZv/w657LpyybDxsvbycknxeLngzeDMVbeF4jmklHL3Kjl3UqUssSxZUlkjZz86U1YXVcqZL+Z+7n2N0RDNzc0S4JRTTkkTIH/7298499xz+6ZWnBiNuzqpOL6All1tlJdV6GJTGo1Go9G8T8RfuJWzaxZTfu96Vk2q57ILZ9E0YQmvPTPliDU+zaYTtm7d2u24I+I6WbtyIvNjJTS9OJlZO0q0yNBoNBqN5v0i3sDcbyymaeQ07rutEuusGdx3YyUty+cwb+V7X9LriAiNilMqaXptMS1lY4lveJDVHUdiVI1Go9FoNIeMVcXc9Z3INxcwvgjAYvzDG5HJLSyY8N6X9DoiQqP83EXMHlLH6sI5PHjKOpZuO5RCqjEaNs5j4vcLGPWzOcx/cb77M49bf1xKwUPXs/Ctpve0rGrjixcz6umlPbeM/xCx+rmzGbOijxVPNRqNRqM5gvSjqRpAnKYt9TTsb6NpUC1nx5ZQTw1jU/XUbxtLzcl98QQVU3X2FGpemkusYhozLwmif9ceWMzS/bVMO+29jPloYe2+cTw16cj5sd5XnAYamMGST4//YJam1Wg0Gs2Apn9Cw2lk8YrJzNubZV/ReKaeNpZxF8xi2ojeljgrt23F6Jbee5QpYPJlcyn+gAaaxOPx7LnWOalg2qerKO6npNRoNBqN5nDov+sk1wiRCmrOLKBuxYOsdfp9FQDie1az9OV53Prk2Yz60XQWe11e4w0sXjmHhRsbaEm5x704i3kbVRGWluaFTP/RGGa9BS1b5nP9I2OYtcU9t30pk38wkcUxd5zVC1ny+nxmPT2ZW18P5TTvqWPesomM+UEpo5YspilzcmFa53Hxf83y77t+2XAue7lFCbOnxzDquwUUfHc4pfMEBd8dzvCfLKQJiO9ayrzV81n4xzlc/7PpLNweh461LFx+GWMWz6fRAdrruPXn81gbB4jRsPZWZq1dS+Nbc5j444u5+CezqHd9JLEt87l15WKW/XUOk388kXlbYod+LxqNRqPR9IP+CQ2jjIrCHG/X8SbWbmsklldCyZGIBHEamLuinpEfn82CG9eyaPh67nxuIY3EqF8xlbqSGcw4u5KGlROZHx/PlEum0vmH65m3A8pHjqcC1VW2fNRMZo8uoG7DWiUiLIuSIVWMGRKjfuWtNIyYyYzqmTx45WRaXpjK3O1AfDWL3ypjxuQVrJ+5g5eunEqWGnG909pIyeVrWTF2Bg/esoVfn1/F1Ek72PGlGVSk1jJ3eT0V/zSTGZfMZdFFFvOfncXqeAW1E2dw9q61NCTAGjaFKYVL+Oafm4hvmcvUDeVMq66mpbGV2qkv8dSZjdz63GJaiFH/0jxiJ81g2sfnsvjyqVRY1pG7F41Go9Fo+kA/JUA51RVjsrg2Sqi9eAbVx09h0Rdmdq8PfzjsqWdNRwkFABQz/pPTqNq7loaOtdS9ZVF1cjnQQmPrOhr3xsGoonpYE8veaAAsrNCdVp4/hYotS1mdAGItlF04g6rUapZuhopS926Kaphc1kz95kZaNjVS8FG3/a5hUT7kMP0qw2upHQZNbTFKCqG1ncBFs62OpfEyRrqfrVE1jE/UUxcrp9wAiINrISkfWkLDOw28/o/VxIZVUQnEU1BgQMVHa6ncUc+aRDE1n5hN52u3Mn/9UlZHapgy3Dpy96LRaDQaTR/ot+e+8uP3MeONzzN/T5u/rXzkfcytrqXySBY4T3TS6RQEnwvLKbfKKTPixB21yEI5laVVxI9Xi6cVsYgnOiEzDLK4liml86l7qwVrL0z+p3K1iDsttLQDwwCKKbYsCiIWrftjFOcdoftIraV+l0Wt0UZjHCxvXCcO8RgxByX/DHX9sBTsdH/HU1BsFZMPxJ2M9j95JZRECrBoov5PdZRftIqZZwdi4ojei0aj0Wg0vXCYQiNGw8Z6GuMAnVReOJu5sTY67ThxSij/iMXa9YtZC2BUMH7M+F7M8+7bekYsR9yBTnchtYB4os1fbNnVCOdModoqYV1pjKa9cSizKD+uihZLzbF1f5zK0WcDbcqi4cRo2Q/lQ8qpOaeSb750J5WfXMDMCMBYakbGmbthNXNHjseiiaaOSqacXUHZlkbm/rGe8rMqKM4rpry4PM1Ckv2WWmlNAEYjjfuB8jgtsRZif/0mSyNTmG3EWBeP0RproTHRSvnJtdTkTWfpphg15xZDvJnWwlpmjgCMMsoK48QTQGGMhp1QO7aaSmc8ZSvX0ujUBNfd00jLiBrG0sCdbzVRfJ7a3PLqRC74xzTWnnoY96LRaI4NmpbzrYdW8W62uDqjgkn3zuSyI5G+ltzMM3MX0VE7jy+fFz0CAwLsZ/PKZ1j+0mZaD8KQUy9l6hc/yxlD0o9697fzmfvSSUy/61rOKcg+0oeWrcuZ+/Bmzr/963z2lCP1XPvPYQqNYsoKO6l/cw1r9zTR0tFGLBFXb+WGBZFiygvLKSutpLqyupc00RiNG5dSvzdO4z+WUn/aDGqGW7Rsq6NuewvxeB2L36pimgWk1vH/s3f/cVFc98LHPyCLu4i4CCa7Xmhcb+TJYqwuFRWspmJNImhuhWpfgqZRTBqjtTdiTG9EvYlgWyP61ELtjaJNDPhUI7Qxoo0VG71CGo2QKpIa45JCw0ZBVoKwuivn+WMXRQXBRPwRv+/Xa166OzPnnBl2znznnDMzuf+bTUUA1DksLIuJRgukTExh7nsLSD9jwhQSj/FYBhnnyinRr2Tlt/WAu2sluziNgrFpJAeA8aF4YsodxIe1HDVGEie+ifVP6SRtLya6ZxMMf5OUYEC/iNj8JOL2l1DdDMawHD6cev3bX/V+h1mwLo5CSwqJg2PI+XAxucHPwCfVWMwxGL1NjOlvJOtPYyFuD+v7WVg5OYVZu5OYVR2DSTmI/Y9ULD4A0cx5xMyCPelgBLt5PWn9tGhJJTMsmbQ9ecRccIAtj/SSOuY8tgijLyybeJjFR9LIsgdS8g8tc0bG0O9b5hveFiHEPaRbGFMWPcWQ7pe/cp7aw9q1J29eHpowoiwB/Ob9UhoHR+J3E5JsPLSF9R8G8OMF6QzsUc/BnDX8/o8mXn5yIJdPuTbKPuvFhORJ37wgAyfWozZCJs+6o4IMgJvzrpNboSqViO06cn6y6OZ2ydwwBwXvZqD9/iJi2itHVToLbDNZOfTWnL4d9iIy/rSYppHrWfCg6Qael9GJbRFC3Dus+SxdY2PCL2cT2SrQ4Itd/OqXZQxd6m7RqD+Wz7rcfVjrNQQ9OJQJUycR2UcD9jLy39xC8af1OHVBhI2cQlJcGAE4Kfv9IvL1PyX1B6HuND/LZ+maSsYunsfolkqrycqeN3PY85kTP78AQkaNJfj91zk54mXmjTjJ+p//mZCFL/L4/QBOSrMX8ue+L/LieAPH/7CUHO+neHmyp/38WA4v7Qhi3guPYwBqD23h9ztKqe/mh1/vITw2qIbcv/gx+5kAtvzf44xePI8oT+tH5fY0fnPqMf47ORLXx7vYkrePstNNaAJCGPxoElNGGmjav4al74fxoid9qGXP6l9RZplM0F+2cuhcI04naLr7ETBiFi9PNlC2PYf8v9lAqyFgwGNE8Q5bGyaRPqMX7yxbR+Pk5SSFX/1HacT6l1y2HDcx5Xv1bNm4DxsBhMUk8ePxYe4grbaU/M3vUPxpLc7uAZiGTSJp4hCCNO79VLk/h9w/f4TtnIaAbw3m8R9NIaqvxp124Ra2FH6E7Rzo+g5m7A+nMNbkB6d38atfWolZftVvoZVb+q6TW8LlwOF9nedt3Er+huu2ANhPHabgX+W3rDhafTSWABPhITcSZHh0sC1CCHGF5kr25BXjNz6V1cvnM2mwgV7dNUA9xbmvUxowiRdXrGbFzx4joGQ96wpr20ym9pOT1J8/TvEHLfMbKdu6jj83RTFv6cukvpBEaEkuuyoNhD0U0GYarTnPN0E3z4fzNg5+YKVX+EB3EPDFLtZvLsMwOZWXU1OZPeos+VsPgSmMkH+LZKihioMf1V/avkMfNRI+dAh+p/ewLrsYHplNesYKUqf+H2zb17DlSCMBlkjCTn1E6RctG1RK6echREZEkpS2gtX/ORaDbig//uUKXp4cRv2BHF7/m4bHnn+Z1NT5TOxeSO6BekIeCuN67Q/1H7zO2v0+xEweDR+XUhuWSPriKQR88Hu2fNQIzZW88z+5lAVN4MVfrmZFyiQMH+eydocVJ4D1HdbvqGVwcjqrM1J56qFatv/PFsrOQ/0Huaz9Sz1Dk9NZnZHO099pYs//vE7xTX6M9J1w2u4UR70Nu5/+Np4U7eRtCydi41zK70u4bqtKk8vhDoxuXeFuUOe3RQghruCtQeMDzvNO8Dcw5JHR7nEQTWWUfno/o+PcV9Ka+yOZ9H0TVR8UY7smkUqKP6hl8CNDOHuomMpmwGnl4DEXYaNGY9AAGgOjo8PQBITQP6jzxavdv5aXfp7G1tqBPDbC09Zw5CNsQZGMDXd30gQMGk2kQcP9pv5oCCJyaAhVJaXUA3x2iFLHQCLDNdSWHKIqdCxTRobi560h4KEJxH9Hw0cfHMfpP5ihYbV8dNi9dbUfHuKLB6MY3GZM1EjZR8fxGTSayCAAP0zfiyKkWxD9YwOvCwAAIABJREFUTdfrOGqk7NBxgkY87m4xcoKPfy/8AgYyerCGY4eO4/zsEAfrwpgQP4Sg7qDpM4RJceHUHzpIVTNYS0pxPvy4u5XCOwDTYxOJ9P6I4mP1lB0qI2CkpwXD2w9TzCRG649z8Eh953d4J9w1z4vUfvtNPv/27SyBnviEY8R3YknjsB0cG9blBbpC7KT1N7B057dFCCGuZCBqlIl9m9N4fudQZi9/ioEaoO4s9fQioNWJ1k8fgK7+LPVXDS51flrMwfNDSJowBL9f5lBsfYzQvvU0nfchKODy9b3GX0fAfaEYvIGLni8vtkqnjUGrQaNms3xUI5UHclmfsZ6mlNkY6hvBP6DVWJBeBPjrMNzvLmyAJZKQnQcptUcReqgUBiURpoGqs41oAoJoHTsEBAbgrK6nCT+GDAsnf8chbN8fSunhWsIeG9jOeJMmGpugV+ud00NHLx8D9/dpf0+3rKfzbyPVbhqc55toajhLk38QvVo1i2j0vdA11XL2ohPqmvAzBFxuNfEOIijAycn6Os6egyB9660LIigQ6utv7ptR5VpWCCFE5zUdJH97JeFPvszqVz1BBkCzC2fzWerPXV60sb6epoBeBFxxpnFy/EApDI4kTBdG5GAoPXAcZ/cAdN1d1Nc7r1i/vtbW6i6YRprOX07n8v89RWtoOUH6ETryMSL9j1P6iZOAgABoqOfS6bP5LLV1TdSe9ly5BwwmylRF6eFSio7CkGHu7oyAXn4462ppfX1fX1uPpkcAOkATHsnAxjIOfXSIj+rDiQpvr3VCR4A/nK1vlVJ9PWddtdS29QqPSwIw9NFQ9elJrjz112O11hL0gIkA/17oGmo5e3m34TxzliZdAH7dwNnspLG+iUuzm89SW6+hV0AgvXpArb311tVSWwcBATdjeO5lEmgIIYTovIsunE4NGp0OjbMe63v57Gppar9opXhnKfVOcJ4uJf9dKyFDh3oGS3o0lVJ8zI/IYe5Bm6ZhkfgdK6b0fBiRD/twvLjYHVg0WSncb8VZV8nJlsc0NddS+n4ZjYCzah8Hrc7WKdN4bA97qtzfOavK+EddEKEhGoIGDyGktpR9n7rn1R76M6V2qPqs0nMC9mPgsDBsf8mnrHskQz33RgRZhhLy+R62HLDR2Oyk/uN3yDvkJHyoZ1yFJozIQY0U5RVxdlA0Ye0MmgQ//s/gMFxHiiitB6in7N1iqi7asH52vdYDDQNjYggq20Ju4XFqmoHzNkr/uI53agcz4REDPDCEIb3KeCevlNrznv2+8yN0gyMxeQM4qT+8i32fNUJzI9a/5FPsDCfqoQAGDg2j/kA+e6yeeYX57KsNI3JQx2NibsRd03UihBDiDuA/lAlPlPF6ziLmntcQ9K3BjJ3suVdUE4rBuYdfvvQ6TQRgikrk6RgDXL6epv5QMceDhjIhxPNFyFCG6ldRfLiJeQlP89ibW1izbB+abjpCHknk8eZcjn/SyNjvAN4BBNS9Q9rPXwddCP37BtB6qGnQgFBq837F0tpGnBd7EfaDH/NYCMBYnppWy+/fTCOtmwb0Q5j0Qx+2/OU4Vc0DMXmDX3gUYc2lfGEZSmjLJXifsTw9o4mcP65i0VtONPoQBv9gNlMGt1zxawgbNgTNgVIGDjNdd1BnwIgkfnw6h/yMpbyj0aAb8BiJo94h/2MrzqHXaUEIeZyfPqshd+t6cqsacXq/wzsDo0icN4kh/gAmJvwkEefmfH7189dxdg8ibNiPmTfRhAYnoCHIFMDxTf/NO7VOdPcPZsLTSe7be4f9mNn1uWxZt4h3mjQEhIQz9tkpROmB0536NXTK3XN7qxBCiDtX1Tuk/bqGCcufYkhXPMbBWXrV7a1XKntjIVv8Z/Ny/Df37U3WPyxlXXMSy6eGdXINJwfXLaQwxH0L8M32zbu9VQghhBB3HQk0hBBCCNFlpOtECCGEEDess10nMhhUCCFaqampoe6fNi74KJS31+0ujhC3jFezwtflReC3DAQHB9+0dCXQEEII4MKFC3x29Dj8rRLf7MP4HTkFFy52vKIQ3xS+3XANuo+65AjqhofywMNh+Pr6fu1kJdAQQgjgs6PH8V5TjPb1j253UYS4PS5cxOfDanw+3IHjx4P5bB4MiPj6QyhkMKgQ4p5XU1MDf6uUIEMID+3rH8HfKt3HxtckgYYQ4p5X908bvtmHb3cxhLij+GYfpu6f174S70ZJoCGEuOdd8FH4HDl1u4shxB3F58gpLvior52OBBpCiHue8vaSgZ9CXO3CxZty55UEGkIIIYToMhJoCCGEEKLLSKAhhBBC3BIavLS3uwy3ngQaQghxJ/MxEPBBJv+mMum7byzdbmRdywTua8qk7+FJdNd3VQHvYYYoetdl8m+Vs/B7sINltQb8tqRiPPJj/PrdisLdOSTQEEKIO9mgoWgt7v96RQ3F76HOrqih+9ORaGpKsU/J57y9qwp47/KZHo3Wx8qXia/TeOL6y3pNfIxek4PwejAS/e57K9iQQEMIIe5gvlOHoPEB1eAEn1B000M7va5rYw6nRnV8EhRfjdq1nZrItdTvd3a87NZ86lZXouCeCzbkEeRCCHGn0prQTTKAy0bjK5VoV0SimTQU36WVXHC1LGPAb00SAZND6OYPzVU2zm/I5+wvavH79TwComo5NzqNhu/O4/7lpivTd9loGJ3G2coh9NowCb9RQXjTyMVyK02/2MLZrbWtFtbgV7CawPEdF/vC/Jc4vboe+g0kYM0E/MaE0s2nkYvFH/HlonzOFTd6lgyg+wsTCXhmMJp+GrDZcGx4h7PLyrjYsn16Ez1WxdNzYgjdgjVX5dRIY/wi6vJ1dF88hV7PhOJckoNrchL+YwLAVoVjVR5nf2Ol2bNGt4kT6LU4ku6DgvBy1OLcvo/6hXs43/JcKq0BvxVT6DnVhI8eLpYfx/FqPmc32Wh5okS3yVMIXD4U334amktK+fLFMnxzn0L3ST5fjN5D2zdK1+OYv5YzzKb386GeYAMY9zqNFR3v07uZtGgIIcQdyisqEt2DQHkZjesOcb4KMA/Bb9TlE6731An0etpEN+q5UGxD+ftBVe01JztVVcn5/VacVe6r7+YTVi7sr8RVp0H7yhT8xwXhZavkQkk99NFw8UT9NeVpPnqcC/sruWgHcHKxxMqF/VacFe40VUUlF/Yfx1nlAm0oAVtm0XNiKN4NNi4cacJrTBT6t2fhPwhAg2bx0wStiMI3xMXFEhvN+lB0S2YRvCrMfXLyMeCfNxv9DBPdgkE5WhXG0UizrR7lgG6zk+j9yhA0+lqc+tH0HB+Ed0M9yt+E35qn0c8IcO/PcVMI3vI4usgAVHklFx0B+E6fRNDbE9Bo3WXSrppN4E/D8NHW4zxoA9NAemyYR+B0dxpETiDojdF07+fCufkQF7QD0b+dhM4Art1l7QQZLepxzP8NZ+6xlg0JNIQQ4o6kofvUgXQDXLtKuWA/TtPOeiAI7dQwWh6j5OXvhxdwcfcu6uJXYeuzlDMba69J7eKmLdSMXsPZ7e4AwvXbdZyOeZ1zH4O3vw/QyIXXcjkTk4YtdA0NJVd3BzhxLFzD6Zj1nCsHqMfxszWcHp1BXa47P9cbuZwevQb71ka8oqLwi9RA+T5qzWmcHpZGzSuVqOAw/F8Ygpf/QPznmfBy2Tj3RBpfDPsVX4x+hwsNGnyefhy/fuA1Ziz+Y/yg5jhnoxfxec+XqP2N+yStjhRyOjQN++4g/GYMxJtGHPNycGh7uffH5hxOPVnMRQLQPR2Nj08Afi9E4aN1cuGVVXwR8Su+MK+l4YgTr8jR9JzkB/4D0U0OAkclX8akcSr6V5yK3+dO47/G4qvV0H1GJBotXFz7e2qezOHMo/k4XBq8qOXC+9fu92s14vjtPs57XiHi9eBA/CYZbuiXcbeRQEMIIe5E/mHoxgeBy4Yj3wo4Ob/VfcXcbeJQtP7uxS5u2sW5I066TU7i/tPpBE6+unuhI06aXi3kgt2P7stfxPDlPHrchDtUvB4y4A1c/GspFzwtIM533F0i3Yaa0Awx4asHPimjca+7K0WVFNFUAmhD0Fg0dBsRQjfg4vY97u4WVz2OV4q54ACvQSZ8tYCPAR8T4KrCsbMWfNwjApTDSXPxSZwOwByCr38ovoM07uU2uYMV7Mdp3F4L+OEbdT9ephA0eqC8jCZPoNW8v8zdrTKgP74GDT4PBgGNXCi2utOosXKhHHDV4jrS8VgN+g0lcOcUtMGefbL6depWf/33idzJJNAQQog7kNe4oXQPAT4po+mg+zu1/yCOCsAwEN1EPwC6TRqNzuwe33A+/yMuVHTiZHcFP7RPR6HRQ3P5cRxbj+NydLxWR7z1Gneri6t1eTxBkEbDDd2n62iVhstJ22/f0OClvTLI8tL74e1zvXVacYGXXuNZ3tXm8l5aUK6r9m/LZ5eT5o72W7+hBO5Owu9BDe4gYz218zvqbrn7SaAhhBB3HD90rbtNWgZGOqw07XRfgXefOhhv/NBOHUg3HydNC39FTXwOjV+G4hN8A1lpw9BOCsLLZeXLR9dQm7gH16BQun3dWwU8LQvdvjcEjb97m7pPH4iPDzQfOYnro0qcDcCAgfiNcQdNXpZodBagoYoLB51cLK1yt+CMi6S7Z5u6TR6CrxZUiZULDsBRifOIE3xC0E010PrNHN0me+7YKbFywV7JhXL3ctrpoe7l9GH4TfS0UBz8AuXjCVTMA9F6novRbaIn4LPZcFY0usdt4IfvKJM7jWATmgGATxA+A66zP+7RIAPkrhMhhLjzBIejHedpsZj8FPc/fvkq2ivQPSjRe8wQdCGHcJ2oh3FBaJfPJ3gG+ESF4lWyi9onijuXl6uWi1YnRJroWTAPrSMI38gALv5mPTXzbsKJcNBYgo+E4azrhcYSAA2VnHv1I5rt0LCuEu0LofR4O5XuJWfxGhRKN38nrtW7aKwCZdtHw/7B9BoVRe8jJpyVGnwsQXi7aml8dR8uF0AtjasP4T8qCt9XZtP7E/dpzfv78QSbTXg5bJx7tZiLOGlafYieo6LwXTKf+ydW0dwnBE2IBlX8Z77Mb4QoT5n9TfQqfhlduZNuFgPdaOT8qj04HMDGYhzPhaJ9+imCtaW4HhqKzt+J8gnCd2gAHLx2EC2AlykUX8O9F2SAtGgIIcQdx3ti5KUneXqFBOFjNlyauhk8V93+YegmB3D+pd9j32SlWR9K96ggKC/DsfU4Fzvb/eGq5MvkLZzbWwsDwuhu1nBx7yEa99ZeuiX067hYXMaFpiA0g3Q0HynjyylrqS92Ak4uLFxL7UsHuVDlQ7fIULztlTQtWU/N/OPurgtXJQ3xazm7yUqzNghfSwCqvIyGxDXU5TdeyqN5+xZqZhZzoUaHj9kdoHlbTHjXWDn35Frsu52Xljs9ZRdNB+vxMpvw8a/nwqZ8ap7Y5R7L0aLiOE1HwMdiwLumksb5aznTMo6iYh/2J3fh+MQHzfQoumuPczZ+C001GjTjB7Z7UlV786l5chfnlqy9p4IMAK+KigoF8MADD1wx4+jRozz88MO3pVBCCHErHT16lMBBv7vdxfhG8Vn8Ive/Eorr1Qy+WGi9NZlqA+i+Yh7BPzVwceN6Tj9Tevl5HJ3gNWYK9xeOptv+fGztPg/j3lJ35Nl2Y4G24oTPPvvsmuWkRUMIIcQ3g6Oei6c9z/SoOXtDQYboOhJoCCGEEKLLyGBQIYQQN51r2a/417K7K1+1dws2ry03t0BCWjSEEEII0XUk0BBC3PO8mhX43sgTpIS4B/h2cx8bX5MEGkKIe56vywvXoPtudzGEuKO4Bt2Hr8ur4wU7IIGGEOKeF/gtAxeSI253MYS4o1xIjiDwW1//hW8SaAgh7nnBwcEwPBTHjwff7qIIcUdw/HgwDA91Hxtfk9x1IoQQwAMPh/HZPGgcHoJv9mF8jpyCC/LIJnEP8e2Ga9B97ta94aE88HDYTUlWAg0hhAB8fX0ZEPEwNd8yUDc8lAYfhfL++v3TQtwtvJoVvi4vAr9luCktGS0k0BBCiFaCg4NvaiUrxL1OxmgIIYQQostIoCGEEEKILtNuoOHt7U1z8814SbAQQgghvkmam5vx9u5cW0W7S/Xo0QO73X7TCiWEEEKIbwa73U6PHj06tWy7gcZ9992HzWbjzJkz0rIhhBBCCJqbmzlz5gw2m4377uvc03TbvetEp9NhMpk4deoUNptNgg0hhBDiHuft7U2PHj0wmUzodLpOrXPd21t1Oh0PPPDATSmcEEIIIe49cteJEEIIIbqMBBpCCCGE6DISaAghhBCiy1x3jEZTUxOnTp3i3LlzMhhUCHFXaRm0dt9993V60JrUeUJc31c5rtoNNJqamrBarRgMBkJDQzv9YA4hhLgTNDc3Y7fbsVqtnRohL3WeEB270eMKrtN1curUKQwGA71795YDTghx1/H29qZ3794YDAZOnTrV4fJS5wnRsRs9ruA6gca5c+fQ6/U3rXBCCHE76PV6zp071+FyUucJ0XmdPa7gOoHGjTzHXAgh7lSdfW+T1HlCdN6NvA9NjiohhBBCdBkJNIQQQgjRZSTQEEIIIUSXkUBDCCGEEF3mug/sEkIIcX2Ji7fx1t6PcV5wdXqdH3zvIfJX/KgLSyXEnUNaNIQQ4it6atnbbP7z0RsKMgD++NePmbTwD11UKiHuLBJoCCHEV5T75yNfed0//vXjm1gSIe5cNzfQsOcSp/NCNyyd8lZfl/9iJDovHXEb7Tc1u5uiIouxPb3o+2Qe7ZXOvjmB3pq+xK0tx3FLC3eLuEpIjdChi5hLQc3tLowQd4+rWzJ+8MhDLJ31yKXJGOzf+cQ89aeXV6tJ15u+345jwWbrzal7XEWkhnvhNWABRW00whTN74+XJpwFxTcjMyHcZIxGvySSxy0maXs222zxJBuuXsBKzuZyLEveYttsM9rbUcYu5tibQwFJZOdlEht8u0sjxN0r76pxF88mDMU8JQv7lzcQJhiiSZpsQQ/QYKUwv4CMZ6ZhjDxAyoM3tbjXCLTEkjQZIvp0bT7i3nLbu05aWjtGrra6v3AUsSDcC6/QWRTYwb43nYSIvuh69qb/owvI3ZnOSF1vEjbZwZbtbkGJz/W0RlST9agOL10cuXagKouxOi/6P5lOemIEfXvq6B0eR+rO6lYl0DNmfBRaeyEbNpVfWbiKAtITp5FRbKVo1TTGJqZTWAWUpBKhuerKI3AaeS6o3p1K3Lf7otPp6G2KIGFpIe7cHFjzU0mI6Evvnjr6ho9l7rqSS60ohfP64qUby4LVcxkb3htdz75EPJlNyTX1k4PcKbor8/bSMfIX5VDj2R9PZGMHCj1XJ6kHPavunUt/jRfhC4uuyDP1qINARx7Jg9rLk473NR38rdxLULRuAQnD+tO7pw6dMZxZm6vBVcCsPl7ooq9sCRPibvTu3z6l59gVLMt+j/t7+/No1IAbWl8bGsuiNZlkrskkc8MOMqebwFGNtdKzgKOc3IUJRJh6u4+1mFlk7W/VHtvR/MsLUv6bOPpqvOj7RDblLqgrKSBnayGHT3PpmO+f2Kr+HDCWBfnWSylcPub7EjElnYyZ/fHSjSWroo3sXNUULvOUS9ebvsMSSN99uS6u3pvBrJhw+vbUoQuNIGFRHlZPXWRdPRKdJpxZv2ipQ/sSkZhB3qYFxEX0pXdgX0bOdG+DuPN0SaDhqCwg/bm5zPVM6Tvbb/YzP51CgsFB0bosihxQvTmdDZ9oiX4uhdiGbJKnpJJ32kLKmkzmBBeQHJ9KkU8UseM6/04C69ZsDkemsv61OZgrC0hPyWjVbFhNwfZiHDgo2pRz+fuGQhY8kUBqfjWmSSmkTDZRnZ9K3BMLKAqIIfmVNFImmtzbMHURaQvjMVNExnPpFFQaSJifQmKUCdOICIyAoziVuMR0CurMJM5PIT7EStZzY0lad/mgxVHIhnwtyRlvkjZeS8mmuaRuvrqC0GKZnErakmSi/QFDDHNeSWXmd42d3h9X6FSenVDV0d/KTuH8aMY+k0FBnZExk5NIGhOBuZ8R0GMYZCHiQcM3ssVI3FtstQ2ca2j6yus7KgvImL+ABfMXMHdmHHM3VWMcl8KcUQB28p6JI+nVAhyDEkmZHYuxPJu5T8SRcaQz8y/lgm37AhIWFuCISuOt3GTM7bRvW7dmc9jiqT9rCsmYl0GhC7DlkpyYSl6lgaSXUkjwLyB9k7XtRIDy1T8kbkkBdvNMUpfMxFydR2riXHJtQEk6P3xiAdnlgcTMSyHZ4qBgeQJjnyu43KXtKidncwUxi9ezaByUbF5AwhIr0f+VyaJxWoo2vkB6/jeyc/vuV1FRoSoqKtTVjhw5cs13HarLUbFaFLQ1aVXshro2Vzv8ikVpfQJV0hs71KJBKAxJattppT5/LVZp0aroFSfdC365TSUFoxi0SB12KqWq16tYLUo7KUe5U/5cZY7TKrSxKqdOKVWZqWK0KO2YlcqdwkmVOUar8I9XOV96Mv9kpYrRogKDAxU+JjXn3Sb3puQmqUBQ5pcOKPc3TerAC2YFgSppi/ubk2tilBbtpc/KeUClPIiiX5JaX3RSfd6Sh1LqwPMmhY9ZpezzLPvlDpUcgsKcog44ldrzU6PCx6iSPfmrd5OV0QdlXnK47X3t3KPmhKCwpLn3hVJKnfbsj4nrVZ1Sao8nz0UfeOYXzlEmH5T5hQNKqRvMs4N93eHf6nCasvigjJPWq2NNbW+SEF2lM/XZV6nziPzvK6bmZnXFVF3zpdKMTLtmuZbpCu3Vnz6ByjI9Ux1oXaeNaqnTlKp7233cmn66p+P5zgNqkRmFv1EZ9Sj8Y1Rm5eUiXKqnitTlY/5SWpeP+fWnlarLjVdatMqy/Jhn7ZNq5SitQhujMq1X7SjnMZVmQRGcpLZ56sW6D7apbe8eVp83KbVntqcuKmi6tPzKKE9alUqdXBWttGhV7Gufu9fdEKu0oCyvuPNu2pLkrn9WnVTi1mnrmGmJKVpPXdKioY1M45hSKM90bHn0da9ULbMXEKuvI2feNDLKtVieSSE+GOw17ljW1M9zta410c8I2hAThhsZXaI34k5Bi1YLuBzgabko2ZxDoctE4opFxGit5K5zDwqtq7LShBbzwxGesmsJH2RGSxPWquq28/GJJnleDIFVOcyKDmfaxpbo3kFFRTX4mIgY5NkT/mbMJi1UWqm4FITrMeg987V6d75NX/3KqIWjVXPitfH+zcmzo7+V9a+FlGNm5n8lY5ZmC/ENdvyftby87q/kv/cP7u/tz7PxQ29o/Svqzy9PsuclM+Wb5jLtlSKotFLtgsCHLZg8y+vNZkw+UF1lw97R/JZMGqqpbgAcJRTsbL8Vwp2AkUAAdO7606POZgPAFNLSmmrC1K+9RKqpPg30MWDwpKGPjCd+nAWj1o61qg58zFhaKgcfM+aHdeBq1WUEBOoDPfO1gBajwd2yrdWCDi7V6+LOctvHaAAQnEjqM2aw1+HQx7JgtgUA04MmdIC1omX8RjUV1YDdfuUdIjXV1AG4bFTXtNF0diko0V35vaOQnDdKYEA8iVMTSRwTSN3ObHKqIDDEgA4H5UcPtyzMsSPlONC1OrCuUpXNgiWFNFmSyczdxrKJLcvV0eQAXNUc+8Tzlb2Ekk8cEGy8dOCBtguG59qx2937xGGrpu6aA/EG82xnX3f0t9L6uMtScaKdIE2Ib4j3j1bx8vr3ePKVPwHwwzEPAdCrX1+Chz6MxvcGDjh/E9HftWD0geoT5dhDTRh9oO5oCS3hgb28HKsLjCEG9B3Nv5RuNGnv7mDOgDoKlqdTcL3e0naKGxhsABxYT3hycpVT3u4du0aMfYBqKxWevKq3pjLruVTyPtZjCgkEVzkl5Y7LaR1tAq0RU2jrsshVyt3oDrnrxEFdy6hsl506z3+14xOJ75dD9qq5pAYnY9y/kgI7OMpLKLGDuWXtg9ksXm0ktiGHDUfo9FY5dueSWwGWJclEa42ET4/lhZ3byN5UzpzZc0h8MI+sVdMYezoeCyXkbipHa1nEcxPb+bHX2dxXCQ11VFeUUJ6fzuKQRby5wuJuVXCVkJEYh32KGfveDeTYAoleMYcYHyj8yvuuA65q8n6RSlSDieLVBV/7Frn29nVHf6vESYnELp9FzpMDObY5kYRJ8SROjcGkxX3L3aNz2RsyhzffSL50JSbE3WjwgPtZOusRor7tPkMePem+Z7zv+NEAdP+ynn/945/tru8e41btDgoc1ZTsLsDq0hIzJgZ9iJbkSekUbk4lLtZK/MN29m7Kodo/hpXPxUCI+frzcQ8ExxDFmFGxmF6IJ/eZHFJXzyH2ZcsNbad+fAIJhjxyViWR8GU8phN5ZJU4Lte/9jzmxqZRMjSNHWtiiZ8aTdrCPBY8MY3DY7QUb8imyBVPzBKInjETy6Z0smeOxTF9DPqjuWQXOzA9nUJSCO6LG3HXujNaNE5kk77RitZgJLChkIwVhe4Ton8smVsySQotJ+O5uWRURPPqlkVEOwop2Hv5lKk1m6hbN5e5b0BUVGAnM7WTtzGPap8Ykqa6Qxb9xJkkhjgo2ZRNkX8MK3fuIG2SEWt+FllbrZgmp7GjII3o9oLqQXPIXJVMRNNeMpZnUFChx2Rs1XXhYybGYqfgtSy2VfYjaflbvPWCuZ3EbhIfExZ9MYtnpnM4JKbdAV+d1e6+7uhvFZJMTkEOKeP7YdudRerMsYQPa3luhx3bkRIOn7B9M59TIu4pgwcYWPr093h0+L+T/94/WPTbvwDgPH0GgIbzHbTv24rIWZtF1tossjYVcNhlIvb5HNb/1AQYSXxtDzkvxKItzyXjNwVUm5PJLNhGykN0Yv6VjNNTSbFAyZrUtu8UuZ7gRDJz04g32ShYt4Hi4DmkjG/p+gBcdVhLSjhc4W7FND//FtteicdQuY2sVXlUhyb0qFWyAAAgAElEQVSRtiWbRIO7u2jH2ytJNtdRuDaD7CN6Yl/axp41sXR+2L+4U3lVVFQogAceeOCKGUePHuXhhx++BUVwUPBcOHHrYM7bb2JcOpbU8mgyS/Ywp6N7xm3ZxJlmUTg+h+q8xE78IO1kxxqZtTeGnOodJN6yX3A1WY/2Z25xLDnV20jszDN89i+gf0wG2ucPcGxF9FfKtXB+f8b+RsuiomOkRX7NPG94X19Hg5W8hXEkrLUSn1vHtqnSHCq6Vmfqs69S53kNe/nrFAv1wdKvtf5tZSsid7cNw8NRRFuMaLGTG28kaXcsOZXbbmH9Km6Xto6Zzz777Jrlbn/XyYks0jdZ0Y7KJGV8NNqaWDJm5pGxooDk12LldsdvmpJsUjeXU/6+DXyMmELkLyzEXclVTs5zsyjAQvKSZCyOYrJ3O9BaorFIkCFauc1dJ3YKlmdR5DCR9IK7b944OYWZA8C6OZ0seRXAN075XzaQsTqLvXVmkla8Seqo210iIW6PH3yvjb6Mu0lIMpkbUogdYCNvyVwWrCjEMSqF7Nfm0MUdwuIucwd0nQghRNe607pO5DXx4pvg7uk6EUKIu9RdPcZCiFvkzrjrRAghhBDfSBJoCCGEEKLLSKAhhBBCiC4jYzS+hk8++YRteXkcP34ch8P9qKng4GC+973vERcbS/fu3W9zCYUQQojbSwKNr2jnrl3k5OTQ3NwMQM+ePblw/jy1tbW89dZbFB04wKJFiwgM7OyTSoUQQohvnq7rOqnJZZrRC68BCyjq5Bv1SpZGoPPSEbfuyhdv2Q9mM/fRcPr21KELjSBhUQHW9tI8ksHInl54meZS2FG+VYVkPBdHhKk3Op2O3gNGMmtTB28yBEpKSnjzzTdpbm5m1KhR/GbNGv7nd79j48aNzJ07l4CAAD6vriYjI6NzGy6EuPt1us5zULJxAXERfemtc9dpcfNzKW9wzy18ri9eXl5tTDrGrnXXjY4TeaTGR9A3UIfOGM7YedmUNHRcRHtxNgviR9LfqEPXszf9IxLIKvnaWy7EdXVNoGEvIuPJBeTYOr+KdessklaVXPuuC1suc5+YRdZeG1pLNGZXCXnLE4h7qejaZV3lZMxJpagTB5zjSBZxUWNZsLaAEhsYDYFQcZhqR8dPqtz8//4fSim++93vMvvZZwkKCro0L2rECBa99BK+vr6ctFp5//33OyoJBTP74tVzLFlVHZf7qyqc15/whUVdl4EQ97IbqPOqt84i7pkMCsqhX1QEJkcJBauTiJuX534rtVaP0WBsNQW6337sE4jRoAN7AQvGJ5CeXw6mCMw+Vgp/M4u4J7O53mWSddM0ImJmkZFfRLUjEKMeqstt2HXXWUmIm+AmBxoOyremEhc5lgU7O/k6cFsRGTMj+E5i9qWIvrXqnTlss4Hp6Tc5tm8Ph/NSMPs4KN+ae81VQ/nqWaTu78RruVzlZPxkAQVVYJqcyeHqM5y0fs6ZyiJWTmznFfAeX375Jf/6178A+NGUKW0uExoayojhwwEoKS29fllq8sjebSFpvJXsjXJpIcTd5UbrvGoKNm6j2qUldtWHHC48wLH9K4nWgnVrDgV2iFl1jM+rP780fbgmFiNgmr6ezEl67PlZZJ+AwEmZfHj4AIdLckjqB9XbM8gqbifbimzmzsvB6jISs/wA1ac/52TlGaqLMkns6J1SQnxNNznQsJK3OoOCGhNJLyR17k2hB39L+sYStGNSmDPu2tYE44wd1FWfZM8rV733pKeeK0Y/HMlg1itF6CItHedbnE32QQfo40lbM+fyc/kNFsyG66/6j3/8w519z55XtGRc7YF+/QA4ferUddOzbs6mOCqJV38aj+ONbAqviJPsFL06jYjQ3uiM4cQtWkBC6NhLb1ms3pvOtOj+9O6po2/4WOZuKr/UyuM4kcvcR8PpHdib/o/OJa+iVcI1hWQ8OZL+xt7u5tPoaWQdbCdAqyi41ETbOzSChF8Uuq+6sFOydhZjB3jSGD2LrGL3HD7OYGT4NBbMj2NkRDj9TRFMW1dI3qI4Rn67P31NI5m7teMuKiHufDda5wUS81/b2PZGDosmey5qDEYMPgAOmq5e3F7A4oU5WA1JrFzhfpOptaoaB9BvUARGgOBY4iO14LJS/L9tH1flmzdQaAdtVArr/ysavaeceosFk4zUE13sJgcaeqJmZLLnyGHenG52N/d1JCSWRVuOcezdlcS0c5LXGkyYgqspfHUWYxOzKNeaSX55DpaW9Fu6TLQxLPtV8nUPHMfWafR+NMM9xqMhj2STDp3OPfV+NIuOrklagovz589fdznnhQvu5Tz/tq2c3M1WYqfHYxyVTFKfPLLy7Zfm2rfO5YevwZyCz2n6ZBtJ1QWe16oDJ7KYNiUHZu/gZF0dH2bFUL4wjgU7HeAqISNxASVRmZSdPsOB/9JTsr9lyxwULJxGFnPYYz1DU10ZmUMOs3hZThvbbiVj5jQKDKkcqGzi871z0L02jQXbHdi3ziVuRR3xb5ykqe4k2ybXkTElmdyWpmNrASWhK9lz+BiHV4RT+Nw0skNWsufvJzm2wkTe0qxOj90R4s51o3WeFtOoWOKnxxMd7P6mfGM2extAa4kh5qqXkZWvTSenQkvMwmXEe5Y3GIxoAZvV6gn6q7HaABxYK68NNArn9Sdiibur2VGcSrjucp0XsUxaUUXXu8mBhpGYp5OJuZE3cloSSZls7vi1464ScldlU1jhQGsyY271qvXy1bNILdYRsySTOebr560dt4z1003u/49ZSVHJYQ6XHOZwyTE+fCOZ63ecgMlkwtfXF6fTSXFxe+2U8Nf33utoi2B/Njn2eBLHaQEzM2dY2LuupZ/VTsHmAkzPLCN5kBb8zSQun0O0Z/Os2/MoiUzh1elm9D5ajGMWsWy6lrzNhThKtpFTGUPKCzEYfcA4JpVFk1q2TEvM8gMcWJOISevAXmVHGxhIU40d+9XlO5FHXkkUc16Jx+QP2geTydy5g5QoBwWbCzA8k8acKD346LH8dCVzTHvJ2elJxSeKxOlmtIB+kBmTfxRJU1t9Pm27Nj8h7jpfoc5rxbp5GgkvFVLnuXgytZ7pKCTrtSIchgTmTL88xzgpmYQQqN48l7gn5zL3ibhLXcaOhmtbJqMXrifFogW0RC/c4anv3HXejuctX6ncQtyIu+eBXT4xZFqbqPsgk5jTeSyI/yEZH3O5y2TUIjJnd/zOQMfuxcza6D6VO/amEm2JIMISQUTkSBa3Hzdc4ZFHHkEpxcbf/55//vOf18x/7bXXsNs7Oo06KNiUS3nlBqYN6Evf0L58Z0khdfuzyT4ILVcphpBWoU+wCZOnPquurkYbYrwiMDKFGnHUVOOw2bAFGjBcqvu0GEMvNxc5rAUsnhJO3z79iU5cwIaSOrh2aC2crqbO34ixVRSof8iCObiO6howtS4bRowGsNs87SI+gQReCga1gA7tFZ/bzFGIe4Z10zTiZuZQ7jISu2IbK8dcGaw4dm4gtwqMExOJbX0lFhzP+rfXM2eUlvKt2eTVRJA8yR2I6P2vDXiKVswio8QBOChaFeeu7ywRRETNpaATA+eF+LruikDDYbNS3aBFq9Wij0wmeZQWGg5TsLca6648DjdA3d4FhGu88DLOosABVGQxVtefuXuvTEs77lUO/DaJQB/AP4a0fS3R/QEyx3fuqiQhPp7777+fhoYGlixdytrf/Y6CggL+9Kc/MT8lhff27WPw4MF4eXm1n0hNHtnbDSwqKOPDgx+6p5Jj5Ey1k7uuAAdGDMFgq2rVoVFTTbXn7Gw0BuKoqr6iu8NqrYZgI1qDAcNpG7ZLZ3IHdac9gY+riLQnF1M9fhsnT3/OsaIdvDrpiuuoy/oYCWyoprpVzGTdmk7GzvMYg919xa3mUF0FekOr4EP6foVok/vOE0+QsWoH235q5qowg8LthdS5AokZH8PVNZPWkkxm4UnONDXxedF6YvztgBaT6dpjOXrhDnKe9rTiWlLY4WnROHZwPUkdjEkT4ma49YGGw4G9wYGjk/3zRfP7ozP2Z+ySQvcVcEMRRR87AJ37ltRgE2aLBUvLNMjkDiK0gZgGmTD6X5Wg3oh5+nPMHADYC8leWwIhZswPmtA3lFCwt+NBij179mTpkiV85zvfwel0sn//ft7MyeEPW7bwxRdf8P2xY/k/YWEopdoNNqq3ZrPXlEDSqNa3sZmInx4P+Vnk2PTETo3FunExuR87wGEl75WsS4NFTRMTsRzM4IVN5ThcDqr3prN4s4P4ydFoLUkkDSgkY0kB1Q6w788gfasnKHDZsTdo0er1aAFHRR7pawvBhWeyUpRfQHkN8GAs8ZYSspYXYHW4B5guXppNucvAmMmx2F5LJeugHVx2StamkmUdQ/y4DjvBhLi3XFXnOUrS+eEz2Z4gYw/bfmq5JpDAdZii96tBayEq8qq5JRnEhfel7+h0yl2ArYC8vXXgYybme9cGGtoQM/Gzk4n2B8fBXLJ2OzA+ZMb0oBHHx3kUHumKjRailYqKClVRUaGuduTIkWu+uyF/T1MWLYoHU9QBZ8uXdWr9RK0CrUrKu3aVbdPd82Jf+/yKdKL9UaBVpqgYZemnVYDSRi5SB5rayLd6vYrVoug3R+1xtjG/pST7FqnoYBSg8A9Uxn5GpfVBmZ7fc2ObeeSIevvtt1VWVpb6w5Yt6ujRo0oppT799FM1f/589e7u3W2sdUylRWlV9KqT185yHlApD2pV9IpjSqk6tWd5vDIbtEprMKvY55NUtH+Myqx0L/r5u2kqPtKoAv0DlXFQrJqz4Zi6tEusO9Si8WYVqA9UplHJKmW6WZlfOKCUUurkG8kqul+gCjQYlckSq1JeSVYWQ5La9qVS6vR6FetvUin7POlU7lCLJpqVUR+oAh+MVslrDqg69x5UB9Ykqeh+gUrrH6jMY5JVZpF7jipfqaL1SWpby/5v63Nwq89CdLHO1Ge3ps77XK2fGOiud9CqQINRGVumkHi1vrpltRwV748ipI16rOmASjF76sTIy3Wiafo29blqT5M6tiZWGX3cdZ5Wb1QmQ6DStlMXC9EZbR0zLTFF6+nODzSUUnX7VqrkMWYV6K9V2mCzipmxUh043U6+nQw0lFKqqXybSpseo8whgUqrDVRGc4yak9vGyf82qfv7AXW4slU09YnnBP3l7SuTEHejOybQaAkgaGPSXr6IUOUrVbQWRWSaOtZGPdZ0eL1KHmNSgVqtCgyxqPiXtqmTbV14XeXzd1eq5PEWZdJrldbfqExRSSrz8NfbbHHv6myg4VVRUaEAHnjggStaOo4ePcrDDz9885tQXOWkRydQl3GMlaNufvK3QvPn1Xj3dY9FUE2VeOlCsV9ooOGigxBdME1nGlHNCr/gHnzeeBGNN/TRdrvhfKyvjuQ7O2N5Z8siov2rKVgYx7QTcygr6PjuGCHEZZ2pz6TOE+LGtHXMfPbZZ9csd4uH69kpfGkW2fpkdkTd2pxvli9/8jNU6d/Rpi1G47cUzv0DFfk23z74Bl846/n76F/y96f3ctHVzHc3T2PArmp6dvPi1H/82w3nZZqdyaufzGWaOY1qjJjHJPLmaxJkCHH3uPvrPCG+rlscaOgxT8/kwCsWjHfpHQk+/b7F+X8cx0uvh279UOdteGl684A2CFezix4+Wnz13bl4/iIaL+ijgSDf69x9cj3+FpJfO0Dyazd3G4QQt8rdX+cJ8XXd+q4TIYS4xW5r14kQ31Cd7Tq5K56jIYQQQoi7kwQaQgghhOgyEmgIIYQQostIoCGEEEKILtNuoOHt7U1zc/OtLIsQQtx0zc3NeHt3fE0ldZ4QndfZ4wquE2j06NGjE28gFUKIO5vdbqdHjx4dLid1nhCd19njCq4TaNx3333YbDbOnDkjUb4Q4q7T3NzMmTNnsNls3HfffR0uL3WeEB270eMKrvMcDYCmpiZOnTrFuXPn5MATQtxVvL296dGjB/fddx86na5T60idJ8T1dXRc3fAjyHU6XZsBiBBCfBNJnSfEzSd3nQghhBCiy0igIYQQQoguI4GGEEIIIbqMBBpCCCGE6DLXHQwqI7CFEEII0eKr3M3VbqDR1NSE1WrFYDAQGhra6SeACSGEEOKbqbm5GbvdjtVqxWQydSrYaDd6OHXqFAaDgd69e0uQIYQQQgi8vb3p3bs3BoOBU6dOdW6d9macO3cOvV5/0wonhBBCiG8GvV7PuXPnOrVsu4HGjbwwRQghhBD3jht5CaFEEkIIIYToMhJoCCGEEKLLSKAhhBBCiC4jgYYQQgghuowEGkIIIYToMhJoCCGEEKLLSKAhhBBCiC4jgYYQQgghuowEGkIIIYToMhJoCCGEEKLLSKAhhBBCiC4jgYa4eY6t4dEhCWSUVlG8cTFJEx7BPCgc89BHmfizNfzp0/NXLH46dwZDEn7HidtU3HvLp2QljGDiqlLOd7zwVeo5vPFnTBxpwTz0UWb+rpT6r1qMqlyShk5k6b6vnELnXSxn+bhw+pstmId4pqEJZB3r+qyv5/yBxYwYPoNNn97ecghxq0igIW6S8xRv2U3Asz/jwTdmMjO3nug5v+bd3e/xbu4ypge+z9IfzSDryOXTXJ/xCUR/toM/HbmNxb5XHNtH2b+/wOqfDaH7Da/7e37+63r+4433KX1jAqezlrHls69WjMqiUnrNWcFLowO+WgI3opuZl3JzefnJCcz6xVuUlpZQfmgbc8K7Puv21VN84DSPpa1g+r/fznIIcetIoCFuku5E/fd2csJ384vCf+Ol9b9mzvghhBr6EBo2nCn//TvWTqghMy2XypZVAkfz2NAq3v7j3664yj6971WSYiz0HzSCR2a8yp9aTmoXT1O8fiE/HDcC8xALQ8an8dfGa0ty+sDveO4Hj2AeZGHIuBks3fapO/2LpSwf9wg/P3DVChf38fPRIzAPCad/WPjlq99Ln0cwM/c0cJ6yLYv54egRmIeM4JHpaWw5fr7jfAGqdpPx7ESGDHKneWkaspBdF93zl89IYGlhOVvmPIp5kIURP1p8edupp2zTQnfeg0Yw4kcL2VTaqlXAto+MWRMZMsSCeWQCz2X9jdOt9+fcNeza+SrJs258f9Ldl+4+0L1Hd7r3DibArw8Bfm3/Cio3zXCXwRxO/0EWzMOfZYsNds0fwaO//pTQKSv47Qwz57c9izkxl9NH1jBxqAXzoKtaHlo+t7RAVO1mecv2DZ/IzBW7qbzozvOvC0fw6KryNstz+vj7FB/Yx9a0mfxwYS5lrXZZ5cZERjy77dJ+urzSNmaOnMGmKvfHE1kJDJm/+/L8479j4vCF/NWTf+XONJLGPcIjEyYy8dk17NqykBExaRz+6OptG8HzO7tDTSnFR2rcKx9bw6OjF7ex3z8l60eP8Nw79fDp75g49Fm2tCpo2a8nMuRnu796y5K4d9SXsn7Z7/jrNT90t/PHclm+6vLx1CUqKipURUWFutqRI0eu+U6IjhS9Mlo99JO31Nm2Zpb9Wo17+Cn1RrXns+M99WK0WZmiU9Xec57vXMfUyrjRavZblcpx5oTamfOW+vCMUkqdVXuXTlCjf7JBFVU6lFIOdfbUWeW4Oo+KHJX4nXHqP986oc66HOrU+79WCcPGqRffO6uUq0Slf3+0evF/2yn833+txg1LVXtdns8Hl6nRY5apopbPJSvUuGFPqcy/n1XKdUp9uPYpNXzMMlV0rqN8j6mVcUPU6Oc2qKJ/VKpPDr6l/vP7Q9S4X72vTp1pmT9cJWSWqLNn3lIzHp6gVpadVZ9seEoNn7JBfaKUOrV9nho+6idqXclZpVxn1dE3fqKGD5un/nhKKaVOqT/8ZLga9/N31T8dSjkqtqsX44arxDcqv/7+dP+h1IfLJ6jB8fPU7Kd+ola+d+p6PwGllEP98bkhasLaE5e+2fn8cDXu/17+fPatn6iHpuaolpT+uWHqFb+bTzLj1UPz3nV/cB1TK/9juJqw1LN9le+qJf8xXI3LOKaUUmrvC5f/f4WKDSph8Dj1nwXuXBxlOWr2tGVq7yl1aZ/P3u7J8ewJVXTwhCf/s+qPzw1XEzJPXCrL4OffvZzuP9aqCcNecP9OTmxQCYMnqCXvudc89V6qGveQWQ1+4b1L+/KfG6aqh5Ivb9vl8jpUUepoNTz1fc+yp9TR/y1R/3RcXm/wUznqlKpU66YOVzP+cOry/nh8tPrPPW3/tYS47IRaN3W4Mg0wq4ce9/z2W3H8fYNKHGZWpgFmNXrp+23X29fRVpzQElO0nqRFQ9xE5zlbU0+vPiG02TDeJ5g+1HDqjPtjfeE2/vpAItND9rGl0HNt1s0XrQ84Gs9D4L/zeGICEYHAsd+TsW8IL6+YQVRId6A7AX0CrukGqNz9DocHPcVLCf9OQLfu9Bk+j5d+ALuuajX5Ksre3Uf9ozOYNSgAuvUh4umFPNH9HbYcOH/9fI+8w9u20cz/xQyiwkJ4cGgCL8///+3cf0gcZx7H8fdhYEpCHjE4i0dXLCo9trYweoFVC5tYWGvoWgOGhKZNqWVLbSyVtESa0JAWgxGlaSP1amkaQ6Qe5LIlpls0t1A5ofUWPLNgVa5oSNgtkX0kixMimZLl7o9ddU3zY3Mae6XP6y/ZYed55svszGeeZx5dRANDhIWACT/npQuv10AAVkY2Nl1QuKuWkn/7uTBtMugfQt+1H68hIENQtGd/om6DEswgA//MZ2eDm1wNtDwPB70Goz4/UyusJ1hMnTvC4X4oJMRgrIByQ8eSEcJr9Tg94ef8VScNTcnjs7s52OAi6vcxeo+nsPC3AcafeIG3t+kAaE/spqE4yOGuIMiLDEcclG1OnqmTf2Vf01dMxQEEJZvzmRoJ/nK04/Y2hgKMP/Yce5JTQbrrFWoKNIoMx/2nqOKX+P6iRYkzOZ0VD9HZ0Mz55EhKrrMU21iQf1l2ajwORvuHEv0Z83Phhouapx94Ekz53dEpeTo/cV2Z7uWNl48sjmxYY9286m1nOAZodsqc+Xe+bq8CFTSUVaSRmSWYuybvPKQrZ5FsxLYJQDLgC1Kw/XXerMnn+3OB5EW9gOd3OxhtrsaxeWl4WoYuMuVwUnafX4KUs2i6HT3lMz0nGytmrniYOTwj0XMeXbqBZGSTm20Rlea9270mmcuyk7thaZvIK8AWk0QBYibWBoFt3W0NZmjAdebmTcwY6Dmpe7djzwFTmiAjSHTsKZvFH+1kXptFxldWT8Y+Y++Raaq6znK2t4s31/vY93YXnxzYwUvHQ2nXbkWkZE7YsaXcV7VH7diumYn63YUpr6Pl2MlN+cyWk030x2nktVnMdTq6fufv2nJ0iJnM3W3n8YU2ZiFLx7a4QSB0ncKCu+x4+YEhYwI9J3lgt27brGej3zKRJuhuDyUTfgZmLEb7A1juWraqnKHcl6CkoYuTjUZK2DhEX6BrWcjY2fYlrdvSOWf/NypoKKuqxOUi8ztfyrsFCyyGfX7Cj7soywGu+DkzZrDTraNv81AylvyOGeDoh5eoOPZ3Jkfa2JqR+La2ToOZyNL7HXeh69lYVyPLnkRlZBYtS6wwrVtYcQspZ5c+is8SndWw6eLe7W7SyTQl0ZQbiTUrMYVI3KDy8rHLiwxfvq3FsSDjmkFJgUBkgZxJ3XuEyAwIXYD1M1bcRMaWtppXJTc3ZaPfWFk95dhFwnopW/+kgeagobONZ3/qoPO7fPbsNtKsHTyiaVjW9aVjm7dgvZbei6mbdDJjEaIpQ1LWTxGim0TKDf6XbPZsrJ+WH2M0MgsbBJrYiLglMZOja9wwuXljKYyaMRM2CjIX+5sSVM3ri38LPRsWAiMkzokZydSVdGKtjhAmZix5YPMmN+M/c3PhfY2YiblOIDYAupuazZcYCAToC2g8W51+7ZXfu9vDho99DR1rFjJABQ1llWnPvMWBLZdo8TZyIjBJOGYip0OcOVrHG30b8R6qoxAYP/cVU6W1VGQBWW5qSi/Rd24a4iY3LdCEQLMko70ddA5JhMtNWeQU7zb7GY/dvf1ct5uiyVO0+KYx4xYy2EGL36LC43zw1RZ3EO3v4sSECXGT0e7j/M1yU+PU7t3uUx6e14foPD5E2AJkkE86A4gqD0UZQF4t3m3X+fxgOwPTJmARDfXy7gE/+muvU7VeUFHlItzbzolQou3xnnZ6Ik5qXMkLxK0gPV1DyDhYVwK0nAhSWOOmcIX11A0nhREfnb5JzHmTqZEQU6ZAbJikryfRXjqKih3MBXoZiFgQC3H63CSFxUZ64e8pD8/nBOlsCxC2wIoEaOkcwuZO1u9ufXfXUnH5FIe7Q5hxkCNdtPgkFR4nwu6i4rFJzpyZxIpL+vzT2DZNMPCthPlJTvsmKXzauThCZY34E8uz45IBX4BwMjTmPuOmKPINZ0YSYSHc3835CEyPpTHak5FPRblgsNfHVNxiyh8gYodhfwgTk+HebwgbLsrXAwgqtjuZ/rydC+vd1DyVTuEUZcHysAGsWcgAFTSUVadTc+wsJ3cLBo/VU1leimtXEz2RYj7o7eUdQ4N4iDN+k4oaV/KkF1R5XEj/V4wKDwebDMb3b8GxuZp9/RI9W0BOLR9/9jq5oXZ2lBezZc+hZSs+FuXV8ekxD1b3qziNUtzvXaSoqYvWZ1Zn9jG32M73TdU4jC3s7Rc0HH+PreI+7WY4eKezmbIf26l2FuPwHGHcaOaLxaWmgqrmk7QaExytb2d4PsSJo360um5OehNrIPXtzZz0Cvre2oLDqGSvX+D9rI2dOcmOaQZFVhc7nMUYte1EXW18+nIBZK2wnk/U85c2D3PddTj/vIWXjk9Q9P5Zhk7vJzfkY/BqenXTa9+j1S05ur0UR0Ujw4/v5yNvmus7F+p3JbGKw9jVQbi8mS+a7rNUV/fQ2vECj/Q14jSKcTcNYXuzi1aPDhTgbXkLW38dzvIX6W/wIS8AAAFUSURBVNEb+bK7Hq37RQxXHRfy9vNR3VL/NLvGYGMlpa4ddM7nU7jQcF4dHzW7GD9UTaWnmr3n7Bx43w0jQcbvG8I0yhrbeC3jFDuclez9h0Hr6Y/ZYzZTubmSfWMGH7xfuxh2hMvD1rhE9zx3z4ClKHeWEjbWMGQA/OHy5cv/AcjLy1u24YcffuDJJ59ck04oyoOwZkL0tTVxOPYKQ927WZufikVfYyknHGf5uv4h/gOEmI8XK/xUBbrZk+6BTXRQ+XKEg8GlqZEH8evU87djqrOWHdP1hI65f+2uKMoqsDCllZh2XaE75YQrV375T3Zuf/1MUf6/WSYmGto6ki9LKiui6qkovzMaQl/b37oKGspvSrinnsoPJ8ksrqX1aK16+l4hVU9FUR42NXWiKIqiKMoDS3fqRL0MqiiKoijKQ6OChqIoiqIoD40KGoqiKIqiPDT/BT1WgHrg8A1qAAAAAElFTkSuQmCC;" parent="1" vertex="1">
          <mxGeometry x="1760" y="-4.200000000000003" width="271.62" height="353.41" as="geometry" />
        </mxCell>
        <mxCell id="hvf4bfHNcFgB4ICie03p-48" value="&lt;span style=&quot;color: rgb(0, 0, 0); font-family: Helvetica; font-size: 12px; font-style: normal; font-variant-ligatures: normal; font-variant-caps: normal; font-weight: 400; letter-spacing: normal; orphans: 2; text-align: center; text-indent: 0px; text-transform: none; widows: 2; word-spacing: 0px; -webkit-text-stroke-width: 0px; white-space: normal; background-color: rgb(251, 251, 251); text-decoration-thickness: initial; text-decoration-style: initial; text-decoration-color: initial; display: inline !important; float: none;&quot;&gt;Sort by price&lt;/span&gt;" style="text;whiteSpace=wrap;html=1;" parent="1" vertex="1">
          <mxGeometry x="1440" y="70" width="100" height="30" as="geometry" />
        </mxCell>
      </root>
    </mxGraphModel>
  </diagram>
</mxfile>
